%TF.GenerationSoftware,KiCad,Pcbnew,(6.0.5)*%
%TF.CreationDate,2022-08-15T13:00:56-04:00*%
%TF.ProjectId,SilverSat_Comms,53696c76-6572-4536-9174-5f436f6d6d73,rev?*%
%TF.SameCoordinates,Original*%
%TF.FileFunction,Soldermask,Bot*%
%TF.FilePolarity,Negative*%
%FSLAX46Y46*%
G04 Gerber Fmt 4.6, Leading zero omitted, Abs format (unit mm)*
G04 Created by KiCad (PCBNEW (6.0.5)) date 2022-08-15 13:00:56*
%MOMM*%
%LPD*%
G01*
G04 APERTURE LIST*
G04 Aperture macros list*
%AMRoundRect*
0 Rectangle with rounded corners*
0 $1 Rounding radius*
0 $2 $3 $4 $5 $6 $7 $8 $9 X,Y pos of 4 corners*
0 Add a 4 corners polygon primitive as box body*
4,1,4,$2,$3,$4,$5,$6,$7,$8,$9,$2,$3,0*
0 Add four circle primitives for the rounded corners*
1,1,$1+$1,$2,$3*
1,1,$1+$1,$4,$5*
1,1,$1+$1,$6,$7*
1,1,$1+$1,$8,$9*
0 Add four rect primitives between the rounded corners*
20,1,$1+$1,$2,$3,$4,$5,0*
20,1,$1+$1,$4,$5,$6,$7,0*
20,1,$1+$1,$6,$7,$8,$9,0*
20,1,$1+$1,$8,$9,$2,$3,0*%
G04 Aperture macros list end*
%ADD10R,1.800000X1.800000*%
%ADD11C,1.800000*%
%ADD12C,2.600000*%
%ADD13C,3.800000*%
%ADD14C,6.400000*%
%ADD15C,3.600000*%
%ADD16R,1.700000X1.700000*%
%ADD17O,1.700000X1.700000*%
%ADD18RoundRect,0.375000X-0.875000X-0.375000X0.875000X-0.375000X0.875000X0.375000X-0.875000X0.375000X0*%
%ADD19RoundRect,0.375000X0.375000X-0.875000X0.375000X0.875000X-0.375000X0.875000X-0.375000X-0.875000X0*%
%ADD20RoundRect,0.200100X-0.949900X-0.949900X0.949900X-0.949900X0.949900X0.949900X-0.949900X0.949900X0*%
%ADD21C,2.500000*%
%ADD22O,1.900000X1.200000*%
%ADD23C,1.450000*%
G04 APERTURE END LIST*
D10*
%TO.C,D1*%
X113823000Y-112796000D03*
D11*
X113823000Y-115336000D03*
%TD*%
D12*
%TO.C,H10*%
X183642000Y-136652000D03*
D13*
X183642000Y-136652000D03*
%TD*%
D14*
%TO.C,H3*%
X110490000Y-144150000D03*
D15*
X110490000Y-144150000D03*
%TD*%
D14*
%TO.C,H6*%
X190500000Y-144150000D03*
D15*
X190500000Y-144150000D03*
%TD*%
D16*
%TO.C,H2*%
X119380000Y-60970008D03*
D17*
X119380000Y-58430008D03*
X121920000Y-60970008D03*
X121920000Y-58420008D03*
X124460000Y-60970008D03*
X124460000Y-58420008D03*
X127000000Y-60970008D03*
X127000000Y-58420008D03*
X129540000Y-60970008D03*
X129540000Y-58420008D03*
X132080000Y-60970008D03*
X132080000Y-58420008D03*
X134620000Y-60970008D03*
X134620000Y-58420008D03*
X137160000Y-60970008D03*
X137160000Y-58420008D03*
X139700000Y-60970008D03*
X139700000Y-58420008D03*
X142240000Y-60970008D03*
X142240000Y-58420008D03*
X144780000Y-60970008D03*
X144780000Y-58420008D03*
X147320000Y-60970008D03*
X147320000Y-58420008D03*
X149860000Y-60970008D03*
X149860000Y-58420008D03*
X152400000Y-60970008D03*
X152400000Y-58420008D03*
X154940000Y-60970008D03*
X154940000Y-58420008D03*
X157480000Y-60970008D03*
X157480000Y-58420008D03*
X160020000Y-60970008D03*
X160020000Y-58420008D03*
X162560000Y-60970008D03*
X162560000Y-58420008D03*
X165100000Y-60970008D03*
X165100000Y-58420008D03*
X167640000Y-60970008D03*
X167640000Y-58420008D03*
X170180000Y-60970008D03*
X170180000Y-58420008D03*
X172720000Y-60970008D03*
X172720000Y-58420008D03*
X175260000Y-60970008D03*
X175260000Y-58420008D03*
X177800000Y-60970008D03*
X177800000Y-58420008D03*
X180340000Y-60970008D03*
X180340000Y-58420008D03*
X182880000Y-60970008D03*
X182880000Y-58420008D03*
%TD*%
D13*
%TO.C,H9*%
X142113000Y-117348000D03*
D12*
X142113000Y-117348000D03*
%TD*%
D14*
%TO.C,H4*%
X114300000Y-58420000D03*
D15*
X114300000Y-58420000D03*
%TD*%
D12*
%TO.C,H8*%
X145161000Y-136652000D03*
D13*
X145161000Y-136652000D03*
%TD*%
D16*
%TO.C,J6*%
X123485000Y-97125000D03*
D17*
X126025000Y-97125000D03*
%TD*%
D16*
%TO.C,J5*%
X126106000Y-108204000D03*
D17*
X123566000Y-108204000D03*
X126106000Y-105664000D03*
X123566000Y-105664000D03*
X126106000Y-103124000D03*
X123566000Y-103124000D03*
%TD*%
D12*
%TO.C,H7*%
X183642000Y-117348000D03*
D13*
X183642000Y-117348000D03*
%TD*%
D18*
%TO.C,S3*%
X152682107Y-133018835D03*
X165082107Y-114318835D03*
D19*
X180382107Y-130418835D03*
%TD*%
D20*
%TO.C,J2*%
X190881000Y-123698000D03*
D21*
X188341000Y-121158000D03*
X193421000Y-121158000D03*
X188341000Y-126238000D03*
X193421000Y-126238000D03*
%TD*%
D22*
%TO.C,J1*%
X108759994Y-106924990D03*
D23*
X111459994Y-100924990D03*
X111459994Y-105924990D03*
D22*
X108759994Y-99924990D03*
%TD*%
D16*
%TO.C,H1*%
X119380000Y-66050008D03*
D17*
X119380000Y-63510008D03*
X121920000Y-66050008D03*
X121920000Y-63500008D03*
X124460000Y-66050008D03*
X124460000Y-63500008D03*
X127000000Y-66050008D03*
X127000000Y-63500008D03*
X129540000Y-66050008D03*
X129540000Y-63500008D03*
X132080000Y-66050008D03*
X132080000Y-63500008D03*
X134620000Y-66050008D03*
X134620000Y-63500008D03*
X137160000Y-66050008D03*
X137160000Y-63500008D03*
X139700000Y-66050008D03*
X139700000Y-63500008D03*
X142240000Y-66050008D03*
X142240000Y-63500008D03*
X144780000Y-66050008D03*
X144780000Y-63500008D03*
X147320000Y-66050008D03*
X147320000Y-63500008D03*
X149860000Y-66050008D03*
X149860000Y-63500008D03*
X152400000Y-66050008D03*
X152400000Y-63500008D03*
X154940000Y-66050008D03*
X154940000Y-63500008D03*
X157480000Y-66050008D03*
X157480000Y-63500008D03*
X160020000Y-66050008D03*
X160020000Y-63500008D03*
X162560000Y-66050008D03*
X162560000Y-63500008D03*
X165100000Y-66050008D03*
X165100000Y-63500008D03*
X167640000Y-66050008D03*
X167640000Y-63500008D03*
X170180000Y-66050008D03*
X170180000Y-63500008D03*
X172720000Y-66050008D03*
X172720000Y-63500008D03*
X175260000Y-66050008D03*
X175260000Y-63500008D03*
X177800000Y-66050008D03*
X177800000Y-63500008D03*
X180340000Y-66050008D03*
X180340000Y-63500008D03*
X182880000Y-66050008D03*
X182880000Y-63500008D03*
%TD*%
D18*
%TO.C,S1*%
X114180000Y-139192000D03*
X126580000Y-120492000D03*
D19*
X141880000Y-136592000D03*
%TD*%
D14*
%TO.C,H5*%
X187960000Y-58420000D03*
D15*
X187960000Y-58420000D03*
%TD*%
G36*
X162112131Y-120313613D02*
G01*
X162148676Y-120363913D01*
X162153600Y-120395000D01*
X162153600Y-127737600D01*
X162134387Y-127796731D01*
X162084087Y-127833276D01*
X162053000Y-127838200D01*
X149300200Y-127838200D01*
X149241069Y-127818987D01*
X149204524Y-127768687D01*
X149199600Y-127737600D01*
X149199600Y-120395000D01*
X149218813Y-120335869D01*
X149269113Y-120299324D01*
X149300200Y-120294400D01*
X162053000Y-120294400D01*
X162112131Y-120313613D01*
G37*
G36*
X162144261Y-120287552D02*
G01*
X162154941Y-120291976D01*
X162156024Y-120293059D01*
X162160448Y-120303739D01*
X162160600Y-120304504D01*
X162160600Y-127828096D01*
X162160448Y-127828861D01*
X162156024Y-127839541D01*
X162154941Y-127840624D01*
X162144261Y-127845048D01*
X162143496Y-127845200D01*
X149209704Y-127845200D01*
X149208939Y-127845048D01*
X149198259Y-127840624D01*
X149197176Y-127839541D01*
X149195792Y-127836200D01*
X149201600Y-127836200D01*
X162151600Y-127836200D01*
X162151600Y-120296400D01*
X149201600Y-120296400D01*
X149201600Y-127836200D01*
X149195792Y-127836200D01*
X149192752Y-127828861D01*
X149192600Y-127828096D01*
X149192600Y-120304504D01*
X149192752Y-120303739D01*
X149197176Y-120293059D01*
X149198259Y-120291976D01*
X149208939Y-120287552D01*
X149209704Y-120287400D01*
X162143496Y-120287400D01*
X162144261Y-120287552D01*
G37*
M02*
