M48
; DRILL file {KiCad (6.0.5)} date Sat Aug 13 13:24:02 2022
; FORMAT={-:-/ absolute / inch / decimal}
; #@! TF.CreationDate,2022-08-13T13:24:02-04:00
; #@! TF.GenerationSoftware,Kicad,Pcbnew,(6.0.5)
; #@! TF.FileFunction,Plated,1,4,PTH
FMAT,2
INCH
; #@! TA.AperFunction,Plated,PTH,ViaDrill
T1C0.0100
; #@! TA.AperFunction,Plated,PTH,ComponentDrill
T2C0.0100
; #@! TA.AperFunction,Plated,PTH,ComponentDrill
T3C0.0236
; #@! TA.AperFunction,Plated,PTH,ComponentDrill
T4C0.0315
; #@! TA.AperFunction,Plated,PTH,ComponentDrill
T5C0.0335
; #@! TA.AperFunction,Plated,PTH,ComponentDrill
T6C0.0354
; #@! TA.AperFunction,Plated,PTH,ComponentDrill
T7C0.0394
; #@! TA.AperFunction,Plated,PTH,ComponentDrill
T8C0.0591
; #@! TA.AperFunction,Plated,PTH,ComponentDrill
T9C0.0669
; #@! TA.AperFunction,Plated,PTH,ComponentDrill
T10C0.0866
; #@! TA.AperFunction,Plated,PTH,ComponentDrill
T11C0.1260
%
G90
G05
T1
X4.2Y-4.815
X4.2Y-4.88
X4.2Y-4.94
X4.2Y-5.0
X4.2Y-5.06
X4.2Y-5.12
X4.2Y-5.18
X4.2Y-5.24
X4.2Y-5.3
X4.2Y-5.36
X4.2Y-5.42
X4.21Y-4.745
X4.215Y-5.48
X4.27Y-4.745
X4.275Y-2.3
X4.275Y-5.48
X4.2998Y-5.19
X4.3Y-4.675
X4.3Y-4.815
X4.305Y-5.4
X4.33Y-4.745
X4.335Y-5.48
X4.3488Y-4.123
X4.37Y-5.24
X4.3795Y-4.28
X4.3795Y-4.34
X4.39Y-4.745
X4.395Y-5.48
X4.4348Y-5.045
X4.4348Y-5.075
X4.4348Y-5.135
X4.435Y-5.1
X4.45Y-4.745
X4.4709Y-5.3455
X4.481Y-4.81
X4.481Y-4.8748
X4.49Y-5.02
X4.5109Y-4.7459
X4.52Y-4.98
X4.525Y-5.075
X4.525Y-5.115
X4.525Y-5.155
X4.5358Y-5.3809
X4.545Y-4.975
X4.5654Y-5.2451
X4.5698Y-4.99
X4.5698Y-5.075
X4.5698Y-5.115
X4.57Y-4.745
X4.57Y-5.155
X4.585Y-5.675
X4.589Y-5.2451
X4.59Y-5.48
X4.5901Y-4.6851
X4.5949Y-5.4104
X4.615Y-5.075
X4.615Y-5.115
X4.615Y-5.155
X4.63Y-4.745
X4.65Y-5.48
X4.6559Y-5.4281
X4.68Y-3.845
X4.685Y-4.32
X4.69Y-2.805
X4.69Y-4.685
X4.69Y-4.745
X4.695Y-3.335
X4.7048Y-5.075
X4.705Y-5.155
X4.71Y-5.48
X4.715Y-5.4281
X4.75Y-4.745
X4.7598Y-4.9
X4.7598Y-5.025
X4.7598Y-5.225
X4.76Y-3.42
X4.7659Y-4.7909
X4.77Y-5.48
X4.771Y-4.085
X4.785Y-3.215
X4.795Y-3.705
X4.8Y-2.98
X4.8Y-3.04
X4.81Y-4.745
X4.8198Y-4.9
X4.8198Y-5.025
X4.8198Y-5.225
X4.8198Y-5.265
X4.83Y-5.48
X4.84Y-2.95
X4.8648Y-5.33
X4.87Y-4.745
X4.875Y-3.1
X4.875Y-3.16
X4.885Y-3.215
X4.89Y-5.48
X4.9498Y-5.38
X4.95Y-5.48
X4.98Y-3.2545
X5.01Y-2.895
X5.01Y-2.935
X5.01Y-3.2545
X5.01Y-5.48
X5.03Y-5.055
X5.0598Y-5.225
X5.06Y-4.06
X5.07Y-5.48
X5.0798Y-4.9
X5.095Y-3.835
X5.105Y-4.745
X5.1198Y-5.225
X5.13Y-5.48
X5.1332Y-3.0768
X5.1332Y-3.1068
X5.1398Y-4.9
X5.15Y-5.055
X5.155Y-4.095
X5.165Y-4.745
X5.19Y-5.48
X5.22Y-3.755
X5.22Y-4.07
X5.22Y-4.205
X5.225Y-4.745
X5.245Y-4.41
X5.25Y-5.48
X5.2648Y-5.205
X5.27Y-4.2115
X5.285Y-4.745
X5.3098Y-5.205
X5.31Y-5.48
X5.315Y-4.14
X5.315Y-5.01
X5.3375Y-3.1418
X5.34Y-2.835
X5.3425Y-2.86
X5.3425Y-2.8825
X5.3425Y-2.9125
X5.345Y-3.86
X5.345Y-4.375
X5.345Y-4.745
X5.345Y-5.01
X5.345Y-5.07
X5.365Y-3.975
X5.366Y-4.105
X5.3675Y-3.1418
X5.37Y-5.48
X5.38Y-3.575
X5.385Y-3.955
X5.405Y-4.745
X5.425Y-3.96
X5.43Y-4.015
X5.43Y-5.48
X5.435Y-4.44
X5.44Y-4.195
X5.445Y-3.67
X5.46Y-3.96
X5.465Y-4.195
X5.47Y-3.99
X5.475Y-4.745
X5.49Y-5.48
X5.5Y-5.135
X5.5029Y-3.865
X5.51Y-3.98
X5.51Y-4.905
X5.52Y-3.525
X5.52Y-5.01
X5.52Y-5.07
X5.5214Y-4.2888
X5.53Y-4.87
X5.53Y-4.94
X5.53Y-5.17
X5.535Y-4.745
X5.5494Y-4.4598
X5.55Y-4.09
X5.55Y-4.32
X5.55Y-5.48
X5.5631Y-3.3499
X5.57Y-3.685
X5.58Y-3.525
X5.59Y-4.745
X5.59Y-4.815
X5.59Y-4.87
X5.59Y-4.94
X5.59Y-5.025
X5.59Y-5.1
X5.59Y-5.17
X5.59Y-5.245
X5.5961Y-4.325
X5.5976Y-3.245
X5.6Y-4.22
X5.61Y-3.945
X5.6276Y-3.245
X5.65Y-2.89
X5.65Y-4.87
X5.65Y-4.94
X5.65Y-5.1
X5.65Y-5.17
X5.655Y-2.94
X5.66Y-3.95
X5.675Y-4.355
X5.675Y-4.45
X5.6852Y-4.233
X5.71Y-3.655
X5.71Y-4.87
X5.71Y-4.94
X5.71Y-5.1
X5.71Y-5.17
X5.715Y-4.57
X5.715Y-4.63
X5.715Y-4.69
X5.715Y-4.75
X5.715Y-4.81
X5.715Y-5.02
X5.72Y-4.5
X5.74Y-5.235
X5.77Y-3.075
X5.77Y-3.105
X5.77Y-4.34
X5.77Y-4.88
X5.77Y-5.135
X5.78Y-4.01
X5.78Y-4.5
X5.79Y-5.02
X5.795Y-4.28
X5.8Y-5.1
X5.8Y-5.17
X5.8Y-5.235
X5.815Y-4.3
X5.82Y-4.87
X5.8209Y-3.6959
X5.825Y-5.02
X5.84Y-4.5
X5.86Y-5.1
X5.86Y-5.17
X5.86Y-5.235
X5.88Y-4.87
X5.88Y-4.94
X5.895Y-4.375
X5.9Y-4.01
X5.9Y-4.105
X5.9Y-4.5
X5.92Y-5.1
X5.92Y-5.17
X5.92Y-5.235
X5.935Y-3.89
X5.935Y-3.94
X5.94Y-3.84
X5.94Y-4.87
X5.94Y-4.94
X5.9592Y-2.7879
X5.96Y-4.43
X5.96Y-4.5
X5.9729Y-2.8379
X5.9729Y-2.8779
X5.9729Y-2.9079
X5.98Y-5.1
X5.98Y-5.17
X5.9809Y-3.1406
X6.0Y-4.87
X6.0Y-4.94
X6.0109Y-3.1406
X6.02Y-4.5
X6.025Y-4.6739
X6.04Y-5.1
X6.04Y-5.17
X6.0594Y-4.7963
X6.0594Y-4.8238
X6.0594Y-4.8514
X6.075Y-4.595
X6.08Y-4.5
X6.1Y-5.1
X6.1Y-5.17
X6.1146Y-4.945
X6.115Y-5.235
X6.1187Y-4.6739
X6.14Y-4.5
X6.16Y-5.1
X6.16Y-5.17
X6.165Y-4.595
X6.1697Y-4.8514
X6.17Y-4.7963
X6.17Y-4.8238
X6.175Y-5.235
X6.2Y-4.5
X6.21Y-4.87
X6.21Y-4.94
X6.22Y-5.1
X6.22Y-5.17
X6.235Y-5.235
X6.24Y-4.71
X6.27Y-4.87
X6.27Y-4.94
X6.28Y-4.5
X6.28Y-5.1
X6.28Y-5.17
X6.295Y-5.235
X6.33Y-4.94
X6.333Y-4.424
X6.333Y-4.57
X6.34Y-5.1
X6.34Y-5.17
X6.345Y-3.84
X6.355Y-5.235
X6.367Y-4.424
X6.367Y-4.57
X6.382Y-3.348
X6.385Y-4.23
X6.39Y-4.94
X6.4Y-5.1
X6.4Y-5.17
X6.401Y-4.424
X6.401Y-4.57
X6.415Y-5.235
X6.435Y-4.3
X6.44Y-4.87
X6.45Y-4.94
X6.46Y-5.1
X6.46Y-5.17
X6.47Y-4.305
X6.475Y-5.235
X6.5Y-3.625
X6.5Y-4.87
X6.51Y-4.975
X6.52Y-5.1
X6.52Y-5.17
X6.525Y-4.72
X6.535Y-5.235
X6.5405Y-3.565
X6.56Y-3.505
X6.56Y-4.215
X6.56Y-4.87
X6.56Y-4.94
X6.58Y-2.92
X6.58Y-5.1
X6.58Y-5.17
X6.5944Y-4.8123
X6.595Y-5.235
X6.605Y-4.32
X6.615Y-3.69
X6.615Y-4.5
X6.62Y-3.395
X6.62Y-4.87
X6.62Y-4.94
X6.64Y-5.1
X6.64Y-5.17
X6.655Y-5.235
X6.66Y-3.76
X6.675Y-4.5
X6.68Y-4.87
X6.68Y-4.94
X6.7Y-5.1
X6.7Y-5.17
X6.705Y-3.5
X6.715Y-5.235
X6.725Y-3.795
X6.735Y-4.5
X6.74Y-4.87
X6.74Y-4.94
X6.76Y-5.1
X6.76Y-5.17
X6.775Y-5.235
X6.785Y-3.855
X6.795Y-4.5
X6.795Y-4.84
X6.8Y-4.94
X6.82Y-5.1
X6.82Y-5.17
X6.835Y-5.235
X6.855Y-4.5
X6.86Y-5.0
X6.86Y-5.06
X6.88Y-3.1
X6.885Y-4.93
X6.895Y-5.235
X6.905Y-4.865
X6.915Y-4.5
X6.935Y-5.075
X6.945Y-3.135
X6.945Y-3.16
X6.945Y-3.185
X6.945Y-4.78
X6.955Y-5.235
X6.96Y-3.31
X6.98Y-4.785
X6.98Y-5.07
X6.985Y-4.5
X7.015Y-5.235
X7.035Y-4.87
X7.04Y-2.76
X7.045Y-4.5
X7.051Y-3.534
X7.0565Y-3.621
X7.0566Y-3.705
X7.075Y-5.235
X7.105Y-4.505
X7.105Y-4.565
X7.105Y-4.625
X7.105Y-4.685
X7.105Y-4.745
X7.105Y-4.805
X7.105Y-4.925
X7.105Y-4.985
X7.105Y-5.045
X7.11Y-4.335
X7.12Y-4.085
X7.16Y-4.84
X7.16Y-4.9
X7.22Y-4.84
X7.22Y-4.9
X7.222Y-3.045
X7.265Y-2.905
X7.275Y-5.675
X7.28Y-4.84
X7.28Y-4.9
X7.31Y-3.04
X7.34Y-4.84
X7.34Y-4.9
X7.365Y-2.76
X7.38Y-3.04
X7.4Y-2.525
X7.4Y-2.76
X7.43Y-2.76
X7.455Y-3.04
T2
X6.7531Y-3.5534
X6.7531Y-3.5986
X6.7954Y-3.5534
X6.7954Y-3.5986
X6.8377Y-3.5534
X6.8377Y-3.5986
T5
X4.3882Y-3.9734
X4.3882Y-4.1703
T6
X4.4812Y-4.4408
X4.4812Y-4.5408
T7
X4.7Y-2.3004
X4.7Y-2.4004
X4.7Y-2.5004
X4.7Y-2.6004
X4.8Y-2.3
X4.8Y-2.4004
X4.8Y-2.5
X4.8Y-2.6004
X4.8598Y-3.915
X4.8648Y-4.06
X4.8648Y-4.16
X4.8648Y-4.26
X4.9Y-2.3
X4.9Y-2.4004
X4.9Y-2.5
X4.9Y-2.6004
X4.9598Y-3.915
X4.9648Y-4.06
X4.9648Y-4.16
X4.9648Y-4.26
X5.0Y-2.3
X5.0Y-2.4004
X5.0Y-2.5
X5.0Y-2.6004
X5.1Y-2.3
X5.1Y-2.4004
X5.1Y-2.5
X5.1Y-2.6004
X5.2Y-2.3
X5.2Y-2.4004
X5.2Y-2.5
X5.2Y-2.6004
X5.3Y-2.3
X5.3Y-2.4004
X5.3Y-2.5
X5.3Y-2.6004
X5.4Y-2.3
X5.4Y-2.4004
X5.4Y-2.5
X5.4Y-2.6004
X5.5Y-2.3
X5.5Y-2.4004
X5.5Y-2.5
X5.5Y-2.6004
X5.6Y-2.3
X5.6Y-2.4004
X5.6Y-2.5
X5.6Y-2.6004
X5.7Y-2.3
X5.7Y-2.4004
X5.7Y-2.5
X5.7Y-2.6004
X5.8Y-2.3
X5.8Y-2.4004
X5.8Y-2.5
X5.8Y-2.6004
X5.9Y-2.3
X5.9Y-2.4004
X5.9Y-2.5
X5.9Y-2.6004
X6.0Y-2.3
X6.0Y-2.4004
X6.0Y-2.5
X6.0Y-2.6004
X6.1Y-2.3
X6.1Y-2.4004
X6.1Y-2.5
X6.1Y-2.6004
X6.2Y-2.3
X6.2Y-2.4004
X6.2Y-2.5
X6.2Y-2.6004
X6.3Y-2.3
X6.3Y-2.4004
X6.3Y-2.5
X6.3Y-2.6004
X6.4Y-2.3
X6.4Y-2.4004
X6.4Y-2.5
X6.4Y-2.6004
X6.5Y-2.3
X6.5Y-2.4004
X6.5Y-2.5
X6.5Y-2.6004
X6.6Y-2.3
X6.6Y-2.4004
X6.6Y-2.5
X6.6Y-2.6004
X6.7Y-2.3
X6.7Y-2.4004
X6.7Y-2.5
X6.7Y-2.6004
X6.8Y-2.3
X6.8Y-2.4004
X6.8Y-2.5
X6.8Y-2.6004
X6.9Y-2.3
X6.9Y-2.4004
X6.9Y-2.5
X6.9Y-2.6004
X7.0Y-2.3
X7.0Y-2.4004
X7.0Y-2.5
X7.0Y-2.6004
X7.1Y-2.3
X7.1Y-2.4004
X7.1Y-2.5
X7.1Y-2.6004
X7.2Y-2.3
X7.2Y-2.4004
X7.2Y-2.5
X7.2Y-2.6004
T8
X7.515Y-4.87
T9
X7.415Y-4.77
X7.415Y-4.97
X7.615Y-4.77
X7.615Y-4.97
T10
X5.595Y-4.62
X5.715Y-5.38
X7.23Y-4.62
X7.23Y-5.38
T11
X4.35Y-5.6752
X4.5Y-2.3
X7.4Y-2.3
X7.5Y-5.6752
T3
G00X4.2681Y-3.9341
M15
G01X4.2957Y-3.9341
M16
G05
G00X4.2957Y-4.2096
M15
G01X4.2681Y-4.2096
M16
G05
T4
G00X4.4756Y-5.48
M15
G01X4.515Y-5.48
M16
G05
G00X4.9638Y-4.7438
M15
G01X5.0031Y-4.7438
M16
G05
G00X5.5858Y-5.3973
M15
G01X5.5858Y-5.358
M16
G05
G00X5.9914Y-5.237
M15
G01X6.0308Y-5.237
M16
G05
G00X6.4796Y-4.5007
M15
G01X6.519Y-4.5007
M16
G05
G00X7.1017Y-5.1543
M15
G01X7.1017Y-5.1149
M16
G05
T0
M30
