M48
INCH,LZ
T1C0.0100
T2C0.0100
T3C0.0236
T4C0.0315
T5C0.0335
T6C0.0354
T7C0.0394
T8C0.0591
T9C0.0669
T10C0.0866
T11C0.1260
%
G90
G05
T1
X042Y-04815
X042Y-0488
X042Y-0494
X042Y-05
X042Y-0506
X042Y-0512
X042Y-0518
X042Y-0524
X042Y-053
X042Y-0536
X042Y-0542
X0421Y-04745
X04215Y-0548
X0427Y-04745
X04275Y-023
X04275Y-0548
X042998Y-0519
X043Y-04675
X043Y-04815
X0433Y-04745
X04335Y-0548
X0437Y-0524
X0437Y-05385
X043795Y-0428
X043795Y-0434
X04385Y-04123
X0439Y-04745
X04395Y-0548
X044348Y-05045
X044348Y-05075
X044348Y-05135
X04435Y-051
X0445Y-04745
X044709Y-053455
X04481Y-0481
X04481Y-048748
X0449Y-0502
X045109Y-047459
X0452Y-0498
X04525Y-05075
X04525Y-05155
X045358Y-053809
X04545Y-04975
X045654Y-052451
X045698Y-0499
X0457Y-04745
X04585Y-05675
X04589Y-052451
X0459Y-0548
X045901Y-046851
X045949Y-054104
X04615Y-05075
X04615Y-05155
X0463Y-04745
X0465Y-0548
X046559Y-054281
X0468Y-03845
X04685Y-0432
X0469Y-02805
X0469Y-04685
X0469Y-04745
X04695Y-03335
X047048Y-05075
X04705Y-05155
X0471Y-0548
X04715Y-054281
X047327Y-049203
X0475Y-04745
X047598Y-05025
X047598Y-05225
X0476Y-0342
X0476Y-048852
X0477Y-0548
X04771Y-04085
X04785Y-03215
X04795Y-03705
X048Y-0298
X048Y-0304
X048018Y-052697
X0481Y-04745
X048198Y-049
X048198Y-05025
X048198Y-05225
X0483Y-0548
X0484Y-0295
X048648Y-0533
X0487Y-04745
X04875Y-031
X04875Y-0316
X04885Y-03215
X0489Y-0548
X049498Y-0538
X0495Y-0548
X0498Y-032545
X0501Y-02895
X0501Y-02935
X0501Y-032545
X0501Y-0548
X050197Y-046171
X0503Y-05055
X050575Y-04675
X050598Y-05225
X0506Y-0406
X0507Y-0548
X050798Y-049
X050866Y-045671
X05095Y-03835
X05105Y-04745
X051198Y-05225
X0513Y-0548
X051332Y-030768
X051332Y-031068
X051398Y-049
X0515Y-05055
X05155Y-04095
X05165Y-04745
X0519Y-0548
X051929Y-046695
X0522Y-03755
X0522Y-0407
X0522Y-04205
X05225Y-04745
X052252Y-045652
X052299Y-046148
X05245Y-0441
X0525Y-0548
X0527Y-042115
X05285Y-04745
X0531Y-0548
X05315Y-0501
X053375Y-031418
X0534Y-02835
X053425Y-0286
X053425Y-028825
X053425Y-029125
X05345Y-0386
X05345Y-04375
X05345Y-04745
X05355Y-0501
X05365Y-03975
X053675Y-031418
X0537Y-0548
X0538Y-03575
X05385Y-03955
X054Y-0501
X05405Y-04745
X05425Y-0396
X0543Y-04015
X0543Y-0548
X05435Y-0444
X0544Y-04195
X05445Y-0367
X05463Y-039606
X05465Y-04195
X05475Y-04745
X05475Y-0494
X05485Y-0504
X05485Y-051
X0549Y-0548
X055Y-05135
X055029Y-03865
X0551Y-0398
X0552Y-03525
X0552Y-0501
X0552Y-0507
X055214Y-042888
X0553Y-0487
X0553Y-04905
X0553Y-0494
X0553Y-0517
X05535Y-04745
X055494Y-044598
X0555Y-0409
X0555Y-0432
X0555Y-0548
X055631Y-033499
X0557Y-03685
X0558Y-03525
X0559Y-04745
X0559Y-04815
X0559Y-0487
X0559Y-0494
X0559Y-05025
X0559Y-051
X0559Y-0517
X0559Y-05245
X055961Y-04325
X055976Y-03245
X056Y-0422
X0561Y-03945
X056276Y-03245
X0565Y-0289
X0565Y-0487
X0565Y-0494
X0565Y-051
X0565Y-0517
X05655Y-0294
X0566Y-0395
X05675Y-04355
X05675Y-0445
X056852Y-04233
X0571Y-03655
X0571Y-0487
X0571Y-0494
X0571Y-051
X0571Y-0517
X05715Y-0457
X05715Y-0463
X05715Y-0469
X05715Y-0475
X05715Y-0481
X05715Y-0502
X0572Y-045
X0574Y-05235
X0577Y-03075
X0577Y-03105
X0577Y-0434
X0577Y-0488
X0577Y-05135
X0578Y-0401
X0578Y-045
X057858Y-050402
X05795Y-0428
X058Y-051
X058Y-0517
X058Y-05235
X05815Y-043
X0582Y-0487
X058209Y-036959
X05825Y-0502
X0584Y-045
X0586Y-051
X0586Y-0517
X0586Y-05235
X0588Y-0487
X0588Y-0494
X05895Y-04375
X059Y-0401
X059Y-04105
X059Y-045
X0592Y-051
X0592Y-0517
X0592Y-05235
X05935Y-0389
X05935Y-0394
X0594Y-0384
X0594Y-0487
X0594Y-0494
X059592Y-027879
X0596Y-0443
X0596Y-045
X059612Y-053957
X059622Y-056358
X059729Y-028379
X059729Y-028779
X059729Y-029079
X0598Y-051
X0598Y-0517
X059809Y-031406
X06Y-0487
X06Y-0494
X060109Y-031406
X0602Y-045
X06025Y-046739
X0604Y-051
X0604Y-0517
X060594Y-047963
X060594Y-048238
X060594Y-048514
X06075Y-04595
X0608Y-045
X061Y-051
X061Y-0517
X061146Y-04945
X06115Y-05235
X061187Y-046739
X0614Y-045
X0616Y-051
X0616Y-0517
X06165Y-04595
X061697Y-048514
X0617Y-047963
X0617Y-048238
X06175Y-05235
X062Y-045
X0621Y-0487
X0621Y-0494
X0622Y-051
X0622Y-0517
X06235Y-05235
X0624Y-044059
X0624Y-0471
X062417Y-056358
X062437Y-053937
X0627Y-0487
X0627Y-0494
X0628Y-045
X0628Y-051
X0628Y-0517
X06295Y-05235
X0633Y-0494
X06333Y-04424
X06333Y-0457
X0634Y-051
X0634Y-0517
X06345Y-0384
X06355Y-05235
X06367Y-04424
X06367Y-0457
X06382Y-03348
X06385Y-0423
X0639Y-0494
X064Y-051
X064Y-0517
X06401Y-04424
X06401Y-0457
X06415Y-05235
X06435Y-043
X0644Y-0487
X0645Y-0494
X0646Y-051
X0646Y-0517
X0647Y-04305
X06475Y-05235
X065Y-03625
X065Y-0487
X0651Y-04975
X0652Y-051
X0652Y-0517
X06525Y-0472
X06535Y-05235
X065405Y-03565
X0656Y-03505
X0656Y-0487
X0656Y-0494
X0658Y-0292
X0658Y-051
X0658Y-0517
X065944Y-048123
X06595Y-05235
X06615Y-0369
X06615Y-042125
X06615Y-045
X0662Y-03395
X0662Y-0487
X0662Y-0494
X0664Y-051
X0664Y-0517
X06655Y-05235
X0666Y-0376
X0666Y-043175
X06675Y-045
X0668Y-0487
X0668Y-0494
X067Y-051
X067Y-0517
X06705Y-035
X06715Y-05235
X06725Y-03795
X06735Y-045
X0674Y-0487
X0674Y-0494
X0676Y-051
X0676Y-0517
X06775Y-05235
X06785Y-03855
X06795Y-045
X06795Y-0484
X068Y-0494
X0682Y-051
X0682Y-0517
X06835Y-05235
X06855Y-045
X0686Y-05
X0686Y-0506
X0688Y-031
X06885Y-0493
X068921Y-028222
X06895Y-05235
X06905Y-04865
X06915Y-045
X069236Y-028219
X06935Y-05075
X06945Y-03135
X06945Y-0316
X06945Y-03185
X06945Y-0478
X06955Y-05235
X069555Y-028215
X0696Y-0331
X0698Y-04785
X0698Y-0507
X06985Y-045
X07015Y-05235
X07035Y-0487
X07045Y-045
X070565Y-03621
X070566Y-03705
X07075Y-05235
X070791Y-043018
X070791Y-043348
X070791Y-043691
X070835Y-040514
X070835Y-040852
X070835Y-041195
X07091Y-03534
X07105Y-04505
X07105Y-04565
X07105Y-04625
X07105Y-04685
X07105Y-04745
X07105Y-04805
X07105Y-04925
X07105Y-04985
X07105Y-05045
X0716Y-0484
X0716Y-049
X0722Y-0484
X0722Y-049
X07265Y-02905
X07275Y-05675
X0728Y-0484
X0728Y-049
X0731Y-0304
X0734Y-0484
X0734Y-049
X07365Y-0276
X0738Y-0304
X074Y-02525
X074Y-0276
X0743Y-0276
X07455Y-0304
T2
X067531Y-035534
X067531Y-035986
X068377Y-035534
X068377Y-035986
T5
X044276Y-039734
X044276Y-041703
T6
X044812Y-044408
X044812Y-045408
T7
X047Y-023004
X047Y-024004
X047Y-025004
X047Y-026004
X048Y-023
X048Y-024004
X048Y-025
X048Y-026004
X048616Y-038238
X048648Y-0406
X048648Y-0416
X048648Y-0426
X049Y-023
X049Y-024004
X049Y-025
X049Y-026004
X049616Y-038238
X049648Y-0406
X049648Y-0416
X049648Y-0426
X05Y-023
X05Y-024004
X05Y-025
X05Y-026004
X051Y-023
X051Y-024004
X051Y-025
X051Y-026004
X052Y-023
X052Y-024004
X052Y-025
X052Y-026004
X053Y-023
X053Y-024004
X053Y-025
X053Y-026004
X054Y-023
X054Y-024004
X054Y-025
X054Y-026004
X055Y-023
X055Y-024004
X055Y-025
X055Y-026004
X056Y-023
X056Y-024004
X056Y-025
X056Y-026004
X057Y-023
X057Y-024004
X057Y-025
X057Y-026004
X058Y-023
X058Y-024004
X058Y-025
X058Y-026004
X059Y-023
X059Y-024004
X059Y-025
X059Y-026004
X06Y-023
X06Y-024004
X06Y-025
X06Y-026004
X061Y-023
X061Y-024004
X061Y-025
X061Y-026004
X062Y-023
X062Y-024004
X062Y-025
X062Y-026004
X063Y-023
X063Y-024004
X063Y-025
X063Y-026004
X064Y-023
X064Y-024004
X064Y-025
X064Y-026004
X065Y-023
X065Y-024004
X065Y-025
X065Y-026004
X066Y-023
X066Y-024004
X066Y-025
X066Y-026004
X067Y-023
X067Y-024004
X067Y-025
X067Y-026004
X068Y-023
X068Y-024004
X068Y-025
X068Y-026004
X069Y-023
X069Y-024004
X069Y-025
X069Y-026004
X07Y-023
X07Y-024004
X07Y-025
X07Y-026004
X071Y-023
X071Y-024004
X071Y-025
X071Y-026004
X072Y-023
X072Y-024004
X072Y-025
X072Y-026004
T8
X07515Y-0487
T9
X07415Y-0477
X07415Y-0497
X07615Y-0477
X07615Y-0497
T10
X05595Y-0462
X05715Y-0538
X0723Y-0462
X0723Y-0538
T11
X0435Y-056752
X045Y-023
X074Y-023
X075Y-056752
T3
G00X043075Y-039341
M15
G01X043351Y-039341
M16
G05
G00X043351Y-042096
M15
G01X043075Y-042096
M16
G05
T4
G00X044756Y-0548
M15
G01X04515Y-0548
M16
G05
G00X049638Y-047438
M15
G01X050031Y-047438
M16
G05
G00X055858Y-053973
M15
G01X055858Y-05358
M16
G05
G00X059914Y-05237
M15
G01X060308Y-05237
M16
G05
G00X064796Y-045007
M15
G01X06519Y-045007
M16
G05
G00X071017Y-051543
M15
G01X071017Y-051149
M16
G05
M30
