%TF.GenerationSoftware,KiCad,Pcbnew,8.0.2*%
%TF.CreationDate,2024-06-04T21:53:01-04:00*%
%TF.ProjectId,SilverSat_Comms,53696c76-6572-4536-9174-5f436f6d6d73,1.0 Beta*%
%TF.SameCoordinates,Original*%
%TF.FileFunction,Soldermask,Bot*%
%TF.FilePolarity,Negative*%
%FSLAX46Y46*%
G04 Gerber Fmt 4.6, Leading zero omitted, Abs format (unit mm)*
G04 Created by KiCad (PCBNEW 8.0.2) date 2024-06-04 21:53:01*
%MOMM*%
%LPD*%
G01*
G04 APERTURE LIST*
G04 APERTURE END LIST*
G36*
X110574902Y-140954768D02*
G01*
X110663243Y-140954768D01*
X110757571Y-140965026D01*
X110848286Y-140970121D01*
X110926304Y-140983376D01*
X111007691Y-140992228D01*
X111106817Y-141014047D01*
X111202067Y-141030231D01*
X111272420Y-141050499D01*
X111346066Y-141066710D01*
X111448555Y-141101242D01*
X111546893Y-141129573D01*
X111609049Y-141155319D01*
X111674414Y-141177343D01*
X111778703Y-141225592D01*
X111878428Y-141266900D01*
X111932078Y-141296551D01*
X111988874Y-141322828D01*
X112093232Y-141385618D01*
X112192503Y-141440483D01*
X112237598Y-141472479D01*
X112285754Y-141501454D01*
X112388312Y-141579417D01*
X112485167Y-141648139D01*
X112521918Y-141680981D01*
X112561584Y-141711135D01*
X112660359Y-141804700D01*
X112752742Y-141887258D01*
X112781571Y-141919518D01*
X112813132Y-141949414D01*
X112906140Y-142058911D01*
X112991861Y-142154833D01*
X113013387Y-142185171D01*
X113037438Y-142213486D01*
X113122617Y-142339117D01*
X113199517Y-142447497D01*
X113214583Y-142474757D01*
X113231877Y-142500264D01*
X113307158Y-142642260D01*
X113373100Y-142761572D01*
X113382695Y-142784737D01*
X113394175Y-142806390D01*
X113457564Y-142965486D01*
X113510427Y-143093107D01*
X113515685Y-143111359D01*
X113522420Y-143128262D01*
X113571999Y-143306830D01*
X113609769Y-143437933D01*
X113611928Y-143450642D01*
X113615111Y-143462105D01*
X113649053Y-143669144D01*
X113669879Y-143791714D01*
X113670259Y-143798497D01*
X113671166Y-143804024D01*
X113687801Y-144110853D01*
X113690000Y-144150000D01*
X113687801Y-144189149D01*
X113671166Y-144495975D01*
X113670260Y-144501501D01*
X113669879Y-144508286D01*
X113649048Y-144630882D01*
X113615111Y-144837894D01*
X113611928Y-144849355D01*
X113609769Y-144862067D01*
X113571991Y-144993196D01*
X113522420Y-145171737D01*
X113515686Y-145188637D01*
X113510427Y-145206893D01*
X113457553Y-145334539D01*
X113394175Y-145493609D01*
X113382697Y-145515258D01*
X113373100Y-145538428D01*
X113307145Y-145657763D01*
X113231877Y-145799735D01*
X113214586Y-145825236D01*
X113199517Y-145852503D01*
X113122602Y-145960904D01*
X113037438Y-146086513D01*
X113013391Y-146114822D01*
X112991861Y-146145167D01*
X112906123Y-146241108D01*
X112813132Y-146350585D01*
X112781577Y-146380475D01*
X112752742Y-146412742D01*
X112660341Y-146495316D01*
X112561584Y-146588864D01*
X112521925Y-146619011D01*
X112485167Y-146651861D01*
X112388292Y-146720596D01*
X112285754Y-146798545D01*
X112237607Y-146827513D01*
X112192503Y-146859517D01*
X112093212Y-146914392D01*
X111988874Y-146977171D01*
X111932089Y-147003442D01*
X111878428Y-147033100D01*
X111778682Y-147074416D01*
X111674414Y-147122656D01*
X111609062Y-147144675D01*
X111546893Y-147170427D01*
X111448535Y-147198763D01*
X111346066Y-147233289D01*
X111272435Y-147249496D01*
X111202067Y-147269769D01*
X111106797Y-147285955D01*
X111007691Y-147307771D01*
X110926316Y-147316620D01*
X110848286Y-147329879D01*
X110757566Y-147334973D01*
X110663243Y-147345232D01*
X110574902Y-147345232D01*
X110490000Y-147350000D01*
X110405098Y-147345232D01*
X110316757Y-147345232D01*
X110222433Y-147334973D01*
X110131714Y-147329879D01*
X110053684Y-147316621D01*
X109972308Y-147307771D01*
X109873197Y-147285955D01*
X109777933Y-147269769D01*
X109707567Y-147249497D01*
X109633933Y-147233289D01*
X109531457Y-147198761D01*
X109433107Y-147170427D01*
X109370941Y-147144677D01*
X109305585Y-147122656D01*
X109201307Y-147074412D01*
X109101572Y-147033100D01*
X109047915Y-147003445D01*
X108991125Y-146977171D01*
X108886775Y-146914386D01*
X108787497Y-146859517D01*
X108742397Y-146827517D01*
X108694245Y-146798545D01*
X108591692Y-146720586D01*
X108494833Y-146651861D01*
X108458080Y-146619016D01*
X108418415Y-146588864D01*
X108319641Y-146495300D01*
X108227258Y-146412742D01*
X108198428Y-146380481D01*
X108166867Y-146350585D01*
X108073856Y-146241085D01*
X107988139Y-146145167D01*
X107966613Y-146114829D01*
X107942561Y-146086513D01*
X107857375Y-145960872D01*
X107780483Y-145852503D01*
X107765417Y-145825244D01*
X107748122Y-145799735D01*
X107672829Y-145657718D01*
X107606900Y-145538428D01*
X107597306Y-145515266D01*
X107585824Y-145493609D01*
X107522419Y-145334475D01*
X107469573Y-145206893D01*
X107464316Y-145188646D01*
X107457579Y-145171737D01*
X107407980Y-144993100D01*
X107370231Y-144862067D01*
X107368072Y-144849364D01*
X107364888Y-144837894D01*
X107330922Y-144630715D01*
X107310121Y-144508286D01*
X107309740Y-144501510D01*
X107308833Y-144495975D01*
X107292169Y-144188634D01*
X107290000Y-144150000D01*
X107292169Y-144111368D01*
X107308833Y-143804024D01*
X107309740Y-143798488D01*
X107310121Y-143791714D01*
X107330917Y-143669312D01*
X107364888Y-143462105D01*
X107368073Y-143450633D01*
X107370231Y-143437933D01*
X107407973Y-143306926D01*
X107457579Y-143128262D01*
X107464317Y-143111350D01*
X107469573Y-143093107D01*
X107522409Y-142965549D01*
X107585824Y-142806390D01*
X107597308Y-142784728D01*
X107606900Y-142761572D01*
X107672816Y-142642304D01*
X107748122Y-142500264D01*
X107765420Y-142474749D01*
X107780483Y-142447497D01*
X107857360Y-142339148D01*
X107942561Y-142213486D01*
X107966617Y-142185164D01*
X107988139Y-142154833D01*
X108073839Y-142058933D01*
X108166867Y-141949414D01*
X108198434Y-141919512D01*
X108227258Y-141887258D01*
X108319622Y-141804716D01*
X108418415Y-141711135D01*
X108458087Y-141680976D01*
X108494833Y-141648139D01*
X108591672Y-141579427D01*
X108694245Y-141501454D01*
X108742407Y-141472475D01*
X108787497Y-141440483D01*
X108886754Y-141385625D01*
X108991125Y-141322828D01*
X109047926Y-141296548D01*
X109101572Y-141266900D01*
X109201287Y-141225596D01*
X109305585Y-141177343D01*
X109370954Y-141155317D01*
X109433107Y-141129573D01*
X109531437Y-141101244D01*
X109633933Y-141066710D01*
X109707582Y-141050498D01*
X109777933Y-141030231D01*
X109873177Y-141014048D01*
X109972308Y-140992228D01*
X110053696Y-140983376D01*
X110131714Y-140970121D01*
X110222428Y-140965026D01*
X110316757Y-140954768D01*
X110405098Y-140954768D01*
X110490000Y-140950000D01*
X110574902Y-140954768D01*
G37*
G36*
X190584902Y-140954768D02*
G01*
X190673243Y-140954768D01*
X190767571Y-140965026D01*
X190858286Y-140970121D01*
X190936304Y-140983376D01*
X191017691Y-140992228D01*
X191116817Y-141014047D01*
X191212067Y-141030231D01*
X191282420Y-141050499D01*
X191356066Y-141066710D01*
X191458555Y-141101242D01*
X191556893Y-141129573D01*
X191619049Y-141155319D01*
X191684414Y-141177343D01*
X191788703Y-141225592D01*
X191888428Y-141266900D01*
X191942078Y-141296551D01*
X191998874Y-141322828D01*
X192103232Y-141385618D01*
X192202503Y-141440483D01*
X192247598Y-141472479D01*
X192295754Y-141501454D01*
X192398312Y-141579417D01*
X192495167Y-141648139D01*
X192531918Y-141680981D01*
X192571584Y-141711135D01*
X192670359Y-141804700D01*
X192762742Y-141887258D01*
X192791571Y-141919518D01*
X192823132Y-141949414D01*
X192916140Y-142058911D01*
X193001861Y-142154833D01*
X193023387Y-142185171D01*
X193047438Y-142213486D01*
X193132617Y-142339117D01*
X193209517Y-142447497D01*
X193224583Y-142474757D01*
X193241877Y-142500264D01*
X193317158Y-142642260D01*
X193383100Y-142761572D01*
X193392695Y-142784737D01*
X193404175Y-142806390D01*
X193467564Y-142965486D01*
X193520427Y-143093107D01*
X193525685Y-143111359D01*
X193532420Y-143128262D01*
X193581999Y-143306830D01*
X193619769Y-143437933D01*
X193621928Y-143450642D01*
X193625111Y-143462105D01*
X193659053Y-143669144D01*
X193679879Y-143791714D01*
X193680259Y-143798497D01*
X193681166Y-143804024D01*
X193697801Y-144110853D01*
X193700000Y-144150000D01*
X193697801Y-144189149D01*
X193681166Y-144495975D01*
X193680260Y-144501501D01*
X193679879Y-144508286D01*
X193659048Y-144630882D01*
X193625111Y-144837894D01*
X193621928Y-144849355D01*
X193619769Y-144862067D01*
X193581991Y-144993196D01*
X193532420Y-145171737D01*
X193525686Y-145188637D01*
X193520427Y-145206893D01*
X193467553Y-145334539D01*
X193404175Y-145493609D01*
X193392697Y-145515258D01*
X193383100Y-145538428D01*
X193317145Y-145657763D01*
X193241877Y-145799735D01*
X193224586Y-145825236D01*
X193209517Y-145852503D01*
X193132602Y-145960904D01*
X193047438Y-146086513D01*
X193023391Y-146114822D01*
X193001861Y-146145167D01*
X192916123Y-146241108D01*
X192823132Y-146350585D01*
X192791577Y-146380475D01*
X192762742Y-146412742D01*
X192670341Y-146495316D01*
X192571584Y-146588864D01*
X192531925Y-146619011D01*
X192495167Y-146651861D01*
X192398292Y-146720596D01*
X192295754Y-146798545D01*
X192247607Y-146827513D01*
X192202503Y-146859517D01*
X192103212Y-146914392D01*
X191998874Y-146977171D01*
X191942089Y-147003442D01*
X191888428Y-147033100D01*
X191788682Y-147074416D01*
X191684414Y-147122656D01*
X191619062Y-147144675D01*
X191556893Y-147170427D01*
X191458535Y-147198763D01*
X191356066Y-147233289D01*
X191282435Y-147249496D01*
X191212067Y-147269769D01*
X191116797Y-147285955D01*
X191017691Y-147307771D01*
X190936316Y-147316620D01*
X190858286Y-147329879D01*
X190767566Y-147334973D01*
X190673243Y-147345232D01*
X190584902Y-147345232D01*
X190500000Y-147350000D01*
X190415098Y-147345232D01*
X190326757Y-147345232D01*
X190232433Y-147334973D01*
X190141714Y-147329879D01*
X190063684Y-147316621D01*
X189982308Y-147307771D01*
X189883197Y-147285955D01*
X189787933Y-147269769D01*
X189717567Y-147249497D01*
X189643933Y-147233289D01*
X189541457Y-147198761D01*
X189443107Y-147170427D01*
X189380941Y-147144677D01*
X189315585Y-147122656D01*
X189211307Y-147074412D01*
X189111572Y-147033100D01*
X189057915Y-147003445D01*
X189001125Y-146977171D01*
X188896775Y-146914386D01*
X188797497Y-146859517D01*
X188752397Y-146827517D01*
X188704245Y-146798545D01*
X188601692Y-146720586D01*
X188504833Y-146651861D01*
X188468080Y-146619016D01*
X188428415Y-146588864D01*
X188329641Y-146495300D01*
X188237258Y-146412742D01*
X188208428Y-146380481D01*
X188176867Y-146350585D01*
X188083856Y-146241085D01*
X187998139Y-146145167D01*
X187976613Y-146114829D01*
X187952561Y-146086513D01*
X187867375Y-145960872D01*
X187790483Y-145852503D01*
X187775417Y-145825244D01*
X187758122Y-145799735D01*
X187682829Y-145657718D01*
X187616900Y-145538428D01*
X187607306Y-145515266D01*
X187595824Y-145493609D01*
X187532419Y-145334475D01*
X187479573Y-145206893D01*
X187474316Y-145188646D01*
X187467579Y-145171737D01*
X187417980Y-144993100D01*
X187380231Y-144862067D01*
X187378072Y-144849364D01*
X187374888Y-144837894D01*
X187340922Y-144630715D01*
X187320121Y-144508286D01*
X187319740Y-144501510D01*
X187318833Y-144495975D01*
X187302169Y-144188634D01*
X187300000Y-144150000D01*
X187302169Y-144111368D01*
X187318833Y-143804024D01*
X187319740Y-143798488D01*
X187320121Y-143791714D01*
X187340917Y-143669312D01*
X187374888Y-143462105D01*
X187378073Y-143450633D01*
X187380231Y-143437933D01*
X187417973Y-143306926D01*
X187467579Y-143128262D01*
X187474317Y-143111350D01*
X187479573Y-143093107D01*
X187532409Y-142965549D01*
X187595824Y-142806390D01*
X187607308Y-142784728D01*
X187616900Y-142761572D01*
X187682816Y-142642304D01*
X187758122Y-142500264D01*
X187775420Y-142474749D01*
X187790483Y-142447497D01*
X187867360Y-142339148D01*
X187952561Y-142213486D01*
X187976617Y-142185164D01*
X187998139Y-142154833D01*
X188083839Y-142058933D01*
X188176867Y-141949414D01*
X188208434Y-141919512D01*
X188237258Y-141887258D01*
X188329622Y-141804716D01*
X188428415Y-141711135D01*
X188468087Y-141680976D01*
X188504833Y-141648139D01*
X188601672Y-141579427D01*
X188704245Y-141501454D01*
X188752407Y-141472475D01*
X188797497Y-141440483D01*
X188896754Y-141385625D01*
X189001125Y-141322828D01*
X189057926Y-141296548D01*
X189111572Y-141266900D01*
X189211287Y-141225596D01*
X189315585Y-141177343D01*
X189380954Y-141155317D01*
X189443107Y-141129573D01*
X189541437Y-141101244D01*
X189643933Y-141066710D01*
X189717582Y-141050498D01*
X189787933Y-141030231D01*
X189883177Y-141014048D01*
X189982308Y-140992228D01*
X190063696Y-140983376D01*
X190141714Y-140970121D01*
X190232428Y-140965026D01*
X190326757Y-140954768D01*
X190415098Y-140954768D01*
X190500000Y-140950000D01*
X190584902Y-140954768D01*
G37*
G36*
X115162001Y-138457590D02*
G01*
X115168022Y-138460533D01*
X115170688Y-138460956D01*
X115213319Y-138482677D01*
X115272904Y-138511807D01*
X115360193Y-138599096D01*
X115389340Y-138658719D01*
X115411043Y-138701312D01*
X115411464Y-138703974D01*
X115414410Y-138709999D01*
X115430000Y-138817000D01*
X115430000Y-139567000D01*
X115414410Y-139674001D01*
X115411464Y-139680025D01*
X115411043Y-139682688D01*
X115389345Y-139725270D01*
X115360193Y-139784904D01*
X115272904Y-139872193D01*
X115213256Y-139901352D01*
X115170687Y-139923043D01*
X115168026Y-139923464D01*
X115162001Y-139926410D01*
X115055000Y-139942000D01*
X113305000Y-139942000D01*
X113197999Y-139926410D01*
X113191974Y-139923464D01*
X113189311Y-139923043D01*
X113146704Y-139901333D01*
X113087096Y-139872193D01*
X112999807Y-139784904D01*
X112970670Y-139725304D01*
X112948956Y-139682687D01*
X112948534Y-139680023D01*
X112945590Y-139674001D01*
X112930000Y-139567000D01*
X112930000Y-138817000D01*
X112945590Y-138709999D01*
X112948533Y-138703977D01*
X112948956Y-138701311D01*
X112970689Y-138658656D01*
X112999807Y-138599096D01*
X113087096Y-138511807D01*
X113146670Y-138482682D01*
X113189312Y-138460956D01*
X113191977Y-138460533D01*
X113197999Y-138457590D01*
X113305000Y-138442000D01*
X115055000Y-138442000D01*
X115162001Y-138457590D01*
G37*
G36*
X145431398Y-134771339D02*
G01*
X145696292Y-134828963D01*
X145950289Y-134923699D01*
X146188218Y-135053618D01*
X146405235Y-135216076D01*
X146596924Y-135407765D01*
X146759382Y-135624782D01*
X146889301Y-135862711D01*
X146984037Y-136116708D01*
X147041661Y-136381602D01*
X147061000Y-136652000D01*
X147041661Y-136922398D01*
X146984037Y-137187292D01*
X146889301Y-137441289D01*
X146759382Y-137679218D01*
X146596924Y-137896235D01*
X146405235Y-138087924D01*
X146188218Y-138250382D01*
X145950289Y-138380301D01*
X145696292Y-138475037D01*
X145431398Y-138532661D01*
X145161000Y-138552000D01*
X144890602Y-138532661D01*
X144625708Y-138475037D01*
X144371711Y-138380301D01*
X144133782Y-138250382D01*
X143916765Y-138087924D01*
X143725076Y-137896235D01*
X143562618Y-137679218D01*
X143432699Y-137441289D01*
X143337963Y-137187292D01*
X143280339Y-136922398D01*
X143261000Y-136652000D01*
X143280339Y-136381602D01*
X143337963Y-136116708D01*
X143432699Y-135862711D01*
X143562618Y-135624782D01*
X143725076Y-135407765D01*
X143916765Y-135216076D01*
X144133782Y-135053618D01*
X144371711Y-134923699D01*
X144625708Y-134828963D01*
X144890602Y-134771339D01*
X145161000Y-134752000D01*
X145431398Y-134771339D01*
G37*
G36*
X183912398Y-134771339D02*
G01*
X184177292Y-134828963D01*
X184431289Y-134923699D01*
X184669218Y-135053618D01*
X184886235Y-135216076D01*
X185077924Y-135407765D01*
X185240382Y-135624782D01*
X185370301Y-135862711D01*
X185465037Y-136116708D01*
X185522661Y-136381602D01*
X185542000Y-136652000D01*
X185522661Y-136922398D01*
X185465037Y-137187292D01*
X185370301Y-137441289D01*
X185240382Y-137679218D01*
X185077924Y-137896235D01*
X184886235Y-138087924D01*
X184669218Y-138250382D01*
X184431289Y-138380301D01*
X184177292Y-138475037D01*
X183912398Y-138532661D01*
X183642000Y-138552000D01*
X183371602Y-138532661D01*
X183106708Y-138475037D01*
X182852711Y-138380301D01*
X182614782Y-138250382D01*
X182397765Y-138087924D01*
X182206076Y-137896235D01*
X182043618Y-137679218D01*
X181913699Y-137441289D01*
X181818963Y-137187292D01*
X181761339Y-136922398D01*
X181742000Y-136652000D01*
X181761339Y-136381602D01*
X181818963Y-136116708D01*
X181913699Y-135862711D01*
X182043618Y-135624782D01*
X182206076Y-135407765D01*
X182397765Y-135216076D01*
X182614782Y-135053618D01*
X182852711Y-134923699D01*
X183106708Y-134828963D01*
X183371602Y-134771339D01*
X183642000Y-134752000D01*
X183912398Y-134771339D01*
G37*
G36*
X142362001Y-135357590D02*
G01*
X142368022Y-135360533D01*
X142370688Y-135360956D01*
X142413319Y-135382677D01*
X142472904Y-135411807D01*
X142560193Y-135499096D01*
X142589340Y-135558719D01*
X142611043Y-135601312D01*
X142611464Y-135603974D01*
X142614410Y-135609999D01*
X142630000Y-135717000D01*
X142630000Y-137467000D01*
X142614410Y-137574001D01*
X142611464Y-137580025D01*
X142611043Y-137582688D01*
X142589345Y-137625270D01*
X142560193Y-137684904D01*
X142472904Y-137772193D01*
X142413256Y-137801352D01*
X142370687Y-137823043D01*
X142368026Y-137823464D01*
X142362001Y-137826410D01*
X142255000Y-137842000D01*
X141505000Y-137842000D01*
X141397999Y-137826410D01*
X141391974Y-137823464D01*
X141389311Y-137823043D01*
X141346704Y-137801333D01*
X141287096Y-137772193D01*
X141199807Y-137684904D01*
X141170670Y-137625304D01*
X141148956Y-137582687D01*
X141148534Y-137580023D01*
X141145590Y-137574001D01*
X141130000Y-137467000D01*
X141130000Y-135717000D01*
X141145590Y-135609999D01*
X141148533Y-135603977D01*
X141148956Y-135601311D01*
X141170689Y-135558656D01*
X141199807Y-135499096D01*
X141287096Y-135411807D01*
X141346670Y-135382682D01*
X141389312Y-135360956D01*
X141391977Y-135360533D01*
X141397999Y-135357590D01*
X141505000Y-135342000D01*
X142255000Y-135342000D01*
X142362001Y-135357590D01*
G37*
G36*
X153664108Y-132284425D02*
G01*
X153670129Y-132287368D01*
X153672795Y-132287791D01*
X153715426Y-132309512D01*
X153775011Y-132338642D01*
X153862300Y-132425931D01*
X153891447Y-132485554D01*
X153913150Y-132528147D01*
X153913571Y-132530809D01*
X153916517Y-132536834D01*
X153932107Y-132643835D01*
X153932107Y-133393835D01*
X153916517Y-133500836D01*
X153913571Y-133506860D01*
X153913150Y-133509523D01*
X153891452Y-133552105D01*
X153862300Y-133611739D01*
X153775011Y-133699028D01*
X153715363Y-133728187D01*
X153672794Y-133749878D01*
X153670133Y-133750299D01*
X153664108Y-133753245D01*
X153557107Y-133768835D01*
X151807107Y-133768835D01*
X151700106Y-133753245D01*
X151694081Y-133750299D01*
X151691418Y-133749878D01*
X151648811Y-133728168D01*
X151589203Y-133699028D01*
X151501914Y-133611739D01*
X151472777Y-133552139D01*
X151451063Y-133509522D01*
X151450641Y-133506858D01*
X151447697Y-133500836D01*
X151432107Y-133393835D01*
X151432107Y-132643835D01*
X151447697Y-132536834D01*
X151450640Y-132530812D01*
X151451063Y-132528146D01*
X151472796Y-132485491D01*
X151501914Y-132425931D01*
X151589203Y-132338642D01*
X151648777Y-132309517D01*
X151691419Y-132287791D01*
X151694084Y-132287368D01*
X151700106Y-132284425D01*
X151807107Y-132268835D01*
X153557107Y-132268835D01*
X153664108Y-132284425D01*
G37*
G36*
X180864108Y-129184425D02*
G01*
X180870129Y-129187368D01*
X180872795Y-129187791D01*
X180915426Y-129209512D01*
X180975011Y-129238642D01*
X181062300Y-129325931D01*
X181091447Y-129385554D01*
X181113150Y-129428147D01*
X181113571Y-129430809D01*
X181116517Y-129436834D01*
X181132107Y-129543835D01*
X181132107Y-131293835D01*
X181116517Y-131400836D01*
X181113571Y-131406860D01*
X181113150Y-131409523D01*
X181091452Y-131452105D01*
X181062300Y-131511739D01*
X180975011Y-131599028D01*
X180915363Y-131628187D01*
X180872794Y-131649878D01*
X180870133Y-131650299D01*
X180864108Y-131653245D01*
X180757107Y-131668835D01*
X180007107Y-131668835D01*
X179900106Y-131653245D01*
X179894081Y-131650299D01*
X179891418Y-131649878D01*
X179848811Y-131628168D01*
X179789203Y-131599028D01*
X179701914Y-131511739D01*
X179672777Y-131452139D01*
X179651063Y-131409522D01*
X179650641Y-131406858D01*
X179647697Y-131400836D01*
X179632107Y-131293835D01*
X179632107Y-129543835D01*
X179647697Y-129436834D01*
X179650640Y-129430812D01*
X179651063Y-129428146D01*
X179672796Y-129385491D01*
X179701914Y-129325931D01*
X179789203Y-129238642D01*
X179848777Y-129209517D01*
X179891419Y-129187791D01*
X179894084Y-129187368D01*
X179900106Y-129184425D01*
X180007107Y-129168835D01*
X180757107Y-129168835D01*
X180864108Y-129184425D01*
G37*
G36*
X162154176Y-120293823D02*
G01*
X162158600Y-120304504D01*
X162158600Y-127828095D01*
X162154176Y-127838776D01*
X162143496Y-127843200D01*
X149209704Y-127843200D01*
X149199023Y-127838776D01*
X149194600Y-127828095D01*
X149194600Y-120304504D01*
X149199023Y-120293823D01*
X149209704Y-120289400D01*
X162143496Y-120289400D01*
X162154176Y-120293823D01*
G37*
G36*
X188558060Y-125006990D02*
G01*
X188768525Y-125063384D01*
X188966000Y-125155468D01*
X189144485Y-125280444D01*
X189298556Y-125434515D01*
X189423532Y-125613000D01*
X189515616Y-125810475D01*
X189572010Y-126020940D01*
X189591000Y-126238000D01*
X189572010Y-126455060D01*
X189515616Y-126665525D01*
X189423532Y-126863000D01*
X189298556Y-127041485D01*
X189144485Y-127195556D01*
X188966000Y-127320532D01*
X188768525Y-127412616D01*
X188558060Y-127469010D01*
X188341000Y-127488000D01*
X188123940Y-127469010D01*
X187913475Y-127412616D01*
X187716000Y-127320532D01*
X187537515Y-127195556D01*
X187383444Y-127041485D01*
X187258468Y-126863000D01*
X187166384Y-126665525D01*
X187109990Y-126455060D01*
X187091000Y-126238000D01*
X187109990Y-126020940D01*
X187166384Y-125810475D01*
X187258468Y-125613000D01*
X187383444Y-125434515D01*
X187537515Y-125280444D01*
X187716000Y-125155468D01*
X187913475Y-125063384D01*
X188123940Y-125006990D01*
X188341000Y-124988000D01*
X188558060Y-125006990D01*
G37*
G36*
X193638060Y-125006990D02*
G01*
X193848525Y-125063384D01*
X194046000Y-125155468D01*
X194224485Y-125280444D01*
X194378556Y-125434515D01*
X194503532Y-125613000D01*
X194595616Y-125810475D01*
X194652010Y-126020940D01*
X194671000Y-126238000D01*
X194652010Y-126455060D01*
X194595616Y-126665525D01*
X194503532Y-126863000D01*
X194378556Y-127041485D01*
X194224485Y-127195556D01*
X194046000Y-127320532D01*
X193848525Y-127412616D01*
X193638060Y-127469010D01*
X193421000Y-127488000D01*
X193203940Y-127469010D01*
X192993475Y-127412616D01*
X192796000Y-127320532D01*
X192617515Y-127195556D01*
X192463444Y-127041485D01*
X192338468Y-126863000D01*
X192246384Y-126665525D01*
X192189990Y-126455060D01*
X192171000Y-126238000D01*
X192189990Y-126020940D01*
X192246384Y-125810475D01*
X192338468Y-125613000D01*
X192463444Y-125434515D01*
X192617515Y-125280444D01*
X192796000Y-125155468D01*
X192993475Y-125063384D01*
X193203940Y-125006990D01*
X193421000Y-124988000D01*
X193638060Y-125006990D01*
G37*
G36*
X191907475Y-122563232D02*
G01*
X191972392Y-122606608D01*
X192015768Y-122671525D01*
X192031000Y-122748100D01*
X192031000Y-124647900D01*
X192015768Y-124724475D01*
X191972392Y-124789392D01*
X191907475Y-124832768D01*
X191830900Y-124848000D01*
X189931100Y-124848000D01*
X189854525Y-124832768D01*
X189789608Y-124789392D01*
X189746232Y-124724475D01*
X189731000Y-124647900D01*
X189731000Y-122748100D01*
X189746232Y-122671525D01*
X189789608Y-122606608D01*
X189854525Y-122563232D01*
X189931100Y-122548000D01*
X191830900Y-122548000D01*
X191907475Y-122563232D01*
G37*
G36*
X188558060Y-119926990D02*
G01*
X188768525Y-119983384D01*
X188966000Y-120075468D01*
X189144485Y-120200444D01*
X189298556Y-120354515D01*
X189423532Y-120533000D01*
X189515616Y-120730475D01*
X189572010Y-120940940D01*
X189591000Y-121158000D01*
X189572010Y-121375060D01*
X189515616Y-121585525D01*
X189423532Y-121783000D01*
X189298556Y-121961485D01*
X189144485Y-122115556D01*
X188966000Y-122240532D01*
X188768525Y-122332616D01*
X188558060Y-122389010D01*
X188341000Y-122408000D01*
X188123940Y-122389010D01*
X187913475Y-122332616D01*
X187716000Y-122240532D01*
X187537515Y-122115556D01*
X187383444Y-121961485D01*
X187258468Y-121783000D01*
X187166384Y-121585525D01*
X187109990Y-121375060D01*
X187091000Y-121158000D01*
X187109990Y-120940940D01*
X187166384Y-120730475D01*
X187258468Y-120533000D01*
X187383444Y-120354515D01*
X187537515Y-120200444D01*
X187716000Y-120075468D01*
X187913475Y-119983384D01*
X188123940Y-119926990D01*
X188341000Y-119908000D01*
X188558060Y-119926990D01*
G37*
G36*
X193638060Y-119926990D02*
G01*
X193848525Y-119983384D01*
X194046000Y-120075468D01*
X194224485Y-120200444D01*
X194378556Y-120354515D01*
X194503532Y-120533000D01*
X194595616Y-120730475D01*
X194652010Y-120940940D01*
X194671000Y-121158000D01*
X194652010Y-121375060D01*
X194595616Y-121585525D01*
X194503532Y-121783000D01*
X194378556Y-121961485D01*
X194224485Y-122115556D01*
X194046000Y-122240532D01*
X193848525Y-122332616D01*
X193638060Y-122389010D01*
X193421000Y-122408000D01*
X193203940Y-122389010D01*
X192993475Y-122332616D01*
X192796000Y-122240532D01*
X192617515Y-122115556D01*
X192463444Y-121961485D01*
X192338468Y-121783000D01*
X192246384Y-121585525D01*
X192189990Y-121375060D01*
X192171000Y-121158000D01*
X192189990Y-120940940D01*
X192246384Y-120730475D01*
X192338468Y-120533000D01*
X192463444Y-120354515D01*
X192617515Y-120200444D01*
X192796000Y-120075468D01*
X192993475Y-119983384D01*
X193203940Y-119926990D01*
X193421000Y-119908000D01*
X193638060Y-119926990D01*
G37*
G36*
X127562001Y-119757590D02*
G01*
X127568022Y-119760533D01*
X127570688Y-119760956D01*
X127613319Y-119782677D01*
X127672904Y-119811807D01*
X127760193Y-119899096D01*
X127789340Y-119958719D01*
X127811043Y-120001312D01*
X127811464Y-120003974D01*
X127814410Y-120009999D01*
X127830000Y-120117000D01*
X127830000Y-120867000D01*
X127814410Y-120974001D01*
X127811464Y-120980025D01*
X127811043Y-120982688D01*
X127789345Y-121025270D01*
X127760193Y-121084904D01*
X127672904Y-121172193D01*
X127613256Y-121201352D01*
X127570687Y-121223043D01*
X127568026Y-121223464D01*
X127562001Y-121226410D01*
X127455000Y-121242000D01*
X125705000Y-121242000D01*
X125597999Y-121226410D01*
X125591974Y-121223464D01*
X125589311Y-121223043D01*
X125546704Y-121201333D01*
X125487096Y-121172193D01*
X125399807Y-121084904D01*
X125370670Y-121025304D01*
X125348956Y-120982687D01*
X125348534Y-120980023D01*
X125345590Y-120974001D01*
X125330000Y-120867000D01*
X125330000Y-120117000D01*
X125345590Y-120009999D01*
X125348533Y-120003977D01*
X125348956Y-120001311D01*
X125370689Y-119958656D01*
X125399807Y-119899096D01*
X125487096Y-119811807D01*
X125546670Y-119782682D01*
X125589312Y-119760956D01*
X125591977Y-119760533D01*
X125597999Y-119757590D01*
X125705000Y-119742000D01*
X127455000Y-119742000D01*
X127562001Y-119757590D01*
G37*
G36*
X142383398Y-115467339D02*
G01*
X142648292Y-115524963D01*
X142902289Y-115619699D01*
X143140218Y-115749618D01*
X143357235Y-115912076D01*
X143548924Y-116103765D01*
X143711382Y-116320782D01*
X143841301Y-116558711D01*
X143936037Y-116812708D01*
X143993661Y-117077602D01*
X144013000Y-117348000D01*
X143993661Y-117618398D01*
X143936037Y-117883292D01*
X143841301Y-118137289D01*
X143711382Y-118375218D01*
X143548924Y-118592235D01*
X143357235Y-118783924D01*
X143140218Y-118946382D01*
X142902289Y-119076301D01*
X142648292Y-119171037D01*
X142383398Y-119228661D01*
X142113000Y-119248000D01*
X141842602Y-119228661D01*
X141577708Y-119171037D01*
X141323711Y-119076301D01*
X141085782Y-118946382D01*
X140868765Y-118783924D01*
X140677076Y-118592235D01*
X140514618Y-118375218D01*
X140384699Y-118137289D01*
X140289963Y-117883292D01*
X140232339Y-117618398D01*
X140213000Y-117348000D01*
X140232339Y-117077602D01*
X140289963Y-116812708D01*
X140384699Y-116558711D01*
X140514618Y-116320782D01*
X140677076Y-116103765D01*
X140868765Y-115912076D01*
X141085782Y-115749618D01*
X141323711Y-115619699D01*
X141577708Y-115524963D01*
X141842602Y-115467339D01*
X142113000Y-115448000D01*
X142383398Y-115467339D01*
G37*
G36*
X183912398Y-115467339D02*
G01*
X184177292Y-115524963D01*
X184431289Y-115619699D01*
X184669218Y-115749618D01*
X184886235Y-115912076D01*
X185077924Y-116103765D01*
X185240382Y-116320782D01*
X185370301Y-116558711D01*
X185465037Y-116812708D01*
X185522661Y-117077602D01*
X185542000Y-117348000D01*
X185522661Y-117618398D01*
X185465037Y-117883292D01*
X185370301Y-118137289D01*
X185240382Y-118375218D01*
X185077924Y-118592235D01*
X184886235Y-118783924D01*
X184669218Y-118946382D01*
X184431289Y-119076301D01*
X184177292Y-119171037D01*
X183912398Y-119228661D01*
X183642000Y-119248000D01*
X183371602Y-119228661D01*
X183106708Y-119171037D01*
X182852711Y-119076301D01*
X182614782Y-118946382D01*
X182397765Y-118783924D01*
X182206076Y-118592235D01*
X182043618Y-118375218D01*
X181913699Y-118137289D01*
X181818963Y-117883292D01*
X181761339Y-117618398D01*
X181742000Y-117348000D01*
X181761339Y-117077602D01*
X181818963Y-116812708D01*
X181913699Y-116558711D01*
X182043618Y-116320782D01*
X182206076Y-116103765D01*
X182397765Y-115912076D01*
X182614782Y-115749618D01*
X182852711Y-115619699D01*
X183106708Y-115524963D01*
X183371602Y-115467339D01*
X183642000Y-115448000D01*
X183912398Y-115467339D01*
G37*
G36*
X113870568Y-114440930D02*
G01*
X113917076Y-114440930D01*
X113957232Y-114449465D01*
X113998530Y-114453533D01*
X114050415Y-114469272D01*
X114101115Y-114480049D01*
X114133558Y-114494493D01*
X114167319Y-114504735D01*
X114220967Y-114533410D01*
X114273000Y-114556577D01*
X114297192Y-114574153D01*
X114322878Y-114587883D01*
X114375271Y-114630881D01*
X114425218Y-114667170D01*
X114441436Y-114685182D01*
X114459221Y-114699778D01*
X114507018Y-114758018D01*
X114551115Y-114806993D01*
X114560377Y-114823036D01*
X114571116Y-114836121D01*
X114610840Y-114910440D01*
X114645191Y-114969937D01*
X114649142Y-114982098D01*
X114654264Y-114991680D01*
X114682504Y-115084775D01*
X114703333Y-115148879D01*
X114704066Y-115155854D01*
X114705466Y-115160469D01*
X114719090Y-115298802D01*
X114723000Y-115336000D01*
X114719090Y-115373200D01*
X114705466Y-115511530D01*
X114704066Y-115516144D01*
X114703333Y-115523121D01*
X114682500Y-115587238D01*
X114654264Y-115680319D01*
X114649143Y-115689899D01*
X114645191Y-115702063D01*
X114610833Y-115761572D01*
X114571116Y-115835878D01*
X114560379Y-115848960D01*
X114551115Y-115865007D01*
X114507009Y-115913991D01*
X114459221Y-115972221D01*
X114441439Y-115986813D01*
X114425218Y-116004830D01*
X114375260Y-116041126D01*
X114322878Y-116084116D01*
X114297197Y-116097842D01*
X114273000Y-116115423D01*
X114220955Y-116138594D01*
X114167319Y-116167264D01*
X114133565Y-116177503D01*
X114101115Y-116191951D01*
X114050404Y-116202729D01*
X113998530Y-116218466D01*
X113957241Y-116222532D01*
X113917076Y-116231070D01*
X113870558Y-116231070D01*
X113823000Y-116235754D01*
X113775442Y-116231070D01*
X113728924Y-116231070D01*
X113688759Y-116222532D01*
X113647469Y-116218466D01*
X113595592Y-116202729D01*
X113544885Y-116191951D01*
X113512436Y-116177503D01*
X113478680Y-116167264D01*
X113425038Y-116138591D01*
X113373000Y-116115423D01*
X113348805Y-116097844D01*
X113323121Y-116084116D01*
X113270730Y-116041119D01*
X113220782Y-116004830D01*
X113204562Y-115986816D01*
X113186778Y-115972221D01*
X113138979Y-115913978D01*
X113094885Y-115865007D01*
X113085622Y-115848964D01*
X113074883Y-115835878D01*
X113035153Y-115761548D01*
X113000809Y-115702063D01*
X112996858Y-115689903D01*
X112991735Y-115680319D01*
X112963484Y-115587191D01*
X112942667Y-115523121D01*
X112941934Y-115516149D01*
X112940533Y-115511530D01*
X112926893Y-115373049D01*
X112923000Y-115336000D01*
X112926893Y-115298953D01*
X112940533Y-115160469D01*
X112941934Y-115155849D01*
X112942667Y-115148879D01*
X112963480Y-115084822D01*
X112991735Y-114991680D01*
X112996859Y-114982093D01*
X113000809Y-114969937D01*
X113035145Y-114910463D01*
X113074883Y-114836121D01*
X113085624Y-114823032D01*
X113094885Y-114806993D01*
X113138970Y-114758031D01*
X113186778Y-114699778D01*
X113204566Y-114685179D01*
X113220782Y-114667170D01*
X113270719Y-114630888D01*
X113323121Y-114587883D01*
X113348810Y-114574151D01*
X113373000Y-114556577D01*
X113425026Y-114533413D01*
X113478680Y-114504735D01*
X113512443Y-114494492D01*
X113544885Y-114480049D01*
X113595581Y-114469273D01*
X113647469Y-114453533D01*
X113688768Y-114449465D01*
X113728924Y-114440930D01*
X113775432Y-114440930D01*
X113823000Y-114436245D01*
X113870568Y-114440930D01*
G37*
G36*
X166064108Y-113584425D02*
G01*
X166070129Y-113587368D01*
X166072795Y-113587791D01*
X166115426Y-113609512D01*
X166175011Y-113638642D01*
X166262300Y-113725931D01*
X166291447Y-113785554D01*
X166313150Y-113828147D01*
X166313571Y-113830809D01*
X166316517Y-113836834D01*
X166332107Y-113943835D01*
X166332107Y-114693835D01*
X166316517Y-114800836D01*
X166313571Y-114806860D01*
X166313150Y-114809523D01*
X166291452Y-114852105D01*
X166262300Y-114911739D01*
X166175011Y-114999028D01*
X166115363Y-115028187D01*
X166072794Y-115049878D01*
X166070133Y-115050299D01*
X166064108Y-115053245D01*
X165957107Y-115068835D01*
X164207107Y-115068835D01*
X164100106Y-115053245D01*
X164094081Y-115050299D01*
X164091418Y-115049878D01*
X164048811Y-115028168D01*
X163989203Y-114999028D01*
X163901914Y-114911739D01*
X163872777Y-114852139D01*
X163851063Y-114809522D01*
X163850641Y-114806858D01*
X163847697Y-114800836D01*
X163832107Y-114693835D01*
X163832107Y-113943835D01*
X163847697Y-113836834D01*
X163850640Y-113830812D01*
X163851063Y-113828146D01*
X163872796Y-113785491D01*
X163901914Y-113725931D01*
X163989203Y-113638642D01*
X164048777Y-113609517D01*
X164091419Y-113587791D01*
X164094084Y-113587368D01*
X164100106Y-113584425D01*
X164207107Y-113568835D01*
X165957107Y-113568835D01*
X166064108Y-113584425D01*
G37*
G36*
X114723000Y-113696000D02*
G01*
X112923000Y-113696000D01*
X112923000Y-111896000D01*
X114723000Y-111896000D01*
X114723000Y-113696000D01*
G37*
G36*
X126956000Y-109054000D02*
G01*
X125256000Y-109054000D01*
X125256000Y-107354000D01*
X126956000Y-107354000D01*
X126956000Y-109054000D01*
G37*
G36*
X123828664Y-107395602D02*
G01*
X123991000Y-107467878D01*
X124134761Y-107572327D01*
X124253664Y-107704383D01*
X124342514Y-107858274D01*
X124397425Y-108027275D01*
X124416000Y-108204000D01*
X124397425Y-108380725D01*
X124342514Y-108549726D01*
X124253664Y-108703617D01*
X124134761Y-108835673D01*
X123991000Y-108940122D01*
X123828664Y-109012398D01*
X123654849Y-109049344D01*
X123477151Y-109049344D01*
X123303336Y-109012398D01*
X123141000Y-108940122D01*
X122997239Y-108835673D01*
X122878336Y-108703617D01*
X122789486Y-108549726D01*
X122734575Y-108380725D01*
X122716000Y-108204000D01*
X122734575Y-108027275D01*
X122789486Y-107858274D01*
X122878336Y-107704383D01*
X122997239Y-107572327D01*
X123141000Y-107467878D01*
X123303336Y-107395602D01*
X123477151Y-107358656D01*
X123654849Y-107358656D01*
X123828664Y-107395602D01*
G37*
G36*
X110114216Y-106325233D02*
G01*
X110168055Y-106327879D01*
X110174678Y-106329196D01*
X110188816Y-106330123D01*
X110216122Y-106337439D01*
X110284600Y-106351060D01*
X110316923Y-106364449D01*
X110340110Y-106370662D01*
X110360901Y-106382666D01*
X110393222Y-106396054D01*
X110451270Y-106434840D01*
X110475757Y-106448978D01*
X110482459Y-106455680D01*
X110490982Y-106461375D01*
X110574114Y-106544507D01*
X110579808Y-106553029D01*
X110586512Y-106559733D01*
X110600651Y-106584223D01*
X110639435Y-106642267D01*
X110652821Y-106674584D01*
X110664828Y-106695380D01*
X110671041Y-106718570D01*
X110684429Y-106750889D01*
X110698048Y-106819361D01*
X110705367Y-106846674D01*
X110705367Y-106856154D01*
X110707366Y-106866204D01*
X110707366Y-106983775D01*
X110705367Y-106993824D01*
X110705367Y-107003306D01*
X110698047Y-107030621D01*
X110684429Y-107099090D01*
X110671042Y-107131406D01*
X110664828Y-107154600D01*
X110652820Y-107175397D01*
X110639435Y-107207712D01*
X110600655Y-107265749D01*
X110586512Y-107290247D01*
X110579806Y-107296952D01*
X110574114Y-107305472D01*
X110490982Y-107388604D01*
X110482462Y-107394296D01*
X110475757Y-107401002D01*
X110451259Y-107415145D01*
X110393222Y-107453925D01*
X110360907Y-107467310D01*
X110340110Y-107479318D01*
X110316916Y-107485532D01*
X110284600Y-107498919D01*
X110216131Y-107512537D01*
X110188816Y-107519857D01*
X110179009Y-107519921D01*
X110169184Y-107521876D01*
X109411638Y-107524984D01*
X109411610Y-107524982D01*
X109410500Y-107524990D01*
X109406725Y-107524742D01*
X109352944Y-107522100D01*
X109346327Y-107520784D01*
X109332184Y-107519857D01*
X109304866Y-107512537D01*
X109236399Y-107498919D01*
X109204080Y-107485531D01*
X109180890Y-107479318D01*
X109160094Y-107467311D01*
X109127777Y-107453925D01*
X109069733Y-107415141D01*
X109045243Y-107401002D01*
X109038539Y-107394298D01*
X109030017Y-107388604D01*
X108946885Y-107305472D01*
X108941190Y-107296949D01*
X108934488Y-107290247D01*
X108920350Y-107265760D01*
X108881564Y-107207712D01*
X108868176Y-107175391D01*
X108856172Y-107154600D01*
X108849959Y-107131413D01*
X108836570Y-107099090D01*
X108822950Y-107030615D01*
X108815633Y-107003306D01*
X108815633Y-106993825D01*
X108813634Y-106983775D01*
X108813634Y-106866204D01*
X108815633Y-106856153D01*
X108815633Y-106846674D01*
X108822949Y-106819367D01*
X108836570Y-106750889D01*
X108849959Y-106718563D01*
X108856172Y-106695380D01*
X108868174Y-106674590D01*
X108881564Y-106642267D01*
X108920354Y-106584212D01*
X108934488Y-106559733D01*
X108941188Y-106553032D01*
X108946885Y-106544507D01*
X109030017Y-106461375D01*
X109038542Y-106455678D01*
X109045243Y-106448978D01*
X109069722Y-106434844D01*
X109127777Y-106396054D01*
X109160100Y-106382664D01*
X109180890Y-106370662D01*
X109204073Y-106364449D01*
X109236399Y-106351060D01*
X109304885Y-106337437D01*
X109332184Y-106330123D01*
X109341984Y-106330058D01*
X109351815Y-106328103D01*
X110109361Y-106324995D01*
X110109406Y-106324997D01*
X110110500Y-106324990D01*
X110114216Y-106325233D01*
G37*
G36*
X112621828Y-105218167D02*
G01*
X112775066Y-105271788D01*
X112912530Y-105358162D01*
X113027328Y-105472960D01*
X113113702Y-105610424D01*
X113167323Y-105763662D01*
X113185500Y-105924990D01*
X113167323Y-106086318D01*
X113113702Y-106239556D01*
X113027328Y-106377020D01*
X112912530Y-106491818D01*
X112775066Y-106578192D01*
X112621828Y-106631813D01*
X112460500Y-106649990D01*
X112299172Y-106631813D01*
X112145934Y-106578192D01*
X112008470Y-106491818D01*
X111893672Y-106377020D01*
X111807298Y-106239556D01*
X111753677Y-106086318D01*
X111735500Y-105924990D01*
X111753677Y-105763662D01*
X111807298Y-105610424D01*
X111893672Y-105472960D01*
X112008470Y-105358162D01*
X112145934Y-105271788D01*
X112299172Y-105218167D01*
X112460500Y-105199990D01*
X112621828Y-105218167D01*
G37*
G36*
X123828664Y-104855602D02*
G01*
X123991000Y-104927878D01*
X124134761Y-105032327D01*
X124253664Y-105164383D01*
X124342514Y-105318274D01*
X124397425Y-105487275D01*
X124416000Y-105664000D01*
X124397425Y-105840725D01*
X124342514Y-106009726D01*
X124253664Y-106163617D01*
X124134761Y-106295673D01*
X123991000Y-106400122D01*
X123828664Y-106472398D01*
X123654849Y-106509344D01*
X123477151Y-106509344D01*
X123303336Y-106472398D01*
X123141000Y-106400122D01*
X122997239Y-106295673D01*
X122878336Y-106163617D01*
X122789486Y-106009726D01*
X122734575Y-105840725D01*
X122716000Y-105664000D01*
X122734575Y-105487275D01*
X122789486Y-105318274D01*
X122878336Y-105164383D01*
X122997239Y-105032327D01*
X123141000Y-104927878D01*
X123303336Y-104855602D01*
X123477151Y-104818656D01*
X123654849Y-104818656D01*
X123828664Y-104855602D01*
G37*
G36*
X126368664Y-104855602D02*
G01*
X126531000Y-104927878D01*
X126674761Y-105032327D01*
X126793664Y-105164383D01*
X126882514Y-105318274D01*
X126937425Y-105487275D01*
X126956000Y-105664000D01*
X126937425Y-105840725D01*
X126882514Y-106009726D01*
X126793664Y-106163617D01*
X126674761Y-106295673D01*
X126531000Y-106400122D01*
X126368664Y-106472398D01*
X126194849Y-106509344D01*
X126017151Y-106509344D01*
X125843336Y-106472398D01*
X125681000Y-106400122D01*
X125537239Y-106295673D01*
X125418336Y-106163617D01*
X125329486Y-106009726D01*
X125274575Y-105840725D01*
X125256000Y-105664000D01*
X125274575Y-105487275D01*
X125329486Y-105318274D01*
X125418336Y-105164383D01*
X125537239Y-105032327D01*
X125681000Y-104927878D01*
X125843336Y-104855602D01*
X126017151Y-104818656D01*
X126194849Y-104818656D01*
X126368664Y-104855602D01*
G37*
G36*
X123828664Y-102315602D02*
G01*
X123991000Y-102387878D01*
X124134761Y-102492327D01*
X124253664Y-102624383D01*
X124342514Y-102778274D01*
X124397425Y-102947275D01*
X124416000Y-103124000D01*
X124397425Y-103300725D01*
X124342514Y-103469726D01*
X124253664Y-103623617D01*
X124134761Y-103755673D01*
X123991000Y-103860122D01*
X123828664Y-103932398D01*
X123654849Y-103969344D01*
X123477151Y-103969344D01*
X123303336Y-103932398D01*
X123141000Y-103860122D01*
X122997239Y-103755673D01*
X122878336Y-103623617D01*
X122789486Y-103469726D01*
X122734575Y-103300725D01*
X122716000Y-103124000D01*
X122734575Y-102947275D01*
X122789486Y-102778274D01*
X122878336Y-102624383D01*
X122997239Y-102492327D01*
X123141000Y-102387878D01*
X123303336Y-102315602D01*
X123477151Y-102278656D01*
X123654849Y-102278656D01*
X123828664Y-102315602D01*
G37*
G36*
X126368664Y-102315602D02*
G01*
X126531000Y-102387878D01*
X126674761Y-102492327D01*
X126793664Y-102624383D01*
X126882514Y-102778274D01*
X126937425Y-102947275D01*
X126956000Y-103124000D01*
X126937425Y-103300725D01*
X126882514Y-103469726D01*
X126793664Y-103623617D01*
X126674761Y-103755673D01*
X126531000Y-103860122D01*
X126368664Y-103932398D01*
X126194849Y-103969344D01*
X126017151Y-103969344D01*
X125843336Y-103932398D01*
X125681000Y-103860122D01*
X125537239Y-103755673D01*
X125418336Y-103623617D01*
X125329486Y-103469726D01*
X125274575Y-103300725D01*
X125256000Y-103124000D01*
X125274575Y-102947275D01*
X125329486Y-102778274D01*
X125418336Y-102624383D01*
X125537239Y-102492327D01*
X125681000Y-102387878D01*
X125843336Y-102315602D01*
X126017151Y-102278656D01*
X126194849Y-102278656D01*
X126368664Y-102315602D01*
G37*
G36*
X112621828Y-100218167D02*
G01*
X112775066Y-100271788D01*
X112912530Y-100358162D01*
X113027328Y-100472960D01*
X113113702Y-100610424D01*
X113167323Y-100763662D01*
X113185500Y-100924990D01*
X113167323Y-101086318D01*
X113113702Y-101239556D01*
X113027328Y-101377020D01*
X112912530Y-101491818D01*
X112775066Y-101578192D01*
X112621828Y-101631813D01*
X112460500Y-101649990D01*
X112299172Y-101631813D01*
X112145934Y-101578192D01*
X112008470Y-101491818D01*
X111893672Y-101377020D01*
X111807298Y-101239556D01*
X111753677Y-101086318D01*
X111735500Y-100924990D01*
X111753677Y-100763662D01*
X111807298Y-100610424D01*
X111893672Y-100472960D01*
X112008470Y-100358162D01*
X112145934Y-100271788D01*
X112299172Y-100218167D01*
X112460500Y-100199990D01*
X112621828Y-100218167D01*
G37*
G36*
X110114216Y-99325233D02*
G01*
X110168055Y-99327879D01*
X110174678Y-99329196D01*
X110188816Y-99330123D01*
X110216122Y-99337439D01*
X110284600Y-99351060D01*
X110316923Y-99364449D01*
X110340110Y-99370662D01*
X110360901Y-99382666D01*
X110393222Y-99396054D01*
X110451270Y-99434840D01*
X110475757Y-99448978D01*
X110482459Y-99455680D01*
X110490982Y-99461375D01*
X110574114Y-99544507D01*
X110579808Y-99553029D01*
X110586512Y-99559733D01*
X110600651Y-99584223D01*
X110639435Y-99642267D01*
X110652821Y-99674584D01*
X110664828Y-99695380D01*
X110671041Y-99718570D01*
X110684429Y-99750889D01*
X110698048Y-99819361D01*
X110705367Y-99846674D01*
X110705367Y-99856154D01*
X110707366Y-99866204D01*
X110707366Y-99983775D01*
X110705367Y-99993824D01*
X110705367Y-100003306D01*
X110698047Y-100030621D01*
X110684429Y-100099090D01*
X110671042Y-100131406D01*
X110664828Y-100154600D01*
X110652820Y-100175397D01*
X110639435Y-100207712D01*
X110600655Y-100265749D01*
X110586512Y-100290247D01*
X110579806Y-100296952D01*
X110574114Y-100305472D01*
X110490982Y-100388604D01*
X110482462Y-100394296D01*
X110475757Y-100401002D01*
X110451259Y-100415145D01*
X110393222Y-100453925D01*
X110360907Y-100467310D01*
X110340110Y-100479318D01*
X110316916Y-100485532D01*
X110284600Y-100498919D01*
X110216131Y-100512537D01*
X110188816Y-100519857D01*
X110179009Y-100519921D01*
X110169184Y-100521876D01*
X109411638Y-100524984D01*
X109411610Y-100524982D01*
X109410500Y-100524990D01*
X109406725Y-100524742D01*
X109352944Y-100522100D01*
X109346327Y-100520784D01*
X109332184Y-100519857D01*
X109304866Y-100512537D01*
X109236399Y-100498919D01*
X109204080Y-100485531D01*
X109180890Y-100479318D01*
X109160094Y-100467311D01*
X109127777Y-100453925D01*
X109069733Y-100415141D01*
X109045243Y-100401002D01*
X109038539Y-100394298D01*
X109030017Y-100388604D01*
X108946885Y-100305472D01*
X108941190Y-100296949D01*
X108934488Y-100290247D01*
X108920350Y-100265760D01*
X108881564Y-100207712D01*
X108868176Y-100175391D01*
X108856172Y-100154600D01*
X108849959Y-100131413D01*
X108836570Y-100099090D01*
X108822950Y-100030615D01*
X108815633Y-100003306D01*
X108815633Y-99993825D01*
X108813634Y-99983775D01*
X108813634Y-99866204D01*
X108815633Y-99856153D01*
X108815633Y-99846674D01*
X108822949Y-99819367D01*
X108836570Y-99750889D01*
X108849959Y-99718563D01*
X108856172Y-99695380D01*
X108868174Y-99674590D01*
X108881564Y-99642267D01*
X108920354Y-99584212D01*
X108934488Y-99559733D01*
X108941188Y-99553032D01*
X108946885Y-99544507D01*
X109030017Y-99461375D01*
X109038542Y-99455678D01*
X109045243Y-99448978D01*
X109069722Y-99434844D01*
X109127777Y-99396054D01*
X109160100Y-99382664D01*
X109180890Y-99370662D01*
X109204073Y-99364449D01*
X109236399Y-99351060D01*
X109304885Y-99337437D01*
X109332184Y-99330123D01*
X109341984Y-99330058D01*
X109351815Y-99328103D01*
X110109361Y-99324995D01*
X110109406Y-99324997D01*
X110110500Y-99324990D01*
X110114216Y-99325233D01*
G37*
G36*
X124335000Y-97975000D02*
G01*
X122635000Y-97975000D01*
X122635000Y-96275000D01*
X124335000Y-96275000D01*
X124335000Y-97975000D01*
G37*
G36*
X126287664Y-96316602D02*
G01*
X126450000Y-96388878D01*
X126593761Y-96493327D01*
X126712664Y-96625383D01*
X126801514Y-96779274D01*
X126856425Y-96948275D01*
X126875000Y-97125000D01*
X126856425Y-97301725D01*
X126801514Y-97470726D01*
X126712664Y-97624617D01*
X126593761Y-97756673D01*
X126450000Y-97861122D01*
X126287664Y-97933398D01*
X126113849Y-97970344D01*
X125936151Y-97970344D01*
X125762336Y-97933398D01*
X125600000Y-97861122D01*
X125456239Y-97756673D01*
X125337336Y-97624617D01*
X125248486Y-97470726D01*
X125193575Y-97301725D01*
X125175000Y-97125000D01*
X125193575Y-96948275D01*
X125248486Y-96779274D01*
X125337336Y-96625383D01*
X125456239Y-96493327D01*
X125600000Y-96388878D01*
X125762336Y-96316602D01*
X125936151Y-96279656D01*
X126113849Y-96279656D01*
X126287664Y-96316602D01*
G37*
G36*
X120230000Y-66900008D02*
G01*
X118530000Y-66900008D01*
X118530000Y-65200008D01*
X120230000Y-65200008D01*
X120230000Y-66900008D01*
G37*
G36*
X122182664Y-65241610D02*
G01*
X122345000Y-65313886D01*
X122488761Y-65418335D01*
X122607664Y-65550391D01*
X122696514Y-65704282D01*
X122751425Y-65873283D01*
X122770000Y-66050008D01*
X122751425Y-66226733D01*
X122696514Y-66395734D01*
X122607664Y-66549625D01*
X122488761Y-66681681D01*
X122345000Y-66786130D01*
X122182664Y-66858406D01*
X122008849Y-66895352D01*
X121831151Y-66895352D01*
X121657336Y-66858406D01*
X121495000Y-66786130D01*
X121351239Y-66681681D01*
X121232336Y-66549625D01*
X121143486Y-66395734D01*
X121088575Y-66226733D01*
X121070000Y-66050008D01*
X121088575Y-65873283D01*
X121143486Y-65704282D01*
X121232336Y-65550391D01*
X121351239Y-65418335D01*
X121495000Y-65313886D01*
X121657336Y-65241610D01*
X121831151Y-65204664D01*
X122008849Y-65204664D01*
X122182664Y-65241610D01*
G37*
G36*
X124722664Y-65241610D02*
G01*
X124885000Y-65313886D01*
X125028761Y-65418335D01*
X125147664Y-65550391D01*
X125236514Y-65704282D01*
X125291425Y-65873283D01*
X125310000Y-66050008D01*
X125291425Y-66226733D01*
X125236514Y-66395734D01*
X125147664Y-66549625D01*
X125028761Y-66681681D01*
X124885000Y-66786130D01*
X124722664Y-66858406D01*
X124548849Y-66895352D01*
X124371151Y-66895352D01*
X124197336Y-66858406D01*
X124035000Y-66786130D01*
X123891239Y-66681681D01*
X123772336Y-66549625D01*
X123683486Y-66395734D01*
X123628575Y-66226733D01*
X123610000Y-66050008D01*
X123628575Y-65873283D01*
X123683486Y-65704282D01*
X123772336Y-65550391D01*
X123891239Y-65418335D01*
X124035000Y-65313886D01*
X124197336Y-65241610D01*
X124371151Y-65204664D01*
X124548849Y-65204664D01*
X124722664Y-65241610D01*
G37*
G36*
X127262664Y-65241610D02*
G01*
X127425000Y-65313886D01*
X127568761Y-65418335D01*
X127687664Y-65550391D01*
X127776514Y-65704282D01*
X127831425Y-65873283D01*
X127850000Y-66050008D01*
X127831425Y-66226733D01*
X127776514Y-66395734D01*
X127687664Y-66549625D01*
X127568761Y-66681681D01*
X127425000Y-66786130D01*
X127262664Y-66858406D01*
X127088849Y-66895352D01*
X126911151Y-66895352D01*
X126737336Y-66858406D01*
X126575000Y-66786130D01*
X126431239Y-66681681D01*
X126312336Y-66549625D01*
X126223486Y-66395734D01*
X126168575Y-66226733D01*
X126150000Y-66050008D01*
X126168575Y-65873283D01*
X126223486Y-65704282D01*
X126312336Y-65550391D01*
X126431239Y-65418335D01*
X126575000Y-65313886D01*
X126737336Y-65241610D01*
X126911151Y-65204664D01*
X127088849Y-65204664D01*
X127262664Y-65241610D01*
G37*
G36*
X129802664Y-65241610D02*
G01*
X129965000Y-65313886D01*
X130108761Y-65418335D01*
X130227664Y-65550391D01*
X130316514Y-65704282D01*
X130371425Y-65873283D01*
X130390000Y-66050008D01*
X130371425Y-66226733D01*
X130316514Y-66395734D01*
X130227664Y-66549625D01*
X130108761Y-66681681D01*
X129965000Y-66786130D01*
X129802664Y-66858406D01*
X129628849Y-66895352D01*
X129451151Y-66895352D01*
X129277336Y-66858406D01*
X129115000Y-66786130D01*
X128971239Y-66681681D01*
X128852336Y-66549625D01*
X128763486Y-66395734D01*
X128708575Y-66226733D01*
X128690000Y-66050008D01*
X128708575Y-65873283D01*
X128763486Y-65704282D01*
X128852336Y-65550391D01*
X128971239Y-65418335D01*
X129115000Y-65313886D01*
X129277336Y-65241610D01*
X129451151Y-65204664D01*
X129628849Y-65204664D01*
X129802664Y-65241610D01*
G37*
G36*
X132342664Y-65241610D02*
G01*
X132505000Y-65313886D01*
X132648761Y-65418335D01*
X132767664Y-65550391D01*
X132856514Y-65704282D01*
X132911425Y-65873283D01*
X132930000Y-66050008D01*
X132911425Y-66226733D01*
X132856514Y-66395734D01*
X132767664Y-66549625D01*
X132648761Y-66681681D01*
X132505000Y-66786130D01*
X132342664Y-66858406D01*
X132168849Y-66895352D01*
X131991151Y-66895352D01*
X131817336Y-66858406D01*
X131655000Y-66786130D01*
X131511239Y-66681681D01*
X131392336Y-66549625D01*
X131303486Y-66395734D01*
X131248575Y-66226733D01*
X131230000Y-66050008D01*
X131248575Y-65873283D01*
X131303486Y-65704282D01*
X131392336Y-65550391D01*
X131511239Y-65418335D01*
X131655000Y-65313886D01*
X131817336Y-65241610D01*
X131991151Y-65204664D01*
X132168849Y-65204664D01*
X132342664Y-65241610D01*
G37*
G36*
X134882664Y-65241610D02*
G01*
X135045000Y-65313886D01*
X135188761Y-65418335D01*
X135307664Y-65550391D01*
X135396514Y-65704282D01*
X135451425Y-65873283D01*
X135470000Y-66050008D01*
X135451425Y-66226733D01*
X135396514Y-66395734D01*
X135307664Y-66549625D01*
X135188761Y-66681681D01*
X135045000Y-66786130D01*
X134882664Y-66858406D01*
X134708849Y-66895352D01*
X134531151Y-66895352D01*
X134357336Y-66858406D01*
X134195000Y-66786130D01*
X134051239Y-66681681D01*
X133932336Y-66549625D01*
X133843486Y-66395734D01*
X133788575Y-66226733D01*
X133770000Y-66050008D01*
X133788575Y-65873283D01*
X133843486Y-65704282D01*
X133932336Y-65550391D01*
X134051239Y-65418335D01*
X134195000Y-65313886D01*
X134357336Y-65241610D01*
X134531151Y-65204664D01*
X134708849Y-65204664D01*
X134882664Y-65241610D01*
G37*
G36*
X137422664Y-65241610D02*
G01*
X137585000Y-65313886D01*
X137728761Y-65418335D01*
X137847664Y-65550391D01*
X137936514Y-65704282D01*
X137991425Y-65873283D01*
X138010000Y-66050008D01*
X137991425Y-66226733D01*
X137936514Y-66395734D01*
X137847664Y-66549625D01*
X137728761Y-66681681D01*
X137585000Y-66786130D01*
X137422664Y-66858406D01*
X137248849Y-66895352D01*
X137071151Y-66895352D01*
X136897336Y-66858406D01*
X136735000Y-66786130D01*
X136591239Y-66681681D01*
X136472336Y-66549625D01*
X136383486Y-66395734D01*
X136328575Y-66226733D01*
X136310000Y-66050008D01*
X136328575Y-65873283D01*
X136383486Y-65704282D01*
X136472336Y-65550391D01*
X136591239Y-65418335D01*
X136735000Y-65313886D01*
X136897336Y-65241610D01*
X137071151Y-65204664D01*
X137248849Y-65204664D01*
X137422664Y-65241610D01*
G37*
G36*
X139962664Y-65241610D02*
G01*
X140125000Y-65313886D01*
X140268761Y-65418335D01*
X140387664Y-65550391D01*
X140476514Y-65704282D01*
X140531425Y-65873283D01*
X140550000Y-66050008D01*
X140531425Y-66226733D01*
X140476514Y-66395734D01*
X140387664Y-66549625D01*
X140268761Y-66681681D01*
X140125000Y-66786130D01*
X139962664Y-66858406D01*
X139788849Y-66895352D01*
X139611151Y-66895352D01*
X139437336Y-66858406D01*
X139275000Y-66786130D01*
X139131239Y-66681681D01*
X139012336Y-66549625D01*
X138923486Y-66395734D01*
X138868575Y-66226733D01*
X138850000Y-66050008D01*
X138868575Y-65873283D01*
X138923486Y-65704282D01*
X139012336Y-65550391D01*
X139131239Y-65418335D01*
X139275000Y-65313886D01*
X139437336Y-65241610D01*
X139611151Y-65204664D01*
X139788849Y-65204664D01*
X139962664Y-65241610D01*
G37*
G36*
X142502664Y-65241610D02*
G01*
X142665000Y-65313886D01*
X142808761Y-65418335D01*
X142927664Y-65550391D01*
X143016514Y-65704282D01*
X143071425Y-65873283D01*
X143090000Y-66050008D01*
X143071425Y-66226733D01*
X143016514Y-66395734D01*
X142927664Y-66549625D01*
X142808761Y-66681681D01*
X142665000Y-66786130D01*
X142502664Y-66858406D01*
X142328849Y-66895352D01*
X142151151Y-66895352D01*
X141977336Y-66858406D01*
X141815000Y-66786130D01*
X141671239Y-66681681D01*
X141552336Y-66549625D01*
X141463486Y-66395734D01*
X141408575Y-66226733D01*
X141390000Y-66050008D01*
X141408575Y-65873283D01*
X141463486Y-65704282D01*
X141552336Y-65550391D01*
X141671239Y-65418335D01*
X141815000Y-65313886D01*
X141977336Y-65241610D01*
X142151151Y-65204664D01*
X142328849Y-65204664D01*
X142502664Y-65241610D01*
G37*
G36*
X145042664Y-65241610D02*
G01*
X145205000Y-65313886D01*
X145348761Y-65418335D01*
X145467664Y-65550391D01*
X145556514Y-65704282D01*
X145611425Y-65873283D01*
X145630000Y-66050008D01*
X145611425Y-66226733D01*
X145556514Y-66395734D01*
X145467664Y-66549625D01*
X145348761Y-66681681D01*
X145205000Y-66786130D01*
X145042664Y-66858406D01*
X144868849Y-66895352D01*
X144691151Y-66895352D01*
X144517336Y-66858406D01*
X144355000Y-66786130D01*
X144211239Y-66681681D01*
X144092336Y-66549625D01*
X144003486Y-66395734D01*
X143948575Y-66226733D01*
X143930000Y-66050008D01*
X143948575Y-65873283D01*
X144003486Y-65704282D01*
X144092336Y-65550391D01*
X144211239Y-65418335D01*
X144355000Y-65313886D01*
X144517336Y-65241610D01*
X144691151Y-65204664D01*
X144868849Y-65204664D01*
X145042664Y-65241610D01*
G37*
G36*
X147582664Y-65241610D02*
G01*
X147745000Y-65313886D01*
X147888761Y-65418335D01*
X148007664Y-65550391D01*
X148096514Y-65704282D01*
X148151425Y-65873283D01*
X148170000Y-66050008D01*
X148151425Y-66226733D01*
X148096514Y-66395734D01*
X148007664Y-66549625D01*
X147888761Y-66681681D01*
X147745000Y-66786130D01*
X147582664Y-66858406D01*
X147408849Y-66895352D01*
X147231151Y-66895352D01*
X147057336Y-66858406D01*
X146895000Y-66786130D01*
X146751239Y-66681681D01*
X146632336Y-66549625D01*
X146543486Y-66395734D01*
X146488575Y-66226733D01*
X146470000Y-66050008D01*
X146488575Y-65873283D01*
X146543486Y-65704282D01*
X146632336Y-65550391D01*
X146751239Y-65418335D01*
X146895000Y-65313886D01*
X147057336Y-65241610D01*
X147231151Y-65204664D01*
X147408849Y-65204664D01*
X147582664Y-65241610D01*
G37*
G36*
X150122664Y-65241610D02*
G01*
X150285000Y-65313886D01*
X150428761Y-65418335D01*
X150547664Y-65550391D01*
X150636514Y-65704282D01*
X150691425Y-65873283D01*
X150710000Y-66050008D01*
X150691425Y-66226733D01*
X150636514Y-66395734D01*
X150547664Y-66549625D01*
X150428761Y-66681681D01*
X150285000Y-66786130D01*
X150122664Y-66858406D01*
X149948849Y-66895352D01*
X149771151Y-66895352D01*
X149597336Y-66858406D01*
X149435000Y-66786130D01*
X149291239Y-66681681D01*
X149172336Y-66549625D01*
X149083486Y-66395734D01*
X149028575Y-66226733D01*
X149010000Y-66050008D01*
X149028575Y-65873283D01*
X149083486Y-65704282D01*
X149172336Y-65550391D01*
X149291239Y-65418335D01*
X149435000Y-65313886D01*
X149597336Y-65241610D01*
X149771151Y-65204664D01*
X149948849Y-65204664D01*
X150122664Y-65241610D01*
G37*
G36*
X152662664Y-65241610D02*
G01*
X152825000Y-65313886D01*
X152968761Y-65418335D01*
X153087664Y-65550391D01*
X153176514Y-65704282D01*
X153231425Y-65873283D01*
X153250000Y-66050008D01*
X153231425Y-66226733D01*
X153176514Y-66395734D01*
X153087664Y-66549625D01*
X152968761Y-66681681D01*
X152825000Y-66786130D01*
X152662664Y-66858406D01*
X152488849Y-66895352D01*
X152311151Y-66895352D01*
X152137336Y-66858406D01*
X151975000Y-66786130D01*
X151831239Y-66681681D01*
X151712336Y-66549625D01*
X151623486Y-66395734D01*
X151568575Y-66226733D01*
X151550000Y-66050008D01*
X151568575Y-65873283D01*
X151623486Y-65704282D01*
X151712336Y-65550391D01*
X151831239Y-65418335D01*
X151975000Y-65313886D01*
X152137336Y-65241610D01*
X152311151Y-65204664D01*
X152488849Y-65204664D01*
X152662664Y-65241610D01*
G37*
G36*
X155202664Y-65241610D02*
G01*
X155365000Y-65313886D01*
X155508761Y-65418335D01*
X155627664Y-65550391D01*
X155716514Y-65704282D01*
X155771425Y-65873283D01*
X155790000Y-66050008D01*
X155771425Y-66226733D01*
X155716514Y-66395734D01*
X155627664Y-66549625D01*
X155508761Y-66681681D01*
X155365000Y-66786130D01*
X155202664Y-66858406D01*
X155028849Y-66895352D01*
X154851151Y-66895352D01*
X154677336Y-66858406D01*
X154515000Y-66786130D01*
X154371239Y-66681681D01*
X154252336Y-66549625D01*
X154163486Y-66395734D01*
X154108575Y-66226733D01*
X154090000Y-66050008D01*
X154108575Y-65873283D01*
X154163486Y-65704282D01*
X154252336Y-65550391D01*
X154371239Y-65418335D01*
X154515000Y-65313886D01*
X154677336Y-65241610D01*
X154851151Y-65204664D01*
X155028849Y-65204664D01*
X155202664Y-65241610D01*
G37*
G36*
X157742664Y-65241610D02*
G01*
X157905000Y-65313886D01*
X158048761Y-65418335D01*
X158167664Y-65550391D01*
X158256514Y-65704282D01*
X158311425Y-65873283D01*
X158330000Y-66050008D01*
X158311425Y-66226733D01*
X158256514Y-66395734D01*
X158167664Y-66549625D01*
X158048761Y-66681681D01*
X157905000Y-66786130D01*
X157742664Y-66858406D01*
X157568849Y-66895352D01*
X157391151Y-66895352D01*
X157217336Y-66858406D01*
X157055000Y-66786130D01*
X156911239Y-66681681D01*
X156792336Y-66549625D01*
X156703486Y-66395734D01*
X156648575Y-66226733D01*
X156630000Y-66050008D01*
X156648575Y-65873283D01*
X156703486Y-65704282D01*
X156792336Y-65550391D01*
X156911239Y-65418335D01*
X157055000Y-65313886D01*
X157217336Y-65241610D01*
X157391151Y-65204664D01*
X157568849Y-65204664D01*
X157742664Y-65241610D01*
G37*
G36*
X160282664Y-65241610D02*
G01*
X160445000Y-65313886D01*
X160588761Y-65418335D01*
X160707664Y-65550391D01*
X160796514Y-65704282D01*
X160851425Y-65873283D01*
X160870000Y-66050008D01*
X160851425Y-66226733D01*
X160796514Y-66395734D01*
X160707664Y-66549625D01*
X160588761Y-66681681D01*
X160445000Y-66786130D01*
X160282664Y-66858406D01*
X160108849Y-66895352D01*
X159931151Y-66895352D01*
X159757336Y-66858406D01*
X159595000Y-66786130D01*
X159451239Y-66681681D01*
X159332336Y-66549625D01*
X159243486Y-66395734D01*
X159188575Y-66226733D01*
X159170000Y-66050008D01*
X159188575Y-65873283D01*
X159243486Y-65704282D01*
X159332336Y-65550391D01*
X159451239Y-65418335D01*
X159595000Y-65313886D01*
X159757336Y-65241610D01*
X159931151Y-65204664D01*
X160108849Y-65204664D01*
X160282664Y-65241610D01*
G37*
G36*
X162822664Y-65241610D02*
G01*
X162985000Y-65313886D01*
X163128761Y-65418335D01*
X163247664Y-65550391D01*
X163336514Y-65704282D01*
X163391425Y-65873283D01*
X163410000Y-66050008D01*
X163391425Y-66226733D01*
X163336514Y-66395734D01*
X163247664Y-66549625D01*
X163128761Y-66681681D01*
X162985000Y-66786130D01*
X162822664Y-66858406D01*
X162648849Y-66895352D01*
X162471151Y-66895352D01*
X162297336Y-66858406D01*
X162135000Y-66786130D01*
X161991239Y-66681681D01*
X161872336Y-66549625D01*
X161783486Y-66395734D01*
X161728575Y-66226733D01*
X161710000Y-66050008D01*
X161728575Y-65873283D01*
X161783486Y-65704282D01*
X161872336Y-65550391D01*
X161991239Y-65418335D01*
X162135000Y-65313886D01*
X162297336Y-65241610D01*
X162471151Y-65204664D01*
X162648849Y-65204664D01*
X162822664Y-65241610D01*
G37*
G36*
X165362664Y-65241610D02*
G01*
X165525000Y-65313886D01*
X165668761Y-65418335D01*
X165787664Y-65550391D01*
X165876514Y-65704282D01*
X165931425Y-65873283D01*
X165950000Y-66050008D01*
X165931425Y-66226733D01*
X165876514Y-66395734D01*
X165787664Y-66549625D01*
X165668761Y-66681681D01*
X165525000Y-66786130D01*
X165362664Y-66858406D01*
X165188849Y-66895352D01*
X165011151Y-66895352D01*
X164837336Y-66858406D01*
X164675000Y-66786130D01*
X164531239Y-66681681D01*
X164412336Y-66549625D01*
X164323486Y-66395734D01*
X164268575Y-66226733D01*
X164250000Y-66050008D01*
X164268575Y-65873283D01*
X164323486Y-65704282D01*
X164412336Y-65550391D01*
X164531239Y-65418335D01*
X164675000Y-65313886D01*
X164837336Y-65241610D01*
X165011151Y-65204664D01*
X165188849Y-65204664D01*
X165362664Y-65241610D01*
G37*
G36*
X167902664Y-65241610D02*
G01*
X168065000Y-65313886D01*
X168208761Y-65418335D01*
X168327664Y-65550391D01*
X168416514Y-65704282D01*
X168471425Y-65873283D01*
X168490000Y-66050008D01*
X168471425Y-66226733D01*
X168416514Y-66395734D01*
X168327664Y-66549625D01*
X168208761Y-66681681D01*
X168065000Y-66786130D01*
X167902664Y-66858406D01*
X167728849Y-66895352D01*
X167551151Y-66895352D01*
X167377336Y-66858406D01*
X167215000Y-66786130D01*
X167071239Y-66681681D01*
X166952336Y-66549625D01*
X166863486Y-66395734D01*
X166808575Y-66226733D01*
X166790000Y-66050008D01*
X166808575Y-65873283D01*
X166863486Y-65704282D01*
X166952336Y-65550391D01*
X167071239Y-65418335D01*
X167215000Y-65313886D01*
X167377336Y-65241610D01*
X167551151Y-65204664D01*
X167728849Y-65204664D01*
X167902664Y-65241610D01*
G37*
G36*
X170442664Y-65241610D02*
G01*
X170605000Y-65313886D01*
X170748761Y-65418335D01*
X170867664Y-65550391D01*
X170956514Y-65704282D01*
X171011425Y-65873283D01*
X171030000Y-66050008D01*
X171011425Y-66226733D01*
X170956514Y-66395734D01*
X170867664Y-66549625D01*
X170748761Y-66681681D01*
X170605000Y-66786130D01*
X170442664Y-66858406D01*
X170268849Y-66895352D01*
X170091151Y-66895352D01*
X169917336Y-66858406D01*
X169755000Y-66786130D01*
X169611239Y-66681681D01*
X169492336Y-66549625D01*
X169403486Y-66395734D01*
X169348575Y-66226733D01*
X169330000Y-66050008D01*
X169348575Y-65873283D01*
X169403486Y-65704282D01*
X169492336Y-65550391D01*
X169611239Y-65418335D01*
X169755000Y-65313886D01*
X169917336Y-65241610D01*
X170091151Y-65204664D01*
X170268849Y-65204664D01*
X170442664Y-65241610D01*
G37*
G36*
X172982664Y-65241610D02*
G01*
X173145000Y-65313886D01*
X173288761Y-65418335D01*
X173407664Y-65550391D01*
X173496514Y-65704282D01*
X173551425Y-65873283D01*
X173570000Y-66050008D01*
X173551425Y-66226733D01*
X173496514Y-66395734D01*
X173407664Y-66549625D01*
X173288761Y-66681681D01*
X173145000Y-66786130D01*
X172982664Y-66858406D01*
X172808849Y-66895352D01*
X172631151Y-66895352D01*
X172457336Y-66858406D01*
X172295000Y-66786130D01*
X172151239Y-66681681D01*
X172032336Y-66549625D01*
X171943486Y-66395734D01*
X171888575Y-66226733D01*
X171870000Y-66050008D01*
X171888575Y-65873283D01*
X171943486Y-65704282D01*
X172032336Y-65550391D01*
X172151239Y-65418335D01*
X172295000Y-65313886D01*
X172457336Y-65241610D01*
X172631151Y-65204664D01*
X172808849Y-65204664D01*
X172982664Y-65241610D01*
G37*
G36*
X175522664Y-65241610D02*
G01*
X175685000Y-65313886D01*
X175828761Y-65418335D01*
X175947664Y-65550391D01*
X176036514Y-65704282D01*
X176091425Y-65873283D01*
X176110000Y-66050008D01*
X176091425Y-66226733D01*
X176036514Y-66395734D01*
X175947664Y-66549625D01*
X175828761Y-66681681D01*
X175685000Y-66786130D01*
X175522664Y-66858406D01*
X175348849Y-66895352D01*
X175171151Y-66895352D01*
X174997336Y-66858406D01*
X174835000Y-66786130D01*
X174691239Y-66681681D01*
X174572336Y-66549625D01*
X174483486Y-66395734D01*
X174428575Y-66226733D01*
X174410000Y-66050008D01*
X174428575Y-65873283D01*
X174483486Y-65704282D01*
X174572336Y-65550391D01*
X174691239Y-65418335D01*
X174835000Y-65313886D01*
X174997336Y-65241610D01*
X175171151Y-65204664D01*
X175348849Y-65204664D01*
X175522664Y-65241610D01*
G37*
G36*
X178062664Y-65241610D02*
G01*
X178225000Y-65313886D01*
X178368761Y-65418335D01*
X178487664Y-65550391D01*
X178576514Y-65704282D01*
X178631425Y-65873283D01*
X178650000Y-66050008D01*
X178631425Y-66226733D01*
X178576514Y-66395734D01*
X178487664Y-66549625D01*
X178368761Y-66681681D01*
X178225000Y-66786130D01*
X178062664Y-66858406D01*
X177888849Y-66895352D01*
X177711151Y-66895352D01*
X177537336Y-66858406D01*
X177375000Y-66786130D01*
X177231239Y-66681681D01*
X177112336Y-66549625D01*
X177023486Y-66395734D01*
X176968575Y-66226733D01*
X176950000Y-66050008D01*
X176968575Y-65873283D01*
X177023486Y-65704282D01*
X177112336Y-65550391D01*
X177231239Y-65418335D01*
X177375000Y-65313886D01*
X177537336Y-65241610D01*
X177711151Y-65204664D01*
X177888849Y-65204664D01*
X178062664Y-65241610D01*
G37*
G36*
X180602664Y-65241610D02*
G01*
X180765000Y-65313886D01*
X180908761Y-65418335D01*
X181027664Y-65550391D01*
X181116514Y-65704282D01*
X181171425Y-65873283D01*
X181190000Y-66050008D01*
X181171425Y-66226733D01*
X181116514Y-66395734D01*
X181027664Y-66549625D01*
X180908761Y-66681681D01*
X180765000Y-66786130D01*
X180602664Y-66858406D01*
X180428849Y-66895352D01*
X180251151Y-66895352D01*
X180077336Y-66858406D01*
X179915000Y-66786130D01*
X179771239Y-66681681D01*
X179652336Y-66549625D01*
X179563486Y-66395734D01*
X179508575Y-66226733D01*
X179490000Y-66050008D01*
X179508575Y-65873283D01*
X179563486Y-65704282D01*
X179652336Y-65550391D01*
X179771239Y-65418335D01*
X179915000Y-65313886D01*
X180077336Y-65241610D01*
X180251151Y-65204664D01*
X180428849Y-65204664D01*
X180602664Y-65241610D01*
G37*
G36*
X183142664Y-65241610D02*
G01*
X183305000Y-65313886D01*
X183448761Y-65418335D01*
X183567664Y-65550391D01*
X183656514Y-65704282D01*
X183711425Y-65873283D01*
X183730000Y-66050008D01*
X183711425Y-66226733D01*
X183656514Y-66395734D01*
X183567664Y-66549625D01*
X183448761Y-66681681D01*
X183305000Y-66786130D01*
X183142664Y-66858406D01*
X182968849Y-66895352D01*
X182791151Y-66895352D01*
X182617336Y-66858406D01*
X182455000Y-66786130D01*
X182311239Y-66681681D01*
X182192336Y-66549625D01*
X182103486Y-66395734D01*
X182048575Y-66226733D01*
X182030000Y-66050008D01*
X182048575Y-65873283D01*
X182103486Y-65704282D01*
X182192336Y-65550391D01*
X182311239Y-65418335D01*
X182455000Y-65313886D01*
X182617336Y-65241610D01*
X182791151Y-65204664D01*
X182968849Y-65204664D01*
X183142664Y-65241610D01*
G37*
G36*
X119642664Y-62701610D02*
G01*
X119805000Y-62773886D01*
X119948761Y-62878335D01*
X120067664Y-63010391D01*
X120156514Y-63164282D01*
X120211425Y-63333283D01*
X120230000Y-63510008D01*
X120211425Y-63686733D01*
X120156514Y-63855734D01*
X120067664Y-64009625D01*
X119948761Y-64141681D01*
X119805000Y-64246130D01*
X119642664Y-64318406D01*
X119468849Y-64355352D01*
X119291151Y-64355352D01*
X119117336Y-64318406D01*
X118955000Y-64246130D01*
X118811239Y-64141681D01*
X118692336Y-64009625D01*
X118603486Y-63855734D01*
X118548575Y-63686733D01*
X118530000Y-63510008D01*
X118548575Y-63333283D01*
X118603486Y-63164282D01*
X118692336Y-63010391D01*
X118811239Y-62878335D01*
X118955000Y-62773886D01*
X119117336Y-62701610D01*
X119291151Y-62664664D01*
X119468849Y-62664664D01*
X119642664Y-62701610D01*
G37*
G36*
X122182664Y-62691610D02*
G01*
X122345000Y-62763886D01*
X122488761Y-62868335D01*
X122607664Y-63000391D01*
X122696514Y-63154282D01*
X122751425Y-63323283D01*
X122770000Y-63500008D01*
X122751425Y-63676733D01*
X122696514Y-63845734D01*
X122607664Y-63999625D01*
X122488761Y-64131681D01*
X122345000Y-64236130D01*
X122182664Y-64308406D01*
X122008849Y-64345352D01*
X121831151Y-64345352D01*
X121657336Y-64308406D01*
X121495000Y-64236130D01*
X121351239Y-64131681D01*
X121232336Y-63999625D01*
X121143486Y-63845734D01*
X121088575Y-63676733D01*
X121070000Y-63500008D01*
X121088575Y-63323283D01*
X121143486Y-63154282D01*
X121232336Y-63000391D01*
X121351239Y-62868335D01*
X121495000Y-62763886D01*
X121657336Y-62691610D01*
X121831151Y-62654664D01*
X122008849Y-62654664D01*
X122182664Y-62691610D01*
G37*
G36*
X124722664Y-62691610D02*
G01*
X124885000Y-62763886D01*
X125028761Y-62868335D01*
X125147664Y-63000391D01*
X125236514Y-63154282D01*
X125291425Y-63323283D01*
X125310000Y-63500008D01*
X125291425Y-63676733D01*
X125236514Y-63845734D01*
X125147664Y-63999625D01*
X125028761Y-64131681D01*
X124885000Y-64236130D01*
X124722664Y-64308406D01*
X124548849Y-64345352D01*
X124371151Y-64345352D01*
X124197336Y-64308406D01*
X124035000Y-64236130D01*
X123891239Y-64131681D01*
X123772336Y-63999625D01*
X123683486Y-63845734D01*
X123628575Y-63676733D01*
X123610000Y-63500008D01*
X123628575Y-63323283D01*
X123683486Y-63154282D01*
X123772336Y-63000391D01*
X123891239Y-62868335D01*
X124035000Y-62763886D01*
X124197336Y-62691610D01*
X124371151Y-62654664D01*
X124548849Y-62654664D01*
X124722664Y-62691610D01*
G37*
G36*
X127262664Y-62691610D02*
G01*
X127425000Y-62763886D01*
X127568761Y-62868335D01*
X127687664Y-63000391D01*
X127776514Y-63154282D01*
X127831425Y-63323283D01*
X127850000Y-63500008D01*
X127831425Y-63676733D01*
X127776514Y-63845734D01*
X127687664Y-63999625D01*
X127568761Y-64131681D01*
X127425000Y-64236130D01*
X127262664Y-64308406D01*
X127088849Y-64345352D01*
X126911151Y-64345352D01*
X126737336Y-64308406D01*
X126575000Y-64236130D01*
X126431239Y-64131681D01*
X126312336Y-63999625D01*
X126223486Y-63845734D01*
X126168575Y-63676733D01*
X126150000Y-63500008D01*
X126168575Y-63323283D01*
X126223486Y-63154282D01*
X126312336Y-63000391D01*
X126431239Y-62868335D01*
X126575000Y-62763886D01*
X126737336Y-62691610D01*
X126911151Y-62654664D01*
X127088849Y-62654664D01*
X127262664Y-62691610D01*
G37*
G36*
X129802664Y-62691610D02*
G01*
X129965000Y-62763886D01*
X130108761Y-62868335D01*
X130227664Y-63000391D01*
X130316514Y-63154282D01*
X130371425Y-63323283D01*
X130390000Y-63500008D01*
X130371425Y-63676733D01*
X130316514Y-63845734D01*
X130227664Y-63999625D01*
X130108761Y-64131681D01*
X129965000Y-64236130D01*
X129802664Y-64308406D01*
X129628849Y-64345352D01*
X129451151Y-64345352D01*
X129277336Y-64308406D01*
X129115000Y-64236130D01*
X128971239Y-64131681D01*
X128852336Y-63999625D01*
X128763486Y-63845734D01*
X128708575Y-63676733D01*
X128690000Y-63500008D01*
X128708575Y-63323283D01*
X128763486Y-63154282D01*
X128852336Y-63000391D01*
X128971239Y-62868335D01*
X129115000Y-62763886D01*
X129277336Y-62691610D01*
X129451151Y-62654664D01*
X129628849Y-62654664D01*
X129802664Y-62691610D01*
G37*
G36*
X132342664Y-62691610D02*
G01*
X132505000Y-62763886D01*
X132648761Y-62868335D01*
X132767664Y-63000391D01*
X132856514Y-63154282D01*
X132911425Y-63323283D01*
X132930000Y-63500008D01*
X132911425Y-63676733D01*
X132856514Y-63845734D01*
X132767664Y-63999625D01*
X132648761Y-64131681D01*
X132505000Y-64236130D01*
X132342664Y-64308406D01*
X132168849Y-64345352D01*
X131991151Y-64345352D01*
X131817336Y-64308406D01*
X131655000Y-64236130D01*
X131511239Y-64131681D01*
X131392336Y-63999625D01*
X131303486Y-63845734D01*
X131248575Y-63676733D01*
X131230000Y-63500008D01*
X131248575Y-63323283D01*
X131303486Y-63154282D01*
X131392336Y-63000391D01*
X131511239Y-62868335D01*
X131655000Y-62763886D01*
X131817336Y-62691610D01*
X131991151Y-62654664D01*
X132168849Y-62654664D01*
X132342664Y-62691610D01*
G37*
G36*
X134882664Y-62691610D02*
G01*
X135045000Y-62763886D01*
X135188761Y-62868335D01*
X135307664Y-63000391D01*
X135396514Y-63154282D01*
X135451425Y-63323283D01*
X135470000Y-63500008D01*
X135451425Y-63676733D01*
X135396514Y-63845734D01*
X135307664Y-63999625D01*
X135188761Y-64131681D01*
X135045000Y-64236130D01*
X134882664Y-64308406D01*
X134708849Y-64345352D01*
X134531151Y-64345352D01*
X134357336Y-64308406D01*
X134195000Y-64236130D01*
X134051239Y-64131681D01*
X133932336Y-63999625D01*
X133843486Y-63845734D01*
X133788575Y-63676733D01*
X133770000Y-63500008D01*
X133788575Y-63323283D01*
X133843486Y-63154282D01*
X133932336Y-63000391D01*
X134051239Y-62868335D01*
X134195000Y-62763886D01*
X134357336Y-62691610D01*
X134531151Y-62654664D01*
X134708849Y-62654664D01*
X134882664Y-62691610D01*
G37*
G36*
X137422664Y-62691610D02*
G01*
X137585000Y-62763886D01*
X137728761Y-62868335D01*
X137847664Y-63000391D01*
X137936514Y-63154282D01*
X137991425Y-63323283D01*
X138010000Y-63500008D01*
X137991425Y-63676733D01*
X137936514Y-63845734D01*
X137847664Y-63999625D01*
X137728761Y-64131681D01*
X137585000Y-64236130D01*
X137422664Y-64308406D01*
X137248849Y-64345352D01*
X137071151Y-64345352D01*
X136897336Y-64308406D01*
X136735000Y-64236130D01*
X136591239Y-64131681D01*
X136472336Y-63999625D01*
X136383486Y-63845734D01*
X136328575Y-63676733D01*
X136310000Y-63500008D01*
X136328575Y-63323283D01*
X136383486Y-63154282D01*
X136472336Y-63000391D01*
X136591239Y-62868335D01*
X136735000Y-62763886D01*
X136897336Y-62691610D01*
X137071151Y-62654664D01*
X137248849Y-62654664D01*
X137422664Y-62691610D01*
G37*
G36*
X139962664Y-62691610D02*
G01*
X140125000Y-62763886D01*
X140268761Y-62868335D01*
X140387664Y-63000391D01*
X140476514Y-63154282D01*
X140531425Y-63323283D01*
X140550000Y-63500008D01*
X140531425Y-63676733D01*
X140476514Y-63845734D01*
X140387664Y-63999625D01*
X140268761Y-64131681D01*
X140125000Y-64236130D01*
X139962664Y-64308406D01*
X139788849Y-64345352D01*
X139611151Y-64345352D01*
X139437336Y-64308406D01*
X139275000Y-64236130D01*
X139131239Y-64131681D01*
X139012336Y-63999625D01*
X138923486Y-63845734D01*
X138868575Y-63676733D01*
X138850000Y-63500008D01*
X138868575Y-63323283D01*
X138923486Y-63154282D01*
X139012336Y-63000391D01*
X139131239Y-62868335D01*
X139275000Y-62763886D01*
X139437336Y-62691610D01*
X139611151Y-62654664D01*
X139788849Y-62654664D01*
X139962664Y-62691610D01*
G37*
G36*
X142502664Y-62691610D02*
G01*
X142665000Y-62763886D01*
X142808761Y-62868335D01*
X142927664Y-63000391D01*
X143016514Y-63154282D01*
X143071425Y-63323283D01*
X143090000Y-63500008D01*
X143071425Y-63676733D01*
X143016514Y-63845734D01*
X142927664Y-63999625D01*
X142808761Y-64131681D01*
X142665000Y-64236130D01*
X142502664Y-64308406D01*
X142328849Y-64345352D01*
X142151151Y-64345352D01*
X141977336Y-64308406D01*
X141815000Y-64236130D01*
X141671239Y-64131681D01*
X141552336Y-63999625D01*
X141463486Y-63845734D01*
X141408575Y-63676733D01*
X141390000Y-63500008D01*
X141408575Y-63323283D01*
X141463486Y-63154282D01*
X141552336Y-63000391D01*
X141671239Y-62868335D01*
X141815000Y-62763886D01*
X141977336Y-62691610D01*
X142151151Y-62654664D01*
X142328849Y-62654664D01*
X142502664Y-62691610D01*
G37*
G36*
X145042664Y-62691610D02*
G01*
X145205000Y-62763886D01*
X145348761Y-62868335D01*
X145467664Y-63000391D01*
X145556514Y-63154282D01*
X145611425Y-63323283D01*
X145630000Y-63500008D01*
X145611425Y-63676733D01*
X145556514Y-63845734D01*
X145467664Y-63999625D01*
X145348761Y-64131681D01*
X145205000Y-64236130D01*
X145042664Y-64308406D01*
X144868849Y-64345352D01*
X144691151Y-64345352D01*
X144517336Y-64308406D01*
X144355000Y-64236130D01*
X144211239Y-64131681D01*
X144092336Y-63999625D01*
X144003486Y-63845734D01*
X143948575Y-63676733D01*
X143930000Y-63500008D01*
X143948575Y-63323283D01*
X144003486Y-63154282D01*
X144092336Y-63000391D01*
X144211239Y-62868335D01*
X144355000Y-62763886D01*
X144517336Y-62691610D01*
X144691151Y-62654664D01*
X144868849Y-62654664D01*
X145042664Y-62691610D01*
G37*
G36*
X147582664Y-62691610D02*
G01*
X147745000Y-62763886D01*
X147888761Y-62868335D01*
X148007664Y-63000391D01*
X148096514Y-63154282D01*
X148151425Y-63323283D01*
X148170000Y-63500008D01*
X148151425Y-63676733D01*
X148096514Y-63845734D01*
X148007664Y-63999625D01*
X147888761Y-64131681D01*
X147745000Y-64236130D01*
X147582664Y-64308406D01*
X147408849Y-64345352D01*
X147231151Y-64345352D01*
X147057336Y-64308406D01*
X146895000Y-64236130D01*
X146751239Y-64131681D01*
X146632336Y-63999625D01*
X146543486Y-63845734D01*
X146488575Y-63676733D01*
X146470000Y-63500008D01*
X146488575Y-63323283D01*
X146543486Y-63154282D01*
X146632336Y-63000391D01*
X146751239Y-62868335D01*
X146895000Y-62763886D01*
X147057336Y-62691610D01*
X147231151Y-62654664D01*
X147408849Y-62654664D01*
X147582664Y-62691610D01*
G37*
G36*
X150122664Y-62691610D02*
G01*
X150285000Y-62763886D01*
X150428761Y-62868335D01*
X150547664Y-63000391D01*
X150636514Y-63154282D01*
X150691425Y-63323283D01*
X150710000Y-63500008D01*
X150691425Y-63676733D01*
X150636514Y-63845734D01*
X150547664Y-63999625D01*
X150428761Y-64131681D01*
X150285000Y-64236130D01*
X150122664Y-64308406D01*
X149948849Y-64345352D01*
X149771151Y-64345352D01*
X149597336Y-64308406D01*
X149435000Y-64236130D01*
X149291239Y-64131681D01*
X149172336Y-63999625D01*
X149083486Y-63845734D01*
X149028575Y-63676733D01*
X149010000Y-63500008D01*
X149028575Y-63323283D01*
X149083486Y-63154282D01*
X149172336Y-63000391D01*
X149291239Y-62868335D01*
X149435000Y-62763886D01*
X149597336Y-62691610D01*
X149771151Y-62654664D01*
X149948849Y-62654664D01*
X150122664Y-62691610D01*
G37*
G36*
X152662664Y-62691610D02*
G01*
X152825000Y-62763886D01*
X152968761Y-62868335D01*
X153087664Y-63000391D01*
X153176514Y-63154282D01*
X153231425Y-63323283D01*
X153250000Y-63500008D01*
X153231425Y-63676733D01*
X153176514Y-63845734D01*
X153087664Y-63999625D01*
X152968761Y-64131681D01*
X152825000Y-64236130D01*
X152662664Y-64308406D01*
X152488849Y-64345352D01*
X152311151Y-64345352D01*
X152137336Y-64308406D01*
X151975000Y-64236130D01*
X151831239Y-64131681D01*
X151712336Y-63999625D01*
X151623486Y-63845734D01*
X151568575Y-63676733D01*
X151550000Y-63500008D01*
X151568575Y-63323283D01*
X151623486Y-63154282D01*
X151712336Y-63000391D01*
X151831239Y-62868335D01*
X151975000Y-62763886D01*
X152137336Y-62691610D01*
X152311151Y-62654664D01*
X152488849Y-62654664D01*
X152662664Y-62691610D01*
G37*
G36*
X155202664Y-62691610D02*
G01*
X155365000Y-62763886D01*
X155508761Y-62868335D01*
X155627664Y-63000391D01*
X155716514Y-63154282D01*
X155771425Y-63323283D01*
X155790000Y-63500008D01*
X155771425Y-63676733D01*
X155716514Y-63845734D01*
X155627664Y-63999625D01*
X155508761Y-64131681D01*
X155365000Y-64236130D01*
X155202664Y-64308406D01*
X155028849Y-64345352D01*
X154851151Y-64345352D01*
X154677336Y-64308406D01*
X154515000Y-64236130D01*
X154371239Y-64131681D01*
X154252336Y-63999625D01*
X154163486Y-63845734D01*
X154108575Y-63676733D01*
X154090000Y-63500008D01*
X154108575Y-63323283D01*
X154163486Y-63154282D01*
X154252336Y-63000391D01*
X154371239Y-62868335D01*
X154515000Y-62763886D01*
X154677336Y-62691610D01*
X154851151Y-62654664D01*
X155028849Y-62654664D01*
X155202664Y-62691610D01*
G37*
G36*
X157742664Y-62691610D02*
G01*
X157905000Y-62763886D01*
X158048761Y-62868335D01*
X158167664Y-63000391D01*
X158256514Y-63154282D01*
X158311425Y-63323283D01*
X158330000Y-63500008D01*
X158311425Y-63676733D01*
X158256514Y-63845734D01*
X158167664Y-63999625D01*
X158048761Y-64131681D01*
X157905000Y-64236130D01*
X157742664Y-64308406D01*
X157568849Y-64345352D01*
X157391151Y-64345352D01*
X157217336Y-64308406D01*
X157055000Y-64236130D01*
X156911239Y-64131681D01*
X156792336Y-63999625D01*
X156703486Y-63845734D01*
X156648575Y-63676733D01*
X156630000Y-63500008D01*
X156648575Y-63323283D01*
X156703486Y-63154282D01*
X156792336Y-63000391D01*
X156911239Y-62868335D01*
X157055000Y-62763886D01*
X157217336Y-62691610D01*
X157391151Y-62654664D01*
X157568849Y-62654664D01*
X157742664Y-62691610D01*
G37*
G36*
X160282664Y-62691610D02*
G01*
X160445000Y-62763886D01*
X160588761Y-62868335D01*
X160707664Y-63000391D01*
X160796514Y-63154282D01*
X160851425Y-63323283D01*
X160870000Y-63500008D01*
X160851425Y-63676733D01*
X160796514Y-63845734D01*
X160707664Y-63999625D01*
X160588761Y-64131681D01*
X160445000Y-64236130D01*
X160282664Y-64308406D01*
X160108849Y-64345352D01*
X159931151Y-64345352D01*
X159757336Y-64308406D01*
X159595000Y-64236130D01*
X159451239Y-64131681D01*
X159332336Y-63999625D01*
X159243486Y-63845734D01*
X159188575Y-63676733D01*
X159170000Y-63500008D01*
X159188575Y-63323283D01*
X159243486Y-63154282D01*
X159332336Y-63000391D01*
X159451239Y-62868335D01*
X159595000Y-62763886D01*
X159757336Y-62691610D01*
X159931151Y-62654664D01*
X160108849Y-62654664D01*
X160282664Y-62691610D01*
G37*
G36*
X162822664Y-62691610D02*
G01*
X162985000Y-62763886D01*
X163128761Y-62868335D01*
X163247664Y-63000391D01*
X163336514Y-63154282D01*
X163391425Y-63323283D01*
X163410000Y-63500008D01*
X163391425Y-63676733D01*
X163336514Y-63845734D01*
X163247664Y-63999625D01*
X163128761Y-64131681D01*
X162985000Y-64236130D01*
X162822664Y-64308406D01*
X162648849Y-64345352D01*
X162471151Y-64345352D01*
X162297336Y-64308406D01*
X162135000Y-64236130D01*
X161991239Y-64131681D01*
X161872336Y-63999625D01*
X161783486Y-63845734D01*
X161728575Y-63676733D01*
X161710000Y-63500008D01*
X161728575Y-63323283D01*
X161783486Y-63154282D01*
X161872336Y-63000391D01*
X161991239Y-62868335D01*
X162135000Y-62763886D01*
X162297336Y-62691610D01*
X162471151Y-62654664D01*
X162648849Y-62654664D01*
X162822664Y-62691610D01*
G37*
G36*
X165362664Y-62691610D02*
G01*
X165525000Y-62763886D01*
X165668761Y-62868335D01*
X165787664Y-63000391D01*
X165876514Y-63154282D01*
X165931425Y-63323283D01*
X165950000Y-63500008D01*
X165931425Y-63676733D01*
X165876514Y-63845734D01*
X165787664Y-63999625D01*
X165668761Y-64131681D01*
X165525000Y-64236130D01*
X165362664Y-64308406D01*
X165188849Y-64345352D01*
X165011151Y-64345352D01*
X164837336Y-64308406D01*
X164675000Y-64236130D01*
X164531239Y-64131681D01*
X164412336Y-63999625D01*
X164323486Y-63845734D01*
X164268575Y-63676733D01*
X164250000Y-63500008D01*
X164268575Y-63323283D01*
X164323486Y-63154282D01*
X164412336Y-63000391D01*
X164531239Y-62868335D01*
X164675000Y-62763886D01*
X164837336Y-62691610D01*
X165011151Y-62654664D01*
X165188849Y-62654664D01*
X165362664Y-62691610D01*
G37*
G36*
X167902664Y-62691610D02*
G01*
X168065000Y-62763886D01*
X168208761Y-62868335D01*
X168327664Y-63000391D01*
X168416514Y-63154282D01*
X168471425Y-63323283D01*
X168490000Y-63500008D01*
X168471425Y-63676733D01*
X168416514Y-63845734D01*
X168327664Y-63999625D01*
X168208761Y-64131681D01*
X168065000Y-64236130D01*
X167902664Y-64308406D01*
X167728849Y-64345352D01*
X167551151Y-64345352D01*
X167377336Y-64308406D01*
X167215000Y-64236130D01*
X167071239Y-64131681D01*
X166952336Y-63999625D01*
X166863486Y-63845734D01*
X166808575Y-63676733D01*
X166790000Y-63500008D01*
X166808575Y-63323283D01*
X166863486Y-63154282D01*
X166952336Y-63000391D01*
X167071239Y-62868335D01*
X167215000Y-62763886D01*
X167377336Y-62691610D01*
X167551151Y-62654664D01*
X167728849Y-62654664D01*
X167902664Y-62691610D01*
G37*
G36*
X170442664Y-62691610D02*
G01*
X170605000Y-62763886D01*
X170748761Y-62868335D01*
X170867664Y-63000391D01*
X170956514Y-63154282D01*
X171011425Y-63323283D01*
X171030000Y-63500008D01*
X171011425Y-63676733D01*
X170956514Y-63845734D01*
X170867664Y-63999625D01*
X170748761Y-64131681D01*
X170605000Y-64236130D01*
X170442664Y-64308406D01*
X170268849Y-64345352D01*
X170091151Y-64345352D01*
X169917336Y-64308406D01*
X169755000Y-64236130D01*
X169611239Y-64131681D01*
X169492336Y-63999625D01*
X169403486Y-63845734D01*
X169348575Y-63676733D01*
X169330000Y-63500008D01*
X169348575Y-63323283D01*
X169403486Y-63154282D01*
X169492336Y-63000391D01*
X169611239Y-62868335D01*
X169755000Y-62763886D01*
X169917336Y-62691610D01*
X170091151Y-62654664D01*
X170268849Y-62654664D01*
X170442664Y-62691610D01*
G37*
G36*
X172982664Y-62691610D02*
G01*
X173145000Y-62763886D01*
X173288761Y-62868335D01*
X173407664Y-63000391D01*
X173496514Y-63154282D01*
X173551425Y-63323283D01*
X173570000Y-63500008D01*
X173551425Y-63676733D01*
X173496514Y-63845734D01*
X173407664Y-63999625D01*
X173288761Y-64131681D01*
X173145000Y-64236130D01*
X172982664Y-64308406D01*
X172808849Y-64345352D01*
X172631151Y-64345352D01*
X172457336Y-64308406D01*
X172295000Y-64236130D01*
X172151239Y-64131681D01*
X172032336Y-63999625D01*
X171943486Y-63845734D01*
X171888575Y-63676733D01*
X171870000Y-63500008D01*
X171888575Y-63323283D01*
X171943486Y-63154282D01*
X172032336Y-63000391D01*
X172151239Y-62868335D01*
X172295000Y-62763886D01*
X172457336Y-62691610D01*
X172631151Y-62654664D01*
X172808849Y-62654664D01*
X172982664Y-62691610D01*
G37*
G36*
X175522664Y-62691610D02*
G01*
X175685000Y-62763886D01*
X175828761Y-62868335D01*
X175947664Y-63000391D01*
X176036514Y-63154282D01*
X176091425Y-63323283D01*
X176110000Y-63500008D01*
X176091425Y-63676733D01*
X176036514Y-63845734D01*
X175947664Y-63999625D01*
X175828761Y-64131681D01*
X175685000Y-64236130D01*
X175522664Y-64308406D01*
X175348849Y-64345352D01*
X175171151Y-64345352D01*
X174997336Y-64308406D01*
X174835000Y-64236130D01*
X174691239Y-64131681D01*
X174572336Y-63999625D01*
X174483486Y-63845734D01*
X174428575Y-63676733D01*
X174410000Y-63500008D01*
X174428575Y-63323283D01*
X174483486Y-63154282D01*
X174572336Y-63000391D01*
X174691239Y-62868335D01*
X174835000Y-62763886D01*
X174997336Y-62691610D01*
X175171151Y-62654664D01*
X175348849Y-62654664D01*
X175522664Y-62691610D01*
G37*
G36*
X178062664Y-62691610D02*
G01*
X178225000Y-62763886D01*
X178368761Y-62868335D01*
X178487664Y-63000391D01*
X178576514Y-63154282D01*
X178631425Y-63323283D01*
X178650000Y-63500008D01*
X178631425Y-63676733D01*
X178576514Y-63845734D01*
X178487664Y-63999625D01*
X178368761Y-64131681D01*
X178225000Y-64236130D01*
X178062664Y-64308406D01*
X177888849Y-64345352D01*
X177711151Y-64345352D01*
X177537336Y-64308406D01*
X177375000Y-64236130D01*
X177231239Y-64131681D01*
X177112336Y-63999625D01*
X177023486Y-63845734D01*
X176968575Y-63676733D01*
X176950000Y-63500008D01*
X176968575Y-63323283D01*
X177023486Y-63154282D01*
X177112336Y-63000391D01*
X177231239Y-62868335D01*
X177375000Y-62763886D01*
X177537336Y-62691610D01*
X177711151Y-62654664D01*
X177888849Y-62654664D01*
X178062664Y-62691610D01*
G37*
G36*
X180602664Y-62691610D02*
G01*
X180765000Y-62763886D01*
X180908761Y-62868335D01*
X181027664Y-63000391D01*
X181116514Y-63154282D01*
X181171425Y-63323283D01*
X181190000Y-63500008D01*
X181171425Y-63676733D01*
X181116514Y-63845734D01*
X181027664Y-63999625D01*
X180908761Y-64131681D01*
X180765000Y-64236130D01*
X180602664Y-64308406D01*
X180428849Y-64345352D01*
X180251151Y-64345352D01*
X180077336Y-64308406D01*
X179915000Y-64236130D01*
X179771239Y-64131681D01*
X179652336Y-63999625D01*
X179563486Y-63845734D01*
X179508575Y-63676733D01*
X179490000Y-63500008D01*
X179508575Y-63323283D01*
X179563486Y-63154282D01*
X179652336Y-63000391D01*
X179771239Y-62868335D01*
X179915000Y-62763886D01*
X180077336Y-62691610D01*
X180251151Y-62654664D01*
X180428849Y-62654664D01*
X180602664Y-62691610D01*
G37*
G36*
X183142664Y-62691610D02*
G01*
X183305000Y-62763886D01*
X183448761Y-62868335D01*
X183567664Y-63000391D01*
X183656514Y-63154282D01*
X183711425Y-63323283D01*
X183730000Y-63500008D01*
X183711425Y-63676733D01*
X183656514Y-63845734D01*
X183567664Y-63999625D01*
X183448761Y-64131681D01*
X183305000Y-64236130D01*
X183142664Y-64308406D01*
X182968849Y-64345352D01*
X182791151Y-64345352D01*
X182617336Y-64308406D01*
X182455000Y-64236130D01*
X182311239Y-64131681D01*
X182192336Y-63999625D01*
X182103486Y-63845734D01*
X182048575Y-63676733D01*
X182030000Y-63500008D01*
X182048575Y-63323283D01*
X182103486Y-63154282D01*
X182192336Y-63000391D01*
X182311239Y-62868335D01*
X182455000Y-62763886D01*
X182617336Y-62691610D01*
X182791151Y-62654664D01*
X182968849Y-62654664D01*
X183142664Y-62691610D01*
G37*
G36*
X120230000Y-61820008D02*
G01*
X118530000Y-61820008D01*
X118530000Y-60120008D01*
X120230000Y-60120008D01*
X120230000Y-61820008D01*
G37*
G36*
X122182664Y-60161610D02*
G01*
X122345000Y-60233886D01*
X122488761Y-60338335D01*
X122607664Y-60470391D01*
X122696514Y-60624282D01*
X122751425Y-60793283D01*
X122770000Y-60970008D01*
X122751425Y-61146733D01*
X122696514Y-61315734D01*
X122607664Y-61469625D01*
X122488761Y-61601681D01*
X122345000Y-61706130D01*
X122182664Y-61778406D01*
X122008849Y-61815352D01*
X121831151Y-61815352D01*
X121657336Y-61778406D01*
X121495000Y-61706130D01*
X121351239Y-61601681D01*
X121232336Y-61469625D01*
X121143486Y-61315734D01*
X121088575Y-61146733D01*
X121070000Y-60970008D01*
X121088575Y-60793283D01*
X121143486Y-60624282D01*
X121232336Y-60470391D01*
X121351239Y-60338335D01*
X121495000Y-60233886D01*
X121657336Y-60161610D01*
X121831151Y-60124664D01*
X122008849Y-60124664D01*
X122182664Y-60161610D01*
G37*
G36*
X124722664Y-60161610D02*
G01*
X124885000Y-60233886D01*
X125028761Y-60338335D01*
X125147664Y-60470391D01*
X125236514Y-60624282D01*
X125291425Y-60793283D01*
X125310000Y-60970008D01*
X125291425Y-61146733D01*
X125236514Y-61315734D01*
X125147664Y-61469625D01*
X125028761Y-61601681D01*
X124885000Y-61706130D01*
X124722664Y-61778406D01*
X124548849Y-61815352D01*
X124371151Y-61815352D01*
X124197336Y-61778406D01*
X124035000Y-61706130D01*
X123891239Y-61601681D01*
X123772336Y-61469625D01*
X123683486Y-61315734D01*
X123628575Y-61146733D01*
X123610000Y-60970008D01*
X123628575Y-60793283D01*
X123683486Y-60624282D01*
X123772336Y-60470391D01*
X123891239Y-60338335D01*
X124035000Y-60233886D01*
X124197336Y-60161610D01*
X124371151Y-60124664D01*
X124548849Y-60124664D01*
X124722664Y-60161610D01*
G37*
G36*
X127262664Y-60161610D02*
G01*
X127425000Y-60233886D01*
X127568761Y-60338335D01*
X127687664Y-60470391D01*
X127776514Y-60624282D01*
X127831425Y-60793283D01*
X127850000Y-60970008D01*
X127831425Y-61146733D01*
X127776514Y-61315734D01*
X127687664Y-61469625D01*
X127568761Y-61601681D01*
X127425000Y-61706130D01*
X127262664Y-61778406D01*
X127088849Y-61815352D01*
X126911151Y-61815352D01*
X126737336Y-61778406D01*
X126575000Y-61706130D01*
X126431239Y-61601681D01*
X126312336Y-61469625D01*
X126223486Y-61315734D01*
X126168575Y-61146733D01*
X126150000Y-60970008D01*
X126168575Y-60793283D01*
X126223486Y-60624282D01*
X126312336Y-60470391D01*
X126431239Y-60338335D01*
X126575000Y-60233886D01*
X126737336Y-60161610D01*
X126911151Y-60124664D01*
X127088849Y-60124664D01*
X127262664Y-60161610D01*
G37*
G36*
X129802664Y-60161610D02*
G01*
X129965000Y-60233886D01*
X130108761Y-60338335D01*
X130227664Y-60470391D01*
X130316514Y-60624282D01*
X130371425Y-60793283D01*
X130390000Y-60970008D01*
X130371425Y-61146733D01*
X130316514Y-61315734D01*
X130227664Y-61469625D01*
X130108761Y-61601681D01*
X129965000Y-61706130D01*
X129802664Y-61778406D01*
X129628849Y-61815352D01*
X129451151Y-61815352D01*
X129277336Y-61778406D01*
X129115000Y-61706130D01*
X128971239Y-61601681D01*
X128852336Y-61469625D01*
X128763486Y-61315734D01*
X128708575Y-61146733D01*
X128690000Y-60970008D01*
X128708575Y-60793283D01*
X128763486Y-60624282D01*
X128852336Y-60470391D01*
X128971239Y-60338335D01*
X129115000Y-60233886D01*
X129277336Y-60161610D01*
X129451151Y-60124664D01*
X129628849Y-60124664D01*
X129802664Y-60161610D01*
G37*
G36*
X132342664Y-60161610D02*
G01*
X132505000Y-60233886D01*
X132648761Y-60338335D01*
X132767664Y-60470391D01*
X132856514Y-60624282D01*
X132911425Y-60793283D01*
X132930000Y-60970008D01*
X132911425Y-61146733D01*
X132856514Y-61315734D01*
X132767664Y-61469625D01*
X132648761Y-61601681D01*
X132505000Y-61706130D01*
X132342664Y-61778406D01*
X132168849Y-61815352D01*
X131991151Y-61815352D01*
X131817336Y-61778406D01*
X131655000Y-61706130D01*
X131511239Y-61601681D01*
X131392336Y-61469625D01*
X131303486Y-61315734D01*
X131248575Y-61146733D01*
X131230000Y-60970008D01*
X131248575Y-60793283D01*
X131303486Y-60624282D01*
X131392336Y-60470391D01*
X131511239Y-60338335D01*
X131655000Y-60233886D01*
X131817336Y-60161610D01*
X131991151Y-60124664D01*
X132168849Y-60124664D01*
X132342664Y-60161610D01*
G37*
G36*
X134882664Y-60161610D02*
G01*
X135045000Y-60233886D01*
X135188761Y-60338335D01*
X135307664Y-60470391D01*
X135396514Y-60624282D01*
X135451425Y-60793283D01*
X135470000Y-60970008D01*
X135451425Y-61146733D01*
X135396514Y-61315734D01*
X135307664Y-61469625D01*
X135188761Y-61601681D01*
X135045000Y-61706130D01*
X134882664Y-61778406D01*
X134708849Y-61815352D01*
X134531151Y-61815352D01*
X134357336Y-61778406D01*
X134195000Y-61706130D01*
X134051239Y-61601681D01*
X133932336Y-61469625D01*
X133843486Y-61315734D01*
X133788575Y-61146733D01*
X133770000Y-60970008D01*
X133788575Y-60793283D01*
X133843486Y-60624282D01*
X133932336Y-60470391D01*
X134051239Y-60338335D01*
X134195000Y-60233886D01*
X134357336Y-60161610D01*
X134531151Y-60124664D01*
X134708849Y-60124664D01*
X134882664Y-60161610D01*
G37*
G36*
X137422664Y-60161610D02*
G01*
X137585000Y-60233886D01*
X137728761Y-60338335D01*
X137847664Y-60470391D01*
X137936514Y-60624282D01*
X137991425Y-60793283D01*
X138010000Y-60970008D01*
X137991425Y-61146733D01*
X137936514Y-61315734D01*
X137847664Y-61469625D01*
X137728761Y-61601681D01*
X137585000Y-61706130D01*
X137422664Y-61778406D01*
X137248849Y-61815352D01*
X137071151Y-61815352D01*
X136897336Y-61778406D01*
X136735000Y-61706130D01*
X136591239Y-61601681D01*
X136472336Y-61469625D01*
X136383486Y-61315734D01*
X136328575Y-61146733D01*
X136310000Y-60970008D01*
X136328575Y-60793283D01*
X136383486Y-60624282D01*
X136472336Y-60470391D01*
X136591239Y-60338335D01*
X136735000Y-60233886D01*
X136897336Y-60161610D01*
X137071151Y-60124664D01*
X137248849Y-60124664D01*
X137422664Y-60161610D01*
G37*
G36*
X139962664Y-60161610D02*
G01*
X140125000Y-60233886D01*
X140268761Y-60338335D01*
X140387664Y-60470391D01*
X140476514Y-60624282D01*
X140531425Y-60793283D01*
X140550000Y-60970008D01*
X140531425Y-61146733D01*
X140476514Y-61315734D01*
X140387664Y-61469625D01*
X140268761Y-61601681D01*
X140125000Y-61706130D01*
X139962664Y-61778406D01*
X139788849Y-61815352D01*
X139611151Y-61815352D01*
X139437336Y-61778406D01*
X139275000Y-61706130D01*
X139131239Y-61601681D01*
X139012336Y-61469625D01*
X138923486Y-61315734D01*
X138868575Y-61146733D01*
X138850000Y-60970008D01*
X138868575Y-60793283D01*
X138923486Y-60624282D01*
X139012336Y-60470391D01*
X139131239Y-60338335D01*
X139275000Y-60233886D01*
X139437336Y-60161610D01*
X139611151Y-60124664D01*
X139788849Y-60124664D01*
X139962664Y-60161610D01*
G37*
G36*
X142502664Y-60161610D02*
G01*
X142665000Y-60233886D01*
X142808761Y-60338335D01*
X142927664Y-60470391D01*
X143016514Y-60624282D01*
X143071425Y-60793283D01*
X143090000Y-60970008D01*
X143071425Y-61146733D01*
X143016514Y-61315734D01*
X142927664Y-61469625D01*
X142808761Y-61601681D01*
X142665000Y-61706130D01*
X142502664Y-61778406D01*
X142328849Y-61815352D01*
X142151151Y-61815352D01*
X141977336Y-61778406D01*
X141815000Y-61706130D01*
X141671239Y-61601681D01*
X141552336Y-61469625D01*
X141463486Y-61315734D01*
X141408575Y-61146733D01*
X141390000Y-60970008D01*
X141408575Y-60793283D01*
X141463486Y-60624282D01*
X141552336Y-60470391D01*
X141671239Y-60338335D01*
X141815000Y-60233886D01*
X141977336Y-60161610D01*
X142151151Y-60124664D01*
X142328849Y-60124664D01*
X142502664Y-60161610D01*
G37*
G36*
X145042664Y-60161610D02*
G01*
X145205000Y-60233886D01*
X145348761Y-60338335D01*
X145467664Y-60470391D01*
X145556514Y-60624282D01*
X145611425Y-60793283D01*
X145630000Y-60970008D01*
X145611425Y-61146733D01*
X145556514Y-61315734D01*
X145467664Y-61469625D01*
X145348761Y-61601681D01*
X145205000Y-61706130D01*
X145042664Y-61778406D01*
X144868849Y-61815352D01*
X144691151Y-61815352D01*
X144517336Y-61778406D01*
X144355000Y-61706130D01*
X144211239Y-61601681D01*
X144092336Y-61469625D01*
X144003486Y-61315734D01*
X143948575Y-61146733D01*
X143930000Y-60970008D01*
X143948575Y-60793283D01*
X144003486Y-60624282D01*
X144092336Y-60470391D01*
X144211239Y-60338335D01*
X144355000Y-60233886D01*
X144517336Y-60161610D01*
X144691151Y-60124664D01*
X144868849Y-60124664D01*
X145042664Y-60161610D01*
G37*
G36*
X147582664Y-60161610D02*
G01*
X147745000Y-60233886D01*
X147888761Y-60338335D01*
X148007664Y-60470391D01*
X148096514Y-60624282D01*
X148151425Y-60793283D01*
X148170000Y-60970008D01*
X148151425Y-61146733D01*
X148096514Y-61315734D01*
X148007664Y-61469625D01*
X147888761Y-61601681D01*
X147745000Y-61706130D01*
X147582664Y-61778406D01*
X147408849Y-61815352D01*
X147231151Y-61815352D01*
X147057336Y-61778406D01*
X146895000Y-61706130D01*
X146751239Y-61601681D01*
X146632336Y-61469625D01*
X146543486Y-61315734D01*
X146488575Y-61146733D01*
X146470000Y-60970008D01*
X146488575Y-60793283D01*
X146543486Y-60624282D01*
X146632336Y-60470391D01*
X146751239Y-60338335D01*
X146895000Y-60233886D01*
X147057336Y-60161610D01*
X147231151Y-60124664D01*
X147408849Y-60124664D01*
X147582664Y-60161610D01*
G37*
G36*
X150122664Y-60161610D02*
G01*
X150285000Y-60233886D01*
X150428761Y-60338335D01*
X150547664Y-60470391D01*
X150636514Y-60624282D01*
X150691425Y-60793283D01*
X150710000Y-60970008D01*
X150691425Y-61146733D01*
X150636514Y-61315734D01*
X150547664Y-61469625D01*
X150428761Y-61601681D01*
X150285000Y-61706130D01*
X150122664Y-61778406D01*
X149948849Y-61815352D01*
X149771151Y-61815352D01*
X149597336Y-61778406D01*
X149435000Y-61706130D01*
X149291239Y-61601681D01*
X149172336Y-61469625D01*
X149083486Y-61315734D01*
X149028575Y-61146733D01*
X149010000Y-60970008D01*
X149028575Y-60793283D01*
X149083486Y-60624282D01*
X149172336Y-60470391D01*
X149291239Y-60338335D01*
X149435000Y-60233886D01*
X149597336Y-60161610D01*
X149771151Y-60124664D01*
X149948849Y-60124664D01*
X150122664Y-60161610D01*
G37*
G36*
X152662664Y-60161610D02*
G01*
X152825000Y-60233886D01*
X152968761Y-60338335D01*
X153087664Y-60470391D01*
X153176514Y-60624282D01*
X153231425Y-60793283D01*
X153250000Y-60970008D01*
X153231425Y-61146733D01*
X153176514Y-61315734D01*
X153087664Y-61469625D01*
X152968761Y-61601681D01*
X152825000Y-61706130D01*
X152662664Y-61778406D01*
X152488849Y-61815352D01*
X152311151Y-61815352D01*
X152137336Y-61778406D01*
X151975000Y-61706130D01*
X151831239Y-61601681D01*
X151712336Y-61469625D01*
X151623486Y-61315734D01*
X151568575Y-61146733D01*
X151550000Y-60970008D01*
X151568575Y-60793283D01*
X151623486Y-60624282D01*
X151712336Y-60470391D01*
X151831239Y-60338335D01*
X151975000Y-60233886D01*
X152137336Y-60161610D01*
X152311151Y-60124664D01*
X152488849Y-60124664D01*
X152662664Y-60161610D01*
G37*
G36*
X155202664Y-60161610D02*
G01*
X155365000Y-60233886D01*
X155508761Y-60338335D01*
X155627664Y-60470391D01*
X155716514Y-60624282D01*
X155771425Y-60793283D01*
X155790000Y-60970008D01*
X155771425Y-61146733D01*
X155716514Y-61315734D01*
X155627664Y-61469625D01*
X155508761Y-61601681D01*
X155365000Y-61706130D01*
X155202664Y-61778406D01*
X155028849Y-61815352D01*
X154851151Y-61815352D01*
X154677336Y-61778406D01*
X154515000Y-61706130D01*
X154371239Y-61601681D01*
X154252336Y-61469625D01*
X154163486Y-61315734D01*
X154108575Y-61146733D01*
X154090000Y-60970008D01*
X154108575Y-60793283D01*
X154163486Y-60624282D01*
X154252336Y-60470391D01*
X154371239Y-60338335D01*
X154515000Y-60233886D01*
X154677336Y-60161610D01*
X154851151Y-60124664D01*
X155028849Y-60124664D01*
X155202664Y-60161610D01*
G37*
G36*
X157742664Y-60161610D02*
G01*
X157905000Y-60233886D01*
X158048761Y-60338335D01*
X158167664Y-60470391D01*
X158256514Y-60624282D01*
X158311425Y-60793283D01*
X158330000Y-60970008D01*
X158311425Y-61146733D01*
X158256514Y-61315734D01*
X158167664Y-61469625D01*
X158048761Y-61601681D01*
X157905000Y-61706130D01*
X157742664Y-61778406D01*
X157568849Y-61815352D01*
X157391151Y-61815352D01*
X157217336Y-61778406D01*
X157055000Y-61706130D01*
X156911239Y-61601681D01*
X156792336Y-61469625D01*
X156703486Y-61315734D01*
X156648575Y-61146733D01*
X156630000Y-60970008D01*
X156648575Y-60793283D01*
X156703486Y-60624282D01*
X156792336Y-60470391D01*
X156911239Y-60338335D01*
X157055000Y-60233886D01*
X157217336Y-60161610D01*
X157391151Y-60124664D01*
X157568849Y-60124664D01*
X157742664Y-60161610D01*
G37*
G36*
X160282664Y-60161610D02*
G01*
X160445000Y-60233886D01*
X160588761Y-60338335D01*
X160707664Y-60470391D01*
X160796514Y-60624282D01*
X160851425Y-60793283D01*
X160870000Y-60970008D01*
X160851425Y-61146733D01*
X160796514Y-61315734D01*
X160707664Y-61469625D01*
X160588761Y-61601681D01*
X160445000Y-61706130D01*
X160282664Y-61778406D01*
X160108849Y-61815352D01*
X159931151Y-61815352D01*
X159757336Y-61778406D01*
X159595000Y-61706130D01*
X159451239Y-61601681D01*
X159332336Y-61469625D01*
X159243486Y-61315734D01*
X159188575Y-61146733D01*
X159170000Y-60970008D01*
X159188575Y-60793283D01*
X159243486Y-60624282D01*
X159332336Y-60470391D01*
X159451239Y-60338335D01*
X159595000Y-60233886D01*
X159757336Y-60161610D01*
X159931151Y-60124664D01*
X160108849Y-60124664D01*
X160282664Y-60161610D01*
G37*
G36*
X162822664Y-60161610D02*
G01*
X162985000Y-60233886D01*
X163128761Y-60338335D01*
X163247664Y-60470391D01*
X163336514Y-60624282D01*
X163391425Y-60793283D01*
X163410000Y-60970008D01*
X163391425Y-61146733D01*
X163336514Y-61315734D01*
X163247664Y-61469625D01*
X163128761Y-61601681D01*
X162985000Y-61706130D01*
X162822664Y-61778406D01*
X162648849Y-61815352D01*
X162471151Y-61815352D01*
X162297336Y-61778406D01*
X162135000Y-61706130D01*
X161991239Y-61601681D01*
X161872336Y-61469625D01*
X161783486Y-61315734D01*
X161728575Y-61146733D01*
X161710000Y-60970008D01*
X161728575Y-60793283D01*
X161783486Y-60624282D01*
X161872336Y-60470391D01*
X161991239Y-60338335D01*
X162135000Y-60233886D01*
X162297336Y-60161610D01*
X162471151Y-60124664D01*
X162648849Y-60124664D01*
X162822664Y-60161610D01*
G37*
G36*
X165362664Y-60161610D02*
G01*
X165525000Y-60233886D01*
X165668761Y-60338335D01*
X165787664Y-60470391D01*
X165876514Y-60624282D01*
X165931425Y-60793283D01*
X165950000Y-60970008D01*
X165931425Y-61146733D01*
X165876514Y-61315734D01*
X165787664Y-61469625D01*
X165668761Y-61601681D01*
X165525000Y-61706130D01*
X165362664Y-61778406D01*
X165188849Y-61815352D01*
X165011151Y-61815352D01*
X164837336Y-61778406D01*
X164675000Y-61706130D01*
X164531239Y-61601681D01*
X164412336Y-61469625D01*
X164323486Y-61315734D01*
X164268575Y-61146733D01*
X164250000Y-60970008D01*
X164268575Y-60793283D01*
X164323486Y-60624282D01*
X164412336Y-60470391D01*
X164531239Y-60338335D01*
X164675000Y-60233886D01*
X164837336Y-60161610D01*
X165011151Y-60124664D01*
X165188849Y-60124664D01*
X165362664Y-60161610D01*
G37*
G36*
X167902664Y-60161610D02*
G01*
X168065000Y-60233886D01*
X168208761Y-60338335D01*
X168327664Y-60470391D01*
X168416514Y-60624282D01*
X168471425Y-60793283D01*
X168490000Y-60970008D01*
X168471425Y-61146733D01*
X168416514Y-61315734D01*
X168327664Y-61469625D01*
X168208761Y-61601681D01*
X168065000Y-61706130D01*
X167902664Y-61778406D01*
X167728849Y-61815352D01*
X167551151Y-61815352D01*
X167377336Y-61778406D01*
X167215000Y-61706130D01*
X167071239Y-61601681D01*
X166952336Y-61469625D01*
X166863486Y-61315734D01*
X166808575Y-61146733D01*
X166790000Y-60970008D01*
X166808575Y-60793283D01*
X166863486Y-60624282D01*
X166952336Y-60470391D01*
X167071239Y-60338335D01*
X167215000Y-60233886D01*
X167377336Y-60161610D01*
X167551151Y-60124664D01*
X167728849Y-60124664D01*
X167902664Y-60161610D01*
G37*
G36*
X170442664Y-60161610D02*
G01*
X170605000Y-60233886D01*
X170748761Y-60338335D01*
X170867664Y-60470391D01*
X170956514Y-60624282D01*
X171011425Y-60793283D01*
X171030000Y-60970008D01*
X171011425Y-61146733D01*
X170956514Y-61315734D01*
X170867664Y-61469625D01*
X170748761Y-61601681D01*
X170605000Y-61706130D01*
X170442664Y-61778406D01*
X170268849Y-61815352D01*
X170091151Y-61815352D01*
X169917336Y-61778406D01*
X169755000Y-61706130D01*
X169611239Y-61601681D01*
X169492336Y-61469625D01*
X169403486Y-61315734D01*
X169348575Y-61146733D01*
X169330000Y-60970008D01*
X169348575Y-60793283D01*
X169403486Y-60624282D01*
X169492336Y-60470391D01*
X169611239Y-60338335D01*
X169755000Y-60233886D01*
X169917336Y-60161610D01*
X170091151Y-60124664D01*
X170268849Y-60124664D01*
X170442664Y-60161610D01*
G37*
G36*
X172982664Y-60161610D02*
G01*
X173145000Y-60233886D01*
X173288761Y-60338335D01*
X173407664Y-60470391D01*
X173496514Y-60624282D01*
X173551425Y-60793283D01*
X173570000Y-60970008D01*
X173551425Y-61146733D01*
X173496514Y-61315734D01*
X173407664Y-61469625D01*
X173288761Y-61601681D01*
X173145000Y-61706130D01*
X172982664Y-61778406D01*
X172808849Y-61815352D01*
X172631151Y-61815352D01*
X172457336Y-61778406D01*
X172295000Y-61706130D01*
X172151239Y-61601681D01*
X172032336Y-61469625D01*
X171943486Y-61315734D01*
X171888575Y-61146733D01*
X171870000Y-60970008D01*
X171888575Y-60793283D01*
X171943486Y-60624282D01*
X172032336Y-60470391D01*
X172151239Y-60338335D01*
X172295000Y-60233886D01*
X172457336Y-60161610D01*
X172631151Y-60124664D01*
X172808849Y-60124664D01*
X172982664Y-60161610D01*
G37*
G36*
X175522664Y-60161610D02*
G01*
X175685000Y-60233886D01*
X175828761Y-60338335D01*
X175947664Y-60470391D01*
X176036514Y-60624282D01*
X176091425Y-60793283D01*
X176110000Y-60970008D01*
X176091425Y-61146733D01*
X176036514Y-61315734D01*
X175947664Y-61469625D01*
X175828761Y-61601681D01*
X175685000Y-61706130D01*
X175522664Y-61778406D01*
X175348849Y-61815352D01*
X175171151Y-61815352D01*
X174997336Y-61778406D01*
X174835000Y-61706130D01*
X174691239Y-61601681D01*
X174572336Y-61469625D01*
X174483486Y-61315734D01*
X174428575Y-61146733D01*
X174410000Y-60970008D01*
X174428575Y-60793283D01*
X174483486Y-60624282D01*
X174572336Y-60470391D01*
X174691239Y-60338335D01*
X174835000Y-60233886D01*
X174997336Y-60161610D01*
X175171151Y-60124664D01*
X175348849Y-60124664D01*
X175522664Y-60161610D01*
G37*
G36*
X178062664Y-60161610D02*
G01*
X178225000Y-60233886D01*
X178368761Y-60338335D01*
X178487664Y-60470391D01*
X178576514Y-60624282D01*
X178631425Y-60793283D01*
X178650000Y-60970008D01*
X178631425Y-61146733D01*
X178576514Y-61315734D01*
X178487664Y-61469625D01*
X178368761Y-61601681D01*
X178225000Y-61706130D01*
X178062664Y-61778406D01*
X177888849Y-61815352D01*
X177711151Y-61815352D01*
X177537336Y-61778406D01*
X177375000Y-61706130D01*
X177231239Y-61601681D01*
X177112336Y-61469625D01*
X177023486Y-61315734D01*
X176968575Y-61146733D01*
X176950000Y-60970008D01*
X176968575Y-60793283D01*
X177023486Y-60624282D01*
X177112336Y-60470391D01*
X177231239Y-60338335D01*
X177375000Y-60233886D01*
X177537336Y-60161610D01*
X177711151Y-60124664D01*
X177888849Y-60124664D01*
X178062664Y-60161610D01*
G37*
G36*
X180602664Y-60161610D02*
G01*
X180765000Y-60233886D01*
X180908761Y-60338335D01*
X181027664Y-60470391D01*
X181116514Y-60624282D01*
X181171425Y-60793283D01*
X181190000Y-60970008D01*
X181171425Y-61146733D01*
X181116514Y-61315734D01*
X181027664Y-61469625D01*
X180908761Y-61601681D01*
X180765000Y-61706130D01*
X180602664Y-61778406D01*
X180428849Y-61815352D01*
X180251151Y-61815352D01*
X180077336Y-61778406D01*
X179915000Y-61706130D01*
X179771239Y-61601681D01*
X179652336Y-61469625D01*
X179563486Y-61315734D01*
X179508575Y-61146733D01*
X179490000Y-60970008D01*
X179508575Y-60793283D01*
X179563486Y-60624282D01*
X179652336Y-60470391D01*
X179771239Y-60338335D01*
X179915000Y-60233886D01*
X180077336Y-60161610D01*
X180251151Y-60124664D01*
X180428849Y-60124664D01*
X180602664Y-60161610D01*
G37*
G36*
X183142664Y-60161610D02*
G01*
X183305000Y-60233886D01*
X183448761Y-60338335D01*
X183567664Y-60470391D01*
X183656514Y-60624282D01*
X183711425Y-60793283D01*
X183730000Y-60970008D01*
X183711425Y-61146733D01*
X183656514Y-61315734D01*
X183567664Y-61469625D01*
X183448761Y-61601681D01*
X183305000Y-61706130D01*
X183142664Y-61778406D01*
X182968849Y-61815352D01*
X182791151Y-61815352D01*
X182617336Y-61778406D01*
X182455000Y-61706130D01*
X182311239Y-61601681D01*
X182192336Y-61469625D01*
X182103486Y-61315734D01*
X182048575Y-61146733D01*
X182030000Y-60970008D01*
X182048575Y-60793283D01*
X182103486Y-60624282D01*
X182192336Y-60470391D01*
X182311239Y-60338335D01*
X182455000Y-60233886D01*
X182617336Y-60161610D01*
X182791151Y-60124664D01*
X182968849Y-60124664D01*
X183142664Y-60161610D01*
G37*
G36*
X114384902Y-55224768D02*
G01*
X114473243Y-55224768D01*
X114567571Y-55235026D01*
X114658286Y-55240121D01*
X114736304Y-55253376D01*
X114817691Y-55262228D01*
X114916817Y-55284047D01*
X115012067Y-55300231D01*
X115082420Y-55320499D01*
X115156066Y-55336710D01*
X115258555Y-55371242D01*
X115356893Y-55399573D01*
X115419049Y-55425319D01*
X115484414Y-55447343D01*
X115588703Y-55495592D01*
X115688428Y-55536900D01*
X115742078Y-55566551D01*
X115798874Y-55592828D01*
X115903232Y-55655618D01*
X116002503Y-55710483D01*
X116047598Y-55742479D01*
X116095754Y-55771454D01*
X116198312Y-55849417D01*
X116295167Y-55918139D01*
X116331918Y-55950981D01*
X116371584Y-55981135D01*
X116470359Y-56074700D01*
X116562742Y-56157258D01*
X116591571Y-56189518D01*
X116623132Y-56219414D01*
X116716140Y-56328911D01*
X116801861Y-56424833D01*
X116823387Y-56455171D01*
X116847438Y-56483486D01*
X116932617Y-56609117D01*
X117009517Y-56717497D01*
X117024583Y-56744757D01*
X117041877Y-56770264D01*
X117117158Y-56912260D01*
X117183100Y-57031572D01*
X117192695Y-57054737D01*
X117204175Y-57076390D01*
X117267564Y-57235486D01*
X117320427Y-57363107D01*
X117325685Y-57381359D01*
X117332420Y-57398262D01*
X117381999Y-57576830D01*
X117419769Y-57707933D01*
X117421928Y-57720642D01*
X117425111Y-57732105D01*
X117459053Y-57939144D01*
X117479879Y-58061714D01*
X117480259Y-58068497D01*
X117481166Y-58074024D01*
X117497801Y-58380853D01*
X117500000Y-58420000D01*
X117497801Y-58459149D01*
X117481166Y-58765975D01*
X117480260Y-58771501D01*
X117479879Y-58778286D01*
X117459048Y-58900882D01*
X117425111Y-59107894D01*
X117421928Y-59119355D01*
X117419769Y-59132067D01*
X117381991Y-59263196D01*
X117332420Y-59441737D01*
X117325686Y-59458637D01*
X117320427Y-59476893D01*
X117267553Y-59604539D01*
X117204175Y-59763609D01*
X117192697Y-59785258D01*
X117183100Y-59808428D01*
X117117145Y-59927763D01*
X117041877Y-60069735D01*
X117024586Y-60095236D01*
X117009517Y-60122503D01*
X116932602Y-60230904D01*
X116847438Y-60356513D01*
X116823391Y-60384822D01*
X116801861Y-60415167D01*
X116716123Y-60511108D01*
X116623132Y-60620585D01*
X116591577Y-60650475D01*
X116562742Y-60682742D01*
X116470341Y-60765316D01*
X116371584Y-60858864D01*
X116331925Y-60889011D01*
X116295167Y-60921861D01*
X116198292Y-60990596D01*
X116095754Y-61068545D01*
X116047607Y-61097513D01*
X116002503Y-61129517D01*
X115903212Y-61184392D01*
X115798874Y-61247171D01*
X115742089Y-61273442D01*
X115688428Y-61303100D01*
X115588682Y-61344416D01*
X115484414Y-61392656D01*
X115419062Y-61414675D01*
X115356893Y-61440427D01*
X115258535Y-61468763D01*
X115156066Y-61503289D01*
X115082435Y-61519496D01*
X115012067Y-61539769D01*
X114916797Y-61555955D01*
X114817691Y-61577771D01*
X114736316Y-61586620D01*
X114658286Y-61599879D01*
X114567566Y-61604973D01*
X114473243Y-61615232D01*
X114384902Y-61615232D01*
X114300000Y-61620000D01*
X114215098Y-61615232D01*
X114126757Y-61615232D01*
X114032433Y-61604973D01*
X113941714Y-61599879D01*
X113863684Y-61586621D01*
X113782308Y-61577771D01*
X113683197Y-61555955D01*
X113587933Y-61539769D01*
X113517567Y-61519497D01*
X113443933Y-61503289D01*
X113341457Y-61468761D01*
X113243107Y-61440427D01*
X113180941Y-61414677D01*
X113115585Y-61392656D01*
X113011307Y-61344412D01*
X112911572Y-61303100D01*
X112857915Y-61273445D01*
X112801125Y-61247171D01*
X112696775Y-61184386D01*
X112597497Y-61129517D01*
X112552397Y-61097517D01*
X112504245Y-61068545D01*
X112401692Y-60990586D01*
X112304833Y-60921861D01*
X112268080Y-60889016D01*
X112228415Y-60858864D01*
X112129641Y-60765300D01*
X112037258Y-60682742D01*
X112008428Y-60650481D01*
X111976867Y-60620585D01*
X111883856Y-60511085D01*
X111798139Y-60415167D01*
X111776613Y-60384829D01*
X111752561Y-60356513D01*
X111667375Y-60230872D01*
X111590483Y-60122503D01*
X111575417Y-60095244D01*
X111558122Y-60069735D01*
X111482829Y-59927718D01*
X111416900Y-59808428D01*
X111407306Y-59785266D01*
X111395824Y-59763609D01*
X111332419Y-59604475D01*
X111279573Y-59476893D01*
X111274316Y-59458646D01*
X111267579Y-59441737D01*
X111217980Y-59263100D01*
X111180231Y-59132067D01*
X111178072Y-59119364D01*
X111174888Y-59107894D01*
X111140922Y-58900715D01*
X111120121Y-58778286D01*
X111119740Y-58771510D01*
X111118833Y-58765975D01*
X111102169Y-58458634D01*
X111100000Y-58420000D01*
X111102169Y-58381368D01*
X111118833Y-58074024D01*
X111119740Y-58068488D01*
X111120121Y-58061714D01*
X111140917Y-57939312D01*
X111174888Y-57732105D01*
X111178073Y-57720633D01*
X111180231Y-57707933D01*
X111217973Y-57576926D01*
X111267579Y-57398262D01*
X111274317Y-57381350D01*
X111279573Y-57363107D01*
X111332409Y-57235549D01*
X111395824Y-57076390D01*
X111407308Y-57054728D01*
X111416900Y-57031572D01*
X111482816Y-56912304D01*
X111558122Y-56770264D01*
X111575420Y-56744749D01*
X111590483Y-56717497D01*
X111667360Y-56609148D01*
X111752561Y-56483486D01*
X111776617Y-56455164D01*
X111798139Y-56424833D01*
X111883839Y-56328933D01*
X111976867Y-56219414D01*
X112008434Y-56189512D01*
X112037258Y-56157258D01*
X112129622Y-56074716D01*
X112228415Y-55981135D01*
X112268087Y-55950976D01*
X112304833Y-55918139D01*
X112401672Y-55849427D01*
X112504245Y-55771454D01*
X112552407Y-55742475D01*
X112597497Y-55710483D01*
X112696754Y-55655625D01*
X112801125Y-55592828D01*
X112857926Y-55566548D01*
X112911572Y-55536900D01*
X113011287Y-55495596D01*
X113115585Y-55447343D01*
X113180954Y-55425317D01*
X113243107Y-55399573D01*
X113341437Y-55371244D01*
X113443933Y-55336710D01*
X113517582Y-55320498D01*
X113587933Y-55300231D01*
X113683177Y-55284048D01*
X113782308Y-55262228D01*
X113863696Y-55253376D01*
X113941714Y-55240121D01*
X114032428Y-55235026D01*
X114126757Y-55224768D01*
X114215098Y-55224768D01*
X114300000Y-55220000D01*
X114384902Y-55224768D01*
G37*
G36*
X188044902Y-55224768D02*
G01*
X188133243Y-55224768D01*
X188227571Y-55235026D01*
X188318286Y-55240121D01*
X188396304Y-55253376D01*
X188477691Y-55262228D01*
X188576817Y-55284047D01*
X188672067Y-55300231D01*
X188742420Y-55320499D01*
X188816066Y-55336710D01*
X188918555Y-55371242D01*
X189016893Y-55399573D01*
X189079049Y-55425319D01*
X189144414Y-55447343D01*
X189248703Y-55495592D01*
X189348428Y-55536900D01*
X189402078Y-55566551D01*
X189458874Y-55592828D01*
X189563232Y-55655618D01*
X189662503Y-55710483D01*
X189707598Y-55742479D01*
X189755754Y-55771454D01*
X189858312Y-55849417D01*
X189955167Y-55918139D01*
X189991918Y-55950981D01*
X190031584Y-55981135D01*
X190130359Y-56074700D01*
X190222742Y-56157258D01*
X190251571Y-56189518D01*
X190283132Y-56219414D01*
X190376140Y-56328911D01*
X190461861Y-56424833D01*
X190483387Y-56455171D01*
X190507438Y-56483486D01*
X190592617Y-56609117D01*
X190669517Y-56717497D01*
X190684583Y-56744757D01*
X190701877Y-56770264D01*
X190777158Y-56912260D01*
X190843100Y-57031572D01*
X190852695Y-57054737D01*
X190864175Y-57076390D01*
X190927564Y-57235486D01*
X190980427Y-57363107D01*
X190985685Y-57381359D01*
X190992420Y-57398262D01*
X191041999Y-57576830D01*
X191079769Y-57707933D01*
X191081928Y-57720642D01*
X191085111Y-57732105D01*
X191119053Y-57939144D01*
X191139879Y-58061714D01*
X191140259Y-58068497D01*
X191141166Y-58074024D01*
X191157801Y-58380853D01*
X191160000Y-58420000D01*
X191157801Y-58459149D01*
X191141166Y-58765975D01*
X191140260Y-58771501D01*
X191139879Y-58778286D01*
X191119048Y-58900882D01*
X191085111Y-59107894D01*
X191081928Y-59119355D01*
X191079769Y-59132067D01*
X191041991Y-59263196D01*
X190992420Y-59441737D01*
X190985686Y-59458637D01*
X190980427Y-59476893D01*
X190927553Y-59604539D01*
X190864175Y-59763609D01*
X190852697Y-59785258D01*
X190843100Y-59808428D01*
X190777145Y-59927763D01*
X190701877Y-60069735D01*
X190684586Y-60095236D01*
X190669517Y-60122503D01*
X190592602Y-60230904D01*
X190507438Y-60356513D01*
X190483391Y-60384822D01*
X190461861Y-60415167D01*
X190376123Y-60511108D01*
X190283132Y-60620585D01*
X190251577Y-60650475D01*
X190222742Y-60682742D01*
X190130341Y-60765316D01*
X190031584Y-60858864D01*
X189991925Y-60889011D01*
X189955167Y-60921861D01*
X189858292Y-60990596D01*
X189755754Y-61068545D01*
X189707607Y-61097513D01*
X189662503Y-61129517D01*
X189563212Y-61184392D01*
X189458874Y-61247171D01*
X189402089Y-61273442D01*
X189348428Y-61303100D01*
X189248682Y-61344416D01*
X189144414Y-61392656D01*
X189079062Y-61414675D01*
X189016893Y-61440427D01*
X188918535Y-61468763D01*
X188816066Y-61503289D01*
X188742435Y-61519496D01*
X188672067Y-61539769D01*
X188576797Y-61555955D01*
X188477691Y-61577771D01*
X188396316Y-61586620D01*
X188318286Y-61599879D01*
X188227566Y-61604973D01*
X188133243Y-61615232D01*
X188044902Y-61615232D01*
X187960000Y-61620000D01*
X187875098Y-61615232D01*
X187786757Y-61615232D01*
X187692433Y-61604973D01*
X187601714Y-61599879D01*
X187523684Y-61586621D01*
X187442308Y-61577771D01*
X187343197Y-61555955D01*
X187247933Y-61539769D01*
X187177567Y-61519497D01*
X187103933Y-61503289D01*
X187001457Y-61468761D01*
X186903107Y-61440427D01*
X186840941Y-61414677D01*
X186775585Y-61392656D01*
X186671307Y-61344412D01*
X186571572Y-61303100D01*
X186517915Y-61273445D01*
X186461125Y-61247171D01*
X186356775Y-61184386D01*
X186257497Y-61129517D01*
X186212397Y-61097517D01*
X186164245Y-61068545D01*
X186061692Y-60990586D01*
X185964833Y-60921861D01*
X185928080Y-60889016D01*
X185888415Y-60858864D01*
X185789641Y-60765300D01*
X185697258Y-60682742D01*
X185668428Y-60650481D01*
X185636867Y-60620585D01*
X185543856Y-60511085D01*
X185458139Y-60415167D01*
X185436613Y-60384829D01*
X185412561Y-60356513D01*
X185327375Y-60230872D01*
X185250483Y-60122503D01*
X185235417Y-60095244D01*
X185218122Y-60069735D01*
X185142829Y-59927718D01*
X185076900Y-59808428D01*
X185067306Y-59785266D01*
X185055824Y-59763609D01*
X184992419Y-59604475D01*
X184939573Y-59476893D01*
X184934316Y-59458646D01*
X184927579Y-59441737D01*
X184877980Y-59263100D01*
X184840231Y-59132067D01*
X184838072Y-59119364D01*
X184834888Y-59107894D01*
X184800922Y-58900715D01*
X184780121Y-58778286D01*
X184779740Y-58771510D01*
X184778833Y-58765975D01*
X184762169Y-58458634D01*
X184760000Y-58420000D01*
X184762169Y-58381368D01*
X184778833Y-58074024D01*
X184779740Y-58068488D01*
X184780121Y-58061714D01*
X184800917Y-57939312D01*
X184834888Y-57732105D01*
X184838073Y-57720633D01*
X184840231Y-57707933D01*
X184877973Y-57576926D01*
X184927579Y-57398262D01*
X184934317Y-57381350D01*
X184939573Y-57363107D01*
X184992409Y-57235549D01*
X185055824Y-57076390D01*
X185067308Y-57054728D01*
X185076900Y-57031572D01*
X185142816Y-56912304D01*
X185218122Y-56770264D01*
X185235420Y-56744749D01*
X185250483Y-56717497D01*
X185327360Y-56609148D01*
X185412561Y-56483486D01*
X185436617Y-56455164D01*
X185458139Y-56424833D01*
X185543839Y-56328933D01*
X185636867Y-56219414D01*
X185668434Y-56189512D01*
X185697258Y-56157258D01*
X185789622Y-56074716D01*
X185888415Y-55981135D01*
X185928087Y-55950976D01*
X185964833Y-55918139D01*
X186061672Y-55849427D01*
X186164245Y-55771454D01*
X186212407Y-55742475D01*
X186257497Y-55710483D01*
X186356754Y-55655625D01*
X186461125Y-55592828D01*
X186517926Y-55566548D01*
X186571572Y-55536900D01*
X186671287Y-55495596D01*
X186775585Y-55447343D01*
X186840954Y-55425317D01*
X186903107Y-55399573D01*
X187001437Y-55371244D01*
X187103933Y-55336710D01*
X187177582Y-55320498D01*
X187247933Y-55300231D01*
X187343177Y-55284048D01*
X187442308Y-55262228D01*
X187523696Y-55253376D01*
X187601714Y-55240121D01*
X187692428Y-55235026D01*
X187786757Y-55224768D01*
X187875098Y-55224768D01*
X187960000Y-55220000D01*
X188044902Y-55224768D01*
G37*
G36*
X119642664Y-57621610D02*
G01*
X119805000Y-57693886D01*
X119948761Y-57798335D01*
X120067664Y-57930391D01*
X120156514Y-58084282D01*
X120211425Y-58253283D01*
X120230000Y-58430008D01*
X120211425Y-58606733D01*
X120156514Y-58775734D01*
X120067664Y-58929625D01*
X119948761Y-59061681D01*
X119805000Y-59166130D01*
X119642664Y-59238406D01*
X119468849Y-59275352D01*
X119291151Y-59275352D01*
X119117336Y-59238406D01*
X118955000Y-59166130D01*
X118811239Y-59061681D01*
X118692336Y-58929625D01*
X118603486Y-58775734D01*
X118548575Y-58606733D01*
X118530000Y-58430008D01*
X118548575Y-58253283D01*
X118603486Y-58084282D01*
X118692336Y-57930391D01*
X118811239Y-57798335D01*
X118955000Y-57693886D01*
X119117336Y-57621610D01*
X119291151Y-57584664D01*
X119468849Y-57584664D01*
X119642664Y-57621610D01*
G37*
G36*
X122182664Y-57611610D02*
G01*
X122345000Y-57683886D01*
X122488761Y-57788335D01*
X122607664Y-57920391D01*
X122696514Y-58074282D01*
X122751425Y-58243283D01*
X122770000Y-58420008D01*
X122751425Y-58596733D01*
X122696514Y-58765734D01*
X122607664Y-58919625D01*
X122488761Y-59051681D01*
X122345000Y-59156130D01*
X122182664Y-59228406D01*
X122008849Y-59265352D01*
X121831151Y-59265352D01*
X121657336Y-59228406D01*
X121495000Y-59156130D01*
X121351239Y-59051681D01*
X121232336Y-58919625D01*
X121143486Y-58765734D01*
X121088575Y-58596733D01*
X121070000Y-58420008D01*
X121088575Y-58243283D01*
X121143486Y-58074282D01*
X121232336Y-57920391D01*
X121351239Y-57788335D01*
X121495000Y-57683886D01*
X121657336Y-57611610D01*
X121831151Y-57574664D01*
X122008849Y-57574664D01*
X122182664Y-57611610D01*
G37*
G36*
X124722664Y-57611610D02*
G01*
X124885000Y-57683886D01*
X125028761Y-57788335D01*
X125147664Y-57920391D01*
X125236514Y-58074282D01*
X125291425Y-58243283D01*
X125310000Y-58420008D01*
X125291425Y-58596733D01*
X125236514Y-58765734D01*
X125147664Y-58919625D01*
X125028761Y-59051681D01*
X124885000Y-59156130D01*
X124722664Y-59228406D01*
X124548849Y-59265352D01*
X124371151Y-59265352D01*
X124197336Y-59228406D01*
X124035000Y-59156130D01*
X123891239Y-59051681D01*
X123772336Y-58919625D01*
X123683486Y-58765734D01*
X123628575Y-58596733D01*
X123610000Y-58420008D01*
X123628575Y-58243283D01*
X123683486Y-58074282D01*
X123772336Y-57920391D01*
X123891239Y-57788335D01*
X124035000Y-57683886D01*
X124197336Y-57611610D01*
X124371151Y-57574664D01*
X124548849Y-57574664D01*
X124722664Y-57611610D01*
G37*
G36*
X127262664Y-57611610D02*
G01*
X127425000Y-57683886D01*
X127568761Y-57788335D01*
X127687664Y-57920391D01*
X127776514Y-58074282D01*
X127831425Y-58243283D01*
X127850000Y-58420008D01*
X127831425Y-58596733D01*
X127776514Y-58765734D01*
X127687664Y-58919625D01*
X127568761Y-59051681D01*
X127425000Y-59156130D01*
X127262664Y-59228406D01*
X127088849Y-59265352D01*
X126911151Y-59265352D01*
X126737336Y-59228406D01*
X126575000Y-59156130D01*
X126431239Y-59051681D01*
X126312336Y-58919625D01*
X126223486Y-58765734D01*
X126168575Y-58596733D01*
X126150000Y-58420008D01*
X126168575Y-58243283D01*
X126223486Y-58074282D01*
X126312336Y-57920391D01*
X126431239Y-57788335D01*
X126575000Y-57683886D01*
X126737336Y-57611610D01*
X126911151Y-57574664D01*
X127088849Y-57574664D01*
X127262664Y-57611610D01*
G37*
G36*
X129802664Y-57611610D02*
G01*
X129965000Y-57683886D01*
X130108761Y-57788335D01*
X130227664Y-57920391D01*
X130316514Y-58074282D01*
X130371425Y-58243283D01*
X130390000Y-58420008D01*
X130371425Y-58596733D01*
X130316514Y-58765734D01*
X130227664Y-58919625D01*
X130108761Y-59051681D01*
X129965000Y-59156130D01*
X129802664Y-59228406D01*
X129628849Y-59265352D01*
X129451151Y-59265352D01*
X129277336Y-59228406D01*
X129115000Y-59156130D01*
X128971239Y-59051681D01*
X128852336Y-58919625D01*
X128763486Y-58765734D01*
X128708575Y-58596733D01*
X128690000Y-58420008D01*
X128708575Y-58243283D01*
X128763486Y-58074282D01*
X128852336Y-57920391D01*
X128971239Y-57788335D01*
X129115000Y-57683886D01*
X129277336Y-57611610D01*
X129451151Y-57574664D01*
X129628849Y-57574664D01*
X129802664Y-57611610D01*
G37*
G36*
X132342664Y-57611610D02*
G01*
X132505000Y-57683886D01*
X132648761Y-57788335D01*
X132767664Y-57920391D01*
X132856514Y-58074282D01*
X132911425Y-58243283D01*
X132930000Y-58420008D01*
X132911425Y-58596733D01*
X132856514Y-58765734D01*
X132767664Y-58919625D01*
X132648761Y-59051681D01*
X132505000Y-59156130D01*
X132342664Y-59228406D01*
X132168849Y-59265352D01*
X131991151Y-59265352D01*
X131817336Y-59228406D01*
X131655000Y-59156130D01*
X131511239Y-59051681D01*
X131392336Y-58919625D01*
X131303486Y-58765734D01*
X131248575Y-58596733D01*
X131230000Y-58420008D01*
X131248575Y-58243283D01*
X131303486Y-58074282D01*
X131392336Y-57920391D01*
X131511239Y-57788335D01*
X131655000Y-57683886D01*
X131817336Y-57611610D01*
X131991151Y-57574664D01*
X132168849Y-57574664D01*
X132342664Y-57611610D01*
G37*
G36*
X134882664Y-57611610D02*
G01*
X135045000Y-57683886D01*
X135188761Y-57788335D01*
X135307664Y-57920391D01*
X135396514Y-58074282D01*
X135451425Y-58243283D01*
X135470000Y-58420008D01*
X135451425Y-58596733D01*
X135396514Y-58765734D01*
X135307664Y-58919625D01*
X135188761Y-59051681D01*
X135045000Y-59156130D01*
X134882664Y-59228406D01*
X134708849Y-59265352D01*
X134531151Y-59265352D01*
X134357336Y-59228406D01*
X134195000Y-59156130D01*
X134051239Y-59051681D01*
X133932336Y-58919625D01*
X133843486Y-58765734D01*
X133788575Y-58596733D01*
X133770000Y-58420008D01*
X133788575Y-58243283D01*
X133843486Y-58074282D01*
X133932336Y-57920391D01*
X134051239Y-57788335D01*
X134195000Y-57683886D01*
X134357336Y-57611610D01*
X134531151Y-57574664D01*
X134708849Y-57574664D01*
X134882664Y-57611610D01*
G37*
G36*
X137422664Y-57611610D02*
G01*
X137585000Y-57683886D01*
X137728761Y-57788335D01*
X137847664Y-57920391D01*
X137936514Y-58074282D01*
X137991425Y-58243283D01*
X138010000Y-58420008D01*
X137991425Y-58596733D01*
X137936514Y-58765734D01*
X137847664Y-58919625D01*
X137728761Y-59051681D01*
X137585000Y-59156130D01*
X137422664Y-59228406D01*
X137248849Y-59265352D01*
X137071151Y-59265352D01*
X136897336Y-59228406D01*
X136735000Y-59156130D01*
X136591239Y-59051681D01*
X136472336Y-58919625D01*
X136383486Y-58765734D01*
X136328575Y-58596733D01*
X136310000Y-58420008D01*
X136328575Y-58243283D01*
X136383486Y-58074282D01*
X136472336Y-57920391D01*
X136591239Y-57788335D01*
X136735000Y-57683886D01*
X136897336Y-57611610D01*
X137071151Y-57574664D01*
X137248849Y-57574664D01*
X137422664Y-57611610D01*
G37*
G36*
X139962664Y-57611610D02*
G01*
X140125000Y-57683886D01*
X140268761Y-57788335D01*
X140387664Y-57920391D01*
X140476514Y-58074282D01*
X140531425Y-58243283D01*
X140550000Y-58420008D01*
X140531425Y-58596733D01*
X140476514Y-58765734D01*
X140387664Y-58919625D01*
X140268761Y-59051681D01*
X140125000Y-59156130D01*
X139962664Y-59228406D01*
X139788849Y-59265352D01*
X139611151Y-59265352D01*
X139437336Y-59228406D01*
X139275000Y-59156130D01*
X139131239Y-59051681D01*
X139012336Y-58919625D01*
X138923486Y-58765734D01*
X138868575Y-58596733D01*
X138850000Y-58420008D01*
X138868575Y-58243283D01*
X138923486Y-58074282D01*
X139012336Y-57920391D01*
X139131239Y-57788335D01*
X139275000Y-57683886D01*
X139437336Y-57611610D01*
X139611151Y-57574664D01*
X139788849Y-57574664D01*
X139962664Y-57611610D01*
G37*
G36*
X142502664Y-57611610D02*
G01*
X142665000Y-57683886D01*
X142808761Y-57788335D01*
X142927664Y-57920391D01*
X143016514Y-58074282D01*
X143071425Y-58243283D01*
X143090000Y-58420008D01*
X143071425Y-58596733D01*
X143016514Y-58765734D01*
X142927664Y-58919625D01*
X142808761Y-59051681D01*
X142665000Y-59156130D01*
X142502664Y-59228406D01*
X142328849Y-59265352D01*
X142151151Y-59265352D01*
X141977336Y-59228406D01*
X141815000Y-59156130D01*
X141671239Y-59051681D01*
X141552336Y-58919625D01*
X141463486Y-58765734D01*
X141408575Y-58596733D01*
X141390000Y-58420008D01*
X141408575Y-58243283D01*
X141463486Y-58074282D01*
X141552336Y-57920391D01*
X141671239Y-57788335D01*
X141815000Y-57683886D01*
X141977336Y-57611610D01*
X142151151Y-57574664D01*
X142328849Y-57574664D01*
X142502664Y-57611610D01*
G37*
G36*
X145042664Y-57611610D02*
G01*
X145205000Y-57683886D01*
X145348761Y-57788335D01*
X145467664Y-57920391D01*
X145556514Y-58074282D01*
X145611425Y-58243283D01*
X145630000Y-58420008D01*
X145611425Y-58596733D01*
X145556514Y-58765734D01*
X145467664Y-58919625D01*
X145348761Y-59051681D01*
X145205000Y-59156130D01*
X145042664Y-59228406D01*
X144868849Y-59265352D01*
X144691151Y-59265352D01*
X144517336Y-59228406D01*
X144355000Y-59156130D01*
X144211239Y-59051681D01*
X144092336Y-58919625D01*
X144003486Y-58765734D01*
X143948575Y-58596733D01*
X143930000Y-58420008D01*
X143948575Y-58243283D01*
X144003486Y-58074282D01*
X144092336Y-57920391D01*
X144211239Y-57788335D01*
X144355000Y-57683886D01*
X144517336Y-57611610D01*
X144691151Y-57574664D01*
X144868849Y-57574664D01*
X145042664Y-57611610D01*
G37*
G36*
X147582664Y-57611610D02*
G01*
X147745000Y-57683886D01*
X147888761Y-57788335D01*
X148007664Y-57920391D01*
X148096514Y-58074282D01*
X148151425Y-58243283D01*
X148170000Y-58420008D01*
X148151425Y-58596733D01*
X148096514Y-58765734D01*
X148007664Y-58919625D01*
X147888761Y-59051681D01*
X147745000Y-59156130D01*
X147582664Y-59228406D01*
X147408849Y-59265352D01*
X147231151Y-59265352D01*
X147057336Y-59228406D01*
X146895000Y-59156130D01*
X146751239Y-59051681D01*
X146632336Y-58919625D01*
X146543486Y-58765734D01*
X146488575Y-58596733D01*
X146470000Y-58420008D01*
X146488575Y-58243283D01*
X146543486Y-58074282D01*
X146632336Y-57920391D01*
X146751239Y-57788335D01*
X146895000Y-57683886D01*
X147057336Y-57611610D01*
X147231151Y-57574664D01*
X147408849Y-57574664D01*
X147582664Y-57611610D01*
G37*
G36*
X150122664Y-57611610D02*
G01*
X150285000Y-57683886D01*
X150428761Y-57788335D01*
X150547664Y-57920391D01*
X150636514Y-58074282D01*
X150691425Y-58243283D01*
X150710000Y-58420008D01*
X150691425Y-58596733D01*
X150636514Y-58765734D01*
X150547664Y-58919625D01*
X150428761Y-59051681D01*
X150285000Y-59156130D01*
X150122664Y-59228406D01*
X149948849Y-59265352D01*
X149771151Y-59265352D01*
X149597336Y-59228406D01*
X149435000Y-59156130D01*
X149291239Y-59051681D01*
X149172336Y-58919625D01*
X149083486Y-58765734D01*
X149028575Y-58596733D01*
X149010000Y-58420008D01*
X149028575Y-58243283D01*
X149083486Y-58074282D01*
X149172336Y-57920391D01*
X149291239Y-57788335D01*
X149435000Y-57683886D01*
X149597336Y-57611610D01*
X149771151Y-57574664D01*
X149948849Y-57574664D01*
X150122664Y-57611610D01*
G37*
G36*
X152662664Y-57611610D02*
G01*
X152825000Y-57683886D01*
X152968761Y-57788335D01*
X153087664Y-57920391D01*
X153176514Y-58074282D01*
X153231425Y-58243283D01*
X153250000Y-58420008D01*
X153231425Y-58596733D01*
X153176514Y-58765734D01*
X153087664Y-58919625D01*
X152968761Y-59051681D01*
X152825000Y-59156130D01*
X152662664Y-59228406D01*
X152488849Y-59265352D01*
X152311151Y-59265352D01*
X152137336Y-59228406D01*
X151975000Y-59156130D01*
X151831239Y-59051681D01*
X151712336Y-58919625D01*
X151623486Y-58765734D01*
X151568575Y-58596733D01*
X151550000Y-58420008D01*
X151568575Y-58243283D01*
X151623486Y-58074282D01*
X151712336Y-57920391D01*
X151831239Y-57788335D01*
X151975000Y-57683886D01*
X152137336Y-57611610D01*
X152311151Y-57574664D01*
X152488849Y-57574664D01*
X152662664Y-57611610D01*
G37*
G36*
X155202664Y-57611610D02*
G01*
X155365000Y-57683886D01*
X155508761Y-57788335D01*
X155627664Y-57920391D01*
X155716514Y-58074282D01*
X155771425Y-58243283D01*
X155790000Y-58420008D01*
X155771425Y-58596733D01*
X155716514Y-58765734D01*
X155627664Y-58919625D01*
X155508761Y-59051681D01*
X155365000Y-59156130D01*
X155202664Y-59228406D01*
X155028849Y-59265352D01*
X154851151Y-59265352D01*
X154677336Y-59228406D01*
X154515000Y-59156130D01*
X154371239Y-59051681D01*
X154252336Y-58919625D01*
X154163486Y-58765734D01*
X154108575Y-58596733D01*
X154090000Y-58420008D01*
X154108575Y-58243283D01*
X154163486Y-58074282D01*
X154252336Y-57920391D01*
X154371239Y-57788335D01*
X154515000Y-57683886D01*
X154677336Y-57611610D01*
X154851151Y-57574664D01*
X155028849Y-57574664D01*
X155202664Y-57611610D01*
G37*
G36*
X157742664Y-57611610D02*
G01*
X157905000Y-57683886D01*
X158048761Y-57788335D01*
X158167664Y-57920391D01*
X158256514Y-58074282D01*
X158311425Y-58243283D01*
X158330000Y-58420008D01*
X158311425Y-58596733D01*
X158256514Y-58765734D01*
X158167664Y-58919625D01*
X158048761Y-59051681D01*
X157905000Y-59156130D01*
X157742664Y-59228406D01*
X157568849Y-59265352D01*
X157391151Y-59265352D01*
X157217336Y-59228406D01*
X157055000Y-59156130D01*
X156911239Y-59051681D01*
X156792336Y-58919625D01*
X156703486Y-58765734D01*
X156648575Y-58596733D01*
X156630000Y-58420008D01*
X156648575Y-58243283D01*
X156703486Y-58074282D01*
X156792336Y-57920391D01*
X156911239Y-57788335D01*
X157055000Y-57683886D01*
X157217336Y-57611610D01*
X157391151Y-57574664D01*
X157568849Y-57574664D01*
X157742664Y-57611610D01*
G37*
G36*
X160282664Y-57611610D02*
G01*
X160445000Y-57683886D01*
X160588761Y-57788335D01*
X160707664Y-57920391D01*
X160796514Y-58074282D01*
X160851425Y-58243283D01*
X160870000Y-58420008D01*
X160851425Y-58596733D01*
X160796514Y-58765734D01*
X160707664Y-58919625D01*
X160588761Y-59051681D01*
X160445000Y-59156130D01*
X160282664Y-59228406D01*
X160108849Y-59265352D01*
X159931151Y-59265352D01*
X159757336Y-59228406D01*
X159595000Y-59156130D01*
X159451239Y-59051681D01*
X159332336Y-58919625D01*
X159243486Y-58765734D01*
X159188575Y-58596733D01*
X159170000Y-58420008D01*
X159188575Y-58243283D01*
X159243486Y-58074282D01*
X159332336Y-57920391D01*
X159451239Y-57788335D01*
X159595000Y-57683886D01*
X159757336Y-57611610D01*
X159931151Y-57574664D01*
X160108849Y-57574664D01*
X160282664Y-57611610D01*
G37*
G36*
X162822664Y-57611610D02*
G01*
X162985000Y-57683886D01*
X163128761Y-57788335D01*
X163247664Y-57920391D01*
X163336514Y-58074282D01*
X163391425Y-58243283D01*
X163410000Y-58420008D01*
X163391425Y-58596733D01*
X163336514Y-58765734D01*
X163247664Y-58919625D01*
X163128761Y-59051681D01*
X162985000Y-59156130D01*
X162822664Y-59228406D01*
X162648849Y-59265352D01*
X162471151Y-59265352D01*
X162297336Y-59228406D01*
X162135000Y-59156130D01*
X161991239Y-59051681D01*
X161872336Y-58919625D01*
X161783486Y-58765734D01*
X161728575Y-58596733D01*
X161710000Y-58420008D01*
X161728575Y-58243283D01*
X161783486Y-58074282D01*
X161872336Y-57920391D01*
X161991239Y-57788335D01*
X162135000Y-57683886D01*
X162297336Y-57611610D01*
X162471151Y-57574664D01*
X162648849Y-57574664D01*
X162822664Y-57611610D01*
G37*
G36*
X165362664Y-57611610D02*
G01*
X165525000Y-57683886D01*
X165668761Y-57788335D01*
X165787664Y-57920391D01*
X165876514Y-58074282D01*
X165931425Y-58243283D01*
X165950000Y-58420008D01*
X165931425Y-58596733D01*
X165876514Y-58765734D01*
X165787664Y-58919625D01*
X165668761Y-59051681D01*
X165525000Y-59156130D01*
X165362664Y-59228406D01*
X165188849Y-59265352D01*
X165011151Y-59265352D01*
X164837336Y-59228406D01*
X164675000Y-59156130D01*
X164531239Y-59051681D01*
X164412336Y-58919625D01*
X164323486Y-58765734D01*
X164268575Y-58596733D01*
X164250000Y-58420008D01*
X164268575Y-58243283D01*
X164323486Y-58074282D01*
X164412336Y-57920391D01*
X164531239Y-57788335D01*
X164675000Y-57683886D01*
X164837336Y-57611610D01*
X165011151Y-57574664D01*
X165188849Y-57574664D01*
X165362664Y-57611610D01*
G37*
G36*
X167902664Y-57611610D02*
G01*
X168065000Y-57683886D01*
X168208761Y-57788335D01*
X168327664Y-57920391D01*
X168416514Y-58074282D01*
X168471425Y-58243283D01*
X168490000Y-58420008D01*
X168471425Y-58596733D01*
X168416514Y-58765734D01*
X168327664Y-58919625D01*
X168208761Y-59051681D01*
X168065000Y-59156130D01*
X167902664Y-59228406D01*
X167728849Y-59265352D01*
X167551151Y-59265352D01*
X167377336Y-59228406D01*
X167215000Y-59156130D01*
X167071239Y-59051681D01*
X166952336Y-58919625D01*
X166863486Y-58765734D01*
X166808575Y-58596733D01*
X166790000Y-58420008D01*
X166808575Y-58243283D01*
X166863486Y-58074282D01*
X166952336Y-57920391D01*
X167071239Y-57788335D01*
X167215000Y-57683886D01*
X167377336Y-57611610D01*
X167551151Y-57574664D01*
X167728849Y-57574664D01*
X167902664Y-57611610D01*
G37*
G36*
X170442664Y-57611610D02*
G01*
X170605000Y-57683886D01*
X170748761Y-57788335D01*
X170867664Y-57920391D01*
X170956514Y-58074282D01*
X171011425Y-58243283D01*
X171030000Y-58420008D01*
X171011425Y-58596733D01*
X170956514Y-58765734D01*
X170867664Y-58919625D01*
X170748761Y-59051681D01*
X170605000Y-59156130D01*
X170442664Y-59228406D01*
X170268849Y-59265352D01*
X170091151Y-59265352D01*
X169917336Y-59228406D01*
X169755000Y-59156130D01*
X169611239Y-59051681D01*
X169492336Y-58919625D01*
X169403486Y-58765734D01*
X169348575Y-58596733D01*
X169330000Y-58420008D01*
X169348575Y-58243283D01*
X169403486Y-58074282D01*
X169492336Y-57920391D01*
X169611239Y-57788335D01*
X169755000Y-57683886D01*
X169917336Y-57611610D01*
X170091151Y-57574664D01*
X170268849Y-57574664D01*
X170442664Y-57611610D01*
G37*
G36*
X172982664Y-57611610D02*
G01*
X173145000Y-57683886D01*
X173288761Y-57788335D01*
X173407664Y-57920391D01*
X173496514Y-58074282D01*
X173551425Y-58243283D01*
X173570000Y-58420008D01*
X173551425Y-58596733D01*
X173496514Y-58765734D01*
X173407664Y-58919625D01*
X173288761Y-59051681D01*
X173145000Y-59156130D01*
X172982664Y-59228406D01*
X172808849Y-59265352D01*
X172631151Y-59265352D01*
X172457336Y-59228406D01*
X172295000Y-59156130D01*
X172151239Y-59051681D01*
X172032336Y-58919625D01*
X171943486Y-58765734D01*
X171888575Y-58596733D01*
X171870000Y-58420008D01*
X171888575Y-58243283D01*
X171943486Y-58074282D01*
X172032336Y-57920391D01*
X172151239Y-57788335D01*
X172295000Y-57683886D01*
X172457336Y-57611610D01*
X172631151Y-57574664D01*
X172808849Y-57574664D01*
X172982664Y-57611610D01*
G37*
G36*
X175522664Y-57611610D02*
G01*
X175685000Y-57683886D01*
X175828761Y-57788335D01*
X175947664Y-57920391D01*
X176036514Y-58074282D01*
X176091425Y-58243283D01*
X176110000Y-58420008D01*
X176091425Y-58596733D01*
X176036514Y-58765734D01*
X175947664Y-58919625D01*
X175828761Y-59051681D01*
X175685000Y-59156130D01*
X175522664Y-59228406D01*
X175348849Y-59265352D01*
X175171151Y-59265352D01*
X174997336Y-59228406D01*
X174835000Y-59156130D01*
X174691239Y-59051681D01*
X174572336Y-58919625D01*
X174483486Y-58765734D01*
X174428575Y-58596733D01*
X174410000Y-58420008D01*
X174428575Y-58243283D01*
X174483486Y-58074282D01*
X174572336Y-57920391D01*
X174691239Y-57788335D01*
X174835000Y-57683886D01*
X174997336Y-57611610D01*
X175171151Y-57574664D01*
X175348849Y-57574664D01*
X175522664Y-57611610D01*
G37*
G36*
X178062664Y-57611610D02*
G01*
X178225000Y-57683886D01*
X178368761Y-57788335D01*
X178487664Y-57920391D01*
X178576514Y-58074282D01*
X178631425Y-58243283D01*
X178650000Y-58420008D01*
X178631425Y-58596733D01*
X178576514Y-58765734D01*
X178487664Y-58919625D01*
X178368761Y-59051681D01*
X178225000Y-59156130D01*
X178062664Y-59228406D01*
X177888849Y-59265352D01*
X177711151Y-59265352D01*
X177537336Y-59228406D01*
X177375000Y-59156130D01*
X177231239Y-59051681D01*
X177112336Y-58919625D01*
X177023486Y-58765734D01*
X176968575Y-58596733D01*
X176950000Y-58420008D01*
X176968575Y-58243283D01*
X177023486Y-58074282D01*
X177112336Y-57920391D01*
X177231239Y-57788335D01*
X177375000Y-57683886D01*
X177537336Y-57611610D01*
X177711151Y-57574664D01*
X177888849Y-57574664D01*
X178062664Y-57611610D01*
G37*
G36*
X180602664Y-57611610D02*
G01*
X180765000Y-57683886D01*
X180908761Y-57788335D01*
X181027664Y-57920391D01*
X181116514Y-58074282D01*
X181171425Y-58243283D01*
X181190000Y-58420008D01*
X181171425Y-58596733D01*
X181116514Y-58765734D01*
X181027664Y-58919625D01*
X180908761Y-59051681D01*
X180765000Y-59156130D01*
X180602664Y-59228406D01*
X180428849Y-59265352D01*
X180251151Y-59265352D01*
X180077336Y-59228406D01*
X179915000Y-59156130D01*
X179771239Y-59051681D01*
X179652336Y-58919625D01*
X179563486Y-58765734D01*
X179508575Y-58596733D01*
X179490000Y-58420008D01*
X179508575Y-58243283D01*
X179563486Y-58074282D01*
X179652336Y-57920391D01*
X179771239Y-57788335D01*
X179915000Y-57683886D01*
X180077336Y-57611610D01*
X180251151Y-57574664D01*
X180428849Y-57574664D01*
X180602664Y-57611610D01*
G37*
G36*
X183142664Y-57611610D02*
G01*
X183305000Y-57683886D01*
X183448761Y-57788335D01*
X183567664Y-57920391D01*
X183656514Y-58074282D01*
X183711425Y-58243283D01*
X183730000Y-58420008D01*
X183711425Y-58596733D01*
X183656514Y-58765734D01*
X183567664Y-58919625D01*
X183448761Y-59051681D01*
X183305000Y-59156130D01*
X183142664Y-59228406D01*
X182968849Y-59265352D01*
X182791151Y-59265352D01*
X182617336Y-59228406D01*
X182455000Y-59156130D01*
X182311239Y-59051681D01*
X182192336Y-58919625D01*
X182103486Y-58765734D01*
X182048575Y-58596733D01*
X182030000Y-58420008D01*
X182048575Y-58243283D01*
X182103486Y-58074282D01*
X182192336Y-57920391D01*
X182311239Y-57788335D01*
X182455000Y-57683886D01*
X182617336Y-57611610D01*
X182791151Y-57574664D01*
X182968849Y-57574664D01*
X183142664Y-57611610D01*
G37*
M02*
