%TF.GenerationSoftware,KiCad,Pcbnew,8.0.2*%
%TF.CreationDate,2024-06-04T21:53:01-04:00*%
%TF.ProjectId,SilverSat_Comms,53696c76-6572-4536-9174-5f436f6d6d73,1.0 Beta*%
%TF.SameCoordinates,Original*%
%TF.FileFunction,Paste,Top*%
%TF.FilePolarity,Positive*%
%FSLAX46Y46*%
G04 Gerber Fmt 4.6, Leading zero omitted, Abs format (unit mm)*
G04 Created by KiCad (PCBNEW 8.0.2) date 2024-06-04 21:53:01*
%MOMM*%
%LPD*%
G01*
G04 APERTURE LIST*
G04 Aperture macros list*
%AMRoundRect*
0 Rectangle with rounded corners*
0 $1 Rounding radius*
0 $2 $3 $4 $5 $6 $7 $8 $9 X,Y pos of 4 corners*
0 Add a 4 corners polygon primitive as box body*
4,1,4,$2,$3,$4,$5,$6,$7,$8,$9,$2,$3,0*
0 Add four circle primitives for the rounded corners*
1,1,$1+$1,$2,$3*
1,1,$1+$1,$4,$5*
1,1,$1+$1,$6,$7*
1,1,$1+$1,$8,$9*
0 Add four rect primitives between the rounded corners*
20,1,$1+$1,$2,$3,$4,$5,0*
20,1,$1+$1,$4,$5,$6,$7,0*
20,1,$1+$1,$6,$7,$8,$9,0*
20,1,$1+$1,$8,$9,$2,$3,0*%
%AMFreePoly0*
4,1,17,4.107426,1.032426,4.125000,0.990000,4.125000,-0.990000,4.107426,-1.032426,4.065000,-1.050000,1.345000,-1.050000,1.302574,-1.032426,0.692574,-0.422426,0.675000,-0.380000,-0.735000,-0.380000,-0.735000,0.380000,0.675000,0.380000,0.692574,0.422426,1.302574,1.032426,1.345000,1.050000,4.065000,1.050000,4.107426,1.032426,4.107426,1.032426,$1*%
G04 Aperture macros list end*
%ADD10C,0.100000*%
%ADD11RoundRect,0.140000X0.170000X-0.140000X0.170000X0.140000X-0.170000X0.140000X-0.170000X-0.140000X0*%
%ADD12RoundRect,0.200000X0.275000X-0.200000X0.275000X0.200000X-0.275000X0.200000X-0.275000X-0.200000X0*%
%ADD13RoundRect,0.160000X-0.160000X0.282500X-0.160000X-0.282500X0.160000X-0.282500X0.160000X0.282500X0*%
%ADD14RoundRect,0.225000X0.250000X-0.225000X0.250000X0.225000X-0.250000X0.225000X-0.250000X-0.225000X0*%
%ADD15RoundRect,0.200000X-0.200000X-0.275000X0.200000X-0.275000X0.200000X0.275000X-0.200000X0.275000X0*%
%ADD16RoundRect,0.140000X-0.140000X-0.170000X0.140000X-0.170000X0.140000X0.170000X-0.140000X0.170000X0*%
%ADD17RoundRect,0.140000X-0.170000X0.140000X-0.170000X-0.140000X0.170000X-0.140000X0.170000X0.140000X0*%
%ADD18RoundRect,0.160000X-0.282500X-0.160000X0.282500X-0.160000X0.282500X0.160000X-0.282500X0.160000X0*%
%ADD19RoundRect,0.225000X-0.225000X-0.250000X0.225000X-0.250000X0.225000X0.250000X-0.225000X0.250000X0*%
%ADD20RoundRect,0.100000X-0.225000X-0.100000X0.225000X-0.100000X0.225000X0.100000X-0.225000X0.100000X0*%
%ADD21RoundRect,0.135000X-0.135000X-0.185000X0.135000X-0.185000X0.135000X0.185000X-0.135000X0.185000X0*%
%ADD22RoundRect,0.200000X-0.600000X0.200000X-0.600000X-0.200000X0.600000X-0.200000X0.600000X0.200000X0*%
%ADD23RoundRect,0.250001X-1.249999X0.799999X-1.249999X-0.799999X1.249999X-0.799999X1.249999X0.799999X0*%
%ADD24RoundRect,0.200000X0.200000X0.275000X-0.200000X0.275000X-0.200000X-0.275000X0.200000X-0.275000X0*%
%ADD25RoundRect,0.100000X0.225000X0.100000X-0.225000X0.100000X-0.225000X-0.100000X0.225000X-0.100000X0*%
%ADD26RoundRect,0.135000X0.135000X0.185000X-0.135000X0.185000X-0.135000X-0.185000X0.135000X-0.185000X0*%
%ADD27RoundRect,0.200000X-0.275000X0.200000X-0.275000X-0.200000X0.275000X-0.200000X0.275000X0.200000X0*%
%ADD28RoundRect,0.225000X-0.250000X0.225000X-0.250000X-0.225000X0.250000X-0.225000X0.250000X0.225000X0*%
%ADD29RoundRect,0.225000X0.225000X0.250000X-0.225000X0.250000X-0.225000X-0.250000X0.225000X-0.250000X0*%
%ADD30RoundRect,0.140000X0.140000X0.170000X-0.140000X0.170000X-0.140000X-0.170000X0.140000X-0.170000X0*%
%ADD31RoundRect,0.150000X-0.512500X-0.150000X0.512500X-0.150000X0.512500X0.150000X-0.512500X0.150000X0*%
%ADD32RoundRect,0.218750X0.218750X0.256250X-0.218750X0.256250X-0.218750X-0.256250X0.218750X-0.256250X0*%
%ADD33RoundRect,0.250000X-0.250000X-0.475000X0.250000X-0.475000X0.250000X0.475000X-0.250000X0.475000X0*%
%ADD34RoundRect,0.150000X-0.350000X0.150000X-0.350000X-0.150000X0.350000X-0.150000X0.350000X0.150000X0*%
%ADD35RoundRect,0.250000X-0.650000X0.375000X-0.650000X-0.375000X0.650000X-0.375000X0.650000X0.375000X0*%
%ADD36RoundRect,0.543478X-0.706522X-0.806522X0.706522X-0.806522X0.706522X0.806522X-0.706522X0.806522X0*%
%ADD37RoundRect,0.135000X-0.185000X0.135000X-0.185000X-0.135000X0.185000X-0.135000X0.185000X0.135000X0*%
%ADD38RoundRect,0.250000X-0.325000X-1.100000X0.325000X-1.100000X0.325000X1.100000X-0.325000X1.100000X0*%
%ADD39RoundRect,0.250000X0.750000X-0.250000X0.750000X0.250000X-0.750000X0.250000X-0.750000X-0.250000X0*%
%ADD40RoundRect,0.062500X0.062500X-0.362500X0.062500X0.362500X-0.062500X0.362500X-0.062500X-0.362500X0*%
%ADD41RoundRect,0.062500X0.362500X-0.062500X0.362500X0.062500X-0.362500X0.062500X-0.362500X-0.062500X0*%
%ADD42RoundRect,0.135000X0.185000X-0.135000X0.185000X0.135000X-0.185000X0.135000X-0.185000X-0.135000X0*%
%ADD43RoundRect,0.250000X0.250000X0.475000X-0.250000X0.475000X-0.250000X-0.475000X0.250000X-0.475000X0*%
%ADD44RoundRect,0.150000X0.825000X0.150000X-0.825000X0.150000X-0.825000X-0.150000X0.825000X-0.150000X0*%
%ADD45R,0.660000X1.570000*%
%ADD46FreePoly0,90.000000*%
%ADD47RoundRect,0.375000X0.375000X-9.725000X0.375000X9.725000X-0.375000X9.725000X-0.375000X-9.725000X0*%
%ADD48RoundRect,0.375000X-2.862500X-0.375000X2.862500X-0.375000X2.862500X0.375000X-2.862500X0.375000X0*%
%ADD49RoundRect,0.362500X-9.262500X-0.362500X9.262500X-0.362500X9.262500X0.362500X-9.262500X0.362500X0*%
%ADD50RoundRect,0.375000X-13.100000X-0.375000X13.100000X-0.375000X13.100000X0.375000X-13.100000X0.375000X0*%
%ADD51RoundRect,0.362500X-6.700000X-0.362500X6.700000X-0.362500X6.700000X0.362500X-6.700000X0.362500X0*%
%ADD52RoundRect,0.375000X0.375000X-7.350000X0.375000X7.350000X-0.375000X7.350000X-0.375000X-7.350000X0*%
%ADD53RoundRect,0.218750X-0.256250X0.218750X-0.256250X-0.218750X0.256250X-0.218750X0.256250X0.218750X0*%
%ADD54RoundRect,0.160000X0.282500X0.160000X-0.282500X0.160000X-0.282500X-0.160000X0.282500X-0.160000X0*%
%ADD55R,1.350000X0.400000*%
%ADD56R,1.900000X1.500000*%
%ADD57RoundRect,0.543478X0.806522X-0.706522X0.806522X0.706522X-0.806522X0.706522X-0.806522X-0.706522X0*%
%ADD58RoundRect,0.160000X0.245000X0.160000X-0.245000X0.160000X-0.245000X-0.160000X0.245000X-0.160000X0*%
%ADD59RoundRect,0.093750X0.093750X0.106250X-0.093750X0.106250X-0.093750X-0.106250X0.093750X-0.106250X0*%
%ADD60RoundRect,0.243750X-0.456250X0.243750X-0.456250X-0.243750X0.456250X-0.243750X0.456250X0.243750X0*%
%ADD61R,0.800000X0.900000*%
%ADD62RoundRect,0.050000X0.200000X0.075000X-0.200000X0.075000X-0.200000X-0.075000X0.200000X-0.075000X0*%
%ADD63R,0.800000X1.500000*%
%ADD64RoundRect,0.150000X0.512500X0.150000X-0.512500X0.150000X-0.512500X-0.150000X0.512500X-0.150000X0*%
%ADD65R,2.400000X0.740000*%
%ADD66RoundRect,0.075000X-0.075000X0.662500X-0.075000X-0.662500X0.075000X-0.662500X0.075000X0.662500X0*%
%ADD67RoundRect,0.075000X-0.662500X0.075000X-0.662500X-0.075000X0.662500X-0.075000X0.662500X0.075000X0*%
%ADD68RoundRect,0.533400X0.008980X0.763322X-0.763322X-0.008980X-0.008980X-0.763322X0.763322X0.008980X0*%
%ADD69RoundRect,0.062500X0.337500X0.062500X-0.337500X0.062500X-0.337500X-0.062500X0.337500X-0.062500X0*%
%ADD70RoundRect,0.062500X0.062500X0.337500X-0.062500X0.337500X-0.062500X-0.337500X0.062500X-0.337500X0*%
G04 APERTURE END LIST*
%TO.C,U12*%
D10*
X164738011Y-110467011D02*
X163938011Y-110467011D01*
X163938011Y-109867011D01*
X164738011Y-109867011D01*
X164738011Y-110467011D01*
G36*
X164738011Y-110467011D02*
G01*
X163938011Y-110467011D01*
X163938011Y-109867011D01*
X164738011Y-109867011D01*
X164738011Y-110467011D01*
G37*
X164738011Y-111367011D02*
X163938011Y-111367011D01*
X163938011Y-110767011D01*
X164738011Y-110767011D01*
X164738011Y-111367011D01*
G36*
X164738011Y-111367011D02*
G01*
X163938011Y-111367011D01*
X163938011Y-110767011D01*
X164738011Y-110767011D01*
X164738011Y-111367011D01*
G37*
%TD*%
D11*
%TO.C,C35*%
X130566679Y-126259971D03*
X130566679Y-125299971D03*
%TD*%
D12*
%TO.C,R26*%
X170825000Y-95440000D03*
X170825000Y-93790000D03*
%TD*%
D13*
%TO.C,L13*%
X146967000Y-125653800D03*
X146967000Y-126923800D03*
%TD*%
D14*
%TO.C,C9*%
X140132000Y-92215000D03*
X140132000Y-90665000D03*
%TD*%
D15*
%TO.C,R10*%
X116777000Y-115316000D03*
X118427000Y-115316000D03*
%TD*%
D12*
%TO.C,R7*%
X138684000Y-112077000D03*
X138684000Y-110427000D03*
%TD*%
D16*
%TO.C,C67*%
X138740000Y-124587000D03*
X139700000Y-124587000D03*
%TD*%
D11*
%TO.C,C16*%
X116710000Y-136605000D03*
X116710000Y-135645000D03*
%TD*%
D17*
%TO.C,C26*%
X122422179Y-130958971D03*
X122422179Y-131918971D03*
%TD*%
D18*
%TO.C,L14*%
X150359171Y-124598229D03*
X151629171Y-124598229D03*
%TD*%
D19*
%TO.C,C43*%
X174007000Y-84099400D03*
X175557000Y-84099400D03*
%TD*%
D14*
%TO.C,C68*%
X113560000Y-134950000D03*
X113560000Y-133400000D03*
%TD*%
D17*
%TO.C,C53*%
X165354000Y-124615000D03*
X165354000Y-125575000D03*
%TD*%
D11*
%TO.C,C33*%
X130028471Y-129384048D03*
X130028471Y-128424048D03*
%TD*%
D18*
%TO.C,L16*%
X162776098Y-124602840D03*
X164046098Y-124602840D03*
%TD*%
D11*
%TO.C,C57*%
X177292000Y-128115000D03*
X177292000Y-127155000D03*
%TD*%
D12*
%TO.C,R17*%
X110865179Y-130871971D03*
X110865179Y-129221971D03*
%TD*%
D20*
%TO.C,U7*%
X175592521Y-124555229D03*
X175592521Y-125205229D03*
X175592521Y-125855229D03*
X177492521Y-125855229D03*
X177492521Y-125205229D03*
X177492521Y-124555229D03*
%TD*%
D21*
%TO.C,R38*%
X136018421Y-124437400D03*
X137038421Y-124437400D03*
%TD*%
D22*
%TO.C,J3*%
X121780000Y-89565000D03*
X121780000Y-90815000D03*
X121780000Y-92065000D03*
X121780000Y-93315000D03*
D23*
X118880000Y-87015000D03*
X118880000Y-95865000D03*
%TD*%
D14*
%TO.C,C19*%
X110998000Y-135776000D03*
X110998000Y-134226000D03*
%TD*%
D24*
%TO.C,R13*%
X161226000Y-98679000D03*
X159576000Y-98679000D03*
%TD*%
D13*
%TO.C,L3*%
X120914679Y-125116971D03*
X120914679Y-126386971D03*
%TD*%
D25*
%TO.C,U4*%
X183666200Y-74408029D03*
X183666200Y-73758029D03*
X183666200Y-73108029D03*
X181766200Y-73108029D03*
X181766200Y-74408029D03*
%TD*%
D18*
%TO.C,L6*%
X125814471Y-129412048D03*
X127084471Y-129412048D03*
%TD*%
D26*
%TO.C,R14*%
X125006179Y-136650971D03*
X123986179Y-136650971D03*
%TD*%
D24*
%TO.C,R16*%
X118151650Y-134175000D03*
X116501650Y-134175000D03*
%TD*%
D27*
%TO.C,R40*%
X168021000Y-107950000D03*
X168021000Y-109600000D03*
%TD*%
D28*
%TO.C,C66*%
X162179000Y-108318000D03*
X162179000Y-109868000D03*
%TD*%
D29*
%TO.C,C8*%
X135776000Y-112014000D03*
X134226000Y-112014000D03*
%TD*%
D15*
%TO.C,R1*%
X108764200Y-110236000D03*
X110414200Y-110236000D03*
%TD*%
D19*
%TO.C,C60*%
X141579000Y-75946000D03*
X143129000Y-75946000D03*
%TD*%
D30*
%TO.C,C51*%
X163675000Y-122301000D03*
X162715000Y-122301000D03*
%TD*%
D19*
%TO.C,C63*%
X147180000Y-111125000D03*
X148730000Y-111125000D03*
%TD*%
D17*
%TO.C,C25*%
X122422179Y-128452122D03*
X122422179Y-129412122D03*
%TD*%
D11*
%TO.C,C58*%
X177419000Y-123186818D03*
X177419000Y-122226818D03*
%TD*%
D12*
%TO.C,R35*%
X135954000Y-78976000D03*
X135954000Y-77326000D03*
%TD*%
D24*
%TO.C,R25*%
X167703000Y-92075000D03*
X166053000Y-92075000D03*
%TD*%
D31*
%TO.C,U11*%
X143007500Y-109286000D03*
X143007500Y-110236000D03*
X143007500Y-111186000D03*
X145282500Y-111186000D03*
X145282500Y-110236000D03*
X145282500Y-109286000D03*
%TD*%
D14*
%TO.C,C61*%
X126873000Y-81788000D03*
X126873000Y-80238000D03*
%TD*%
D19*
%TO.C,C62*%
X125450000Y-76073000D03*
X127000000Y-76073000D03*
%TD*%
D30*
%TO.C,C29*%
X124779179Y-130958971D03*
X123819179Y-130958971D03*
%TD*%
D24*
%TO.C,R22*%
X172285000Y-87828029D03*
X170635000Y-87828029D03*
%TD*%
D32*
%TO.C,L2*%
X117119500Y-125349000D03*
X115544500Y-125349000D03*
%TD*%
D11*
%TO.C,C56*%
X178689000Y-125270200D03*
X178689000Y-124310200D03*
%TD*%
D33*
%TO.C,C5*%
X146211629Y-104193000D03*
X148111629Y-104193000D03*
%TD*%
D17*
%TO.C,C31*%
X128518179Y-130958971D03*
X128518179Y-131918971D03*
%TD*%
D34*
%TO.C,J4*%
X122937000Y-74228000D03*
X122937000Y-75728000D03*
X122937000Y-77228000D03*
X122937000Y-78728000D03*
X122937000Y-80228000D03*
X122937000Y-81728000D03*
D35*
X117747000Y-71623000D03*
X117747000Y-84333000D03*
%TD*%
D36*
%TO.C,C64*%
X175092225Y-110109000D03*
X178042225Y-110109000D03*
%TD*%
D11*
%TO.C,C52*%
X172605521Y-124669229D03*
X172605521Y-123709229D03*
%TD*%
D28*
%TO.C,C42*%
X185674000Y-74409000D03*
X185674000Y-75959000D03*
%TD*%
%TO.C,C41*%
X187491400Y-74405429D03*
X187491400Y-75955429D03*
%TD*%
D29*
%TO.C,C12*%
X130950000Y-103124000D03*
X129400000Y-103124000D03*
%TD*%
D12*
%TO.C,R29*%
X169164000Y-94576400D03*
X169164000Y-92926400D03*
%TD*%
D17*
%TO.C,C24*%
X122438679Y-125243971D03*
X122438679Y-126203971D03*
%TD*%
D29*
%TO.C,C18*%
X119625650Y-135575000D03*
X118075650Y-135575000D03*
%TD*%
D15*
%TO.C,R19*%
X181801000Y-75946000D03*
X183451000Y-75946000D03*
%TD*%
D37*
%TO.C,R44*%
X131890000Y-115975000D03*
X131890000Y-116995000D03*
%TD*%
D38*
%TO.C,C50*%
X161847000Y-119888000D03*
X164797000Y-119888000D03*
%TD*%
D39*
%TO.C,U6*%
X172603000Y-90830400D03*
D40*
X171353000Y-92280400D03*
X171853000Y-92280400D03*
X172353000Y-92280400D03*
X172853000Y-92280400D03*
X173353000Y-92280400D03*
X173853000Y-92280400D03*
D41*
X174553000Y-91580400D03*
X174553000Y-91080400D03*
X174553000Y-90580400D03*
X174553000Y-90080400D03*
D40*
X173853000Y-89380400D03*
X173353000Y-89380400D03*
X172853000Y-89380400D03*
X172353000Y-89380400D03*
X171853000Y-89380400D03*
X171353000Y-89380400D03*
D41*
X170653000Y-90080400D03*
X170653000Y-90580400D03*
X170653000Y-91080400D03*
X170653000Y-91580400D03*
%TD*%
D30*
%TO.C,C34*%
X132582179Y-130958971D03*
X131622179Y-130958971D03*
%TD*%
D26*
%TO.C,R3*%
X110349000Y-58425000D03*
X109329000Y-58425000D03*
%TD*%
D13*
%TO.C,L15*%
X161810521Y-123474200D03*
X161810521Y-124744200D03*
%TD*%
D42*
%TO.C,R43*%
X159385000Y-117477000D03*
X159385000Y-116457000D03*
%TD*%
D24*
%TO.C,R36*%
X127063000Y-77597000D03*
X125413000Y-77597000D03*
%TD*%
D29*
%TO.C,C39*%
X169672000Y-74168000D03*
X168122000Y-74168000D03*
%TD*%
D33*
%TO.C,C44*%
X177104000Y-89789000D03*
X179004000Y-89789000D03*
%TD*%
D43*
%TO.C,C13*%
X148143000Y-101854000D03*
X146243000Y-101854000D03*
%TD*%
D18*
%TO.C,L7*%
X125828179Y-130958971D03*
X127098179Y-130958971D03*
%TD*%
D36*
%TO.C,C65*%
X175182000Y-103759000D03*
X178132000Y-103759000D03*
%TD*%
D17*
%TO.C,C37*%
X134249679Y-126255171D03*
X134249679Y-127215171D03*
%TD*%
D30*
%TO.C,C54*%
X174470000Y-124587000D03*
X173510000Y-124587000D03*
%TD*%
D44*
%TO.C,U9*%
X150113771Y-79793229D03*
X150113771Y-78523229D03*
X150113771Y-77253229D03*
X150113771Y-75983229D03*
X150113771Y-74713229D03*
X150113771Y-73443229D03*
X150113771Y-72173229D03*
X145163771Y-72173229D03*
X145163771Y-73443229D03*
X145163771Y-74713229D03*
X145163771Y-75983229D03*
X145163771Y-77253229D03*
X145163771Y-78523229D03*
X145163771Y-79793229D03*
%TD*%
D27*
%TO.C,R11*%
X148844000Y-106109000D03*
X148844000Y-107759000D03*
%TD*%
D45*
%TO.C,PA1*%
X153820000Y-124475000D03*
D46*
X155320000Y-124475000D03*
D45*
X156820000Y-124475000D03*
%TD*%
D29*
%TO.C,C45*%
X168796000Y-90551000D03*
X167246000Y-90551000D03*
%TD*%
D47*
%TO.C,S3*%
X145182107Y-123668835D03*
D48*
X147919607Y-133018835D03*
D49*
X154057107Y-114293835D03*
D50*
X167657107Y-133018835D03*
D51*
X173619607Y-114293835D03*
D52*
X180382107Y-121293835D03*
%TD*%
D33*
%TO.C,C7*%
X134227000Y-95387000D03*
X136127000Y-95387000D03*
%TD*%
D53*
%TO.C,L12*%
X171450000Y-74142500D03*
X171450000Y-75717500D03*
%TD*%
D16*
%TO.C,C70*%
X127500000Y-117985000D03*
X128460000Y-117985000D03*
%TD*%
D54*
%TO.C,L8*%
X127622679Y-126236971D03*
X126352679Y-126236971D03*
%TD*%
D28*
%TO.C,C22*%
X109220000Y-129273000D03*
X109220000Y-130823000D03*
%TD*%
D21*
%TO.C,R2*%
X114679000Y-144145000D03*
X115699000Y-144145000D03*
%TD*%
D44*
%TO.C,U10*%
X133980900Y-79883000D03*
X133980900Y-78613000D03*
X133980900Y-77343000D03*
X133980900Y-76073000D03*
X133980900Y-74803000D03*
X133980900Y-73533000D03*
X133980900Y-72263000D03*
X129030900Y-72263000D03*
X129030900Y-73533000D03*
X129030900Y-74803000D03*
X129030900Y-76073000D03*
X129030900Y-77343000D03*
X129030900Y-78613000D03*
X129030900Y-79883000D03*
%TD*%
D24*
%TO.C,R34*%
X143170471Y-77470000D03*
X141520471Y-77470000D03*
%TD*%
D30*
%TO.C,C69*%
X132840000Y-117895000D03*
X131880000Y-117895000D03*
%TD*%
D16*
%TO.C,C20*%
X120164179Y-133856971D03*
X121124179Y-133856971D03*
%TD*%
D24*
%TO.C,R27*%
X173936000Y-93878400D03*
X172286000Y-93878400D03*
%TD*%
D28*
%TO.C,C2*%
X140380629Y-93840000D03*
X140380629Y-95390000D03*
%TD*%
D42*
%TO.C,R41*%
X187452000Y-72646000D03*
X187452000Y-71626000D03*
%TD*%
D15*
%TO.C,R8*%
X129346429Y-98283000D03*
X130996429Y-98283000D03*
%TD*%
D19*
%TO.C,C1*%
X108814200Y-108740000D03*
X110364200Y-108740000D03*
%TD*%
D11*
%TO.C,C32*%
X129042679Y-126213971D03*
X129042679Y-125253971D03*
%TD*%
D16*
%TO.C,C36*%
X132108000Y-125095000D03*
X133068000Y-125095000D03*
%TD*%
D24*
%TO.C,R21*%
X173999000Y-86304029D03*
X172349000Y-86304029D03*
%TD*%
D29*
%TO.C,C14*%
X116598429Y-122172971D03*
X115048429Y-122172971D03*
%TD*%
D14*
%TO.C,C23*%
X115210000Y-135750000D03*
X115210000Y-134200000D03*
%TD*%
D16*
%TO.C,C55*%
X174018000Y-130429000D03*
X174978000Y-130429000D03*
%TD*%
D55*
%TO.C,J1*%
X112460500Y-102124990D03*
X112460500Y-102774990D03*
X112460500Y-103424990D03*
X112460500Y-104074990D03*
X112460500Y-104724990D03*
D56*
X109760500Y-102424990D03*
X109760500Y-104424990D03*
%TD*%
D57*
%TO.C,C40*%
X175860000Y-75790000D03*
X175860000Y-72840000D03*
%TD*%
D58*
%TO.C,U5*%
X174762000Y-80670400D03*
X174762000Y-79870400D03*
D59*
X175649500Y-80920400D03*
X175649500Y-80270400D03*
X175649500Y-79620400D03*
X173874500Y-79620400D03*
X173874500Y-80270400D03*
X173874500Y-80920400D03*
%TD*%
D60*
%TO.C,F1*%
X115443000Y-101805500D03*
X115443000Y-103680500D03*
%TD*%
D61*
%TO.C,X1*%
X122506179Y-136842971D03*
X122506179Y-135442971D03*
X121406179Y-135442971D03*
X121406179Y-136842971D03*
%TD*%
D37*
%TO.C,R45*%
X128450000Y-116015000D03*
X128450000Y-117035000D03*
%TD*%
D17*
%TO.C,C49*%
X147955000Y-125758000D03*
X147955000Y-126718000D03*
%TD*%
D13*
%TO.C,L5*%
X120898179Y-130808971D03*
X120898179Y-132078971D03*
%TD*%
D53*
%TO.C,L1*%
X136652000Y-91922500D03*
X136652000Y-93497500D03*
%TD*%
D62*
%TO.C,U12*%
X165288011Y-111367011D03*
X165288011Y-110867011D03*
X165288011Y-110367011D03*
X165288011Y-109867011D03*
X163388011Y-109867011D03*
X163388011Y-110367011D03*
X163392805Y-110871056D03*
X163392805Y-111367011D03*
%TD*%
D19*
%TO.C,C47*%
X176554800Y-91973400D03*
X178104800Y-91973400D03*
%TD*%
D30*
%TO.C,C48*%
X147927000Y-124587000D03*
X146967000Y-124587000D03*
%TD*%
D18*
%TO.C,L11*%
X131963679Y-126259971D03*
X133233679Y-126259971D03*
%TD*%
D24*
%TO.C,R23*%
X170697000Y-86304029D03*
X169047000Y-86304029D03*
%TD*%
D16*
%TO.C,C38*%
X136934000Y-130429000D03*
X137894000Y-130429000D03*
%TD*%
D13*
%TO.C,L9*%
X130042179Y-130808971D03*
X130042179Y-132078971D03*
%TD*%
D37*
%TO.C,R42*%
X174879000Y-96137000D03*
X174879000Y-97157000D03*
%TD*%
D27*
%TO.C,R15*%
X118242250Y-122266000D03*
X118242250Y-123916000D03*
%TD*%
D15*
%TO.C,R6*%
X129346429Y-99840000D03*
X130996429Y-99840000D03*
%TD*%
D37*
%TO.C,R4*%
X187960000Y-62360000D03*
X187960000Y-63380000D03*
%TD*%
D42*
%TO.C,R37*%
X136040000Y-126540000D03*
X136040000Y-125520000D03*
%TD*%
%TO.C,R39*%
X137183000Y-126540000D03*
X137183000Y-125520000D03*
%TD*%
D27*
%TO.C,R28*%
X172349000Y-95339400D03*
X172349000Y-96989400D03*
%TD*%
D28*
%TO.C,C10*%
X140970000Y-110731000D03*
X140970000Y-112281000D03*
%TD*%
D12*
%TO.C,R18*%
X179832000Y-75882000D03*
X179832000Y-74232000D03*
%TD*%
D24*
%TO.C,R24*%
X169227000Y-89027000D03*
X167577000Y-89027000D03*
%TD*%
D17*
%TO.C,C30*%
X128504471Y-128452048D03*
X128504471Y-129412048D03*
%TD*%
D63*
%TO.C,Y1*%
X141916629Y-95046200D03*
X143416629Y-95046200D03*
%TD*%
D64*
%TO.C,U1*%
X120136500Y-104709000D03*
X120136500Y-103759000D03*
X120136500Y-102809000D03*
X117861500Y-102809000D03*
X117861500Y-103759000D03*
X117861500Y-104709000D03*
%TD*%
D29*
%TO.C,C17*%
X119785000Y-136925000D03*
X118235000Y-136925000D03*
%TD*%
D30*
%TO.C,C15*%
X116303429Y-123823971D03*
X115343429Y-123823971D03*
%TD*%
D65*
%TO.C,J7*%
X152547229Y-97510600D03*
X156447229Y-97510600D03*
X152547229Y-98780600D03*
X156447229Y-98780600D03*
X152547229Y-100050600D03*
X156447229Y-100050600D03*
X152547229Y-101320600D03*
X156447229Y-101320600D03*
X152547229Y-102590600D03*
X156447229Y-102590600D03*
%TD*%
D47*
%TO.C,S1*%
X106680000Y-129842000D03*
D48*
X109423200Y-139192000D03*
D49*
X115560700Y-120467000D03*
D50*
X129160700Y-139192000D03*
D51*
X135123200Y-120467000D03*
D52*
X141885700Y-127467000D03*
%TD*%
D31*
%TO.C,U8*%
X154278598Y-117765829D03*
X154278598Y-118715829D03*
X154278598Y-119665829D03*
X156553598Y-119665829D03*
X156553598Y-118715829D03*
X156553598Y-117765829D03*
%TD*%
D42*
%TO.C,R31*%
X176403000Y-123192000D03*
X176403000Y-122172000D03*
%TD*%
D14*
%TO.C,C6*%
X138348629Y-95856520D03*
X138348629Y-94306520D03*
%TD*%
D26*
%TO.C,R5*%
X186549000Y-144150000D03*
X185529000Y-144150000D03*
%TD*%
D28*
%TO.C,C3*%
X144952629Y-93840000D03*
X144952629Y-95390000D03*
%TD*%
D12*
%TO.C,R33*%
X152296371Y-78926429D03*
X152296371Y-77276429D03*
%TD*%
D28*
%TO.C,C4*%
X147193000Y-106159000D03*
X147193000Y-107709000D03*
%TD*%
D66*
%TO.C,U2*%
X140756471Y-99451500D03*
X140256471Y-99451500D03*
X139756471Y-99451500D03*
X139256471Y-99451500D03*
X138756471Y-99451500D03*
X138256471Y-99451500D03*
X137756471Y-99451500D03*
X137256471Y-99451500D03*
X136756471Y-99451500D03*
X136256471Y-99451500D03*
X135756471Y-99451500D03*
X135256471Y-99451500D03*
D67*
X133843971Y-100864000D03*
X133843971Y-101364000D03*
X133843971Y-101864000D03*
X133843971Y-102364000D03*
X133843971Y-102864000D03*
X133843971Y-103364000D03*
X133843971Y-103864000D03*
X133843971Y-104364000D03*
X133843971Y-104864000D03*
X133843971Y-105364000D03*
X133843971Y-105864000D03*
X133843971Y-106364000D03*
D66*
X135256471Y-107776500D03*
X135756471Y-107776500D03*
X136256471Y-107776500D03*
X136756471Y-107776500D03*
X137256471Y-107776500D03*
X137756471Y-107776500D03*
X138256471Y-107776500D03*
X138756471Y-107776500D03*
X139256471Y-107776500D03*
X139756471Y-107776500D03*
X140256471Y-107776500D03*
X140756471Y-107776500D03*
D67*
X142168971Y-106364000D03*
X142168971Y-105864000D03*
X142168971Y-105364000D03*
X142168971Y-104864000D03*
X142168971Y-104364000D03*
X142168971Y-103864000D03*
X142168971Y-103364000D03*
X142168971Y-102864000D03*
X142168971Y-102364000D03*
X142168971Y-101864000D03*
X142168971Y-101364000D03*
X142168971Y-100864000D03*
%TD*%
D16*
%TO.C,C27*%
X123990679Y-126236971D03*
X124950679Y-126236971D03*
%TD*%
D13*
%TO.C,L4*%
X120898179Y-128291971D03*
X120898179Y-129561971D03*
%TD*%
D18*
%TO.C,L10*%
X131425471Y-129389048D03*
X132695471Y-129389048D03*
%TD*%
D15*
%TO.C,R30*%
X165037000Y-122301000D03*
X166687000Y-122301000D03*
%TD*%
D11*
%TO.C,C21*%
X119310000Y-126205000D03*
X119310000Y-125245000D03*
%TD*%
D14*
%TO.C,C59*%
X142621000Y-81420000D03*
X142621000Y-79870000D03*
%TD*%
D33*
%TO.C,C46*%
X176519800Y-94132400D03*
X178419800Y-94132400D03*
%TD*%
D12*
%TO.C,R12*%
X145593000Y-107759000D03*
X145593000Y-106109000D03*
%TD*%
D27*
%TO.C,R20*%
X189357000Y-74359000D03*
X189357000Y-76009000D03*
%TD*%
D14*
%TO.C,C11*%
X141781200Y-92203200D03*
X141781200Y-90653200D03*
%TD*%
D12*
%TO.C,R9*%
X137371471Y-112077000D03*
X137371471Y-110427000D03*
%TD*%
D37*
%TO.C,R32*%
X176111098Y-127095829D03*
X176111098Y-128115829D03*
%TD*%
D16*
%TO.C,C28*%
X123805471Y-129412048D03*
X124765471Y-129412048D03*
%TD*%
D68*
%TO.C,U3*%
X116072179Y-129919971D03*
D69*
X118522179Y-131419971D03*
X118522179Y-130919971D03*
X118522179Y-130419971D03*
X118522179Y-129919971D03*
X118522179Y-129419971D03*
X118522179Y-128919971D03*
X118522179Y-128419971D03*
D70*
X117572179Y-127469971D03*
X117072179Y-127469971D03*
X116572179Y-127469971D03*
X116072179Y-127469971D03*
X115572179Y-127469971D03*
X115072179Y-127469971D03*
X114572179Y-127469971D03*
D69*
X113622179Y-128419971D03*
X113622179Y-128919971D03*
X113622179Y-129419971D03*
X113622179Y-129919971D03*
X113622179Y-130419971D03*
X113622179Y-130919971D03*
X113622179Y-131419971D03*
D70*
X114572179Y-132369971D03*
X115072179Y-132369971D03*
X115572179Y-132369971D03*
X116072179Y-132369971D03*
X116572179Y-132369971D03*
X117072179Y-132369971D03*
X117572179Y-132369971D03*
%TD*%
M02*
