%TF.GenerationSoftware,KiCad,Pcbnew,(6.0.5)*%
%TF.CreationDate,2022-08-13T13:23:51-04:00*%
%TF.ProjectId,SilverSat_Comms,53696c76-6572-4536-9174-5f436f6d6d73,rev?*%
%TF.SameCoordinates,Original*%
%TF.FileFunction,Legend,Top*%
%TF.FilePolarity,Positive*%
%FSLAX46Y46*%
G04 Gerber Fmt 4.6, Leading zero omitted, Abs format (unit mm)*
G04 Created by KiCad (PCBNEW (6.0.5)) date 2022-08-13 13:23:51*
%MOMM*%
%LPD*%
G01*
G04 APERTURE LIST*
%ADD10C,0.127000*%
%ADD11C,0.150000*%
%ADD12C,0.180000*%
%ADD13C,0.120000*%
G04 APERTURE END LIST*
D10*
X116298115Y-138180264D02*
X116552115Y-137926264D01*
X116552115Y-137926264D02*
X116552115Y-138180264D01*
X116552115Y-137926264D02*
X116806115Y-138180264D01*
X115343876Y-137248918D02*
X115343876Y-138075000D01*
X115343876Y-137248918D02*
X115597876Y-137502918D01*
X115089876Y-137502918D02*
X115343876Y-137248918D01*
X115460000Y-140275000D02*
X115460000Y-140402000D01*
X115460000Y-140402000D02*
X115079000Y-140783000D01*
X139700000Y-114935000D02*
X139065000Y-115697000D01*
X182676829Y-76644500D02*
X182803829Y-76771500D01*
X170312996Y-92811600D02*
G75*
G03*
X170312996Y-92811600I-56796J0D01*
G01*
X120269500Y-135934500D02*
X120523500Y-135934500D01*
X122936000Y-132461000D02*
X123190000Y-132461000D01*
X140271500Y-113220500D02*
X140271500Y-113474500D01*
X134874000Y-111252000D02*
X135509000Y-110490000D01*
X139700000Y-113855500D02*
X139700000Y-114935000D01*
X120410000Y-140253500D02*
X120410000Y-141396500D01*
X118872000Y-141351000D02*
X118364000Y-140716000D01*
X120269500Y-135934500D02*
X120269500Y-136188500D01*
X118110000Y-137922000D02*
X118364000Y-137668000D01*
X124460000Y-137287000D02*
X124587000Y-137414000D01*
X140271500Y-113220500D02*
X140017500Y-113220500D01*
X122936000Y-132461000D02*
X122936000Y-132715000D01*
X148590000Y-109220000D02*
X147828000Y-108458000D01*
X182676829Y-77470000D02*
X182676829Y-76644500D01*
X117094000Y-135001000D02*
X117348000Y-134747000D01*
X132588000Y-109474000D02*
X133350000Y-108585000D01*
X182549829Y-76771500D02*
X182676829Y-76644500D01*
X120460000Y-136125000D02*
X120460000Y-138176000D01*
X139700000Y-113855500D02*
X140271500Y-113220500D01*
X124460000Y-137287000D02*
X124460000Y-137668000D01*
X132334000Y-110744000D02*
X133223000Y-110363000D01*
X132080000Y-112141000D02*
X132969000Y-111252000D01*
X124587000Y-133096000D02*
X124968000Y-133350000D01*
X124460000Y-137668000D02*
X125349000Y-137668000D01*
X118364000Y-140716000D02*
X118364000Y-140208000D01*
X124333000Y-137414000D02*
X124460000Y-137287000D01*
X122047000Y-134366000D02*
X122301000Y-134620000D01*
X120269500Y-135934500D02*
X120460000Y-136125000D01*
X122047000Y-134366000D02*
X122047000Y-134620000D01*
X122301000Y-134620000D02*
X125476000Y-134620000D01*
X122047000Y-134366000D02*
X122301000Y-134366000D01*
X132969000Y-111252000D02*
X134874000Y-111252000D01*
X116459000Y-140335000D02*
X116078000Y-140716000D01*
X147828000Y-108458000D02*
X147828000Y-108712000D01*
X124587000Y-133096000D02*
X123571000Y-133096000D01*
X123571000Y-133096000D02*
X122936000Y-132461000D01*
X118364000Y-137668000D02*
X118618000Y-137922000D01*
X117348000Y-134747000D02*
X117602000Y-135001000D01*
X118364000Y-137668000D02*
X118364000Y-138176000D01*
X116459000Y-140208000D02*
X116459000Y-140335000D01*
X125476000Y-134620000D02*
X126238000Y-135255000D01*
X131318000Y-109474000D02*
X132588000Y-109474000D01*
X117348000Y-141351000D02*
X117348000Y-140208000D01*
X147828000Y-108458000D02*
X148082000Y-108458000D01*
X117348000Y-134747000D02*
X117348000Y-138176000D01*
D11*
X167499357Y-69810380D02*
X168118404Y-69810380D01*
X167785071Y-70191333D01*
X167927928Y-70191333D01*
X168023166Y-70238952D01*
X168070785Y-70286571D01*
X168118404Y-70381809D01*
X168118404Y-70619904D01*
X168070785Y-70715142D01*
X168023166Y-70762761D01*
X167927928Y-70810380D01*
X167642214Y-70810380D01*
X167546976Y-70762761D01*
X167499357Y-70715142D01*
X168546976Y-70715142D02*
X168594595Y-70762761D01*
X168546976Y-70810380D01*
X168499357Y-70762761D01*
X168546976Y-70715142D01*
X168546976Y-70810380D01*
X168927928Y-69810380D02*
X169546976Y-69810380D01*
X169213642Y-70191333D01*
X169356500Y-70191333D01*
X169451738Y-70238952D01*
X169499357Y-70286571D01*
X169546976Y-70381809D01*
X169546976Y-70619904D01*
X169499357Y-70715142D01*
X169451738Y-70762761D01*
X169356500Y-70810380D01*
X169070785Y-70810380D01*
X168975547Y-70762761D01*
X168927928Y-70715142D01*
X169832690Y-69810380D02*
X170166023Y-70810380D01*
X170499357Y-69810380D01*
D12*
X166385238Y-146855571D02*
X165851904Y-146141285D01*
X165470952Y-146855571D02*
X165470952Y-145355571D01*
X166080476Y-145355571D01*
X166232857Y-145427000D01*
X166309047Y-145498428D01*
X166385238Y-145641285D01*
X166385238Y-145855571D01*
X166309047Y-145998428D01*
X166232857Y-146069857D01*
X166080476Y-146141285D01*
X165470952Y-146141285D01*
X167756666Y-146855571D02*
X167756666Y-146069857D01*
X167680476Y-145927000D01*
X167528095Y-145855571D01*
X167223333Y-145855571D01*
X167070952Y-145927000D01*
X167756666Y-146784142D02*
X167604285Y-146855571D01*
X167223333Y-146855571D01*
X167070952Y-146784142D01*
X166994761Y-146641285D01*
X166994761Y-146498428D01*
X167070952Y-146355571D01*
X167223333Y-146284142D01*
X167604285Y-146284142D01*
X167756666Y-146212714D01*
X169204285Y-146855571D02*
X169204285Y-145355571D01*
X169204285Y-146784142D02*
X169051904Y-146855571D01*
X168747142Y-146855571D01*
X168594761Y-146784142D01*
X168518571Y-146712714D01*
X168442380Y-146569857D01*
X168442380Y-146141285D01*
X168518571Y-145998428D01*
X168594761Y-145927000D01*
X168747142Y-145855571D01*
X169051904Y-145855571D01*
X169204285Y-145927000D01*
X169966190Y-146855571D02*
X169966190Y-145855571D01*
X169966190Y-145355571D02*
X169890000Y-145427000D01*
X169966190Y-145498428D01*
X170042380Y-145427000D01*
X169966190Y-145355571D01*
X169966190Y-145498428D01*
X170956666Y-146855571D02*
X170804285Y-146784142D01*
X170728095Y-146712714D01*
X170651904Y-146569857D01*
X170651904Y-146141285D01*
X170728095Y-145998428D01*
X170804285Y-145927000D01*
X170956666Y-145855571D01*
X171185238Y-145855571D01*
X171337619Y-145927000D01*
X171413809Y-145998428D01*
X171490000Y-146141285D01*
X171490000Y-146569857D01*
X171413809Y-146712714D01*
X171337619Y-146784142D01*
X171185238Y-146855571D01*
X170956666Y-146855571D01*
X173928095Y-146069857D02*
X174156666Y-146141285D01*
X174232857Y-146212714D01*
X174309047Y-146355571D01*
X174309047Y-146569857D01*
X174232857Y-146712714D01*
X174156666Y-146784142D01*
X174004285Y-146855571D01*
X173394761Y-146855571D01*
X173394761Y-145355571D01*
X173928095Y-145355571D01*
X174080476Y-145427000D01*
X174156666Y-145498428D01*
X174232857Y-145641285D01*
X174232857Y-145784142D01*
X174156666Y-145927000D01*
X174080476Y-145998428D01*
X173928095Y-146069857D01*
X173394761Y-146069857D01*
X175223333Y-146855571D02*
X175070952Y-146784142D01*
X174994761Y-146712714D01*
X174918571Y-146569857D01*
X174918571Y-146141285D01*
X174994761Y-145998428D01*
X175070952Y-145927000D01*
X175223333Y-145855571D01*
X175451904Y-145855571D01*
X175604285Y-145927000D01*
X175680476Y-145998428D01*
X175756666Y-146141285D01*
X175756666Y-146569857D01*
X175680476Y-146712714D01*
X175604285Y-146784142D01*
X175451904Y-146855571D01*
X175223333Y-146855571D01*
X177128095Y-146855571D02*
X177128095Y-146069857D01*
X177051904Y-145927000D01*
X176899523Y-145855571D01*
X176594761Y-145855571D01*
X176442380Y-145927000D01*
X177128095Y-146784142D02*
X176975714Y-146855571D01*
X176594761Y-146855571D01*
X176442380Y-146784142D01*
X176366190Y-146641285D01*
X176366190Y-146498428D01*
X176442380Y-146355571D01*
X176594761Y-146284142D01*
X176975714Y-146284142D01*
X177128095Y-146212714D01*
X177890000Y-146855571D02*
X177890000Y-145855571D01*
X177890000Y-146141285D02*
X177966190Y-145998428D01*
X178042380Y-145927000D01*
X178194761Y-145855571D01*
X178347142Y-145855571D01*
X179566190Y-146855571D02*
X179566190Y-145355571D01*
X179566190Y-146784142D02*
X179413809Y-146855571D01*
X179109047Y-146855571D01*
X178956666Y-146784142D01*
X178880476Y-146712714D01*
X178804285Y-146569857D01*
X178804285Y-146141285D01*
X178880476Y-145998428D01*
X178956666Y-145927000D01*
X179109047Y-145855571D01*
X179413809Y-145855571D01*
X179566190Y-145927000D01*
D11*
X161720785Y-77303380D02*
X161244595Y-77303380D01*
X161196976Y-77779571D01*
X161244595Y-77731952D01*
X161339833Y-77684333D01*
X161577928Y-77684333D01*
X161673166Y-77731952D01*
X161720785Y-77779571D01*
X161768404Y-77874809D01*
X161768404Y-78112904D01*
X161720785Y-78208142D01*
X161673166Y-78255761D01*
X161577928Y-78303380D01*
X161339833Y-78303380D01*
X161244595Y-78255761D01*
X161196976Y-78208142D01*
X162054119Y-77303380D02*
X162387452Y-78303380D01*
X162720785Y-77303380D01*
X181583809Y-67972380D02*
X182202857Y-67972380D01*
X181869523Y-68353333D01*
X182012380Y-68353333D01*
X182107619Y-68400952D01*
X182155238Y-68448571D01*
X182202857Y-68543809D01*
X182202857Y-68781904D01*
X182155238Y-68877142D01*
X182107619Y-68924761D01*
X182012380Y-68972380D01*
X181726666Y-68972380D01*
X181631428Y-68924761D01*
X181583809Y-68877142D01*
X182631428Y-68877142D02*
X182679047Y-68924761D01*
X182631428Y-68972380D01*
X182583809Y-68924761D01*
X182631428Y-68877142D01*
X182631428Y-68972380D01*
X183012380Y-67972380D02*
X183631428Y-67972380D01*
X183298095Y-68353333D01*
X183440952Y-68353333D01*
X183536190Y-68400952D01*
X183583809Y-68448571D01*
X183631428Y-68543809D01*
X183631428Y-68781904D01*
X183583809Y-68877142D01*
X183536190Y-68924761D01*
X183440952Y-68972380D01*
X183155238Y-68972380D01*
X183060000Y-68924761D01*
X183012380Y-68877142D01*
X183917142Y-67972380D02*
X184250476Y-68972380D01*
X184583809Y-67972380D01*
X179726666Y-70582380D02*
X179726666Y-69582380D01*
X180107619Y-69582380D01*
X180202857Y-69630000D01*
X180250476Y-69677619D01*
X180298095Y-69772857D01*
X180298095Y-69915714D01*
X180250476Y-70010952D01*
X180202857Y-70058571D01*
X180107619Y-70106190D01*
X179726666Y-70106190D01*
X180726666Y-70582380D02*
X180726666Y-69915714D01*
X180726666Y-70106190D02*
X180774285Y-70010952D01*
X180821904Y-69963333D01*
X180917142Y-69915714D01*
X181012380Y-69915714D01*
X181488571Y-70582380D02*
X181393333Y-70534761D01*
X181345714Y-70487142D01*
X181298095Y-70391904D01*
X181298095Y-70106190D01*
X181345714Y-70010952D01*
X181393333Y-69963333D01*
X181488571Y-69915714D01*
X181631428Y-69915714D01*
X181726666Y-69963333D01*
X181774285Y-70010952D01*
X181821904Y-70106190D01*
X181821904Y-70391904D01*
X181774285Y-70487142D01*
X181726666Y-70534761D01*
X181631428Y-70582380D01*
X181488571Y-70582380D01*
X182107619Y-69915714D02*
X182488571Y-69915714D01*
X182250476Y-69582380D02*
X182250476Y-70439523D01*
X182298095Y-70534761D01*
X182393333Y-70582380D01*
X182488571Y-70582380D01*
X183202857Y-70534761D02*
X183107619Y-70582380D01*
X182917142Y-70582380D01*
X182821904Y-70534761D01*
X182774285Y-70439523D01*
X182774285Y-70058571D01*
X182821904Y-69963333D01*
X182917142Y-69915714D01*
X183107619Y-69915714D01*
X183202857Y-69963333D01*
X183250476Y-70058571D01*
X183250476Y-70153809D01*
X182774285Y-70249047D01*
X184107619Y-70534761D02*
X184012380Y-70582380D01*
X183821904Y-70582380D01*
X183726666Y-70534761D01*
X183679047Y-70487142D01*
X183631428Y-70391904D01*
X183631428Y-70106190D01*
X183679047Y-70010952D01*
X183726666Y-69963333D01*
X183821904Y-69915714D01*
X184012380Y-69915714D01*
X184107619Y-69963333D01*
X184393333Y-69915714D02*
X184774285Y-69915714D01*
X184536190Y-69582380D02*
X184536190Y-70439523D01*
X184583809Y-70534761D01*
X184679047Y-70582380D01*
X184774285Y-70582380D01*
X185488571Y-70534761D02*
X185393333Y-70582380D01*
X185202857Y-70582380D01*
X185107619Y-70534761D01*
X185060000Y-70439523D01*
X185060000Y-70058571D01*
X185107619Y-69963333D01*
X185202857Y-69915714D01*
X185393333Y-69915714D01*
X185488571Y-69963333D01*
X185536190Y-70058571D01*
X185536190Y-70153809D01*
X185060000Y-70249047D01*
X186393333Y-70582380D02*
X186393333Y-69582380D01*
X186393333Y-70534761D02*
X186298095Y-70582380D01*
X186107619Y-70582380D01*
X186012380Y-70534761D01*
X185964761Y-70487142D01*
X185917142Y-70391904D01*
X185917142Y-70106190D01*
X185964761Y-70010952D01*
X186012380Y-69963333D01*
X186107619Y-69915714D01*
X186298095Y-69915714D01*
X186393333Y-69963333D01*
%TO.C,PA1*%
X154127712Y-126923751D02*
X154127712Y-125923751D01*
X154508664Y-125923751D01*
X154603902Y-125971371D01*
X154651521Y-126018990D01*
X154699140Y-126114228D01*
X154699140Y-126257085D01*
X154651521Y-126352323D01*
X154603902Y-126399942D01*
X154508664Y-126447561D01*
X154127712Y-126447561D01*
X155080093Y-126638037D02*
X155556283Y-126638037D01*
X154984855Y-126923751D02*
X155318188Y-125923751D01*
X155651521Y-126923751D01*
X156508664Y-126923751D02*
X155937236Y-126923751D01*
X156222950Y-126923751D02*
X156222950Y-125923751D01*
X156127712Y-126066609D01*
X156032474Y-126161847D01*
X155937236Y-126209466D01*
D10*
%TO.C,C17*%
X119232142Y-143164857D02*
X119268428Y-143201142D01*
X119304714Y-143310000D01*
X119304714Y-143382571D01*
X119268428Y-143491428D01*
X119195857Y-143564000D01*
X119123285Y-143600285D01*
X118978142Y-143636571D01*
X118869285Y-143636571D01*
X118724142Y-143600285D01*
X118651571Y-143564000D01*
X118579000Y-143491428D01*
X118542714Y-143382571D01*
X118542714Y-143310000D01*
X118579000Y-143201142D01*
X118615285Y-143164857D01*
X119304714Y-142439142D02*
X119304714Y-142874571D01*
X119304714Y-142656857D02*
X118542714Y-142656857D01*
X118651571Y-142729428D01*
X118724142Y-142802000D01*
X118760428Y-142874571D01*
X118542714Y-142185142D02*
X118542714Y-141677142D01*
X119304714Y-142003714D01*
D11*
%TO.C,C16*%
X116367142Y-142867857D02*
X116414761Y-142915476D01*
X116462380Y-143058333D01*
X116462380Y-143153571D01*
X116414761Y-143296428D01*
X116319523Y-143391666D01*
X116224285Y-143439285D01*
X116033809Y-143486904D01*
X115890952Y-143486904D01*
X115700476Y-143439285D01*
X115605238Y-143391666D01*
X115510000Y-143296428D01*
X115462380Y-143153571D01*
X115462380Y-143058333D01*
X115510000Y-142915476D01*
X115557619Y-142867857D01*
X116462380Y-141915476D02*
X116462380Y-142486904D01*
X116462380Y-142201190D02*
X115462380Y-142201190D01*
X115605238Y-142296428D01*
X115700476Y-142391666D01*
X115748095Y-142486904D01*
X115462380Y-141058333D02*
X115462380Y-141248809D01*
X115510000Y-141344047D01*
X115557619Y-141391666D01*
X115700476Y-141486904D01*
X115890952Y-141534523D01*
X116271904Y-141534523D01*
X116367142Y-141486904D01*
X116414761Y-141439285D01*
X116462380Y-141344047D01*
X116462380Y-141153571D01*
X116414761Y-141058333D01*
X116367142Y-141010714D01*
X116271904Y-140963095D01*
X116033809Y-140963095D01*
X115938571Y-141010714D01*
X115890952Y-141058333D01*
X115843333Y-141153571D01*
X115843333Y-141344047D01*
X115890952Y-141439285D01*
X115938571Y-141486904D01*
X116033809Y-141534523D01*
%TO.C,C68*%
X113967142Y-137567857D02*
X114014761Y-137615476D01*
X114062380Y-137758333D01*
X114062380Y-137853571D01*
X114014761Y-137996428D01*
X113919523Y-138091666D01*
X113824285Y-138139285D01*
X113633809Y-138186904D01*
X113490952Y-138186904D01*
X113300476Y-138139285D01*
X113205238Y-138091666D01*
X113110000Y-137996428D01*
X113062380Y-137853571D01*
X113062380Y-137758333D01*
X113110000Y-137615476D01*
X113157619Y-137567857D01*
X113062380Y-136710714D02*
X113062380Y-136901190D01*
X113110000Y-136996428D01*
X113157619Y-137044047D01*
X113300476Y-137139285D01*
X113490952Y-137186904D01*
X113871904Y-137186904D01*
X113967142Y-137139285D01*
X114014761Y-137091666D01*
X114062380Y-136996428D01*
X114062380Y-136805952D01*
X114014761Y-136710714D01*
X113967142Y-136663095D01*
X113871904Y-136615476D01*
X113633809Y-136615476D01*
X113538571Y-136663095D01*
X113490952Y-136710714D01*
X113443333Y-136805952D01*
X113443333Y-136996428D01*
X113490952Y-137091666D01*
X113538571Y-137139285D01*
X113633809Y-137186904D01*
X113490952Y-136044047D02*
X113443333Y-136139285D01*
X113395714Y-136186904D01*
X113300476Y-136234523D01*
X113252857Y-136234523D01*
X113157619Y-136186904D01*
X113110000Y-136139285D01*
X113062380Y-136044047D01*
X113062380Y-135853571D01*
X113110000Y-135758333D01*
X113157619Y-135710714D01*
X113252857Y-135663095D01*
X113300476Y-135663095D01*
X113395714Y-135710714D01*
X113443333Y-135758333D01*
X113490952Y-135853571D01*
X113490952Y-136044047D01*
X113538571Y-136139285D01*
X113586190Y-136186904D01*
X113681428Y-136234523D01*
X113871904Y-136234523D01*
X113967142Y-136186904D01*
X114014761Y-136139285D01*
X114062380Y-136044047D01*
X114062380Y-135853571D01*
X114014761Y-135758333D01*
X113967142Y-135710714D01*
X113871904Y-135663095D01*
X113681428Y-135663095D01*
X113586190Y-135710714D01*
X113538571Y-135758333D01*
X113490952Y-135853571D01*
%TO.C,J1*%
X112562380Y-105617933D02*
X113276666Y-105617933D01*
X113419523Y-105665552D01*
X113514761Y-105760790D01*
X113562380Y-105903647D01*
X113562380Y-105998885D01*
X113562380Y-104617933D02*
X113562380Y-105189361D01*
X113562380Y-104903647D02*
X112562380Y-104903647D01*
X112705238Y-104998885D01*
X112800476Y-105094123D01*
X112848095Y-105189361D01*
%TO.C,TP8*%
X113800095Y-98385380D02*
X114371523Y-98385380D01*
X114085809Y-99385380D02*
X114085809Y-98385380D01*
X114704857Y-99385380D02*
X114704857Y-98385380D01*
X115085809Y-98385380D01*
X115181047Y-98433000D01*
X115228666Y-98480619D01*
X115276285Y-98575857D01*
X115276285Y-98718714D01*
X115228666Y-98813952D01*
X115181047Y-98861571D01*
X115085809Y-98909190D01*
X114704857Y-98909190D01*
X115847714Y-98813952D02*
X115752476Y-98766333D01*
X115704857Y-98718714D01*
X115657238Y-98623476D01*
X115657238Y-98575857D01*
X115704857Y-98480619D01*
X115752476Y-98433000D01*
X115847714Y-98385380D01*
X116038190Y-98385380D01*
X116133428Y-98433000D01*
X116181047Y-98480619D01*
X116228666Y-98575857D01*
X116228666Y-98623476D01*
X116181047Y-98718714D01*
X116133428Y-98766333D01*
X116038190Y-98813952D01*
X115847714Y-98813952D01*
X115752476Y-98861571D01*
X115704857Y-98909190D01*
X115657238Y-99004428D01*
X115657238Y-99194904D01*
X115704857Y-99290142D01*
X115752476Y-99337761D01*
X115847714Y-99385380D01*
X116038190Y-99385380D01*
X116133428Y-99337761D01*
X116181047Y-99290142D01*
X116228666Y-99194904D01*
X116228666Y-99004428D01*
X116181047Y-98909190D01*
X116133428Y-98861571D01*
X116038190Y-98813952D01*
%TO.C,R43*%
X158407380Y-117609857D02*
X157931190Y-117943190D01*
X158407380Y-118181285D02*
X157407380Y-118181285D01*
X157407380Y-117800333D01*
X157455000Y-117705095D01*
X157502619Y-117657476D01*
X157597857Y-117609857D01*
X157740714Y-117609857D01*
X157835952Y-117657476D01*
X157883571Y-117705095D01*
X157931190Y-117800333D01*
X157931190Y-118181285D01*
X157740714Y-116752714D02*
X158407380Y-116752714D01*
X157359761Y-116990809D02*
X158074047Y-117228904D01*
X158074047Y-116609857D01*
X157407380Y-116324142D02*
X157407380Y-115705095D01*
X157788333Y-116038428D01*
X157788333Y-115895571D01*
X157835952Y-115800333D01*
X157883571Y-115752714D01*
X157978809Y-115705095D01*
X158216904Y-115705095D01*
X158312142Y-115752714D01*
X158359761Y-115800333D01*
X158407380Y-115895571D01*
X158407380Y-116181285D01*
X158359761Y-116276523D01*
X158312142Y-116324142D01*
%TO.C,R42*%
X176761380Y-97289857D02*
X176285190Y-97623190D01*
X176761380Y-97861285D02*
X175761380Y-97861285D01*
X175761380Y-97480333D01*
X175809000Y-97385095D01*
X175856619Y-97337476D01*
X175951857Y-97289857D01*
X176094714Y-97289857D01*
X176189952Y-97337476D01*
X176237571Y-97385095D01*
X176285190Y-97480333D01*
X176285190Y-97861285D01*
X176094714Y-96432714D02*
X176761380Y-96432714D01*
X175713761Y-96670809D02*
X176428047Y-96908904D01*
X176428047Y-96289857D01*
X175856619Y-95956523D02*
X175809000Y-95908904D01*
X175761380Y-95813666D01*
X175761380Y-95575571D01*
X175809000Y-95480333D01*
X175856619Y-95432714D01*
X175951857Y-95385095D01*
X176047095Y-95385095D01*
X176189952Y-95432714D01*
X176761380Y-96004142D01*
X176761380Y-95385095D01*
%TO.C,R41*%
X186474380Y-72778857D02*
X185998190Y-73112190D01*
X186474380Y-73350285D02*
X185474380Y-73350285D01*
X185474380Y-72969333D01*
X185522000Y-72874095D01*
X185569619Y-72826476D01*
X185664857Y-72778857D01*
X185807714Y-72778857D01*
X185902952Y-72826476D01*
X185950571Y-72874095D01*
X185998190Y-72969333D01*
X185998190Y-73350285D01*
X185807714Y-71921714D02*
X186474380Y-71921714D01*
X185426761Y-72159809D02*
X186141047Y-72397904D01*
X186141047Y-71778857D01*
X186474380Y-70874095D02*
X186474380Y-71445523D01*
X186474380Y-71159809D02*
X185474380Y-71159809D01*
X185617238Y-71255047D01*
X185712476Y-71350285D01*
X185760095Y-71445523D01*
%TO.C,C35*%
X130913142Y-123451857D02*
X130960761Y-123499476D01*
X131008380Y-123642333D01*
X131008380Y-123737571D01*
X130960761Y-123880428D01*
X130865523Y-123975666D01*
X130770285Y-124023285D01*
X130579809Y-124070904D01*
X130436952Y-124070904D01*
X130246476Y-124023285D01*
X130151238Y-123975666D01*
X130056000Y-123880428D01*
X130008380Y-123737571D01*
X130008380Y-123642333D01*
X130056000Y-123499476D01*
X130103619Y-123451857D01*
X130008380Y-123118523D02*
X130008380Y-122499476D01*
X130389333Y-122832809D01*
X130389333Y-122689952D01*
X130436952Y-122594714D01*
X130484571Y-122547095D01*
X130579809Y-122499476D01*
X130817904Y-122499476D01*
X130913142Y-122547095D01*
X130960761Y-122594714D01*
X131008380Y-122689952D01*
X131008380Y-122975666D01*
X130960761Y-123070904D01*
X130913142Y-123118523D01*
X130008380Y-121594714D02*
X130008380Y-122070904D01*
X130484571Y-122118523D01*
X130436952Y-122070904D01*
X130389333Y-121975666D01*
X130389333Y-121737571D01*
X130436952Y-121642333D01*
X130484571Y-121594714D01*
X130579809Y-121547095D01*
X130817904Y-121547095D01*
X130913142Y-121594714D01*
X130960761Y-121642333D01*
X131008380Y-121737571D01*
X131008380Y-121975666D01*
X130960761Y-122070904D01*
X130913142Y-122118523D01*
%TO.C,R26*%
X171267380Y-98686857D02*
X170791190Y-99020190D01*
X171267380Y-99258285D02*
X170267380Y-99258285D01*
X170267380Y-98877333D01*
X170315000Y-98782095D01*
X170362619Y-98734476D01*
X170457857Y-98686857D01*
X170600714Y-98686857D01*
X170695952Y-98734476D01*
X170743571Y-98782095D01*
X170791190Y-98877333D01*
X170791190Y-99258285D01*
X170362619Y-98305904D02*
X170315000Y-98258285D01*
X170267380Y-98163047D01*
X170267380Y-97924952D01*
X170315000Y-97829714D01*
X170362619Y-97782095D01*
X170457857Y-97734476D01*
X170553095Y-97734476D01*
X170695952Y-97782095D01*
X171267380Y-98353523D01*
X171267380Y-97734476D01*
X170267380Y-96877333D02*
X170267380Y-97067809D01*
X170315000Y-97163047D01*
X170362619Y-97210666D01*
X170505476Y-97305904D01*
X170695952Y-97353523D01*
X171076904Y-97353523D01*
X171172142Y-97305904D01*
X171219761Y-97258285D01*
X171267380Y-97163047D01*
X171267380Y-96972571D01*
X171219761Y-96877333D01*
X171172142Y-96829714D01*
X171076904Y-96782095D01*
X170838809Y-96782095D01*
X170743571Y-96829714D01*
X170695952Y-96877333D01*
X170648333Y-96972571D01*
X170648333Y-97163047D01*
X170695952Y-97258285D01*
X170743571Y-97305904D01*
X170838809Y-97353523D01*
%TO.C,L13*%
X146731428Y-128882142D02*
X146302857Y-128882142D01*
X146302857Y-127982142D01*
X147502857Y-128882142D02*
X146988571Y-128882142D01*
X147245714Y-128882142D02*
X147245714Y-127982142D01*
X147160000Y-128110714D01*
X147074285Y-128196428D01*
X146988571Y-128239285D01*
X147802857Y-127982142D02*
X148360000Y-127982142D01*
X148060000Y-128325000D01*
X148188571Y-128325000D01*
X148274285Y-128367857D01*
X148317142Y-128410714D01*
X148360000Y-128496428D01*
X148360000Y-128710714D01*
X148317142Y-128796428D01*
X148274285Y-128839285D01*
X148188571Y-128882142D01*
X147931428Y-128882142D01*
X147845714Y-128839285D01*
X147802857Y-128796428D01*
%TO.C,D1*%
X111656904Y-117546380D02*
X111656904Y-116546380D01*
X111895000Y-116546380D01*
X112037857Y-116594000D01*
X112133095Y-116689238D01*
X112180714Y-116784476D01*
X112228333Y-116974952D01*
X112228333Y-117117809D01*
X112180714Y-117308285D01*
X112133095Y-117403523D01*
X112037857Y-117498761D01*
X111895000Y-117546380D01*
X111656904Y-117546380D01*
X113180714Y-117546380D02*
X112609285Y-117546380D01*
X112895000Y-117546380D02*
X112895000Y-116546380D01*
X112799761Y-116689238D01*
X112704523Y-116784476D01*
X112609285Y-116832095D01*
%TO.C,C9*%
X140565142Y-89320666D02*
X140612761Y-89368285D01*
X140660380Y-89511142D01*
X140660380Y-89606380D01*
X140612761Y-89749238D01*
X140517523Y-89844476D01*
X140422285Y-89892095D01*
X140231809Y-89939714D01*
X140088952Y-89939714D01*
X139898476Y-89892095D01*
X139803238Y-89844476D01*
X139708000Y-89749238D01*
X139660380Y-89606380D01*
X139660380Y-89511142D01*
X139708000Y-89368285D01*
X139755619Y-89320666D01*
X140660380Y-88844476D02*
X140660380Y-88654000D01*
X140612761Y-88558761D01*
X140565142Y-88511142D01*
X140422285Y-88415904D01*
X140231809Y-88368285D01*
X139850857Y-88368285D01*
X139755619Y-88415904D01*
X139708000Y-88463523D01*
X139660380Y-88558761D01*
X139660380Y-88749238D01*
X139708000Y-88844476D01*
X139755619Y-88892095D01*
X139850857Y-88939714D01*
X140088952Y-88939714D01*
X140184190Y-88892095D01*
X140231809Y-88844476D01*
X140279428Y-88749238D01*
X140279428Y-88558761D01*
X140231809Y-88463523D01*
X140184190Y-88415904D01*
X140088952Y-88368285D01*
%TO.C,H10*%
X182403904Y-134204380D02*
X182403904Y-133204380D01*
X182403904Y-133680571D02*
X182975333Y-133680571D01*
X182975333Y-134204380D02*
X182975333Y-133204380D01*
X183975333Y-134204380D02*
X183403904Y-134204380D01*
X183689619Y-134204380D02*
X183689619Y-133204380D01*
X183594380Y-133347238D01*
X183499142Y-133442476D01*
X183403904Y-133490095D01*
X184594380Y-133204380D02*
X184689619Y-133204380D01*
X184784857Y-133252000D01*
X184832476Y-133299619D01*
X184880095Y-133394857D01*
X184927714Y-133585333D01*
X184927714Y-133823428D01*
X184880095Y-134013904D01*
X184832476Y-134109142D01*
X184784857Y-134156761D01*
X184689619Y-134204380D01*
X184594380Y-134204380D01*
X184499142Y-134156761D01*
X184451523Y-134109142D01*
X184403904Y-134013904D01*
X184356285Y-133823428D01*
X184356285Y-133585333D01*
X184403904Y-133394857D01*
X184451523Y-133299619D01*
X184499142Y-133252000D01*
X184594380Y-133204380D01*
%TO.C,R10*%
X116959142Y-114338380D02*
X116625809Y-113862190D01*
X116387714Y-114338380D02*
X116387714Y-113338380D01*
X116768666Y-113338380D01*
X116863904Y-113386000D01*
X116911523Y-113433619D01*
X116959142Y-113528857D01*
X116959142Y-113671714D01*
X116911523Y-113766952D01*
X116863904Y-113814571D01*
X116768666Y-113862190D01*
X116387714Y-113862190D01*
X117911523Y-114338380D02*
X117340095Y-114338380D01*
X117625809Y-114338380D02*
X117625809Y-113338380D01*
X117530571Y-113481238D01*
X117435333Y-113576476D01*
X117340095Y-113624095D01*
X118530571Y-113338380D02*
X118625809Y-113338380D01*
X118721047Y-113386000D01*
X118768666Y-113433619D01*
X118816285Y-113528857D01*
X118863904Y-113719333D01*
X118863904Y-113957428D01*
X118816285Y-114147904D01*
X118768666Y-114243142D01*
X118721047Y-114290761D01*
X118625809Y-114338380D01*
X118530571Y-114338380D01*
X118435333Y-114290761D01*
X118387714Y-114243142D01*
X118340095Y-114147904D01*
X118292476Y-113957428D01*
X118292476Y-113719333D01*
X118340095Y-113528857D01*
X118387714Y-113433619D01*
X118435333Y-113386000D01*
X118530571Y-113338380D01*
%TO.C,R7*%
X139198009Y-113958666D02*
X138721819Y-114292000D01*
X139198009Y-114530095D02*
X138198009Y-114530095D01*
X138198009Y-114149142D01*
X138245629Y-114053904D01*
X138293248Y-114006285D01*
X138388486Y-113958666D01*
X138531343Y-113958666D01*
X138626581Y-114006285D01*
X138674200Y-114053904D01*
X138721819Y-114149142D01*
X138721819Y-114530095D01*
X138198009Y-113625333D02*
X138198009Y-112958666D01*
X139198009Y-113387238D01*
%TO.C,C67*%
X136817142Y-122582142D02*
X136769523Y-122629761D01*
X136626666Y-122677380D01*
X136531428Y-122677380D01*
X136388571Y-122629761D01*
X136293333Y-122534523D01*
X136245714Y-122439285D01*
X136198095Y-122248809D01*
X136198095Y-122105952D01*
X136245714Y-121915476D01*
X136293333Y-121820238D01*
X136388571Y-121725000D01*
X136531428Y-121677380D01*
X136626666Y-121677380D01*
X136769523Y-121725000D01*
X136817142Y-121772619D01*
X137674285Y-121677380D02*
X137483809Y-121677380D01*
X137388571Y-121725000D01*
X137340952Y-121772619D01*
X137245714Y-121915476D01*
X137198095Y-122105952D01*
X137198095Y-122486904D01*
X137245714Y-122582142D01*
X137293333Y-122629761D01*
X137388571Y-122677380D01*
X137579047Y-122677380D01*
X137674285Y-122629761D01*
X137721904Y-122582142D01*
X137769523Y-122486904D01*
X137769523Y-122248809D01*
X137721904Y-122153571D01*
X137674285Y-122105952D01*
X137579047Y-122058333D01*
X137388571Y-122058333D01*
X137293333Y-122105952D01*
X137245714Y-122153571D01*
X137198095Y-122248809D01*
X138102857Y-121677380D02*
X138769523Y-121677380D01*
X138340952Y-122677380D01*
%TO.C,H3*%
X113284095Y-147391380D02*
X113284095Y-146391380D01*
X113284095Y-146867571D02*
X113855523Y-146867571D01*
X113855523Y-147391380D02*
X113855523Y-146391380D01*
X114236476Y-146391380D02*
X114855523Y-146391380D01*
X114522190Y-146772333D01*
X114665047Y-146772333D01*
X114760285Y-146819952D01*
X114807904Y-146867571D01*
X114855523Y-146962809D01*
X114855523Y-147200904D01*
X114807904Y-147296142D01*
X114760285Y-147343761D01*
X114665047Y-147391380D01*
X114379333Y-147391380D01*
X114284095Y-147343761D01*
X114236476Y-147296142D01*
D10*
%TO.C,C26*%
X125621142Y-133876142D02*
X125584857Y-133912428D01*
X125476000Y-133948714D01*
X125403428Y-133948714D01*
X125294571Y-133912428D01*
X125222000Y-133839857D01*
X125185714Y-133767285D01*
X125149428Y-133622142D01*
X125149428Y-133513285D01*
X125185714Y-133368142D01*
X125222000Y-133295571D01*
X125294571Y-133223000D01*
X125403428Y-133186714D01*
X125476000Y-133186714D01*
X125584857Y-133223000D01*
X125621142Y-133259285D01*
X125911428Y-133259285D02*
X125947714Y-133223000D01*
X126020285Y-133186714D01*
X126201714Y-133186714D01*
X126274285Y-133223000D01*
X126310571Y-133259285D01*
X126346857Y-133331857D01*
X126346857Y-133404428D01*
X126310571Y-133513285D01*
X125875142Y-133948714D01*
X126346857Y-133948714D01*
X127000000Y-133186714D02*
X126854857Y-133186714D01*
X126782285Y-133223000D01*
X126746000Y-133259285D01*
X126673428Y-133368142D01*
X126637142Y-133513285D01*
X126637142Y-133803571D01*
X126673428Y-133876142D01*
X126709714Y-133912428D01*
X126782285Y-133948714D01*
X126927428Y-133948714D01*
X127000000Y-133912428D01*
X127036285Y-133876142D01*
X127072571Y-133803571D01*
X127072571Y-133622142D01*
X127036285Y-133549571D01*
X127000000Y-133513285D01*
X126927428Y-133477000D01*
X126782285Y-133477000D01*
X126709714Y-133513285D01*
X126673428Y-133549571D01*
X126637142Y-133622142D01*
D11*
%TO.C,L14*%
X150487142Y-123134380D02*
X150010952Y-123134380D01*
X150010952Y-122134380D01*
X151344285Y-123134380D02*
X150772857Y-123134380D01*
X151058571Y-123134380D02*
X151058571Y-122134380D01*
X150963333Y-122277238D01*
X150868095Y-122372476D01*
X150772857Y-122420095D01*
X152201428Y-122467714D02*
X152201428Y-123134380D01*
X151963333Y-122086761D02*
X151725238Y-122801047D01*
X152344285Y-122801047D01*
%TO.C,C43*%
X174139142Y-83026542D02*
X174091523Y-83074161D01*
X173948666Y-83121780D01*
X173853428Y-83121780D01*
X173710571Y-83074161D01*
X173615333Y-82978923D01*
X173567714Y-82883685D01*
X173520095Y-82693209D01*
X173520095Y-82550352D01*
X173567714Y-82359876D01*
X173615333Y-82264638D01*
X173710571Y-82169400D01*
X173853428Y-82121780D01*
X173948666Y-82121780D01*
X174091523Y-82169400D01*
X174139142Y-82217019D01*
X174996285Y-82455114D02*
X174996285Y-83121780D01*
X174758190Y-82074161D02*
X174520095Y-82788447D01*
X175139142Y-82788447D01*
X175424857Y-82121780D02*
X176043904Y-82121780D01*
X175710571Y-82502733D01*
X175853428Y-82502733D01*
X175948666Y-82550352D01*
X175996285Y-82597971D01*
X176043904Y-82693209D01*
X176043904Y-82931304D01*
X175996285Y-83026542D01*
X175948666Y-83074161D01*
X175853428Y-83121780D01*
X175567714Y-83121780D01*
X175472476Y-83074161D01*
X175424857Y-83026542D01*
%TO.C,TP11*%
X128563904Y-111720380D02*
X129135333Y-111720380D01*
X128849619Y-112720380D02*
X128849619Y-111720380D01*
X129468666Y-112720380D02*
X129468666Y-111720380D01*
X129849619Y-111720380D01*
X129944857Y-111768000D01*
X129992476Y-111815619D01*
X130040095Y-111910857D01*
X130040095Y-112053714D01*
X129992476Y-112148952D01*
X129944857Y-112196571D01*
X129849619Y-112244190D01*
X129468666Y-112244190D01*
X130992476Y-112720380D02*
X130421047Y-112720380D01*
X130706761Y-112720380D02*
X130706761Y-111720380D01*
X130611523Y-111863238D01*
X130516285Y-111958476D01*
X130421047Y-112006095D01*
X131944857Y-112720380D02*
X131373428Y-112720380D01*
X131659142Y-112720380D02*
X131659142Y-111720380D01*
X131563904Y-111863238D01*
X131468666Y-111958476D01*
X131373428Y-112006095D01*
%TO.C,C53*%
X166981142Y-128023857D02*
X167028761Y-128071476D01*
X167076380Y-128214333D01*
X167076380Y-128309571D01*
X167028761Y-128452428D01*
X166933523Y-128547666D01*
X166838285Y-128595285D01*
X166647809Y-128642904D01*
X166504952Y-128642904D01*
X166314476Y-128595285D01*
X166219238Y-128547666D01*
X166124000Y-128452428D01*
X166076380Y-128309571D01*
X166076380Y-128214333D01*
X166124000Y-128071476D01*
X166171619Y-128023857D01*
X166076380Y-127119095D02*
X166076380Y-127595285D01*
X166552571Y-127642904D01*
X166504952Y-127595285D01*
X166457333Y-127500047D01*
X166457333Y-127261952D01*
X166504952Y-127166714D01*
X166552571Y-127119095D01*
X166647809Y-127071476D01*
X166885904Y-127071476D01*
X166981142Y-127119095D01*
X167028761Y-127166714D01*
X167076380Y-127261952D01*
X167076380Y-127500047D01*
X167028761Y-127595285D01*
X166981142Y-127642904D01*
X166076380Y-126738142D02*
X166076380Y-126119095D01*
X166457333Y-126452428D01*
X166457333Y-126309571D01*
X166504952Y-126214333D01*
X166552571Y-126166714D01*
X166647809Y-126119095D01*
X166885904Y-126119095D01*
X166981142Y-126166714D01*
X167028761Y-126214333D01*
X167076380Y-126309571D01*
X167076380Y-126595285D01*
X167028761Y-126690523D01*
X166981142Y-126738142D01*
D10*
%TO.C,C33*%
X129939142Y-127780142D02*
X129902857Y-127816428D01*
X129794000Y-127852714D01*
X129721428Y-127852714D01*
X129612571Y-127816428D01*
X129540000Y-127743857D01*
X129503714Y-127671285D01*
X129467428Y-127526142D01*
X129467428Y-127417285D01*
X129503714Y-127272142D01*
X129540000Y-127199571D01*
X129612571Y-127127000D01*
X129721428Y-127090714D01*
X129794000Y-127090714D01*
X129902857Y-127127000D01*
X129939142Y-127163285D01*
X130193142Y-127090714D02*
X130664857Y-127090714D01*
X130410857Y-127381000D01*
X130519714Y-127381000D01*
X130592285Y-127417285D01*
X130628571Y-127453571D01*
X130664857Y-127526142D01*
X130664857Y-127707571D01*
X130628571Y-127780142D01*
X130592285Y-127816428D01*
X130519714Y-127852714D01*
X130302000Y-127852714D01*
X130229428Y-127816428D01*
X130193142Y-127780142D01*
X130918857Y-127090714D02*
X131390571Y-127090714D01*
X131136571Y-127381000D01*
X131245428Y-127381000D01*
X131318000Y-127417285D01*
X131354285Y-127453571D01*
X131390571Y-127526142D01*
X131390571Y-127707571D01*
X131354285Y-127780142D01*
X131318000Y-127816428D01*
X131245428Y-127852714D01*
X131027714Y-127852714D01*
X130955142Y-127816428D01*
X130918857Y-127780142D01*
D11*
%TO.C,L16*%
X163060142Y-127198380D02*
X162583952Y-127198380D01*
X162583952Y-126198380D01*
X163917285Y-127198380D02*
X163345857Y-127198380D01*
X163631571Y-127198380D02*
X163631571Y-126198380D01*
X163536333Y-126341238D01*
X163441095Y-126436476D01*
X163345857Y-126484095D01*
X164774428Y-126198380D02*
X164583952Y-126198380D01*
X164488714Y-126246000D01*
X164441095Y-126293619D01*
X164345857Y-126436476D01*
X164298238Y-126626952D01*
X164298238Y-127007904D01*
X164345857Y-127103142D01*
X164393476Y-127150761D01*
X164488714Y-127198380D01*
X164679190Y-127198380D01*
X164774428Y-127150761D01*
X164822047Y-127103142D01*
X164869666Y-127007904D01*
X164869666Y-126769809D01*
X164822047Y-126674571D01*
X164774428Y-126626952D01*
X164679190Y-126579333D01*
X164488714Y-126579333D01*
X164393476Y-126626952D01*
X164345857Y-126674571D01*
X164298238Y-126769809D01*
%TO.C,C57*%
X177903142Y-131452857D02*
X177950761Y-131500476D01*
X177998380Y-131643333D01*
X177998380Y-131738571D01*
X177950761Y-131881428D01*
X177855523Y-131976666D01*
X177760285Y-132024285D01*
X177569809Y-132071904D01*
X177426952Y-132071904D01*
X177236476Y-132024285D01*
X177141238Y-131976666D01*
X177046000Y-131881428D01*
X176998380Y-131738571D01*
X176998380Y-131643333D01*
X177046000Y-131500476D01*
X177093619Y-131452857D01*
X176998380Y-130548095D02*
X176998380Y-131024285D01*
X177474571Y-131071904D01*
X177426952Y-131024285D01*
X177379333Y-130929047D01*
X177379333Y-130690952D01*
X177426952Y-130595714D01*
X177474571Y-130548095D01*
X177569809Y-130500476D01*
X177807904Y-130500476D01*
X177903142Y-130548095D01*
X177950761Y-130595714D01*
X177998380Y-130690952D01*
X177998380Y-130929047D01*
X177950761Y-131024285D01*
X177903142Y-131071904D01*
X176998380Y-130167142D02*
X176998380Y-129500476D01*
X177998380Y-129929047D01*
%TO.C,R17*%
X111704380Y-127896857D02*
X111228190Y-128230190D01*
X111704380Y-128468285D02*
X110704380Y-128468285D01*
X110704380Y-128087333D01*
X110752000Y-127992095D01*
X110799619Y-127944476D01*
X110894857Y-127896857D01*
X111037714Y-127896857D01*
X111132952Y-127944476D01*
X111180571Y-127992095D01*
X111228190Y-128087333D01*
X111228190Y-128468285D01*
X111704380Y-126944476D02*
X111704380Y-127515904D01*
X111704380Y-127230190D02*
X110704380Y-127230190D01*
X110847238Y-127325428D01*
X110942476Y-127420666D01*
X110990095Y-127515904D01*
X110704380Y-126611142D02*
X110704380Y-125944476D01*
X111704380Y-126373047D01*
D10*
%TO.C,U7*%
X173990095Y-122769380D02*
X173990095Y-123578904D01*
X174037714Y-123674142D01*
X174085333Y-123721761D01*
X174180571Y-123769380D01*
X174371047Y-123769380D01*
X174466285Y-123721761D01*
X174513904Y-123674142D01*
X174561523Y-123578904D01*
X174561523Y-122769380D01*
X174942476Y-122769380D02*
X175609142Y-122769380D01*
X175180571Y-123769380D01*
%TO.C,R38*%
X133749142Y-128741714D02*
X133495142Y-128378857D01*
X133313714Y-128741714D02*
X133313714Y-127979714D01*
X133604000Y-127979714D01*
X133676571Y-128016000D01*
X133712857Y-128052285D01*
X133749142Y-128124857D01*
X133749142Y-128233714D01*
X133712857Y-128306285D01*
X133676571Y-128342571D01*
X133604000Y-128378857D01*
X133313714Y-128378857D01*
X134003142Y-127979714D02*
X134474857Y-127979714D01*
X134220857Y-128270000D01*
X134329714Y-128270000D01*
X134402285Y-128306285D01*
X134438571Y-128342571D01*
X134474857Y-128415142D01*
X134474857Y-128596571D01*
X134438571Y-128669142D01*
X134402285Y-128705428D01*
X134329714Y-128741714D01*
X134112000Y-128741714D01*
X134039428Y-128705428D01*
X134003142Y-128669142D01*
X134910285Y-128306285D02*
X134837714Y-128270000D01*
X134801428Y-128233714D01*
X134765142Y-128161142D01*
X134765142Y-128124857D01*
X134801428Y-128052285D01*
X134837714Y-128016000D01*
X134910285Y-127979714D01*
X135055428Y-127979714D01*
X135128000Y-128016000D01*
X135164285Y-128052285D01*
X135200571Y-128124857D01*
X135200571Y-128161142D01*
X135164285Y-128233714D01*
X135128000Y-128270000D01*
X135055428Y-128306285D01*
X134910285Y-128306285D01*
X134837714Y-128342571D01*
X134801428Y-128378857D01*
X134765142Y-128451428D01*
X134765142Y-128596571D01*
X134801428Y-128669142D01*
X134837714Y-128705428D01*
X134910285Y-128741714D01*
X135055428Y-128741714D01*
X135128000Y-128705428D01*
X135164285Y-128669142D01*
X135200571Y-128596571D01*
X135200571Y-128451428D01*
X135164285Y-128378857D01*
X135128000Y-128342571D01*
X135055428Y-128306285D01*
D11*
%TO.C,J3*%
X123232380Y-91773333D02*
X123946666Y-91773333D01*
X124089523Y-91820952D01*
X124184761Y-91916190D01*
X124232380Y-92059047D01*
X124232380Y-92154285D01*
X123232380Y-91392380D02*
X123232380Y-90773333D01*
X123613333Y-91106666D01*
X123613333Y-90963809D01*
X123660952Y-90868571D01*
X123708571Y-90820952D01*
X123803809Y-90773333D01*
X124041904Y-90773333D01*
X124137142Y-90820952D01*
X124184761Y-90868571D01*
X124232380Y-90963809D01*
X124232380Y-91249523D01*
X124184761Y-91344761D01*
X124137142Y-91392380D01*
%TO.C,TP2*%
X106815095Y-116673380D02*
X107386523Y-116673380D01*
X107100809Y-117673380D02*
X107100809Y-116673380D01*
X107719857Y-117673380D02*
X107719857Y-116673380D01*
X108100809Y-116673380D01*
X108196047Y-116721000D01*
X108243666Y-116768619D01*
X108291285Y-116863857D01*
X108291285Y-117006714D01*
X108243666Y-117101952D01*
X108196047Y-117149571D01*
X108100809Y-117197190D01*
X107719857Y-117197190D01*
X108672238Y-116768619D02*
X108719857Y-116721000D01*
X108815095Y-116673380D01*
X109053190Y-116673380D01*
X109148428Y-116721000D01*
X109196047Y-116768619D01*
X109243666Y-116863857D01*
X109243666Y-116959095D01*
X109196047Y-117101952D01*
X108624619Y-117673380D01*
X109243666Y-117673380D01*
%TO.C,C19*%
X109069142Y-136278857D02*
X109116761Y-136326476D01*
X109164380Y-136469333D01*
X109164380Y-136564571D01*
X109116761Y-136707428D01*
X109021523Y-136802666D01*
X108926285Y-136850285D01*
X108735809Y-136897904D01*
X108592952Y-136897904D01*
X108402476Y-136850285D01*
X108307238Y-136802666D01*
X108212000Y-136707428D01*
X108164380Y-136564571D01*
X108164380Y-136469333D01*
X108212000Y-136326476D01*
X108259619Y-136278857D01*
X109164380Y-135326476D02*
X109164380Y-135897904D01*
X109164380Y-135612190D02*
X108164380Y-135612190D01*
X108307238Y-135707428D01*
X108402476Y-135802666D01*
X108450095Y-135897904D01*
X109164380Y-134850285D02*
X109164380Y-134659809D01*
X109116761Y-134564571D01*
X109069142Y-134516952D01*
X108926285Y-134421714D01*
X108735809Y-134374095D01*
X108354857Y-134374095D01*
X108259619Y-134421714D01*
X108212000Y-134469333D01*
X108164380Y-134564571D01*
X108164380Y-134755047D01*
X108212000Y-134850285D01*
X108259619Y-134897904D01*
X108354857Y-134945523D01*
X108592952Y-134945523D01*
X108688190Y-134897904D01*
X108735809Y-134850285D01*
X108783428Y-134755047D01*
X108783428Y-134564571D01*
X108735809Y-134469333D01*
X108688190Y-134421714D01*
X108592952Y-134374095D01*
%TO.C,R13*%
X159758142Y-100561380D02*
X159424809Y-100085190D01*
X159186714Y-100561380D02*
X159186714Y-99561380D01*
X159567666Y-99561380D01*
X159662904Y-99609000D01*
X159710523Y-99656619D01*
X159758142Y-99751857D01*
X159758142Y-99894714D01*
X159710523Y-99989952D01*
X159662904Y-100037571D01*
X159567666Y-100085190D01*
X159186714Y-100085190D01*
X160710523Y-100561380D02*
X160139095Y-100561380D01*
X160424809Y-100561380D02*
X160424809Y-99561380D01*
X160329571Y-99704238D01*
X160234333Y-99799476D01*
X160139095Y-99847095D01*
X161043857Y-99561380D02*
X161662904Y-99561380D01*
X161329571Y-99942333D01*
X161472428Y-99942333D01*
X161567666Y-99989952D01*
X161615285Y-100037571D01*
X161662904Y-100132809D01*
X161662904Y-100370904D01*
X161615285Y-100466142D01*
X161567666Y-100513761D01*
X161472428Y-100561380D01*
X161186714Y-100561380D01*
X161091476Y-100513761D01*
X161043857Y-100466142D01*
D10*
%TO.C,L3*%
X120389450Y-125896345D02*
X120389450Y-126324916D01*
X119489450Y-126324916D01*
X119489450Y-125682059D02*
X119489450Y-125124916D01*
X119832308Y-125424916D01*
X119832308Y-125296345D01*
X119875165Y-125210630D01*
X119918022Y-125167773D01*
X120003736Y-125124916D01*
X120218022Y-125124916D01*
X120303736Y-125167773D01*
X120346593Y-125210630D01*
X120389450Y-125296345D01*
X120389450Y-125553487D01*
X120346593Y-125639202D01*
X120303736Y-125682059D01*
D11*
%TO.C,H6*%
X189738095Y-140402380D02*
X189738095Y-139402380D01*
X189738095Y-139878571D02*
X190309523Y-139878571D01*
X190309523Y-140402380D02*
X190309523Y-139402380D01*
X191214285Y-139402380D02*
X191023809Y-139402380D01*
X190928571Y-139450000D01*
X190880952Y-139497619D01*
X190785714Y-139640476D01*
X190738095Y-139830952D01*
X190738095Y-140211904D01*
X190785714Y-140307142D01*
X190833333Y-140354761D01*
X190928571Y-140402380D01*
X191119047Y-140402380D01*
X191214285Y-140354761D01*
X191261904Y-140307142D01*
X191309523Y-140211904D01*
X191309523Y-139973809D01*
X191261904Y-139878571D01*
X191214285Y-139830952D01*
X191119047Y-139783333D01*
X190928571Y-139783333D01*
X190833333Y-139830952D01*
X190785714Y-139878571D01*
X190738095Y-139973809D01*
%TO.C,U4*%
X181954295Y-71207380D02*
X181954295Y-72016904D01*
X182001914Y-72112142D01*
X182049533Y-72159761D01*
X182144771Y-72207380D01*
X182335247Y-72207380D01*
X182430485Y-72159761D01*
X182478104Y-72112142D01*
X182525723Y-72016904D01*
X182525723Y-71207380D01*
X183430485Y-71540714D02*
X183430485Y-72207380D01*
X183192390Y-71159761D02*
X182954295Y-71874047D01*
X183573342Y-71874047D01*
D10*
%TO.C,L6*%
X126492000Y-128741714D02*
X126129142Y-128741714D01*
X126129142Y-127979714D01*
X127072571Y-127979714D02*
X126927428Y-127979714D01*
X126854857Y-128016000D01*
X126818571Y-128052285D01*
X126746000Y-128161142D01*
X126709714Y-128306285D01*
X126709714Y-128596571D01*
X126746000Y-128669142D01*
X126782285Y-128705428D01*
X126854857Y-128741714D01*
X127000000Y-128741714D01*
X127072571Y-128705428D01*
X127108857Y-128669142D01*
X127145142Y-128596571D01*
X127145142Y-128415142D01*
X127108857Y-128342571D01*
X127072571Y-128306285D01*
X127000000Y-128270000D01*
X126854857Y-128270000D01*
X126782285Y-128306285D01*
X126746000Y-128342571D01*
X126709714Y-128415142D01*
D11*
%TO.C,R14*%
X126230142Y-138120380D02*
X125896809Y-137644190D01*
X125658714Y-138120380D02*
X125658714Y-137120380D01*
X126039666Y-137120380D01*
X126134904Y-137168000D01*
X126182523Y-137215619D01*
X126230142Y-137310857D01*
X126230142Y-137453714D01*
X126182523Y-137548952D01*
X126134904Y-137596571D01*
X126039666Y-137644190D01*
X125658714Y-137644190D01*
X127182523Y-138120380D02*
X126611095Y-138120380D01*
X126896809Y-138120380D02*
X126896809Y-137120380D01*
X126801571Y-137263238D01*
X126706333Y-137358476D01*
X126611095Y-137406095D01*
X128039666Y-137453714D02*
X128039666Y-138120380D01*
X127801571Y-137072761D02*
X127563476Y-137787047D01*
X128182523Y-137787047D01*
%TO.C,TP9*%
X166505095Y-112025380D02*
X167076523Y-112025380D01*
X166790809Y-113025380D02*
X166790809Y-112025380D01*
X167409857Y-113025380D02*
X167409857Y-112025380D01*
X167790809Y-112025380D01*
X167886047Y-112073000D01*
X167933666Y-112120619D01*
X167981285Y-112215857D01*
X167981285Y-112358714D01*
X167933666Y-112453952D01*
X167886047Y-112501571D01*
X167790809Y-112549190D01*
X167409857Y-112549190D01*
X168457476Y-113025380D02*
X168647952Y-113025380D01*
X168743190Y-112977761D01*
X168790809Y-112930142D01*
X168886047Y-112787285D01*
X168933666Y-112596809D01*
X168933666Y-112215857D01*
X168886047Y-112120619D01*
X168838428Y-112073000D01*
X168743190Y-112025380D01*
X168552714Y-112025380D01*
X168457476Y-112073000D01*
X168409857Y-112120619D01*
X168362238Y-112215857D01*
X168362238Y-112453952D01*
X168409857Y-112549190D01*
X168457476Y-112596809D01*
X168552714Y-112644428D01*
X168743190Y-112644428D01*
X168838428Y-112596809D01*
X168886047Y-112549190D01*
X168933666Y-112453952D01*
%TO.C,R16*%
X118012380Y-143467857D02*
X117536190Y-143801190D01*
X118012380Y-144039285D02*
X117012380Y-144039285D01*
X117012380Y-143658333D01*
X117060000Y-143563095D01*
X117107619Y-143515476D01*
X117202857Y-143467857D01*
X117345714Y-143467857D01*
X117440952Y-143515476D01*
X117488571Y-143563095D01*
X117536190Y-143658333D01*
X117536190Y-144039285D01*
X118012380Y-142515476D02*
X118012380Y-143086904D01*
X118012380Y-142801190D02*
X117012380Y-142801190D01*
X117155238Y-142896428D01*
X117250476Y-142991666D01*
X117298095Y-143086904D01*
X117012380Y-141658333D02*
X117012380Y-141848809D01*
X117060000Y-141944047D01*
X117107619Y-141991666D01*
X117250476Y-142086904D01*
X117440952Y-142134523D01*
X117821904Y-142134523D01*
X117917142Y-142086904D01*
X117964761Y-142039285D01*
X118012380Y-141944047D01*
X118012380Y-141753571D01*
X117964761Y-141658333D01*
X117917142Y-141610714D01*
X117821904Y-141563095D01*
X117583809Y-141563095D01*
X117488571Y-141610714D01*
X117440952Y-141658333D01*
X117393333Y-141753571D01*
X117393333Y-141944047D01*
X117440952Y-142039285D01*
X117488571Y-142086904D01*
X117583809Y-142134523D01*
%TO.C,R40*%
X167076380Y-106052857D02*
X166600190Y-106386190D01*
X167076380Y-106624285D02*
X166076380Y-106624285D01*
X166076380Y-106243333D01*
X166124000Y-106148095D01*
X166171619Y-106100476D01*
X166266857Y-106052857D01*
X166409714Y-106052857D01*
X166504952Y-106100476D01*
X166552571Y-106148095D01*
X166600190Y-106243333D01*
X166600190Y-106624285D01*
X166409714Y-105195714D02*
X167076380Y-105195714D01*
X166028761Y-105433809D02*
X166743047Y-105671904D01*
X166743047Y-105052857D01*
X166076380Y-104481428D02*
X166076380Y-104386190D01*
X166124000Y-104290952D01*
X166171619Y-104243333D01*
X166266857Y-104195714D01*
X166457333Y-104148095D01*
X166695428Y-104148095D01*
X166885904Y-104195714D01*
X166981142Y-104243333D01*
X167028761Y-104290952D01*
X167076380Y-104386190D01*
X167076380Y-104481428D01*
X167028761Y-104576666D01*
X166981142Y-104624285D01*
X166885904Y-104671904D01*
X166695428Y-104719523D01*
X166457333Y-104719523D01*
X166266857Y-104671904D01*
X166171619Y-104624285D01*
X166124000Y-104576666D01*
X166076380Y-104481428D01*
%TO.C,C66*%
X161139142Y-109735857D02*
X161186761Y-109783476D01*
X161234380Y-109926333D01*
X161234380Y-110021571D01*
X161186761Y-110164428D01*
X161091523Y-110259666D01*
X160996285Y-110307285D01*
X160805809Y-110354904D01*
X160662952Y-110354904D01*
X160472476Y-110307285D01*
X160377238Y-110259666D01*
X160282000Y-110164428D01*
X160234380Y-110021571D01*
X160234380Y-109926333D01*
X160282000Y-109783476D01*
X160329619Y-109735857D01*
X160234380Y-108878714D02*
X160234380Y-109069190D01*
X160282000Y-109164428D01*
X160329619Y-109212047D01*
X160472476Y-109307285D01*
X160662952Y-109354904D01*
X161043904Y-109354904D01*
X161139142Y-109307285D01*
X161186761Y-109259666D01*
X161234380Y-109164428D01*
X161234380Y-108973952D01*
X161186761Y-108878714D01*
X161139142Y-108831095D01*
X161043904Y-108783476D01*
X160805809Y-108783476D01*
X160710571Y-108831095D01*
X160662952Y-108878714D01*
X160615333Y-108973952D01*
X160615333Y-109164428D01*
X160662952Y-109259666D01*
X160710571Y-109307285D01*
X160805809Y-109354904D01*
X160234380Y-107926333D02*
X160234380Y-108116809D01*
X160282000Y-108212047D01*
X160329619Y-108259666D01*
X160472476Y-108354904D01*
X160662952Y-108402523D01*
X161043904Y-108402523D01*
X161139142Y-108354904D01*
X161186761Y-108307285D01*
X161234380Y-108212047D01*
X161234380Y-108021571D01*
X161186761Y-107926333D01*
X161139142Y-107878714D01*
X161043904Y-107831095D01*
X160805809Y-107831095D01*
X160710571Y-107878714D01*
X160662952Y-107926333D01*
X160615333Y-108021571D01*
X160615333Y-108212047D01*
X160662952Y-108307285D01*
X160710571Y-108354904D01*
X160805809Y-108402523D01*
%TO.C,H2*%
X118618095Y-56586380D02*
X118618095Y-55586380D01*
X118618095Y-56062571D02*
X119189523Y-56062571D01*
X119189523Y-56586380D02*
X119189523Y-55586380D01*
X119618095Y-55681619D02*
X119665714Y-55634000D01*
X119760952Y-55586380D01*
X119999047Y-55586380D01*
X120094285Y-55634000D01*
X120141904Y-55681619D01*
X120189523Y-55776857D01*
X120189523Y-55872095D01*
X120141904Y-56014952D01*
X119570476Y-56586380D01*
X120189523Y-56586380D01*
%TO.C,C8*%
X134834333Y-113768142D02*
X134786714Y-113815761D01*
X134643857Y-113863380D01*
X134548619Y-113863380D01*
X134405761Y-113815761D01*
X134310523Y-113720523D01*
X134262904Y-113625285D01*
X134215285Y-113434809D01*
X134215285Y-113291952D01*
X134262904Y-113101476D01*
X134310523Y-113006238D01*
X134405761Y-112911000D01*
X134548619Y-112863380D01*
X134643857Y-112863380D01*
X134786714Y-112911000D01*
X134834333Y-112958619D01*
X135405761Y-113291952D02*
X135310523Y-113244333D01*
X135262904Y-113196714D01*
X135215285Y-113101476D01*
X135215285Y-113053857D01*
X135262904Y-112958619D01*
X135310523Y-112911000D01*
X135405761Y-112863380D01*
X135596238Y-112863380D01*
X135691476Y-112911000D01*
X135739095Y-112958619D01*
X135786714Y-113053857D01*
X135786714Y-113101476D01*
X135739095Y-113196714D01*
X135691476Y-113244333D01*
X135596238Y-113291952D01*
X135405761Y-113291952D01*
X135310523Y-113339571D01*
X135262904Y-113387190D01*
X135215285Y-113482428D01*
X135215285Y-113672904D01*
X135262904Y-113768142D01*
X135310523Y-113815761D01*
X135405761Y-113863380D01*
X135596238Y-113863380D01*
X135691476Y-113815761D01*
X135739095Y-113768142D01*
X135786714Y-113672904D01*
X135786714Y-113482428D01*
X135739095Y-113387190D01*
X135691476Y-113339571D01*
X135596238Y-113291952D01*
%TO.C,R1*%
X112470533Y-110688380D02*
X112137200Y-110212190D01*
X111899104Y-110688380D02*
X111899104Y-109688380D01*
X112280057Y-109688380D01*
X112375295Y-109736000D01*
X112422914Y-109783619D01*
X112470533Y-109878857D01*
X112470533Y-110021714D01*
X112422914Y-110116952D01*
X112375295Y-110164571D01*
X112280057Y-110212190D01*
X111899104Y-110212190D01*
X113422914Y-110688380D02*
X112851485Y-110688380D01*
X113137200Y-110688380D02*
X113137200Y-109688380D01*
X113041961Y-109831238D01*
X112946723Y-109926476D01*
X112851485Y-109974095D01*
%TO.C,C60*%
X141566142Y-74969142D02*
X141518523Y-75016761D01*
X141375666Y-75064380D01*
X141280428Y-75064380D01*
X141137571Y-75016761D01*
X141042333Y-74921523D01*
X140994714Y-74826285D01*
X140947095Y-74635809D01*
X140947095Y-74492952D01*
X140994714Y-74302476D01*
X141042333Y-74207238D01*
X141137571Y-74112000D01*
X141280428Y-74064380D01*
X141375666Y-74064380D01*
X141518523Y-74112000D01*
X141566142Y-74159619D01*
X142423285Y-74064380D02*
X142232809Y-74064380D01*
X142137571Y-74112000D01*
X142089952Y-74159619D01*
X141994714Y-74302476D01*
X141947095Y-74492952D01*
X141947095Y-74873904D01*
X141994714Y-74969142D01*
X142042333Y-75016761D01*
X142137571Y-75064380D01*
X142328047Y-75064380D01*
X142423285Y-75016761D01*
X142470904Y-74969142D01*
X142518523Y-74873904D01*
X142518523Y-74635809D01*
X142470904Y-74540571D01*
X142423285Y-74492952D01*
X142328047Y-74445333D01*
X142137571Y-74445333D01*
X142042333Y-74492952D01*
X141994714Y-74540571D01*
X141947095Y-74635809D01*
X143137571Y-74064380D02*
X143232809Y-74064380D01*
X143328047Y-74112000D01*
X143375666Y-74159619D01*
X143423285Y-74254857D01*
X143470904Y-74445333D01*
X143470904Y-74683428D01*
X143423285Y-74873904D01*
X143375666Y-74969142D01*
X143328047Y-75016761D01*
X143232809Y-75064380D01*
X143137571Y-75064380D01*
X143042333Y-75016761D01*
X142994714Y-74969142D01*
X142947095Y-74873904D01*
X142899476Y-74683428D01*
X142899476Y-74445333D01*
X142947095Y-74254857D01*
X142994714Y-74159619D01*
X143042333Y-74112000D01*
X143137571Y-74064380D01*
%TO.C,C51*%
X159896371Y-122645621D02*
X159848752Y-122693240D01*
X159705895Y-122740859D01*
X159610657Y-122740859D01*
X159467800Y-122693240D01*
X159372562Y-122598002D01*
X159324943Y-122502764D01*
X159277324Y-122312288D01*
X159277324Y-122169431D01*
X159324943Y-121978955D01*
X159372562Y-121883717D01*
X159467800Y-121788479D01*
X159610657Y-121740859D01*
X159705895Y-121740859D01*
X159848752Y-121788479D01*
X159896371Y-121836098D01*
X160801133Y-121740859D02*
X160324943Y-121740859D01*
X160277324Y-122217050D01*
X160324943Y-122169431D01*
X160420181Y-122121812D01*
X160658276Y-122121812D01*
X160753514Y-122169431D01*
X160801133Y-122217050D01*
X160848752Y-122312288D01*
X160848752Y-122550383D01*
X160801133Y-122645621D01*
X160753514Y-122693240D01*
X160658276Y-122740859D01*
X160420181Y-122740859D01*
X160324943Y-122693240D01*
X160277324Y-122645621D01*
X161801133Y-122740859D02*
X161229705Y-122740859D01*
X161515419Y-122740859D02*
X161515419Y-121740859D01*
X161420181Y-121883717D01*
X161324943Y-121978955D01*
X161229705Y-122026574D01*
%TO.C,C63*%
X147312142Y-113006142D02*
X147264523Y-113053761D01*
X147121666Y-113101380D01*
X147026428Y-113101380D01*
X146883571Y-113053761D01*
X146788333Y-112958523D01*
X146740714Y-112863285D01*
X146693095Y-112672809D01*
X146693095Y-112529952D01*
X146740714Y-112339476D01*
X146788333Y-112244238D01*
X146883571Y-112149000D01*
X147026428Y-112101380D01*
X147121666Y-112101380D01*
X147264523Y-112149000D01*
X147312142Y-112196619D01*
X148169285Y-112101380D02*
X147978809Y-112101380D01*
X147883571Y-112149000D01*
X147835952Y-112196619D01*
X147740714Y-112339476D01*
X147693095Y-112529952D01*
X147693095Y-112910904D01*
X147740714Y-113006142D01*
X147788333Y-113053761D01*
X147883571Y-113101380D01*
X148074047Y-113101380D01*
X148169285Y-113053761D01*
X148216904Y-113006142D01*
X148264523Y-112910904D01*
X148264523Y-112672809D01*
X148216904Y-112577571D01*
X148169285Y-112529952D01*
X148074047Y-112482333D01*
X147883571Y-112482333D01*
X147788333Y-112529952D01*
X147740714Y-112577571D01*
X147693095Y-112672809D01*
X148597857Y-112101380D02*
X149216904Y-112101380D01*
X148883571Y-112482333D01*
X149026428Y-112482333D01*
X149121666Y-112529952D01*
X149169285Y-112577571D01*
X149216904Y-112672809D01*
X149216904Y-112910904D01*
X149169285Y-113006142D01*
X149121666Y-113053761D01*
X149026428Y-113101380D01*
X148740714Y-113101380D01*
X148645476Y-113053761D01*
X148597857Y-113006142D01*
D10*
%TO.C,C25*%
X123589142Y-128251857D02*
X123625428Y-128288142D01*
X123661714Y-128397000D01*
X123661714Y-128469571D01*
X123625428Y-128578428D01*
X123552857Y-128651000D01*
X123480285Y-128687285D01*
X123335142Y-128723571D01*
X123226285Y-128723571D01*
X123081142Y-128687285D01*
X123008571Y-128651000D01*
X122936000Y-128578428D01*
X122899714Y-128469571D01*
X122899714Y-128397000D01*
X122936000Y-128288142D01*
X122972285Y-128251857D01*
X122972285Y-127961571D02*
X122936000Y-127925285D01*
X122899714Y-127852714D01*
X122899714Y-127671285D01*
X122936000Y-127598714D01*
X122972285Y-127562428D01*
X123044857Y-127526142D01*
X123117428Y-127526142D01*
X123226285Y-127562428D01*
X123661714Y-127997857D01*
X123661714Y-127526142D01*
X122899714Y-126836714D02*
X122899714Y-127199571D01*
X123262571Y-127235857D01*
X123226285Y-127199571D01*
X123190000Y-127127000D01*
X123190000Y-126945571D01*
X123226285Y-126873000D01*
X123262571Y-126836714D01*
X123335142Y-126800428D01*
X123516571Y-126800428D01*
X123589142Y-126836714D01*
X123625428Y-126873000D01*
X123661714Y-126945571D01*
X123661714Y-127127000D01*
X123625428Y-127199571D01*
X123589142Y-127235857D01*
D11*
%TO.C,H9*%
X138201495Y-118994180D02*
X138201495Y-117994180D01*
X138201495Y-118470371D02*
X138772923Y-118470371D01*
X138772923Y-118994180D02*
X138772923Y-117994180D01*
X139296733Y-118994180D02*
X139487209Y-118994180D01*
X139582447Y-118946561D01*
X139630066Y-118898942D01*
X139725304Y-118756085D01*
X139772923Y-118565609D01*
X139772923Y-118184657D01*
X139725304Y-118089419D01*
X139677685Y-118041800D01*
X139582447Y-117994180D01*
X139391971Y-117994180D01*
X139296733Y-118041800D01*
X139249114Y-118089419D01*
X139201495Y-118184657D01*
X139201495Y-118422752D01*
X139249114Y-118517990D01*
X139296733Y-118565609D01*
X139391971Y-118613228D01*
X139582447Y-118613228D01*
X139677685Y-118565609D01*
X139725304Y-118517990D01*
X139772923Y-118422752D01*
%TO.C,C58*%
X178030142Y-120530857D02*
X178077761Y-120578476D01*
X178125380Y-120721333D01*
X178125380Y-120816571D01*
X178077761Y-120959428D01*
X177982523Y-121054666D01*
X177887285Y-121102285D01*
X177696809Y-121149904D01*
X177553952Y-121149904D01*
X177363476Y-121102285D01*
X177268238Y-121054666D01*
X177173000Y-120959428D01*
X177125380Y-120816571D01*
X177125380Y-120721333D01*
X177173000Y-120578476D01*
X177220619Y-120530857D01*
X177125380Y-119626095D02*
X177125380Y-120102285D01*
X177601571Y-120149904D01*
X177553952Y-120102285D01*
X177506333Y-120007047D01*
X177506333Y-119768952D01*
X177553952Y-119673714D01*
X177601571Y-119626095D01*
X177696809Y-119578476D01*
X177934904Y-119578476D01*
X178030142Y-119626095D01*
X178077761Y-119673714D01*
X178125380Y-119768952D01*
X178125380Y-120007047D01*
X178077761Y-120102285D01*
X178030142Y-120149904D01*
X177553952Y-119007047D02*
X177506333Y-119102285D01*
X177458714Y-119149904D01*
X177363476Y-119197523D01*
X177315857Y-119197523D01*
X177220619Y-119149904D01*
X177173000Y-119102285D01*
X177125380Y-119007047D01*
X177125380Y-118816571D01*
X177173000Y-118721333D01*
X177220619Y-118673714D01*
X177315857Y-118626095D01*
X177363476Y-118626095D01*
X177458714Y-118673714D01*
X177506333Y-118721333D01*
X177553952Y-118816571D01*
X177553952Y-119007047D01*
X177601571Y-119102285D01*
X177649190Y-119149904D01*
X177744428Y-119197523D01*
X177934904Y-119197523D01*
X178030142Y-119149904D01*
X178077761Y-119102285D01*
X178125380Y-119007047D01*
X178125380Y-118816571D01*
X178077761Y-118721333D01*
X178030142Y-118673714D01*
X177934904Y-118626095D01*
X177744428Y-118626095D01*
X177649190Y-118673714D01*
X177601571Y-118721333D01*
X177553952Y-118816571D01*
%TO.C,H4*%
X113538095Y-54672380D02*
X113538095Y-53672380D01*
X113538095Y-54148571D02*
X114109523Y-54148571D01*
X114109523Y-54672380D02*
X114109523Y-53672380D01*
X115014285Y-54005714D02*
X115014285Y-54672380D01*
X114776190Y-53624761D02*
X114538095Y-54339047D01*
X115157142Y-54339047D01*
%TO.C,H8*%
X144399095Y-140004380D02*
X144399095Y-139004380D01*
X144399095Y-139480571D02*
X144970523Y-139480571D01*
X144970523Y-140004380D02*
X144970523Y-139004380D01*
X145589571Y-139432952D02*
X145494333Y-139385333D01*
X145446714Y-139337714D01*
X145399095Y-139242476D01*
X145399095Y-139194857D01*
X145446714Y-139099619D01*
X145494333Y-139052000D01*
X145589571Y-139004380D01*
X145780047Y-139004380D01*
X145875285Y-139052000D01*
X145922904Y-139099619D01*
X145970523Y-139194857D01*
X145970523Y-139242476D01*
X145922904Y-139337714D01*
X145875285Y-139385333D01*
X145780047Y-139432952D01*
X145589571Y-139432952D01*
X145494333Y-139480571D01*
X145446714Y-139528190D01*
X145399095Y-139623428D01*
X145399095Y-139813904D01*
X145446714Y-139909142D01*
X145494333Y-139956761D01*
X145589571Y-140004380D01*
X145780047Y-140004380D01*
X145875285Y-139956761D01*
X145922904Y-139909142D01*
X145970523Y-139813904D01*
X145970523Y-139623428D01*
X145922904Y-139528190D01*
X145875285Y-139480571D01*
X145780047Y-139432952D01*
%TO.C,R35*%
X137866380Y-78793857D02*
X137390190Y-79127190D01*
X137866380Y-79365285D02*
X136866380Y-79365285D01*
X136866380Y-78984333D01*
X136914000Y-78889095D01*
X136961619Y-78841476D01*
X137056857Y-78793857D01*
X137199714Y-78793857D01*
X137294952Y-78841476D01*
X137342571Y-78889095D01*
X137390190Y-78984333D01*
X137390190Y-79365285D01*
X136866380Y-78460523D02*
X136866380Y-77841476D01*
X137247333Y-78174809D01*
X137247333Y-78031952D01*
X137294952Y-77936714D01*
X137342571Y-77889095D01*
X137437809Y-77841476D01*
X137675904Y-77841476D01*
X137771142Y-77889095D01*
X137818761Y-77936714D01*
X137866380Y-78031952D01*
X137866380Y-78317666D01*
X137818761Y-78412904D01*
X137771142Y-78460523D01*
X136866380Y-76936714D02*
X136866380Y-77412904D01*
X137342571Y-77460523D01*
X137294952Y-77412904D01*
X137247333Y-77317666D01*
X137247333Y-77079571D01*
X137294952Y-76984333D01*
X137342571Y-76936714D01*
X137437809Y-76889095D01*
X137675904Y-76889095D01*
X137771142Y-76936714D01*
X137818761Y-76984333D01*
X137866380Y-77079571D01*
X137866380Y-77317666D01*
X137818761Y-77412904D01*
X137771142Y-77460523D01*
%TO.C,TP1*%
X144661095Y-91527380D02*
X145232523Y-91527380D01*
X144946809Y-92527380D02*
X144946809Y-91527380D01*
X145565857Y-92527380D02*
X145565857Y-91527380D01*
X145946809Y-91527380D01*
X146042047Y-91575000D01*
X146089666Y-91622619D01*
X146137285Y-91717857D01*
X146137285Y-91860714D01*
X146089666Y-91955952D01*
X146042047Y-92003571D01*
X145946809Y-92051190D01*
X145565857Y-92051190D01*
X147089666Y-92527380D02*
X146518238Y-92527380D01*
X146803952Y-92527380D02*
X146803952Y-91527380D01*
X146708714Y-91670238D01*
X146613476Y-91765476D01*
X146518238Y-91813095D01*
%TO.C,TP5*%
X160663095Y-74204380D02*
X161234523Y-74204380D01*
X160948809Y-75204380D02*
X160948809Y-74204380D01*
X161567857Y-75204380D02*
X161567857Y-74204380D01*
X161948809Y-74204380D01*
X162044047Y-74252000D01*
X162091666Y-74299619D01*
X162139285Y-74394857D01*
X162139285Y-74537714D01*
X162091666Y-74632952D01*
X162044047Y-74680571D01*
X161948809Y-74728190D01*
X161567857Y-74728190D01*
X163044047Y-74204380D02*
X162567857Y-74204380D01*
X162520238Y-74680571D01*
X162567857Y-74632952D01*
X162663095Y-74585333D01*
X162901190Y-74585333D01*
X162996428Y-74632952D01*
X163044047Y-74680571D01*
X163091666Y-74775809D01*
X163091666Y-75013904D01*
X163044047Y-75109142D01*
X162996428Y-75156761D01*
X162901190Y-75204380D01*
X162663095Y-75204380D01*
X162567857Y-75156761D01*
X162520238Y-75109142D01*
%TO.C,R25*%
X162806142Y-92527380D02*
X162472809Y-92051190D01*
X162234714Y-92527380D02*
X162234714Y-91527380D01*
X162615666Y-91527380D01*
X162710904Y-91575000D01*
X162758523Y-91622619D01*
X162806142Y-91717857D01*
X162806142Y-91860714D01*
X162758523Y-91955952D01*
X162710904Y-92003571D01*
X162615666Y-92051190D01*
X162234714Y-92051190D01*
X163187095Y-91622619D02*
X163234714Y-91575000D01*
X163329952Y-91527380D01*
X163568047Y-91527380D01*
X163663285Y-91575000D01*
X163710904Y-91622619D01*
X163758523Y-91717857D01*
X163758523Y-91813095D01*
X163710904Y-91955952D01*
X163139476Y-92527380D01*
X163758523Y-92527380D01*
X164663285Y-91527380D02*
X164187095Y-91527380D01*
X164139476Y-92003571D01*
X164187095Y-91955952D01*
X164282333Y-91908333D01*
X164520428Y-91908333D01*
X164615666Y-91955952D01*
X164663285Y-92003571D01*
X164710904Y-92098809D01*
X164710904Y-92336904D01*
X164663285Y-92432142D01*
X164615666Y-92479761D01*
X164520428Y-92527380D01*
X164282333Y-92527380D01*
X164187095Y-92479761D01*
X164139476Y-92432142D01*
%TO.C,J6*%
X120561380Y-99774333D02*
X121275666Y-99774333D01*
X121418523Y-99821952D01*
X121513761Y-99917190D01*
X121561380Y-100060047D01*
X121561380Y-100155285D01*
X120561380Y-98869571D02*
X120561380Y-99060047D01*
X120609000Y-99155285D01*
X120656619Y-99202904D01*
X120799476Y-99298142D01*
X120989952Y-99345761D01*
X121370904Y-99345761D01*
X121466142Y-99298142D01*
X121513761Y-99250523D01*
X121561380Y-99155285D01*
X121561380Y-98964809D01*
X121513761Y-98869571D01*
X121466142Y-98821952D01*
X121370904Y-98774333D01*
X121132809Y-98774333D01*
X121037571Y-98821952D01*
X120989952Y-98869571D01*
X120942333Y-98964809D01*
X120942333Y-99155285D01*
X120989952Y-99250523D01*
X121037571Y-99298142D01*
X121132809Y-99345761D01*
%TO.C,U11*%
X142398904Y-112355380D02*
X142398904Y-113164904D01*
X142446523Y-113260142D01*
X142494142Y-113307761D01*
X142589380Y-113355380D01*
X142779857Y-113355380D01*
X142875095Y-113307761D01*
X142922714Y-113260142D01*
X142970333Y-113164904D01*
X142970333Y-112355380D01*
X143970333Y-113355380D02*
X143398904Y-113355380D01*
X143684619Y-113355380D02*
X143684619Y-112355380D01*
X143589380Y-112498238D01*
X143494142Y-112593476D01*
X143398904Y-112641095D01*
X144922714Y-113355380D02*
X144351285Y-113355380D01*
X144637000Y-113355380D02*
X144637000Y-112355380D01*
X144541761Y-112498238D01*
X144446523Y-112593476D01*
X144351285Y-112641095D01*
%TO.C,C61*%
X125833142Y-81909857D02*
X125880761Y-81957476D01*
X125928380Y-82100333D01*
X125928380Y-82195571D01*
X125880761Y-82338428D01*
X125785523Y-82433666D01*
X125690285Y-82481285D01*
X125499809Y-82528904D01*
X125356952Y-82528904D01*
X125166476Y-82481285D01*
X125071238Y-82433666D01*
X124976000Y-82338428D01*
X124928380Y-82195571D01*
X124928380Y-82100333D01*
X124976000Y-81957476D01*
X125023619Y-81909857D01*
X124928380Y-81052714D02*
X124928380Y-81243190D01*
X124976000Y-81338428D01*
X125023619Y-81386047D01*
X125166476Y-81481285D01*
X125356952Y-81528904D01*
X125737904Y-81528904D01*
X125833142Y-81481285D01*
X125880761Y-81433666D01*
X125928380Y-81338428D01*
X125928380Y-81147952D01*
X125880761Y-81052714D01*
X125833142Y-81005095D01*
X125737904Y-80957476D01*
X125499809Y-80957476D01*
X125404571Y-81005095D01*
X125356952Y-81052714D01*
X125309333Y-81147952D01*
X125309333Y-81338428D01*
X125356952Y-81433666D01*
X125404571Y-81481285D01*
X125499809Y-81528904D01*
X125928380Y-80005095D02*
X125928380Y-80576523D01*
X125928380Y-80290809D02*
X124928380Y-80290809D01*
X125071238Y-80386047D01*
X125166476Y-80481285D01*
X125214095Y-80576523D01*
%TO.C,C62*%
X124960142Y-75033142D02*
X124912523Y-75080761D01*
X124769666Y-75128380D01*
X124674428Y-75128380D01*
X124531571Y-75080761D01*
X124436333Y-74985523D01*
X124388714Y-74890285D01*
X124341095Y-74699809D01*
X124341095Y-74556952D01*
X124388714Y-74366476D01*
X124436333Y-74271238D01*
X124531571Y-74176000D01*
X124674428Y-74128380D01*
X124769666Y-74128380D01*
X124912523Y-74176000D01*
X124960142Y-74223619D01*
X125817285Y-74128380D02*
X125626809Y-74128380D01*
X125531571Y-74176000D01*
X125483952Y-74223619D01*
X125388714Y-74366476D01*
X125341095Y-74556952D01*
X125341095Y-74937904D01*
X125388714Y-75033142D01*
X125436333Y-75080761D01*
X125531571Y-75128380D01*
X125722047Y-75128380D01*
X125817285Y-75080761D01*
X125864904Y-75033142D01*
X125912523Y-74937904D01*
X125912523Y-74699809D01*
X125864904Y-74604571D01*
X125817285Y-74556952D01*
X125722047Y-74509333D01*
X125531571Y-74509333D01*
X125436333Y-74556952D01*
X125388714Y-74604571D01*
X125341095Y-74699809D01*
X126293476Y-74223619D02*
X126341095Y-74176000D01*
X126436333Y-74128380D01*
X126674428Y-74128380D01*
X126769666Y-74176000D01*
X126817285Y-74223619D01*
X126864904Y-74318857D01*
X126864904Y-74414095D01*
X126817285Y-74556952D01*
X126245857Y-75128380D01*
X126864904Y-75128380D01*
D10*
%TO.C,C29*%
X123809321Y-132352142D02*
X123773036Y-132388428D01*
X123664179Y-132424714D01*
X123591607Y-132424714D01*
X123482750Y-132388428D01*
X123410179Y-132315857D01*
X123373893Y-132243285D01*
X123337607Y-132098142D01*
X123337607Y-131989285D01*
X123373893Y-131844142D01*
X123410179Y-131771571D01*
X123482750Y-131699000D01*
X123591607Y-131662714D01*
X123664179Y-131662714D01*
X123773036Y-131699000D01*
X123809321Y-131735285D01*
X124099607Y-131735285D02*
X124135893Y-131699000D01*
X124208464Y-131662714D01*
X124389893Y-131662714D01*
X124462464Y-131699000D01*
X124498750Y-131735285D01*
X124535036Y-131807857D01*
X124535036Y-131880428D01*
X124498750Y-131989285D01*
X124063321Y-132424714D01*
X124535036Y-132424714D01*
X124897893Y-132424714D02*
X125043036Y-132424714D01*
X125115607Y-132388428D01*
X125151893Y-132352142D01*
X125224464Y-132243285D01*
X125260750Y-132098142D01*
X125260750Y-131807857D01*
X125224464Y-131735285D01*
X125188179Y-131699000D01*
X125115607Y-131662714D01*
X124970464Y-131662714D01*
X124897893Y-131699000D01*
X124861607Y-131735285D01*
X124825321Y-131807857D01*
X124825321Y-131989285D01*
X124861607Y-132061857D01*
X124897893Y-132098142D01*
X124970464Y-132134428D01*
X125115607Y-132134428D01*
X125188179Y-132098142D01*
X125224464Y-132061857D01*
X125260750Y-131989285D01*
D11*
%TO.C,J5*%
X124502666Y-109986380D02*
X124502666Y-110700666D01*
X124455047Y-110843523D01*
X124359809Y-110938761D01*
X124216952Y-110986380D01*
X124121714Y-110986380D01*
X125455047Y-109986380D02*
X124978857Y-109986380D01*
X124931238Y-110462571D01*
X124978857Y-110414952D01*
X125074095Y-110367333D01*
X125312190Y-110367333D01*
X125407428Y-110414952D01*
X125455047Y-110462571D01*
X125502666Y-110557809D01*
X125502666Y-110795904D01*
X125455047Y-110891142D01*
X125407428Y-110938761D01*
X125312190Y-110986380D01*
X125074095Y-110986380D01*
X124978857Y-110938761D01*
X124931238Y-110891142D01*
%TO.C,R22*%
X173855142Y-88336380D02*
X173521809Y-87860190D01*
X173283714Y-88336380D02*
X173283714Y-87336380D01*
X173664666Y-87336380D01*
X173759904Y-87384000D01*
X173807523Y-87431619D01*
X173855142Y-87526857D01*
X173855142Y-87669714D01*
X173807523Y-87764952D01*
X173759904Y-87812571D01*
X173664666Y-87860190D01*
X173283714Y-87860190D01*
X174236095Y-87431619D02*
X174283714Y-87384000D01*
X174378952Y-87336380D01*
X174617047Y-87336380D01*
X174712285Y-87384000D01*
X174759904Y-87431619D01*
X174807523Y-87526857D01*
X174807523Y-87622095D01*
X174759904Y-87764952D01*
X174188476Y-88336380D01*
X174807523Y-88336380D01*
X175188476Y-87431619D02*
X175236095Y-87384000D01*
X175331333Y-87336380D01*
X175569428Y-87336380D01*
X175664666Y-87384000D01*
X175712285Y-87431619D01*
X175759904Y-87526857D01*
X175759904Y-87622095D01*
X175712285Y-87764952D01*
X175140857Y-88336380D01*
X175759904Y-88336380D01*
%TO.C,L2*%
X113752333Y-125801380D02*
X113276142Y-125801380D01*
X113276142Y-124801380D01*
X114038047Y-124896619D02*
X114085666Y-124849000D01*
X114180904Y-124801380D01*
X114419000Y-124801380D01*
X114514238Y-124849000D01*
X114561857Y-124896619D01*
X114609476Y-124991857D01*
X114609476Y-125087095D01*
X114561857Y-125229952D01*
X113990428Y-125801380D01*
X114609476Y-125801380D01*
%TO.C,C56*%
X179173142Y-127846057D02*
X179220761Y-127893676D01*
X179268380Y-128036533D01*
X179268380Y-128131771D01*
X179220761Y-128274628D01*
X179125523Y-128369866D01*
X179030285Y-128417485D01*
X178839809Y-128465104D01*
X178696952Y-128465104D01*
X178506476Y-128417485D01*
X178411238Y-128369866D01*
X178316000Y-128274628D01*
X178268380Y-128131771D01*
X178268380Y-128036533D01*
X178316000Y-127893676D01*
X178363619Y-127846057D01*
X178268380Y-126941295D02*
X178268380Y-127417485D01*
X178744571Y-127465104D01*
X178696952Y-127417485D01*
X178649333Y-127322247D01*
X178649333Y-127084152D01*
X178696952Y-126988914D01*
X178744571Y-126941295D01*
X178839809Y-126893676D01*
X179077904Y-126893676D01*
X179173142Y-126941295D01*
X179220761Y-126988914D01*
X179268380Y-127084152D01*
X179268380Y-127322247D01*
X179220761Y-127417485D01*
X179173142Y-127465104D01*
X178268380Y-126036533D02*
X178268380Y-126227009D01*
X178316000Y-126322247D01*
X178363619Y-126369866D01*
X178506476Y-126465104D01*
X178696952Y-126512723D01*
X179077904Y-126512723D01*
X179173142Y-126465104D01*
X179220761Y-126417485D01*
X179268380Y-126322247D01*
X179268380Y-126131771D01*
X179220761Y-126036533D01*
X179173142Y-125988914D01*
X179077904Y-125941295D01*
X178839809Y-125941295D01*
X178744571Y-125988914D01*
X178696952Y-126036533D01*
X178649333Y-126131771D01*
X178649333Y-126322247D01*
X178696952Y-126417485D01*
X178744571Y-126465104D01*
X178839809Y-126512723D01*
%TO.C,C5*%
X150963333Y-104497142D02*
X150915714Y-104544761D01*
X150772857Y-104592380D01*
X150677619Y-104592380D01*
X150534761Y-104544761D01*
X150439523Y-104449523D01*
X150391904Y-104354285D01*
X150344285Y-104163809D01*
X150344285Y-104020952D01*
X150391904Y-103830476D01*
X150439523Y-103735238D01*
X150534761Y-103640000D01*
X150677619Y-103592380D01*
X150772857Y-103592380D01*
X150915714Y-103640000D01*
X150963333Y-103687619D01*
X151868095Y-103592380D02*
X151391904Y-103592380D01*
X151344285Y-104068571D01*
X151391904Y-104020952D01*
X151487142Y-103973333D01*
X151725238Y-103973333D01*
X151820476Y-104020952D01*
X151868095Y-104068571D01*
X151915714Y-104163809D01*
X151915714Y-104401904D01*
X151868095Y-104497142D01*
X151820476Y-104544761D01*
X151725238Y-104592380D01*
X151487142Y-104592380D01*
X151391904Y-104544761D01*
X151344285Y-104497142D01*
D10*
%TO.C,C31*%
X128796142Y-134347857D02*
X128832428Y-134384142D01*
X128868714Y-134493000D01*
X128868714Y-134565571D01*
X128832428Y-134674428D01*
X128759857Y-134747000D01*
X128687285Y-134783285D01*
X128542142Y-134819571D01*
X128433285Y-134819571D01*
X128288142Y-134783285D01*
X128215571Y-134747000D01*
X128143000Y-134674428D01*
X128106714Y-134565571D01*
X128106714Y-134493000D01*
X128143000Y-134384142D01*
X128179285Y-134347857D01*
X128106714Y-134093857D02*
X128106714Y-133622142D01*
X128397000Y-133876142D01*
X128397000Y-133767285D01*
X128433285Y-133694714D01*
X128469571Y-133658428D01*
X128542142Y-133622142D01*
X128723571Y-133622142D01*
X128796142Y-133658428D01*
X128832428Y-133694714D01*
X128868714Y-133767285D01*
X128868714Y-133985000D01*
X128832428Y-134057571D01*
X128796142Y-134093857D01*
X128868714Y-132896428D02*
X128868714Y-133331857D01*
X128868714Y-133114142D02*
X128106714Y-133114142D01*
X128215571Y-133186714D01*
X128288142Y-133259285D01*
X128324428Y-133331857D01*
D11*
%TO.C,J4*%
X120189666Y-69429380D02*
X120189666Y-70143666D01*
X120142047Y-70286523D01*
X120046809Y-70381761D01*
X119903952Y-70429380D01*
X119808714Y-70429380D01*
X121094428Y-69762714D02*
X121094428Y-70429380D01*
X120856333Y-69381761D02*
X120618238Y-70096047D01*
X121237285Y-70096047D01*
%TO.C,C64*%
X182221142Y-110751857D02*
X182268761Y-110799476D01*
X182316380Y-110942333D01*
X182316380Y-111037571D01*
X182268761Y-111180428D01*
X182173523Y-111275666D01*
X182078285Y-111323285D01*
X181887809Y-111370904D01*
X181744952Y-111370904D01*
X181554476Y-111323285D01*
X181459238Y-111275666D01*
X181364000Y-111180428D01*
X181316380Y-111037571D01*
X181316380Y-110942333D01*
X181364000Y-110799476D01*
X181411619Y-110751857D01*
X181316380Y-109894714D02*
X181316380Y-110085190D01*
X181364000Y-110180428D01*
X181411619Y-110228047D01*
X181554476Y-110323285D01*
X181744952Y-110370904D01*
X182125904Y-110370904D01*
X182221142Y-110323285D01*
X182268761Y-110275666D01*
X182316380Y-110180428D01*
X182316380Y-109989952D01*
X182268761Y-109894714D01*
X182221142Y-109847095D01*
X182125904Y-109799476D01*
X181887809Y-109799476D01*
X181792571Y-109847095D01*
X181744952Y-109894714D01*
X181697333Y-109989952D01*
X181697333Y-110180428D01*
X181744952Y-110275666D01*
X181792571Y-110323285D01*
X181887809Y-110370904D01*
X181649714Y-108942333D02*
X182316380Y-108942333D01*
X181268761Y-109180428D02*
X181983047Y-109418523D01*
X181983047Y-108799476D01*
%TO.C,C52*%
X172950142Y-121800857D02*
X172997761Y-121848476D01*
X173045380Y-121991333D01*
X173045380Y-122086571D01*
X172997761Y-122229428D01*
X172902523Y-122324666D01*
X172807285Y-122372285D01*
X172616809Y-122419904D01*
X172473952Y-122419904D01*
X172283476Y-122372285D01*
X172188238Y-122324666D01*
X172093000Y-122229428D01*
X172045380Y-122086571D01*
X172045380Y-121991333D01*
X172093000Y-121848476D01*
X172140619Y-121800857D01*
X172045380Y-120896095D02*
X172045380Y-121372285D01*
X172521571Y-121419904D01*
X172473952Y-121372285D01*
X172426333Y-121277047D01*
X172426333Y-121038952D01*
X172473952Y-120943714D01*
X172521571Y-120896095D01*
X172616809Y-120848476D01*
X172854904Y-120848476D01*
X172950142Y-120896095D01*
X172997761Y-120943714D01*
X173045380Y-121038952D01*
X173045380Y-121277047D01*
X172997761Y-121372285D01*
X172950142Y-121419904D01*
X172140619Y-120467523D02*
X172093000Y-120419904D01*
X172045380Y-120324666D01*
X172045380Y-120086571D01*
X172093000Y-119991333D01*
X172140619Y-119943714D01*
X172235857Y-119896095D01*
X172331095Y-119896095D01*
X172473952Y-119943714D01*
X173045380Y-120515142D01*
X173045380Y-119896095D01*
%TO.C,C42*%
X186031142Y-79681228D02*
X186078761Y-79728847D01*
X186126380Y-79871704D01*
X186126380Y-79966942D01*
X186078761Y-80109799D01*
X185983523Y-80205037D01*
X185888285Y-80252656D01*
X185697809Y-80300275D01*
X185554952Y-80300275D01*
X185364476Y-80252656D01*
X185269238Y-80205037D01*
X185174000Y-80109799D01*
X185126380Y-79966942D01*
X185126380Y-79871704D01*
X185174000Y-79728847D01*
X185221619Y-79681228D01*
X185459714Y-78824085D02*
X186126380Y-78824085D01*
X185078761Y-79062180D02*
X185793047Y-79300275D01*
X185793047Y-78681228D01*
X185221619Y-78347894D02*
X185174000Y-78300275D01*
X185126380Y-78205037D01*
X185126380Y-77966942D01*
X185174000Y-77871704D01*
X185221619Y-77824085D01*
X185316857Y-77776466D01*
X185412095Y-77776466D01*
X185554952Y-77824085D01*
X186126380Y-78395513D01*
X186126380Y-77776466D01*
D10*
%TO.C,C41*%
X187859971Y-79636857D02*
X187907590Y-79684476D01*
X187955209Y-79827333D01*
X187955209Y-79922571D01*
X187907590Y-80065428D01*
X187812352Y-80160666D01*
X187717114Y-80208285D01*
X187526638Y-80255904D01*
X187383781Y-80255904D01*
X187193305Y-80208285D01*
X187098067Y-80160666D01*
X187002829Y-80065428D01*
X186955209Y-79922571D01*
X186955209Y-79827333D01*
X187002829Y-79684476D01*
X187050448Y-79636857D01*
X187288543Y-78779714D02*
X187955209Y-78779714D01*
X186907590Y-79017809D02*
X187621876Y-79255904D01*
X187621876Y-78636857D01*
X187955209Y-77732095D02*
X187955209Y-78303523D01*
X187955209Y-78017809D02*
X186955209Y-78017809D01*
X187098067Y-78113047D01*
X187193305Y-78208285D01*
X187240924Y-78303523D01*
D11*
%TO.C,C12*%
X129532142Y-102084142D02*
X129484523Y-102131761D01*
X129341666Y-102179380D01*
X129246428Y-102179380D01*
X129103571Y-102131761D01*
X129008333Y-102036523D01*
X128960714Y-101941285D01*
X128913095Y-101750809D01*
X128913095Y-101607952D01*
X128960714Y-101417476D01*
X129008333Y-101322238D01*
X129103571Y-101227000D01*
X129246428Y-101179380D01*
X129341666Y-101179380D01*
X129484523Y-101227000D01*
X129532142Y-101274619D01*
X130484523Y-102179380D02*
X129913095Y-102179380D01*
X130198809Y-102179380D02*
X130198809Y-101179380D01*
X130103571Y-101322238D01*
X130008333Y-101417476D01*
X129913095Y-101465095D01*
X130865476Y-101274619D02*
X130913095Y-101227000D01*
X131008333Y-101179380D01*
X131246428Y-101179380D01*
X131341666Y-101227000D01*
X131389285Y-101274619D01*
X131436904Y-101369857D01*
X131436904Y-101465095D01*
X131389285Y-101607952D01*
X130817857Y-102179380D01*
X131436904Y-102179380D01*
%TO.C,R29*%
X169616380Y-97797857D02*
X169140190Y-98131190D01*
X169616380Y-98369285D02*
X168616380Y-98369285D01*
X168616380Y-97988333D01*
X168664000Y-97893095D01*
X168711619Y-97845476D01*
X168806857Y-97797857D01*
X168949714Y-97797857D01*
X169044952Y-97845476D01*
X169092571Y-97893095D01*
X169140190Y-97988333D01*
X169140190Y-98369285D01*
X168711619Y-97416904D02*
X168664000Y-97369285D01*
X168616380Y-97274047D01*
X168616380Y-97035952D01*
X168664000Y-96940714D01*
X168711619Y-96893095D01*
X168806857Y-96845476D01*
X168902095Y-96845476D01*
X169044952Y-96893095D01*
X169616380Y-97464523D01*
X169616380Y-96845476D01*
X169616380Y-96369285D02*
X169616380Y-96178809D01*
X169568761Y-96083571D01*
X169521142Y-96035952D01*
X169378285Y-95940714D01*
X169187809Y-95893095D01*
X168806857Y-95893095D01*
X168711619Y-95940714D01*
X168664000Y-95988333D01*
X168616380Y-96083571D01*
X168616380Y-96274047D01*
X168664000Y-96369285D01*
X168711619Y-96416904D01*
X168806857Y-96464523D01*
X169044952Y-96464523D01*
X169140190Y-96416904D01*
X169187809Y-96369285D01*
X169235428Y-96274047D01*
X169235428Y-96083571D01*
X169187809Y-95988333D01*
X169140190Y-95940714D01*
X169044952Y-95893095D01*
%TO.C,C24*%
X123293142Y-123451857D02*
X123340761Y-123499476D01*
X123388380Y-123642333D01*
X123388380Y-123737571D01*
X123340761Y-123880428D01*
X123245523Y-123975666D01*
X123150285Y-124023285D01*
X122959809Y-124070904D01*
X122816952Y-124070904D01*
X122626476Y-124023285D01*
X122531238Y-123975666D01*
X122436000Y-123880428D01*
X122388380Y-123737571D01*
X122388380Y-123642333D01*
X122436000Y-123499476D01*
X122483619Y-123451857D01*
X122483619Y-123070904D02*
X122436000Y-123023285D01*
X122388380Y-122928047D01*
X122388380Y-122689952D01*
X122436000Y-122594714D01*
X122483619Y-122547095D01*
X122578857Y-122499476D01*
X122674095Y-122499476D01*
X122816952Y-122547095D01*
X123388380Y-123118523D01*
X123388380Y-122499476D01*
X122721714Y-121642333D02*
X123388380Y-121642333D01*
X122340761Y-121880428D02*
X123055047Y-122118523D01*
X123055047Y-121499476D01*
%TO.C,C18*%
X120867142Y-143557886D02*
X120914761Y-143605505D01*
X120962380Y-143748362D01*
X120962380Y-143843600D01*
X120914761Y-143986457D01*
X120819523Y-144081695D01*
X120724285Y-144129314D01*
X120533809Y-144176933D01*
X120390952Y-144176933D01*
X120200476Y-144129314D01*
X120105238Y-144081695D01*
X120010000Y-143986457D01*
X119962380Y-143843600D01*
X119962380Y-143748362D01*
X120010000Y-143605505D01*
X120057619Y-143557886D01*
X120962380Y-142605505D02*
X120962380Y-143176933D01*
X120962380Y-142891219D02*
X119962380Y-142891219D01*
X120105238Y-142986457D01*
X120200476Y-143081695D01*
X120248095Y-143176933D01*
X120390952Y-142034076D02*
X120343333Y-142129314D01*
X120295714Y-142176933D01*
X120200476Y-142224552D01*
X120152857Y-142224552D01*
X120057619Y-142176933D01*
X120010000Y-142129314D01*
X119962380Y-142034076D01*
X119962380Y-141843600D01*
X120010000Y-141748362D01*
X120057619Y-141700743D01*
X120152857Y-141653124D01*
X120200476Y-141653124D01*
X120295714Y-141700743D01*
X120343333Y-141748362D01*
X120390952Y-141843600D01*
X120390952Y-142034076D01*
X120438571Y-142129314D01*
X120486190Y-142176933D01*
X120581428Y-142224552D01*
X120771904Y-142224552D01*
X120867142Y-142176933D01*
X120914761Y-142129314D01*
X120962380Y-142034076D01*
X120962380Y-141843600D01*
X120914761Y-141748362D01*
X120867142Y-141700743D01*
X120771904Y-141653124D01*
X120581428Y-141653124D01*
X120486190Y-141700743D01*
X120438571Y-141748362D01*
X120390952Y-141843600D01*
%TO.C,R19*%
X182033971Y-78721951D02*
X181700638Y-78245761D01*
X181462543Y-78721951D02*
X181462543Y-77721951D01*
X181843495Y-77721951D01*
X181938733Y-77769571D01*
X181986352Y-77817190D01*
X182033971Y-77912428D01*
X182033971Y-78055285D01*
X181986352Y-78150523D01*
X181938733Y-78198142D01*
X181843495Y-78245761D01*
X181462543Y-78245761D01*
X182986352Y-78721951D02*
X182414924Y-78721951D01*
X182700638Y-78721951D02*
X182700638Y-77721951D01*
X182605400Y-77864809D01*
X182510162Y-77960047D01*
X182414924Y-78007666D01*
X183462543Y-78721951D02*
X183653019Y-78721951D01*
X183748257Y-78674332D01*
X183795876Y-78626713D01*
X183891114Y-78483856D01*
X183938733Y-78293380D01*
X183938733Y-77912428D01*
X183891114Y-77817190D01*
X183843495Y-77769571D01*
X183748257Y-77721951D01*
X183557781Y-77721951D01*
X183462543Y-77769571D01*
X183414924Y-77817190D01*
X183367305Y-77912428D01*
X183367305Y-78150523D01*
X183414924Y-78245761D01*
X183462543Y-78293380D01*
X183557781Y-78340999D01*
X183748257Y-78340999D01*
X183843495Y-78293380D01*
X183891114Y-78245761D01*
X183938733Y-78150523D01*
%TO.C,C50*%
X162679142Y-117945142D02*
X162631523Y-117992761D01*
X162488666Y-118040380D01*
X162393428Y-118040380D01*
X162250571Y-117992761D01*
X162155333Y-117897523D01*
X162107714Y-117802285D01*
X162060095Y-117611809D01*
X162060095Y-117468952D01*
X162107714Y-117278476D01*
X162155333Y-117183238D01*
X162250571Y-117088000D01*
X162393428Y-117040380D01*
X162488666Y-117040380D01*
X162631523Y-117088000D01*
X162679142Y-117135619D01*
X163583904Y-117040380D02*
X163107714Y-117040380D01*
X163060095Y-117516571D01*
X163107714Y-117468952D01*
X163202952Y-117421333D01*
X163441047Y-117421333D01*
X163536285Y-117468952D01*
X163583904Y-117516571D01*
X163631523Y-117611809D01*
X163631523Y-117849904D01*
X163583904Y-117945142D01*
X163536285Y-117992761D01*
X163441047Y-118040380D01*
X163202952Y-118040380D01*
X163107714Y-117992761D01*
X163060095Y-117945142D01*
X164250571Y-117040380D02*
X164345809Y-117040380D01*
X164441047Y-117088000D01*
X164488666Y-117135619D01*
X164536285Y-117230857D01*
X164583904Y-117421333D01*
X164583904Y-117659428D01*
X164536285Y-117849904D01*
X164488666Y-117945142D01*
X164441047Y-117992761D01*
X164345809Y-118040380D01*
X164250571Y-118040380D01*
X164155333Y-117992761D01*
X164107714Y-117945142D01*
X164060095Y-117849904D01*
X164012476Y-117659428D01*
X164012476Y-117421333D01*
X164060095Y-117230857D01*
X164107714Y-117135619D01*
X164155333Y-117088000D01*
X164250571Y-117040380D01*
%TO.C,U6*%
X166304980Y-94868904D02*
X167114504Y-94868904D01*
X167209742Y-94821285D01*
X167257361Y-94773666D01*
X167304980Y-94678428D01*
X167304980Y-94487952D01*
X167257361Y-94392714D01*
X167209742Y-94345095D01*
X167114504Y-94297476D01*
X166304980Y-94297476D01*
X166304980Y-93392714D02*
X166304980Y-93583190D01*
X166352600Y-93678428D01*
X166400219Y-93726047D01*
X166543076Y-93821285D01*
X166733552Y-93868904D01*
X167114504Y-93868904D01*
X167209742Y-93821285D01*
X167257361Y-93773666D01*
X167304980Y-93678428D01*
X167304980Y-93487952D01*
X167257361Y-93392714D01*
X167209742Y-93345095D01*
X167114504Y-93297476D01*
X166876409Y-93297476D01*
X166781171Y-93345095D01*
X166733552Y-93392714D01*
X166685933Y-93487952D01*
X166685933Y-93678428D01*
X166733552Y-93773666D01*
X166781171Y-93821285D01*
X166876409Y-93868904D01*
D10*
%TO.C,C34*%
X132374321Y-133204857D02*
X132410607Y-133241142D01*
X132446893Y-133350000D01*
X132446893Y-133422571D01*
X132410607Y-133531428D01*
X132338036Y-133604000D01*
X132265464Y-133640285D01*
X132120321Y-133676571D01*
X132011464Y-133676571D01*
X131866321Y-133640285D01*
X131793750Y-133604000D01*
X131721179Y-133531428D01*
X131684893Y-133422571D01*
X131684893Y-133350000D01*
X131721179Y-133241142D01*
X131757464Y-133204857D01*
X131684893Y-132950857D02*
X131684893Y-132479142D01*
X131975179Y-132733142D01*
X131975179Y-132624285D01*
X132011464Y-132551714D01*
X132047750Y-132515428D01*
X132120321Y-132479142D01*
X132301750Y-132479142D01*
X132374321Y-132515428D01*
X132410607Y-132551714D01*
X132446893Y-132624285D01*
X132446893Y-132842000D01*
X132410607Y-132914571D01*
X132374321Y-132950857D01*
X131938893Y-131826000D02*
X132446893Y-131826000D01*
X131648607Y-132007428D02*
X132192893Y-132188857D01*
X132192893Y-131717142D01*
D11*
%TO.C,R3*%
X109672333Y-60047380D02*
X109339000Y-59571190D01*
X109100904Y-60047380D02*
X109100904Y-59047380D01*
X109481857Y-59047380D01*
X109577095Y-59095000D01*
X109624714Y-59142619D01*
X109672333Y-59237857D01*
X109672333Y-59380714D01*
X109624714Y-59475952D01*
X109577095Y-59523571D01*
X109481857Y-59571190D01*
X109100904Y-59571190D01*
X110005666Y-59047380D02*
X110624714Y-59047380D01*
X110291380Y-59428333D01*
X110434238Y-59428333D01*
X110529476Y-59475952D01*
X110577095Y-59523571D01*
X110624714Y-59618809D01*
X110624714Y-59856904D01*
X110577095Y-59952142D01*
X110529476Y-59999761D01*
X110434238Y-60047380D01*
X110148523Y-60047380D01*
X110053285Y-59999761D01*
X110005666Y-59952142D01*
%TO.C,L15*%
X162123380Y-127896857D02*
X162123380Y-128373047D01*
X161123380Y-128373047D01*
X162123380Y-127039714D02*
X162123380Y-127611142D01*
X162123380Y-127325428D02*
X161123380Y-127325428D01*
X161266238Y-127420666D01*
X161361476Y-127515904D01*
X161409095Y-127611142D01*
X161123380Y-126134952D02*
X161123380Y-126611142D01*
X161599571Y-126658761D01*
X161551952Y-126611142D01*
X161504333Y-126515904D01*
X161504333Y-126277809D01*
X161551952Y-126182571D01*
X161599571Y-126134952D01*
X161694809Y-126087333D01*
X161932904Y-126087333D01*
X162028142Y-126134952D01*
X162075761Y-126182571D01*
X162123380Y-126277809D01*
X162123380Y-126515904D01*
X162075761Y-126611142D01*
X162028142Y-126658761D01*
%TO.C,H7*%
X182880095Y-114900380D02*
X182880095Y-113900380D01*
X182880095Y-114376571D02*
X183451523Y-114376571D01*
X183451523Y-114900380D02*
X183451523Y-113900380D01*
X183832476Y-113900380D02*
X184499142Y-113900380D01*
X184070571Y-114900380D01*
%TO.C,R36*%
X125595142Y-79479380D02*
X125261809Y-79003190D01*
X125023714Y-79479380D02*
X125023714Y-78479380D01*
X125404666Y-78479380D01*
X125499904Y-78527000D01*
X125547523Y-78574619D01*
X125595142Y-78669857D01*
X125595142Y-78812714D01*
X125547523Y-78907952D01*
X125499904Y-78955571D01*
X125404666Y-79003190D01*
X125023714Y-79003190D01*
X125928476Y-78479380D02*
X126547523Y-78479380D01*
X126214190Y-78860333D01*
X126357047Y-78860333D01*
X126452285Y-78907952D01*
X126499904Y-78955571D01*
X126547523Y-79050809D01*
X126547523Y-79288904D01*
X126499904Y-79384142D01*
X126452285Y-79431761D01*
X126357047Y-79479380D01*
X126071333Y-79479380D01*
X125976095Y-79431761D01*
X125928476Y-79384142D01*
X127404666Y-78479380D02*
X127214190Y-78479380D01*
X127118952Y-78527000D01*
X127071333Y-78574619D01*
X126976095Y-78717476D01*
X126928476Y-78907952D01*
X126928476Y-79288904D01*
X126976095Y-79384142D01*
X127023714Y-79431761D01*
X127118952Y-79479380D01*
X127309428Y-79479380D01*
X127404666Y-79431761D01*
X127452285Y-79384142D01*
X127499904Y-79288904D01*
X127499904Y-79050809D01*
X127452285Y-78955571D01*
X127404666Y-78907952D01*
X127309428Y-78860333D01*
X127118952Y-78860333D01*
X127023714Y-78907952D01*
X126976095Y-78955571D01*
X126928476Y-79050809D01*
%TO.C,C39*%
X168267142Y-73128142D02*
X168219523Y-73175761D01*
X168076666Y-73223380D01*
X167981428Y-73223380D01*
X167838571Y-73175761D01*
X167743333Y-73080523D01*
X167695714Y-72985285D01*
X167648095Y-72794809D01*
X167648095Y-72651952D01*
X167695714Y-72461476D01*
X167743333Y-72366238D01*
X167838571Y-72271000D01*
X167981428Y-72223380D01*
X168076666Y-72223380D01*
X168219523Y-72271000D01*
X168267142Y-72318619D01*
X168600476Y-72223380D02*
X169219523Y-72223380D01*
X168886190Y-72604333D01*
X169029047Y-72604333D01*
X169124285Y-72651952D01*
X169171904Y-72699571D01*
X169219523Y-72794809D01*
X169219523Y-73032904D01*
X169171904Y-73128142D01*
X169124285Y-73175761D01*
X169029047Y-73223380D01*
X168743333Y-73223380D01*
X168648095Y-73175761D01*
X168600476Y-73128142D01*
X169695714Y-73223380D02*
X169886190Y-73223380D01*
X169981428Y-73175761D01*
X170029047Y-73128142D01*
X170124285Y-72985285D01*
X170171904Y-72794809D01*
X170171904Y-72413857D01*
X170124285Y-72318619D01*
X170076666Y-72271000D01*
X169981428Y-72223380D01*
X169790952Y-72223380D01*
X169695714Y-72271000D01*
X169648095Y-72318619D01*
X169600476Y-72413857D01*
X169600476Y-72651952D01*
X169648095Y-72747190D01*
X169695714Y-72794809D01*
X169790952Y-72842428D01*
X169981428Y-72842428D01*
X170076666Y-72794809D01*
X170124285Y-72747190D01*
X170171904Y-72651952D01*
%TO.C,C44*%
X180459142Y-90146142D02*
X180411523Y-90193761D01*
X180268666Y-90241380D01*
X180173428Y-90241380D01*
X180030571Y-90193761D01*
X179935333Y-90098523D01*
X179887714Y-90003285D01*
X179840095Y-89812809D01*
X179840095Y-89669952D01*
X179887714Y-89479476D01*
X179935333Y-89384238D01*
X180030571Y-89289000D01*
X180173428Y-89241380D01*
X180268666Y-89241380D01*
X180411523Y-89289000D01*
X180459142Y-89336619D01*
X181316285Y-89574714D02*
X181316285Y-90241380D01*
X181078190Y-89193761D02*
X180840095Y-89908047D01*
X181459142Y-89908047D01*
X182268666Y-89574714D02*
X182268666Y-90241380D01*
X182030571Y-89193761D02*
X181792476Y-89908047D01*
X182411523Y-89908047D01*
%TO.C,C13*%
X146550142Y-100306142D02*
X146502523Y-100353761D01*
X146359666Y-100401380D01*
X146264428Y-100401380D01*
X146121571Y-100353761D01*
X146026333Y-100258523D01*
X145978714Y-100163285D01*
X145931095Y-99972809D01*
X145931095Y-99829952D01*
X145978714Y-99639476D01*
X146026333Y-99544238D01*
X146121571Y-99449000D01*
X146264428Y-99401380D01*
X146359666Y-99401380D01*
X146502523Y-99449000D01*
X146550142Y-99496619D01*
X147502523Y-100401380D02*
X146931095Y-100401380D01*
X147216809Y-100401380D02*
X147216809Y-99401380D01*
X147121571Y-99544238D01*
X147026333Y-99639476D01*
X146931095Y-99687095D01*
X147835857Y-99401380D02*
X148454904Y-99401380D01*
X148121571Y-99782333D01*
X148264428Y-99782333D01*
X148359666Y-99829952D01*
X148407285Y-99877571D01*
X148454904Y-99972809D01*
X148454904Y-100210904D01*
X148407285Y-100306142D01*
X148359666Y-100353761D01*
X148264428Y-100401380D01*
X147978714Y-100401380D01*
X147883476Y-100353761D01*
X147835857Y-100306142D01*
D10*
%TO.C,L7*%
X126365000Y-132424714D02*
X126002142Y-132424714D01*
X126002142Y-131662714D01*
X126546428Y-131662714D02*
X127054428Y-131662714D01*
X126727857Y-132424714D01*
D11*
%TO.C,C65*%
X182475142Y-104401857D02*
X182522761Y-104449476D01*
X182570380Y-104592333D01*
X182570380Y-104687571D01*
X182522761Y-104830428D01*
X182427523Y-104925666D01*
X182332285Y-104973285D01*
X182141809Y-105020904D01*
X181998952Y-105020904D01*
X181808476Y-104973285D01*
X181713238Y-104925666D01*
X181618000Y-104830428D01*
X181570380Y-104687571D01*
X181570380Y-104592333D01*
X181618000Y-104449476D01*
X181665619Y-104401857D01*
X181570380Y-103544714D02*
X181570380Y-103735190D01*
X181618000Y-103830428D01*
X181665619Y-103878047D01*
X181808476Y-103973285D01*
X181998952Y-104020904D01*
X182379904Y-104020904D01*
X182475142Y-103973285D01*
X182522761Y-103925666D01*
X182570380Y-103830428D01*
X182570380Y-103639952D01*
X182522761Y-103544714D01*
X182475142Y-103497095D01*
X182379904Y-103449476D01*
X182141809Y-103449476D01*
X182046571Y-103497095D01*
X181998952Y-103544714D01*
X181951333Y-103639952D01*
X181951333Y-103830428D01*
X181998952Y-103925666D01*
X182046571Y-103973285D01*
X182141809Y-104020904D01*
X181570380Y-102544714D02*
X181570380Y-103020904D01*
X182046571Y-103068523D01*
X181998952Y-103020904D01*
X181951333Y-102925666D01*
X181951333Y-102687571D01*
X181998952Y-102592333D01*
X182046571Y-102544714D01*
X182141809Y-102497095D01*
X182379904Y-102497095D01*
X182475142Y-102544714D01*
X182522761Y-102592333D01*
X182570380Y-102687571D01*
X182570380Y-102925666D01*
X182522761Y-103020904D01*
X182475142Y-103068523D01*
%TO.C,C37*%
X135231142Y-125102857D02*
X135278761Y-125150476D01*
X135326380Y-125293333D01*
X135326380Y-125388571D01*
X135278761Y-125531428D01*
X135183523Y-125626666D01*
X135088285Y-125674285D01*
X134897809Y-125721904D01*
X134754952Y-125721904D01*
X134564476Y-125674285D01*
X134469238Y-125626666D01*
X134374000Y-125531428D01*
X134326380Y-125388571D01*
X134326380Y-125293333D01*
X134374000Y-125150476D01*
X134421619Y-125102857D01*
X134326380Y-124769523D02*
X134326380Y-124150476D01*
X134707333Y-124483809D01*
X134707333Y-124340952D01*
X134754952Y-124245714D01*
X134802571Y-124198095D01*
X134897809Y-124150476D01*
X135135904Y-124150476D01*
X135231142Y-124198095D01*
X135278761Y-124245714D01*
X135326380Y-124340952D01*
X135326380Y-124626666D01*
X135278761Y-124721904D01*
X135231142Y-124769523D01*
X134326380Y-123817142D02*
X134326380Y-123150476D01*
X135326380Y-123579047D01*
%TO.C,C54*%
X171823142Y-126976142D02*
X171775523Y-127023761D01*
X171632666Y-127071380D01*
X171537428Y-127071380D01*
X171394571Y-127023761D01*
X171299333Y-126928523D01*
X171251714Y-126833285D01*
X171204095Y-126642809D01*
X171204095Y-126499952D01*
X171251714Y-126309476D01*
X171299333Y-126214238D01*
X171394571Y-126119000D01*
X171537428Y-126071380D01*
X171632666Y-126071380D01*
X171775523Y-126119000D01*
X171823142Y-126166619D01*
X172727904Y-126071380D02*
X172251714Y-126071380D01*
X172204095Y-126547571D01*
X172251714Y-126499952D01*
X172346952Y-126452333D01*
X172585047Y-126452333D01*
X172680285Y-126499952D01*
X172727904Y-126547571D01*
X172775523Y-126642809D01*
X172775523Y-126880904D01*
X172727904Y-126976142D01*
X172680285Y-127023761D01*
X172585047Y-127071380D01*
X172346952Y-127071380D01*
X172251714Y-127023761D01*
X172204095Y-126976142D01*
X173632666Y-126404714D02*
X173632666Y-127071380D01*
X173394571Y-126023761D02*
X173156476Y-126738047D01*
X173775523Y-126738047D01*
%TO.C,U9*%
X146876866Y-80715609D02*
X146876866Y-81525133D01*
X146924485Y-81620371D01*
X146972104Y-81667990D01*
X147067342Y-81715609D01*
X147257818Y-81715609D01*
X147353056Y-81667990D01*
X147400675Y-81620371D01*
X147448294Y-81525133D01*
X147448294Y-80715609D01*
X147972104Y-81715609D02*
X148162580Y-81715609D01*
X148257818Y-81667990D01*
X148305437Y-81620371D01*
X148400675Y-81477514D01*
X148448294Y-81287038D01*
X148448294Y-80906086D01*
X148400675Y-80810848D01*
X148353056Y-80763229D01*
X148257818Y-80715609D01*
X148067342Y-80715609D01*
X147972104Y-80763229D01*
X147924485Y-80810848D01*
X147876866Y-80906086D01*
X147876866Y-81144181D01*
X147924485Y-81239419D01*
X147972104Y-81287038D01*
X148067342Y-81334657D01*
X148257818Y-81334657D01*
X148353056Y-81287038D01*
X148400675Y-81239419D01*
X148448294Y-81144181D01*
%TO.C,R11*%
X150726380Y-107576857D02*
X150250190Y-107910190D01*
X150726380Y-108148285D02*
X149726380Y-108148285D01*
X149726380Y-107767333D01*
X149774000Y-107672095D01*
X149821619Y-107624476D01*
X149916857Y-107576857D01*
X150059714Y-107576857D01*
X150154952Y-107624476D01*
X150202571Y-107672095D01*
X150250190Y-107767333D01*
X150250190Y-108148285D01*
X150726380Y-106624476D02*
X150726380Y-107195904D01*
X150726380Y-106910190D02*
X149726380Y-106910190D01*
X149869238Y-107005428D01*
X149964476Y-107100666D01*
X150012095Y-107195904D01*
X150726380Y-105672095D02*
X150726380Y-106243523D01*
X150726380Y-105957809D02*
X149726380Y-105957809D01*
X149869238Y-106053047D01*
X149964476Y-106148285D01*
X150012095Y-106243523D01*
%TO.C,C45*%
X163822142Y-90908142D02*
X163774523Y-90955761D01*
X163631666Y-91003380D01*
X163536428Y-91003380D01*
X163393571Y-90955761D01*
X163298333Y-90860523D01*
X163250714Y-90765285D01*
X163203095Y-90574809D01*
X163203095Y-90431952D01*
X163250714Y-90241476D01*
X163298333Y-90146238D01*
X163393571Y-90051000D01*
X163536428Y-90003380D01*
X163631666Y-90003380D01*
X163774523Y-90051000D01*
X163822142Y-90098619D01*
X164679285Y-90336714D02*
X164679285Y-91003380D01*
X164441190Y-89955761D02*
X164203095Y-90670047D01*
X164822142Y-90670047D01*
X165679285Y-90003380D02*
X165203095Y-90003380D01*
X165155476Y-90479571D01*
X165203095Y-90431952D01*
X165298333Y-90384333D01*
X165536428Y-90384333D01*
X165631666Y-90431952D01*
X165679285Y-90479571D01*
X165726904Y-90574809D01*
X165726904Y-90812904D01*
X165679285Y-90908142D01*
X165631666Y-90955761D01*
X165536428Y-91003380D01*
X165298333Y-91003380D01*
X165203095Y-90955761D01*
X165155476Y-90908142D01*
%TO.C,S3*%
X147020202Y-135023596D02*
X147163059Y-135071215D01*
X147401154Y-135071215D01*
X147496392Y-135023596D01*
X147544011Y-134975977D01*
X147591630Y-134880739D01*
X147591630Y-134785501D01*
X147544011Y-134690263D01*
X147496392Y-134642644D01*
X147401154Y-134595025D01*
X147210678Y-134547406D01*
X147115440Y-134499787D01*
X147067821Y-134452168D01*
X147020202Y-134356930D01*
X147020202Y-134261692D01*
X147067821Y-134166454D01*
X147115440Y-134118835D01*
X147210678Y-134071215D01*
X147448773Y-134071215D01*
X147591630Y-134118835D01*
X147924964Y-134071215D02*
X148544011Y-134071215D01*
X148210678Y-134452168D01*
X148353535Y-134452168D01*
X148448773Y-134499787D01*
X148496392Y-134547406D01*
X148544011Y-134642644D01*
X148544011Y-134880739D01*
X148496392Y-134975977D01*
X148448773Y-135023596D01*
X148353535Y-135071215D01*
X148067821Y-135071215D01*
X147972583Y-135023596D01*
X147924964Y-134975977D01*
%TO.C,C7*%
X131405333Y-95734142D02*
X131357714Y-95781761D01*
X131214857Y-95829380D01*
X131119619Y-95829380D01*
X130976761Y-95781761D01*
X130881523Y-95686523D01*
X130833904Y-95591285D01*
X130786285Y-95400809D01*
X130786285Y-95257952D01*
X130833904Y-95067476D01*
X130881523Y-94972238D01*
X130976761Y-94877000D01*
X131119619Y-94829380D01*
X131214857Y-94829380D01*
X131357714Y-94877000D01*
X131405333Y-94924619D01*
X131738666Y-94829380D02*
X132405333Y-94829380D01*
X131976761Y-95829380D01*
%TO.C,L12*%
X170505380Y-77096857D02*
X170505380Y-77573047D01*
X169505380Y-77573047D01*
X170505380Y-76239714D02*
X170505380Y-76811142D01*
X170505380Y-76525428D02*
X169505380Y-76525428D01*
X169648238Y-76620666D01*
X169743476Y-76715904D01*
X169791095Y-76811142D01*
X169600619Y-75858761D02*
X169553000Y-75811142D01*
X169505380Y-75715904D01*
X169505380Y-75477809D01*
X169553000Y-75382571D01*
X169600619Y-75334952D01*
X169695857Y-75287333D01*
X169791095Y-75287333D01*
X169933952Y-75334952D01*
X170505380Y-75906380D01*
X170505380Y-75287333D01*
%TO.C,TP7*%
X112403095Y-94016380D02*
X112974523Y-94016380D01*
X112688809Y-95016380D02*
X112688809Y-94016380D01*
X113307857Y-95016380D02*
X113307857Y-94016380D01*
X113688809Y-94016380D01*
X113784047Y-94064000D01*
X113831666Y-94111619D01*
X113879285Y-94206857D01*
X113879285Y-94349714D01*
X113831666Y-94444952D01*
X113784047Y-94492571D01*
X113688809Y-94540190D01*
X113307857Y-94540190D01*
X114212619Y-94016380D02*
X114879285Y-94016380D01*
X114450714Y-95016380D01*
%TO.C,L8*%
X126833333Y-125674380D02*
X126357142Y-125674380D01*
X126357142Y-124674380D01*
X127309523Y-125102952D02*
X127214285Y-125055333D01*
X127166666Y-125007714D01*
X127119047Y-124912476D01*
X127119047Y-124864857D01*
X127166666Y-124769619D01*
X127214285Y-124722000D01*
X127309523Y-124674380D01*
X127500000Y-124674380D01*
X127595238Y-124722000D01*
X127642857Y-124769619D01*
X127690476Y-124864857D01*
X127690476Y-124912476D01*
X127642857Y-125007714D01*
X127595238Y-125055333D01*
X127500000Y-125102952D01*
X127309523Y-125102952D01*
X127214285Y-125150571D01*
X127166666Y-125198190D01*
X127119047Y-125293428D01*
X127119047Y-125483904D01*
X127166666Y-125579142D01*
X127214285Y-125626761D01*
X127309523Y-125674380D01*
X127500000Y-125674380D01*
X127595238Y-125626761D01*
X127642857Y-125579142D01*
X127690476Y-125483904D01*
X127690476Y-125293428D01*
X127642857Y-125198190D01*
X127595238Y-125150571D01*
X127500000Y-125102952D01*
%TO.C,C22*%
X109492142Y-133585857D02*
X109528428Y-133622142D01*
X109564714Y-133731000D01*
X109564714Y-133803571D01*
X109528428Y-133912428D01*
X109455857Y-133985000D01*
X109383285Y-134021285D01*
X109238142Y-134057571D01*
X109129285Y-134057571D01*
X108984142Y-134021285D01*
X108911571Y-133985000D01*
X108839000Y-133912428D01*
X108802714Y-133803571D01*
X108802714Y-133731000D01*
X108839000Y-133622142D01*
X108875285Y-133585857D01*
X108875285Y-133295571D02*
X108839000Y-133259285D01*
X108802714Y-133186714D01*
X108802714Y-133005285D01*
X108839000Y-132932714D01*
X108875285Y-132896428D01*
X108947857Y-132860142D01*
X109020428Y-132860142D01*
X109129285Y-132896428D01*
X109564714Y-133331857D01*
X109564714Y-132860142D01*
X108875285Y-132569857D02*
X108839000Y-132533571D01*
X108802714Y-132461000D01*
X108802714Y-132279571D01*
X108839000Y-132207000D01*
X108875285Y-132170714D01*
X108947857Y-132134428D01*
X109020428Y-132134428D01*
X109129285Y-132170714D01*
X109564714Y-132606142D01*
X109564714Y-132134428D01*
%TO.C,R2*%
X115022333Y-145867380D02*
X114689000Y-145391190D01*
X114450904Y-145867380D02*
X114450904Y-144867380D01*
X114831857Y-144867380D01*
X114927095Y-144915000D01*
X114974714Y-144962619D01*
X115022333Y-145057857D01*
X115022333Y-145200714D01*
X114974714Y-145295952D01*
X114927095Y-145343571D01*
X114831857Y-145391190D01*
X114450904Y-145391190D01*
X115403285Y-144962619D02*
X115450904Y-144915000D01*
X115546142Y-144867380D01*
X115784238Y-144867380D01*
X115879476Y-144915000D01*
X115927095Y-144962619D01*
X115974714Y-145057857D01*
X115974714Y-145153095D01*
X115927095Y-145295952D01*
X115355666Y-145867380D01*
X115974714Y-145867380D01*
%TO.C,J2*%
X190531666Y-128113380D02*
X190531666Y-128827666D01*
X190484047Y-128970523D01*
X190388809Y-129065761D01*
X190245952Y-129113380D01*
X190150714Y-129113380D01*
X190960238Y-128208619D02*
X191007857Y-128161000D01*
X191103095Y-128113380D01*
X191341190Y-128113380D01*
X191436428Y-128161000D01*
X191484047Y-128208619D01*
X191531666Y-128303857D01*
X191531666Y-128399095D01*
X191484047Y-128541952D01*
X190912619Y-129113380D01*
X191531666Y-129113380D01*
%TO.C,U10*%
X130267804Y-80805380D02*
X130267804Y-81614904D01*
X130315423Y-81710142D01*
X130363042Y-81757761D01*
X130458280Y-81805380D01*
X130648757Y-81805380D01*
X130743995Y-81757761D01*
X130791614Y-81710142D01*
X130839233Y-81614904D01*
X130839233Y-80805380D01*
X131839233Y-81805380D02*
X131267804Y-81805380D01*
X131553519Y-81805380D02*
X131553519Y-80805380D01*
X131458280Y-80948238D01*
X131363042Y-81043476D01*
X131267804Y-81091095D01*
X132458280Y-80805380D02*
X132553519Y-80805380D01*
X132648757Y-80853000D01*
X132696376Y-80900619D01*
X132743995Y-80995857D01*
X132791614Y-81186333D01*
X132791614Y-81424428D01*
X132743995Y-81614904D01*
X132696376Y-81710142D01*
X132648757Y-81757761D01*
X132553519Y-81805380D01*
X132458280Y-81805380D01*
X132363042Y-81757761D01*
X132315423Y-81710142D01*
X132267804Y-81614904D01*
X132220185Y-81424428D01*
X132220185Y-81186333D01*
X132267804Y-80995857D01*
X132315423Y-80900619D01*
X132363042Y-80853000D01*
X132458280Y-80805380D01*
%TO.C,R34*%
X138803142Y-77922380D02*
X138469809Y-77446190D01*
X138231714Y-77922380D02*
X138231714Y-76922380D01*
X138612666Y-76922380D01*
X138707904Y-76970000D01*
X138755523Y-77017619D01*
X138803142Y-77112857D01*
X138803142Y-77255714D01*
X138755523Y-77350952D01*
X138707904Y-77398571D01*
X138612666Y-77446190D01*
X138231714Y-77446190D01*
X139136476Y-76922380D02*
X139755523Y-76922380D01*
X139422190Y-77303333D01*
X139565047Y-77303333D01*
X139660285Y-77350952D01*
X139707904Y-77398571D01*
X139755523Y-77493809D01*
X139755523Y-77731904D01*
X139707904Y-77827142D01*
X139660285Y-77874761D01*
X139565047Y-77922380D01*
X139279333Y-77922380D01*
X139184095Y-77874761D01*
X139136476Y-77827142D01*
X140612666Y-77255714D02*
X140612666Y-77922380D01*
X140374571Y-76874761D02*
X140136476Y-77589047D01*
X140755523Y-77589047D01*
D10*
%TO.C,C20*%
X126891142Y-135908142D02*
X126854857Y-135944428D01*
X126746000Y-135980714D01*
X126673428Y-135980714D01*
X126564571Y-135944428D01*
X126492000Y-135871857D01*
X126455714Y-135799285D01*
X126419428Y-135654142D01*
X126419428Y-135545285D01*
X126455714Y-135400142D01*
X126492000Y-135327571D01*
X126564571Y-135255000D01*
X126673428Y-135218714D01*
X126746000Y-135218714D01*
X126854857Y-135255000D01*
X126891142Y-135291285D01*
X127181428Y-135291285D02*
X127217714Y-135255000D01*
X127290285Y-135218714D01*
X127471714Y-135218714D01*
X127544285Y-135255000D01*
X127580571Y-135291285D01*
X127616857Y-135363857D01*
X127616857Y-135436428D01*
X127580571Y-135545285D01*
X127145142Y-135980714D01*
X127616857Y-135980714D01*
X128088571Y-135218714D02*
X128161142Y-135218714D01*
X128233714Y-135255000D01*
X128270000Y-135291285D01*
X128306285Y-135363857D01*
X128342571Y-135509000D01*
X128342571Y-135690428D01*
X128306285Y-135835571D01*
X128270000Y-135908142D01*
X128233714Y-135944428D01*
X128161142Y-135980714D01*
X128088571Y-135980714D01*
X128016000Y-135944428D01*
X127979714Y-135908142D01*
X127943428Y-135835571D01*
X127907142Y-135690428D01*
X127907142Y-135509000D01*
X127943428Y-135363857D01*
X127979714Y-135291285D01*
X128016000Y-135255000D01*
X128088571Y-135218714D01*
D11*
%TO.C,R27*%
X174112380Y-96567857D02*
X173636190Y-96901190D01*
X174112380Y-97139285D02*
X173112380Y-97139285D01*
X173112380Y-96758333D01*
X173160000Y-96663095D01*
X173207619Y-96615476D01*
X173302857Y-96567857D01*
X173445714Y-96567857D01*
X173540952Y-96615476D01*
X173588571Y-96663095D01*
X173636190Y-96758333D01*
X173636190Y-97139285D01*
X173207619Y-96186904D02*
X173160000Y-96139285D01*
X173112380Y-96044047D01*
X173112380Y-95805952D01*
X173160000Y-95710714D01*
X173207619Y-95663095D01*
X173302857Y-95615476D01*
X173398095Y-95615476D01*
X173540952Y-95663095D01*
X174112380Y-96234523D01*
X174112380Y-95615476D01*
X173112380Y-95282142D02*
X173112380Y-94615476D01*
X174112380Y-95044047D01*
%TO.C,C2*%
X140692142Y-97194666D02*
X140739761Y-97242285D01*
X140787380Y-97385142D01*
X140787380Y-97480380D01*
X140739761Y-97623238D01*
X140644523Y-97718476D01*
X140549285Y-97766095D01*
X140358809Y-97813714D01*
X140215952Y-97813714D01*
X140025476Y-97766095D01*
X139930238Y-97718476D01*
X139835000Y-97623238D01*
X139787380Y-97480380D01*
X139787380Y-97385142D01*
X139835000Y-97242285D01*
X139882619Y-97194666D01*
X139882619Y-96813714D02*
X139835000Y-96766095D01*
X139787380Y-96670857D01*
X139787380Y-96432761D01*
X139835000Y-96337523D01*
X139882619Y-96289904D01*
X139977857Y-96242285D01*
X140073095Y-96242285D01*
X140215952Y-96289904D01*
X140787380Y-96861333D01*
X140787380Y-96242285D01*
%TO.C,R8*%
X132421333Y-98623380D02*
X132088000Y-98147190D01*
X131849904Y-98623380D02*
X131849904Y-97623380D01*
X132230857Y-97623380D01*
X132326095Y-97671000D01*
X132373714Y-97718619D01*
X132421333Y-97813857D01*
X132421333Y-97956714D01*
X132373714Y-98051952D01*
X132326095Y-98099571D01*
X132230857Y-98147190D01*
X131849904Y-98147190D01*
X132992761Y-98051952D02*
X132897523Y-98004333D01*
X132849904Y-97956714D01*
X132802285Y-97861476D01*
X132802285Y-97813857D01*
X132849904Y-97718619D01*
X132897523Y-97671000D01*
X132992761Y-97623380D01*
X133183238Y-97623380D01*
X133278476Y-97671000D01*
X133326095Y-97718619D01*
X133373714Y-97813857D01*
X133373714Y-97861476D01*
X133326095Y-97956714D01*
X133278476Y-98004333D01*
X133183238Y-98051952D01*
X132992761Y-98051952D01*
X132897523Y-98099571D01*
X132849904Y-98147190D01*
X132802285Y-98242428D01*
X132802285Y-98432904D01*
X132849904Y-98528142D01*
X132897523Y-98575761D01*
X132992761Y-98623380D01*
X133183238Y-98623380D01*
X133278476Y-98575761D01*
X133326095Y-98528142D01*
X133373714Y-98432904D01*
X133373714Y-98242428D01*
X133326095Y-98147190D01*
X133278476Y-98099571D01*
X133183238Y-98051952D01*
%TO.C,C1*%
X112470533Y-109069142D02*
X112422914Y-109116761D01*
X112280057Y-109164380D01*
X112184819Y-109164380D01*
X112041961Y-109116761D01*
X111946723Y-109021523D01*
X111899104Y-108926285D01*
X111851485Y-108735809D01*
X111851485Y-108592952D01*
X111899104Y-108402476D01*
X111946723Y-108307238D01*
X112041961Y-108212000D01*
X112184819Y-108164380D01*
X112280057Y-108164380D01*
X112422914Y-108212000D01*
X112470533Y-108259619D01*
X113422914Y-109164380D02*
X112851485Y-109164380D01*
X113137200Y-109164380D02*
X113137200Y-108164380D01*
X113041961Y-108307238D01*
X112946723Y-108402476D01*
X112851485Y-108450095D01*
%TO.C,C32*%
X129389142Y-123451857D02*
X129436761Y-123499476D01*
X129484380Y-123642333D01*
X129484380Y-123737571D01*
X129436761Y-123880428D01*
X129341523Y-123975666D01*
X129246285Y-124023285D01*
X129055809Y-124070904D01*
X128912952Y-124070904D01*
X128722476Y-124023285D01*
X128627238Y-123975666D01*
X128532000Y-123880428D01*
X128484380Y-123737571D01*
X128484380Y-123642333D01*
X128532000Y-123499476D01*
X128579619Y-123451857D01*
X128484380Y-123118523D02*
X128484380Y-122499476D01*
X128865333Y-122832809D01*
X128865333Y-122689952D01*
X128912952Y-122594714D01*
X128960571Y-122547095D01*
X129055809Y-122499476D01*
X129293904Y-122499476D01*
X129389142Y-122547095D01*
X129436761Y-122594714D01*
X129484380Y-122689952D01*
X129484380Y-122975666D01*
X129436761Y-123070904D01*
X129389142Y-123118523D01*
X128579619Y-122118523D02*
X128532000Y-122070904D01*
X128484380Y-121975666D01*
X128484380Y-121737571D01*
X128532000Y-121642333D01*
X128579619Y-121594714D01*
X128674857Y-121547095D01*
X128770095Y-121547095D01*
X128912952Y-121594714D01*
X129484380Y-122166142D01*
X129484380Y-121547095D01*
%TO.C,C36*%
X131945142Y-124292142D02*
X131897523Y-124339761D01*
X131754666Y-124387380D01*
X131659428Y-124387380D01*
X131516571Y-124339761D01*
X131421333Y-124244523D01*
X131373714Y-124149285D01*
X131326095Y-123958809D01*
X131326095Y-123815952D01*
X131373714Y-123625476D01*
X131421333Y-123530238D01*
X131516571Y-123435000D01*
X131659428Y-123387380D01*
X131754666Y-123387380D01*
X131897523Y-123435000D01*
X131945142Y-123482619D01*
X132278476Y-123387380D02*
X132897523Y-123387380D01*
X132564190Y-123768333D01*
X132707047Y-123768333D01*
X132802285Y-123815952D01*
X132849904Y-123863571D01*
X132897523Y-123958809D01*
X132897523Y-124196904D01*
X132849904Y-124292142D01*
X132802285Y-124339761D01*
X132707047Y-124387380D01*
X132421333Y-124387380D01*
X132326095Y-124339761D01*
X132278476Y-124292142D01*
X133754666Y-123387380D02*
X133564190Y-123387380D01*
X133468952Y-123435000D01*
X133421333Y-123482619D01*
X133326095Y-123625476D01*
X133278476Y-123815952D01*
X133278476Y-124196904D01*
X133326095Y-124292142D01*
X133373714Y-124339761D01*
X133468952Y-124387380D01*
X133659428Y-124387380D01*
X133754666Y-124339761D01*
X133802285Y-124292142D01*
X133849904Y-124196904D01*
X133849904Y-123958809D01*
X133802285Y-123863571D01*
X133754666Y-123815952D01*
X133659428Y-123768333D01*
X133468952Y-123768333D01*
X133373714Y-123815952D01*
X133326095Y-123863571D01*
X133278476Y-123958809D01*
%TO.C,R21*%
X175506142Y-86812380D02*
X175172809Y-86336190D01*
X174934714Y-86812380D02*
X174934714Y-85812380D01*
X175315666Y-85812380D01*
X175410904Y-85860000D01*
X175458523Y-85907619D01*
X175506142Y-86002857D01*
X175506142Y-86145714D01*
X175458523Y-86240952D01*
X175410904Y-86288571D01*
X175315666Y-86336190D01*
X174934714Y-86336190D01*
X175887095Y-85907619D02*
X175934714Y-85860000D01*
X176029952Y-85812380D01*
X176268047Y-85812380D01*
X176363285Y-85860000D01*
X176410904Y-85907619D01*
X176458523Y-86002857D01*
X176458523Y-86098095D01*
X176410904Y-86240952D01*
X175839476Y-86812380D01*
X176458523Y-86812380D01*
X177410904Y-86812380D02*
X176839476Y-86812380D01*
X177125190Y-86812380D02*
X177125190Y-85812380D01*
X177029952Y-85955238D01*
X176934714Y-86050476D01*
X176839476Y-86098095D01*
%TO.C,C14*%
X111498142Y-122531142D02*
X111450523Y-122578761D01*
X111307666Y-122626380D01*
X111212428Y-122626380D01*
X111069571Y-122578761D01*
X110974333Y-122483523D01*
X110926714Y-122388285D01*
X110879095Y-122197809D01*
X110879095Y-122054952D01*
X110926714Y-121864476D01*
X110974333Y-121769238D01*
X111069571Y-121674000D01*
X111212428Y-121626380D01*
X111307666Y-121626380D01*
X111450523Y-121674000D01*
X111498142Y-121721619D01*
X112450523Y-122626380D02*
X111879095Y-122626380D01*
X112164809Y-122626380D02*
X112164809Y-121626380D01*
X112069571Y-121769238D01*
X111974333Y-121864476D01*
X111879095Y-121912095D01*
X113307666Y-121959714D02*
X113307666Y-122626380D01*
X113069571Y-121578761D02*
X112831476Y-122293047D01*
X113450523Y-122293047D01*
%TO.C,C23*%
X114917142Y-142767857D02*
X114964761Y-142815476D01*
X115012380Y-142958333D01*
X115012380Y-143053571D01*
X114964761Y-143196428D01*
X114869523Y-143291666D01*
X114774285Y-143339285D01*
X114583809Y-143386904D01*
X114440952Y-143386904D01*
X114250476Y-143339285D01*
X114155238Y-143291666D01*
X114060000Y-143196428D01*
X114012380Y-143053571D01*
X114012380Y-142958333D01*
X114060000Y-142815476D01*
X114107619Y-142767857D01*
X114107619Y-142386904D02*
X114060000Y-142339285D01*
X114012380Y-142244047D01*
X114012380Y-142005952D01*
X114060000Y-141910714D01*
X114107619Y-141863095D01*
X114202857Y-141815476D01*
X114298095Y-141815476D01*
X114440952Y-141863095D01*
X115012380Y-142434523D01*
X115012380Y-141815476D01*
X114012380Y-141482142D02*
X114012380Y-140863095D01*
X114393333Y-141196428D01*
X114393333Y-141053571D01*
X114440952Y-140958333D01*
X114488571Y-140910714D01*
X114583809Y-140863095D01*
X114821904Y-140863095D01*
X114917142Y-140910714D01*
X114964761Y-140958333D01*
X115012380Y-141053571D01*
X115012380Y-141339285D01*
X114964761Y-141434523D01*
X114917142Y-141482142D01*
%TO.C,C55*%
X171823142Y-128754142D02*
X171775523Y-128801761D01*
X171632666Y-128849380D01*
X171537428Y-128849380D01*
X171394571Y-128801761D01*
X171299333Y-128706523D01*
X171251714Y-128611285D01*
X171204095Y-128420809D01*
X171204095Y-128277952D01*
X171251714Y-128087476D01*
X171299333Y-127992238D01*
X171394571Y-127897000D01*
X171537428Y-127849380D01*
X171632666Y-127849380D01*
X171775523Y-127897000D01*
X171823142Y-127944619D01*
X172727904Y-127849380D02*
X172251714Y-127849380D01*
X172204095Y-128325571D01*
X172251714Y-128277952D01*
X172346952Y-128230333D01*
X172585047Y-128230333D01*
X172680285Y-128277952D01*
X172727904Y-128325571D01*
X172775523Y-128420809D01*
X172775523Y-128658904D01*
X172727904Y-128754142D01*
X172680285Y-128801761D01*
X172585047Y-128849380D01*
X172346952Y-128849380D01*
X172251714Y-128801761D01*
X172204095Y-128754142D01*
X173680285Y-127849380D02*
X173204095Y-127849380D01*
X173156476Y-128325571D01*
X173204095Y-128277952D01*
X173299333Y-128230333D01*
X173537428Y-128230333D01*
X173632666Y-128277952D01*
X173680285Y-128325571D01*
X173727904Y-128420809D01*
X173727904Y-128658904D01*
X173680285Y-128754142D01*
X173632666Y-128801761D01*
X173537428Y-128849380D01*
X173299333Y-128849380D01*
X173204095Y-128801761D01*
X173156476Y-128754142D01*
%TO.C,C40*%
X174744142Y-78081142D02*
X174696523Y-78128761D01*
X174553666Y-78176380D01*
X174458428Y-78176380D01*
X174315571Y-78128761D01*
X174220333Y-78033523D01*
X174172714Y-77938285D01*
X174125095Y-77747809D01*
X174125095Y-77604952D01*
X174172714Y-77414476D01*
X174220333Y-77319238D01*
X174315571Y-77224000D01*
X174458428Y-77176380D01*
X174553666Y-77176380D01*
X174696523Y-77224000D01*
X174744142Y-77271619D01*
X175601285Y-77509714D02*
X175601285Y-78176380D01*
X175363190Y-77128761D02*
X175125095Y-77843047D01*
X175744142Y-77843047D01*
X176315571Y-77176380D02*
X176410809Y-77176380D01*
X176506047Y-77224000D01*
X176553666Y-77271619D01*
X176601285Y-77366857D01*
X176648904Y-77557333D01*
X176648904Y-77795428D01*
X176601285Y-77985904D01*
X176553666Y-78081142D01*
X176506047Y-78128761D01*
X176410809Y-78176380D01*
X176315571Y-78176380D01*
X176220333Y-78128761D01*
X176172714Y-78081142D01*
X176125095Y-77985904D01*
X176077476Y-77795428D01*
X176077476Y-77557333D01*
X176125095Y-77366857D01*
X176172714Y-77271619D01*
X176220333Y-77224000D01*
X176315571Y-77176380D01*
%TO.C,TP4*%
X128532095Y-107529380D02*
X129103523Y-107529380D01*
X128817809Y-108529380D02*
X128817809Y-107529380D01*
X129436857Y-108529380D02*
X129436857Y-107529380D01*
X129817809Y-107529380D01*
X129913047Y-107577000D01*
X129960666Y-107624619D01*
X130008285Y-107719857D01*
X130008285Y-107862714D01*
X129960666Y-107957952D01*
X129913047Y-108005571D01*
X129817809Y-108053190D01*
X129436857Y-108053190D01*
X130865428Y-107862714D02*
X130865428Y-108529380D01*
X130627333Y-107481761D02*
X130389238Y-108196047D01*
X131008285Y-108196047D01*
%TO.C,U5*%
X172172380Y-81025904D02*
X172981904Y-81025904D01*
X173077142Y-80978285D01*
X173124761Y-80930666D01*
X173172380Y-80835428D01*
X173172380Y-80644952D01*
X173124761Y-80549714D01*
X173077142Y-80502095D01*
X172981904Y-80454476D01*
X172172380Y-80454476D01*
X172172380Y-79502095D02*
X172172380Y-79978285D01*
X172648571Y-80025904D01*
X172600952Y-79978285D01*
X172553333Y-79883047D01*
X172553333Y-79644952D01*
X172600952Y-79549714D01*
X172648571Y-79502095D01*
X172743809Y-79454476D01*
X172981904Y-79454476D01*
X173077142Y-79502095D01*
X173124761Y-79549714D01*
X173172380Y-79644952D01*
X173172380Y-79883047D01*
X173124761Y-79978285D01*
X173077142Y-80025904D01*
%TO.C,F1*%
X117022571Y-101552333D02*
X117022571Y-101885666D01*
X117546380Y-101885666D02*
X116546380Y-101885666D01*
X116546380Y-101409476D01*
X117546380Y-100504714D02*
X117546380Y-101076142D01*
X117546380Y-100790428D02*
X116546380Y-100790428D01*
X116689238Y-100885666D01*
X116784476Y-100980904D01*
X116832095Y-101076142D01*
%TO.C,X1*%
X123777476Y-134834380D02*
X124444142Y-135834380D01*
X124444142Y-134834380D02*
X123777476Y-135834380D01*
X125348904Y-135834380D02*
X124777476Y-135834380D01*
X125063190Y-135834380D02*
X125063190Y-134834380D01*
X124967952Y-134977238D01*
X124872714Y-135072476D01*
X124777476Y-135120095D01*
%TO.C,C49*%
X149667142Y-127967857D02*
X149714761Y-128015476D01*
X149762380Y-128158333D01*
X149762380Y-128253571D01*
X149714761Y-128396428D01*
X149619523Y-128491666D01*
X149524285Y-128539285D01*
X149333809Y-128586904D01*
X149190952Y-128586904D01*
X149000476Y-128539285D01*
X148905238Y-128491666D01*
X148810000Y-128396428D01*
X148762380Y-128253571D01*
X148762380Y-128158333D01*
X148810000Y-128015476D01*
X148857619Y-127967857D01*
X149095714Y-127110714D02*
X149762380Y-127110714D01*
X148714761Y-127348809D02*
X149429047Y-127586904D01*
X149429047Y-126967857D01*
X149762380Y-126539285D02*
X149762380Y-126348809D01*
X149714761Y-126253571D01*
X149667142Y-126205952D01*
X149524285Y-126110714D01*
X149333809Y-126063095D01*
X148952857Y-126063095D01*
X148857619Y-126110714D01*
X148810000Y-126158333D01*
X148762380Y-126253571D01*
X148762380Y-126444047D01*
X148810000Y-126539285D01*
X148857619Y-126586904D01*
X148952857Y-126634523D01*
X149190952Y-126634523D01*
X149286190Y-126586904D01*
X149333809Y-126539285D01*
X149381428Y-126444047D01*
X149381428Y-126253571D01*
X149333809Y-126158333D01*
X149286190Y-126110714D01*
X149190952Y-126063095D01*
%TO.C,L5*%
X120340380Y-132119666D02*
X120340380Y-132595857D01*
X119340380Y-132595857D01*
X119340380Y-131310142D02*
X119340380Y-131786333D01*
X119816571Y-131833952D01*
X119768952Y-131786333D01*
X119721333Y-131691095D01*
X119721333Y-131453000D01*
X119768952Y-131357761D01*
X119816571Y-131310142D01*
X119911809Y-131262523D01*
X120149904Y-131262523D01*
X120245142Y-131310142D01*
X120292761Y-131357761D01*
X120340380Y-131453000D01*
X120340380Y-131691095D01*
X120292761Y-131786333D01*
X120245142Y-131833952D01*
%TO.C,TP10*%
X128563904Y-110323380D02*
X129135333Y-110323380D01*
X128849619Y-111323380D02*
X128849619Y-110323380D01*
X129468666Y-111323380D02*
X129468666Y-110323380D01*
X129849619Y-110323380D01*
X129944857Y-110371000D01*
X129992476Y-110418619D01*
X130040095Y-110513857D01*
X130040095Y-110656714D01*
X129992476Y-110751952D01*
X129944857Y-110799571D01*
X129849619Y-110847190D01*
X129468666Y-110847190D01*
X130992476Y-111323380D02*
X130421047Y-111323380D01*
X130706761Y-111323380D02*
X130706761Y-110323380D01*
X130611523Y-110466238D01*
X130516285Y-110561476D01*
X130421047Y-110609095D01*
X131611523Y-110323380D02*
X131706761Y-110323380D01*
X131802000Y-110371000D01*
X131849619Y-110418619D01*
X131897238Y-110513857D01*
X131944857Y-110704333D01*
X131944857Y-110942428D01*
X131897238Y-111132904D01*
X131849619Y-111228142D01*
X131802000Y-111275761D01*
X131706761Y-111323380D01*
X131611523Y-111323380D01*
X131516285Y-111275761D01*
X131468666Y-111228142D01*
X131421047Y-111132904D01*
X131373428Y-110942428D01*
X131373428Y-110704333D01*
X131421047Y-110513857D01*
X131468666Y-110418619D01*
X131516285Y-110371000D01*
X131611523Y-110323380D01*
%TO.C,L1*%
X135707380Y-92876666D02*
X135707380Y-93352857D01*
X134707380Y-93352857D01*
X135707380Y-92019523D02*
X135707380Y-92590952D01*
X135707380Y-92305238D02*
X134707380Y-92305238D01*
X134850238Y-92400476D01*
X134945476Y-92495714D01*
X134993095Y-92590952D01*
%TO.C,U12*%
X162972904Y-111847380D02*
X162972904Y-112656904D01*
X163020523Y-112752142D01*
X163068142Y-112799761D01*
X163163380Y-112847380D01*
X163353857Y-112847380D01*
X163449095Y-112799761D01*
X163496714Y-112752142D01*
X163544333Y-112656904D01*
X163544333Y-111847380D01*
X164544333Y-112847380D02*
X163972904Y-112847380D01*
X164258619Y-112847380D02*
X164258619Y-111847380D01*
X164163380Y-111990238D01*
X164068142Y-112085476D01*
X163972904Y-112133095D01*
X164925285Y-111942619D02*
X164972904Y-111895000D01*
X165068142Y-111847380D01*
X165306238Y-111847380D01*
X165401476Y-111895000D01*
X165449095Y-111942619D01*
X165496714Y-112037857D01*
X165496714Y-112133095D01*
X165449095Y-112275952D01*
X164877666Y-112847380D01*
X165496714Y-112847380D01*
%TO.C,C47*%
X180459142Y-92381342D02*
X180411523Y-92428961D01*
X180268666Y-92476580D01*
X180173428Y-92476580D01*
X180030571Y-92428961D01*
X179935333Y-92333723D01*
X179887714Y-92238485D01*
X179840095Y-92048009D01*
X179840095Y-91905152D01*
X179887714Y-91714676D01*
X179935333Y-91619438D01*
X180030571Y-91524200D01*
X180173428Y-91476580D01*
X180268666Y-91476580D01*
X180411523Y-91524200D01*
X180459142Y-91571819D01*
X181316285Y-91809914D02*
X181316285Y-92476580D01*
X181078190Y-91428961D02*
X180840095Y-92143247D01*
X181459142Y-92143247D01*
X181744857Y-91476580D02*
X182411523Y-91476580D01*
X181982952Y-92476580D01*
%TO.C,C48*%
X147312142Y-123039142D02*
X147264523Y-123086761D01*
X147121666Y-123134380D01*
X147026428Y-123134380D01*
X146883571Y-123086761D01*
X146788333Y-122991523D01*
X146740714Y-122896285D01*
X146693095Y-122705809D01*
X146693095Y-122562952D01*
X146740714Y-122372476D01*
X146788333Y-122277238D01*
X146883571Y-122182000D01*
X147026428Y-122134380D01*
X147121666Y-122134380D01*
X147264523Y-122182000D01*
X147312142Y-122229619D01*
X148169285Y-122467714D02*
X148169285Y-123134380D01*
X147931190Y-122086761D02*
X147693095Y-122801047D01*
X148312142Y-122801047D01*
X148835952Y-122562952D02*
X148740714Y-122515333D01*
X148693095Y-122467714D01*
X148645476Y-122372476D01*
X148645476Y-122324857D01*
X148693095Y-122229619D01*
X148740714Y-122182000D01*
X148835952Y-122134380D01*
X149026428Y-122134380D01*
X149121666Y-122182000D01*
X149169285Y-122229619D01*
X149216904Y-122324857D01*
X149216904Y-122372476D01*
X149169285Y-122467714D01*
X149121666Y-122515333D01*
X149026428Y-122562952D01*
X148835952Y-122562952D01*
X148740714Y-122610571D01*
X148693095Y-122658190D01*
X148645476Y-122753428D01*
X148645476Y-122943904D01*
X148693095Y-123039142D01*
X148740714Y-123086761D01*
X148835952Y-123134380D01*
X149026428Y-123134380D01*
X149121666Y-123086761D01*
X149169285Y-123039142D01*
X149216904Y-122943904D01*
X149216904Y-122753428D01*
X149169285Y-122658190D01*
X149121666Y-122610571D01*
X149026428Y-122562952D01*
D10*
%TO.C,L11*%
X132108821Y-127598714D02*
X131745964Y-127598714D01*
X131745964Y-126836714D01*
X132761964Y-127598714D02*
X132326536Y-127598714D01*
X132544250Y-127598714D02*
X132544250Y-126836714D01*
X132471679Y-126945571D01*
X132399107Y-127018142D01*
X132326536Y-127054428D01*
X133487679Y-127598714D02*
X133052250Y-127598714D01*
X133269964Y-127598714D02*
X133269964Y-126836714D01*
X133197393Y-126945571D01*
X133124821Y-127018142D01*
X133052250Y-127054428D01*
D11*
%TO.C,R23*%
X165854142Y-86685380D02*
X165520809Y-86209190D01*
X165282714Y-86685380D02*
X165282714Y-85685380D01*
X165663666Y-85685380D01*
X165758904Y-85733000D01*
X165806523Y-85780619D01*
X165854142Y-85875857D01*
X165854142Y-86018714D01*
X165806523Y-86113952D01*
X165758904Y-86161571D01*
X165663666Y-86209190D01*
X165282714Y-86209190D01*
X166235095Y-85780619D02*
X166282714Y-85733000D01*
X166377952Y-85685380D01*
X166616047Y-85685380D01*
X166711285Y-85733000D01*
X166758904Y-85780619D01*
X166806523Y-85875857D01*
X166806523Y-85971095D01*
X166758904Y-86113952D01*
X166187476Y-86685380D01*
X166806523Y-86685380D01*
X167139857Y-85685380D02*
X167758904Y-85685380D01*
X167425571Y-86066333D01*
X167568428Y-86066333D01*
X167663666Y-86113952D01*
X167711285Y-86161571D01*
X167758904Y-86256809D01*
X167758904Y-86494904D01*
X167711285Y-86590142D01*
X167663666Y-86637761D01*
X167568428Y-86685380D01*
X167282714Y-86685380D01*
X167187476Y-86637761D01*
X167139857Y-86590142D01*
%TO.C,C38*%
X136867142Y-132882142D02*
X136819523Y-132929761D01*
X136676666Y-132977380D01*
X136581428Y-132977380D01*
X136438571Y-132929761D01*
X136343333Y-132834523D01*
X136295714Y-132739285D01*
X136248095Y-132548809D01*
X136248095Y-132405952D01*
X136295714Y-132215476D01*
X136343333Y-132120238D01*
X136438571Y-132025000D01*
X136581428Y-131977380D01*
X136676666Y-131977380D01*
X136819523Y-132025000D01*
X136867142Y-132072619D01*
X137200476Y-131977380D02*
X137819523Y-131977380D01*
X137486190Y-132358333D01*
X137629047Y-132358333D01*
X137724285Y-132405952D01*
X137771904Y-132453571D01*
X137819523Y-132548809D01*
X137819523Y-132786904D01*
X137771904Y-132882142D01*
X137724285Y-132929761D01*
X137629047Y-132977380D01*
X137343333Y-132977380D01*
X137248095Y-132929761D01*
X137200476Y-132882142D01*
X138390952Y-132405952D02*
X138295714Y-132358333D01*
X138248095Y-132310714D01*
X138200476Y-132215476D01*
X138200476Y-132167857D01*
X138248095Y-132072619D01*
X138295714Y-132025000D01*
X138390952Y-131977380D01*
X138581428Y-131977380D01*
X138676666Y-132025000D01*
X138724285Y-132072619D01*
X138771904Y-132167857D01*
X138771904Y-132215476D01*
X138724285Y-132310714D01*
X138676666Y-132358333D01*
X138581428Y-132405952D01*
X138390952Y-132405952D01*
X138295714Y-132453571D01*
X138248095Y-132501190D01*
X138200476Y-132596428D01*
X138200476Y-132786904D01*
X138248095Y-132882142D01*
X138295714Y-132929761D01*
X138390952Y-132977380D01*
X138581428Y-132977380D01*
X138676666Y-132929761D01*
X138724285Y-132882142D01*
X138771904Y-132786904D01*
X138771904Y-132596428D01*
X138724285Y-132501190D01*
X138676666Y-132453571D01*
X138581428Y-132405952D01*
D10*
%TO.C,L9*%
X130392714Y-133731000D02*
X130392714Y-134093857D01*
X129630714Y-134093857D01*
X130392714Y-133440714D02*
X130392714Y-133295571D01*
X130356428Y-133223000D01*
X130320142Y-133186714D01*
X130211285Y-133114142D01*
X130066142Y-133077857D01*
X129775857Y-133077857D01*
X129703285Y-133114142D01*
X129667000Y-133150428D01*
X129630714Y-133223000D01*
X129630714Y-133368142D01*
X129667000Y-133440714D01*
X129703285Y-133477000D01*
X129775857Y-133513285D01*
X129957285Y-133513285D01*
X130029857Y-133477000D01*
X130066142Y-133440714D01*
X130102428Y-133368142D01*
X130102428Y-133223000D01*
X130066142Y-133150428D01*
X130029857Y-133114142D01*
X129957285Y-133077857D01*
D11*
%TO.C,R15*%
X118943380Y-126499857D02*
X118467190Y-126833190D01*
X118943380Y-127071285D02*
X117943380Y-127071285D01*
X117943380Y-126690333D01*
X117991000Y-126595095D01*
X118038619Y-126547476D01*
X118133857Y-126499857D01*
X118276714Y-126499857D01*
X118371952Y-126547476D01*
X118419571Y-126595095D01*
X118467190Y-126690333D01*
X118467190Y-127071285D01*
X118943380Y-125547476D02*
X118943380Y-126118904D01*
X118943380Y-125833190D02*
X117943380Y-125833190D01*
X118086238Y-125928428D01*
X118181476Y-126023666D01*
X118229095Y-126118904D01*
X117943380Y-124642714D02*
X117943380Y-125118904D01*
X118419571Y-125166523D01*
X118371952Y-125118904D01*
X118324333Y-125023666D01*
X118324333Y-124785571D01*
X118371952Y-124690333D01*
X118419571Y-124642714D01*
X118514809Y-124595095D01*
X118752904Y-124595095D01*
X118848142Y-124642714D01*
X118895761Y-124690333D01*
X118943380Y-124785571D01*
X118943380Y-125023666D01*
X118895761Y-125118904D01*
X118848142Y-125166523D01*
%TO.C,R6*%
X132421333Y-100274380D02*
X132088000Y-99798190D01*
X131849904Y-100274380D02*
X131849904Y-99274380D01*
X132230857Y-99274380D01*
X132326095Y-99322000D01*
X132373714Y-99369619D01*
X132421333Y-99464857D01*
X132421333Y-99607714D01*
X132373714Y-99702952D01*
X132326095Y-99750571D01*
X132230857Y-99798190D01*
X131849904Y-99798190D01*
X133278476Y-99274380D02*
X133088000Y-99274380D01*
X132992761Y-99322000D01*
X132945142Y-99369619D01*
X132849904Y-99512476D01*
X132802285Y-99702952D01*
X132802285Y-100083904D01*
X132849904Y-100179142D01*
X132897523Y-100226761D01*
X132992761Y-100274380D01*
X133183238Y-100274380D01*
X133278476Y-100226761D01*
X133326095Y-100179142D01*
X133373714Y-100083904D01*
X133373714Y-99845809D01*
X133326095Y-99750571D01*
X133278476Y-99702952D01*
X133183238Y-99655333D01*
X132992761Y-99655333D01*
X132897523Y-99702952D01*
X132849904Y-99750571D01*
X132802285Y-99845809D01*
%TO.C,R4*%
X189582380Y-63036666D02*
X189106190Y-63370000D01*
X189582380Y-63608095D02*
X188582380Y-63608095D01*
X188582380Y-63227142D01*
X188630000Y-63131904D01*
X188677619Y-63084285D01*
X188772857Y-63036666D01*
X188915714Y-63036666D01*
X189010952Y-63084285D01*
X189058571Y-63131904D01*
X189106190Y-63227142D01*
X189106190Y-63608095D01*
X188915714Y-62179523D02*
X189582380Y-62179523D01*
X188534761Y-62417619D02*
X189249047Y-62655714D01*
X189249047Y-62036666D01*
%TO.C,R37*%
X134183380Y-134500857D02*
X133707190Y-134834190D01*
X134183380Y-135072285D02*
X133183380Y-135072285D01*
X133183380Y-134691333D01*
X133231000Y-134596095D01*
X133278619Y-134548476D01*
X133373857Y-134500857D01*
X133516714Y-134500857D01*
X133611952Y-134548476D01*
X133659571Y-134596095D01*
X133707190Y-134691333D01*
X133707190Y-135072285D01*
X133183380Y-134167523D02*
X133183380Y-133548476D01*
X133564333Y-133881809D01*
X133564333Y-133738952D01*
X133611952Y-133643714D01*
X133659571Y-133596095D01*
X133754809Y-133548476D01*
X133992904Y-133548476D01*
X134088142Y-133596095D01*
X134135761Y-133643714D01*
X134183380Y-133738952D01*
X134183380Y-134024666D01*
X134135761Y-134119904D01*
X134088142Y-134167523D01*
X133183380Y-133215142D02*
X133183380Y-132548476D01*
X134183380Y-132977047D01*
%TO.C,R39*%
X135453380Y-134500857D02*
X134977190Y-134834190D01*
X135453380Y-135072285D02*
X134453380Y-135072285D01*
X134453380Y-134691333D01*
X134501000Y-134596095D01*
X134548619Y-134548476D01*
X134643857Y-134500857D01*
X134786714Y-134500857D01*
X134881952Y-134548476D01*
X134929571Y-134596095D01*
X134977190Y-134691333D01*
X134977190Y-135072285D01*
X134453380Y-134167523D02*
X134453380Y-133548476D01*
X134834333Y-133881809D01*
X134834333Y-133738952D01*
X134881952Y-133643714D01*
X134929571Y-133596095D01*
X135024809Y-133548476D01*
X135262904Y-133548476D01*
X135358142Y-133596095D01*
X135405761Y-133643714D01*
X135453380Y-133738952D01*
X135453380Y-134024666D01*
X135405761Y-134119904D01*
X135358142Y-134167523D01*
X135453380Y-133072285D02*
X135453380Y-132881809D01*
X135405761Y-132786571D01*
X135358142Y-132738952D01*
X135215285Y-132643714D01*
X135024809Y-132596095D01*
X134643857Y-132596095D01*
X134548619Y-132643714D01*
X134501000Y-132691333D01*
X134453380Y-132786571D01*
X134453380Y-132977047D01*
X134501000Y-133072285D01*
X134548619Y-133119904D01*
X134643857Y-133167523D01*
X134881952Y-133167523D01*
X134977190Y-133119904D01*
X135024809Y-133072285D01*
X135072428Y-132977047D01*
X135072428Y-132786571D01*
X135024809Y-132691333D01*
X134977190Y-132643714D01*
X134881952Y-132596095D01*
%TO.C,H1*%
X117062380Y-65541904D02*
X116062380Y-65541904D01*
X116538571Y-65541904D02*
X116538571Y-64970476D01*
X117062380Y-64970476D02*
X116062380Y-64970476D01*
X117062380Y-63970476D02*
X117062380Y-64541904D01*
X117062380Y-64256190D02*
X116062380Y-64256190D01*
X116205238Y-64351428D01*
X116300476Y-64446666D01*
X116348095Y-64541904D01*
%TO.C,R28*%
X172537380Y-100337857D02*
X172061190Y-100671190D01*
X172537380Y-100909285D02*
X171537380Y-100909285D01*
X171537380Y-100528333D01*
X171585000Y-100433095D01*
X171632619Y-100385476D01*
X171727857Y-100337857D01*
X171870714Y-100337857D01*
X171965952Y-100385476D01*
X172013571Y-100433095D01*
X172061190Y-100528333D01*
X172061190Y-100909285D01*
X171632619Y-99956904D02*
X171585000Y-99909285D01*
X171537380Y-99814047D01*
X171537380Y-99575952D01*
X171585000Y-99480714D01*
X171632619Y-99433095D01*
X171727857Y-99385476D01*
X171823095Y-99385476D01*
X171965952Y-99433095D01*
X172537380Y-100004523D01*
X172537380Y-99385476D01*
X171965952Y-98814047D02*
X171918333Y-98909285D01*
X171870714Y-98956904D01*
X171775476Y-99004523D01*
X171727857Y-99004523D01*
X171632619Y-98956904D01*
X171585000Y-98909285D01*
X171537380Y-98814047D01*
X171537380Y-98623571D01*
X171585000Y-98528333D01*
X171632619Y-98480714D01*
X171727857Y-98433095D01*
X171775476Y-98433095D01*
X171870714Y-98480714D01*
X171918333Y-98528333D01*
X171965952Y-98623571D01*
X171965952Y-98814047D01*
X172013571Y-98909285D01*
X172061190Y-98956904D01*
X172156428Y-99004523D01*
X172346904Y-99004523D01*
X172442142Y-98956904D01*
X172489761Y-98909285D01*
X172537380Y-98814047D01*
X172537380Y-98623571D01*
X172489761Y-98528333D01*
X172442142Y-98480714D01*
X172346904Y-98433095D01*
X172156428Y-98433095D01*
X172061190Y-98480714D01*
X172013571Y-98528333D01*
X171965952Y-98623571D01*
%TO.C,C10*%
X137025142Y-116689142D02*
X136977523Y-116736761D01*
X136834666Y-116784380D01*
X136739428Y-116784380D01*
X136596571Y-116736761D01*
X136501333Y-116641523D01*
X136453714Y-116546285D01*
X136406095Y-116355809D01*
X136406095Y-116212952D01*
X136453714Y-116022476D01*
X136501333Y-115927238D01*
X136596571Y-115832000D01*
X136739428Y-115784380D01*
X136834666Y-115784380D01*
X136977523Y-115832000D01*
X137025142Y-115879619D01*
X137977523Y-116784380D02*
X137406095Y-116784380D01*
X137691809Y-116784380D02*
X137691809Y-115784380D01*
X137596571Y-115927238D01*
X137501333Y-116022476D01*
X137406095Y-116070095D01*
X138596571Y-115784380D02*
X138691809Y-115784380D01*
X138787047Y-115832000D01*
X138834666Y-115879619D01*
X138882285Y-115974857D01*
X138929904Y-116165333D01*
X138929904Y-116403428D01*
X138882285Y-116593904D01*
X138834666Y-116689142D01*
X138787047Y-116736761D01*
X138691809Y-116784380D01*
X138596571Y-116784380D01*
X138501333Y-116736761D01*
X138453714Y-116689142D01*
X138406095Y-116593904D01*
X138358476Y-116403428D01*
X138358476Y-116165333D01*
X138406095Y-115974857D01*
X138453714Y-115879619D01*
X138501333Y-115832000D01*
X138596571Y-115784380D01*
%TO.C,TP3*%
X128532095Y-108926380D02*
X129103523Y-108926380D01*
X128817809Y-109926380D02*
X128817809Y-108926380D01*
X129436857Y-109926380D02*
X129436857Y-108926380D01*
X129817809Y-108926380D01*
X129913047Y-108974000D01*
X129960666Y-109021619D01*
X130008285Y-109116857D01*
X130008285Y-109259714D01*
X129960666Y-109354952D01*
X129913047Y-109402571D01*
X129817809Y-109450190D01*
X129436857Y-109450190D01*
X130341619Y-108926380D02*
X130960666Y-108926380D01*
X130627333Y-109307333D01*
X130770190Y-109307333D01*
X130865428Y-109354952D01*
X130913047Y-109402571D01*
X130960666Y-109497809D01*
X130960666Y-109735904D01*
X130913047Y-109831142D01*
X130865428Y-109878761D01*
X130770190Y-109926380D01*
X130484476Y-109926380D01*
X130389238Y-109878761D01*
X130341619Y-109831142D01*
%TO.C,R18*%
X180335209Y-72816428D02*
X179859019Y-73149761D01*
X180335209Y-73387856D02*
X179335209Y-73387856D01*
X179335209Y-73006904D01*
X179382829Y-72911666D01*
X179430448Y-72864047D01*
X179525686Y-72816428D01*
X179668543Y-72816428D01*
X179763781Y-72864047D01*
X179811400Y-72911666D01*
X179859019Y-73006904D01*
X179859019Y-73387856D01*
X180335209Y-71864047D02*
X180335209Y-72435475D01*
X180335209Y-72149761D02*
X179335209Y-72149761D01*
X179478067Y-72244999D01*
X179573305Y-72340237D01*
X179620924Y-72435475D01*
X179763781Y-71292618D02*
X179716162Y-71387856D01*
X179668543Y-71435475D01*
X179573305Y-71483094D01*
X179525686Y-71483094D01*
X179430448Y-71435475D01*
X179382829Y-71387856D01*
X179335209Y-71292618D01*
X179335209Y-71102142D01*
X179382829Y-71006904D01*
X179430448Y-70959285D01*
X179525686Y-70911666D01*
X179573305Y-70911666D01*
X179668543Y-70959285D01*
X179716162Y-71006904D01*
X179763781Y-71102142D01*
X179763781Y-71292618D01*
X179811400Y-71387856D01*
X179859019Y-71435475D01*
X179954257Y-71483094D01*
X180144733Y-71483094D01*
X180239971Y-71435475D01*
X180287590Y-71387856D01*
X180335209Y-71292618D01*
X180335209Y-71102142D01*
X180287590Y-71006904D01*
X180239971Y-70959285D01*
X180144733Y-70911666D01*
X179954257Y-70911666D01*
X179859019Y-70959285D01*
X179811400Y-71006904D01*
X179763781Y-71102142D01*
%TO.C,R24*%
X164203142Y-89479380D02*
X163869809Y-89003190D01*
X163631714Y-89479380D02*
X163631714Y-88479380D01*
X164012666Y-88479380D01*
X164107904Y-88527000D01*
X164155523Y-88574619D01*
X164203142Y-88669857D01*
X164203142Y-88812714D01*
X164155523Y-88907952D01*
X164107904Y-88955571D01*
X164012666Y-89003190D01*
X163631714Y-89003190D01*
X164584095Y-88574619D02*
X164631714Y-88527000D01*
X164726952Y-88479380D01*
X164965047Y-88479380D01*
X165060285Y-88527000D01*
X165107904Y-88574619D01*
X165155523Y-88669857D01*
X165155523Y-88765095D01*
X165107904Y-88907952D01*
X164536476Y-89479380D01*
X165155523Y-89479380D01*
X166012666Y-88812714D02*
X166012666Y-89479380D01*
X165774571Y-88431761D02*
X165536476Y-89146047D01*
X166155523Y-89146047D01*
D10*
%TO.C,C30*%
X127653142Y-127780142D02*
X127616857Y-127816428D01*
X127508000Y-127852714D01*
X127435428Y-127852714D01*
X127326571Y-127816428D01*
X127254000Y-127743857D01*
X127217714Y-127671285D01*
X127181428Y-127526142D01*
X127181428Y-127417285D01*
X127217714Y-127272142D01*
X127254000Y-127199571D01*
X127326571Y-127127000D01*
X127435428Y-127090714D01*
X127508000Y-127090714D01*
X127616857Y-127127000D01*
X127653142Y-127163285D01*
X127907142Y-127090714D02*
X128378857Y-127090714D01*
X128124857Y-127381000D01*
X128233714Y-127381000D01*
X128306285Y-127417285D01*
X128342571Y-127453571D01*
X128378857Y-127526142D01*
X128378857Y-127707571D01*
X128342571Y-127780142D01*
X128306285Y-127816428D01*
X128233714Y-127852714D01*
X128016000Y-127852714D01*
X127943428Y-127816428D01*
X127907142Y-127780142D01*
X128850571Y-127090714D02*
X128923142Y-127090714D01*
X128995714Y-127127000D01*
X129032000Y-127163285D01*
X129068285Y-127235857D01*
X129104571Y-127381000D01*
X129104571Y-127562428D01*
X129068285Y-127707571D01*
X129032000Y-127780142D01*
X128995714Y-127816428D01*
X128923142Y-127852714D01*
X128850571Y-127852714D01*
X128778000Y-127816428D01*
X128741714Y-127780142D01*
X128705428Y-127707571D01*
X128669142Y-127562428D01*
X128669142Y-127381000D01*
X128705428Y-127235857D01*
X128741714Y-127163285D01*
X128778000Y-127127000D01*
X128850571Y-127090714D01*
D11*
%TO.C,TP6*%
X170061095Y-68362380D02*
X170632523Y-68362380D01*
X170346809Y-69362380D02*
X170346809Y-68362380D01*
X170965857Y-69362380D02*
X170965857Y-68362380D01*
X171346809Y-68362380D01*
X171442047Y-68410000D01*
X171489666Y-68457619D01*
X171537285Y-68552857D01*
X171537285Y-68695714D01*
X171489666Y-68790952D01*
X171442047Y-68838571D01*
X171346809Y-68886190D01*
X170965857Y-68886190D01*
X172394428Y-68362380D02*
X172203952Y-68362380D01*
X172108714Y-68410000D01*
X172061095Y-68457619D01*
X171965857Y-68600476D01*
X171918238Y-68790952D01*
X171918238Y-69171904D01*
X171965857Y-69267142D01*
X172013476Y-69314761D01*
X172108714Y-69362380D01*
X172299190Y-69362380D01*
X172394428Y-69314761D01*
X172442047Y-69267142D01*
X172489666Y-69171904D01*
X172489666Y-68933809D01*
X172442047Y-68838571D01*
X172394428Y-68790952D01*
X172299190Y-68743333D01*
X172108714Y-68743333D01*
X172013476Y-68790952D01*
X171965857Y-68838571D01*
X171918238Y-68933809D01*
%TO.C,Y1*%
X142190438Y-96750190D02*
X142190438Y-97226380D01*
X141857105Y-96226380D02*
X142190438Y-96750190D01*
X142523771Y-96226380D01*
X143380914Y-97226380D02*
X142809486Y-97226380D01*
X143095200Y-97226380D02*
X143095200Y-96226380D01*
X142999962Y-96369238D01*
X142904724Y-96464476D01*
X142809486Y-96512095D01*
%TO.C,U1*%
X118237095Y-105611380D02*
X118237095Y-106420904D01*
X118284714Y-106516142D01*
X118332333Y-106563761D01*
X118427571Y-106611380D01*
X118618047Y-106611380D01*
X118713285Y-106563761D01*
X118760904Y-106516142D01*
X118808523Y-106420904D01*
X118808523Y-105611380D01*
X119808523Y-106611380D02*
X119237095Y-106611380D01*
X119522809Y-106611380D02*
X119522809Y-105611380D01*
X119427571Y-105754238D01*
X119332333Y-105849476D01*
X119237095Y-105897095D01*
%TO.C,C15*%
X111117142Y-124182142D02*
X111069523Y-124229761D01*
X110926666Y-124277380D01*
X110831428Y-124277380D01*
X110688571Y-124229761D01*
X110593333Y-124134523D01*
X110545714Y-124039285D01*
X110498095Y-123848809D01*
X110498095Y-123705952D01*
X110545714Y-123515476D01*
X110593333Y-123420238D01*
X110688571Y-123325000D01*
X110831428Y-123277380D01*
X110926666Y-123277380D01*
X111069523Y-123325000D01*
X111117142Y-123372619D01*
X112069523Y-124277380D02*
X111498095Y-124277380D01*
X111783809Y-124277380D02*
X111783809Y-123277380D01*
X111688571Y-123420238D01*
X111593333Y-123515476D01*
X111498095Y-123563095D01*
X112974285Y-123277380D02*
X112498095Y-123277380D01*
X112450476Y-123753571D01*
X112498095Y-123705952D01*
X112593333Y-123658333D01*
X112831428Y-123658333D01*
X112926666Y-123705952D01*
X112974285Y-123753571D01*
X113021904Y-123848809D01*
X113021904Y-124086904D01*
X112974285Y-124182142D01*
X112926666Y-124229761D01*
X112831428Y-124277380D01*
X112593333Y-124277380D01*
X112498095Y-124229761D01*
X112450476Y-124182142D01*
%TO.C,J7*%
X154163895Y-95267980D02*
X154163895Y-95982266D01*
X154116276Y-96125123D01*
X154021038Y-96220361D01*
X153878181Y-96267980D01*
X153782943Y-96267980D01*
X154544848Y-95267980D02*
X155211514Y-95267980D01*
X154782943Y-96267980D01*
%TO.C,S1*%
X138885095Y-141247761D02*
X139027952Y-141295380D01*
X139266047Y-141295380D01*
X139361285Y-141247761D01*
X139408904Y-141200142D01*
X139456523Y-141104904D01*
X139456523Y-141009666D01*
X139408904Y-140914428D01*
X139361285Y-140866809D01*
X139266047Y-140819190D01*
X139075571Y-140771571D01*
X138980333Y-140723952D01*
X138932714Y-140676333D01*
X138885095Y-140581095D01*
X138885095Y-140485857D01*
X138932714Y-140390619D01*
X138980333Y-140343000D01*
X139075571Y-140295380D01*
X139313666Y-140295380D01*
X139456523Y-140343000D01*
X140408904Y-141295380D02*
X139837476Y-141295380D01*
X140123190Y-141295380D02*
X140123190Y-140295380D01*
X140027952Y-140438238D01*
X139932714Y-140533476D01*
X139837476Y-140581095D01*
%TO.C,U8*%
X152106380Y-119506904D02*
X152915904Y-119506904D01*
X153011142Y-119459285D01*
X153058761Y-119411666D01*
X153106380Y-119316428D01*
X153106380Y-119125952D01*
X153058761Y-119030714D01*
X153011142Y-118983095D01*
X152915904Y-118935476D01*
X152106380Y-118935476D01*
X152534952Y-118316428D02*
X152487333Y-118411666D01*
X152439714Y-118459285D01*
X152344476Y-118506904D01*
X152296857Y-118506904D01*
X152201619Y-118459285D01*
X152154000Y-118411666D01*
X152106380Y-118316428D01*
X152106380Y-118125952D01*
X152154000Y-118030714D01*
X152201619Y-117983095D01*
X152296857Y-117935476D01*
X152344476Y-117935476D01*
X152439714Y-117983095D01*
X152487333Y-118030714D01*
X152534952Y-118125952D01*
X152534952Y-118316428D01*
X152582571Y-118411666D01*
X152630190Y-118459285D01*
X152725428Y-118506904D01*
X152915904Y-118506904D01*
X153011142Y-118459285D01*
X153058761Y-118411666D01*
X153106380Y-118316428D01*
X153106380Y-118125952D01*
X153058761Y-118030714D01*
X153011142Y-117983095D01*
X152915904Y-117935476D01*
X152725428Y-117935476D01*
X152630190Y-117983095D01*
X152582571Y-118030714D01*
X152534952Y-118125952D01*
%TO.C,R31*%
X176728380Y-120403857D02*
X176252190Y-120737190D01*
X176728380Y-120975285D02*
X175728380Y-120975285D01*
X175728380Y-120594333D01*
X175776000Y-120499095D01*
X175823619Y-120451476D01*
X175918857Y-120403857D01*
X176061714Y-120403857D01*
X176156952Y-120451476D01*
X176204571Y-120499095D01*
X176252190Y-120594333D01*
X176252190Y-120975285D01*
X175728380Y-120070523D02*
X175728380Y-119451476D01*
X176109333Y-119784809D01*
X176109333Y-119641952D01*
X176156952Y-119546714D01*
X176204571Y-119499095D01*
X176299809Y-119451476D01*
X176537904Y-119451476D01*
X176633142Y-119499095D01*
X176680761Y-119546714D01*
X176728380Y-119641952D01*
X176728380Y-119927666D01*
X176680761Y-120022904D01*
X176633142Y-120070523D01*
X176728380Y-118499095D02*
X176728380Y-119070523D01*
X176728380Y-118784809D02*
X175728380Y-118784809D01*
X175871238Y-118880047D01*
X175966476Y-118975285D01*
X176014095Y-119070523D01*
%TO.C,C6*%
X138660142Y-92114666D02*
X138707761Y-92162285D01*
X138755380Y-92305142D01*
X138755380Y-92400380D01*
X138707761Y-92543238D01*
X138612523Y-92638476D01*
X138517285Y-92686095D01*
X138326809Y-92733714D01*
X138183952Y-92733714D01*
X137993476Y-92686095D01*
X137898238Y-92638476D01*
X137803000Y-92543238D01*
X137755380Y-92400380D01*
X137755380Y-92305142D01*
X137803000Y-92162285D01*
X137850619Y-92114666D01*
X137755380Y-91257523D02*
X137755380Y-91448000D01*
X137803000Y-91543238D01*
X137850619Y-91590857D01*
X137993476Y-91686095D01*
X138183952Y-91733714D01*
X138564904Y-91733714D01*
X138660142Y-91686095D01*
X138707761Y-91638476D01*
X138755380Y-91543238D01*
X138755380Y-91352761D01*
X138707761Y-91257523D01*
X138660142Y-91209904D01*
X138564904Y-91162285D01*
X138326809Y-91162285D01*
X138231571Y-91209904D01*
X138183952Y-91257523D01*
X138136333Y-91352761D01*
X138136333Y-91543238D01*
X138183952Y-91638476D01*
X138231571Y-91686095D01*
X138326809Y-91733714D01*
%TO.C,R5*%
X185872333Y-145772380D02*
X185539000Y-145296190D01*
X185300904Y-145772380D02*
X185300904Y-144772380D01*
X185681857Y-144772380D01*
X185777095Y-144820000D01*
X185824714Y-144867619D01*
X185872333Y-144962857D01*
X185872333Y-145105714D01*
X185824714Y-145200952D01*
X185777095Y-145248571D01*
X185681857Y-145296190D01*
X185300904Y-145296190D01*
X186777095Y-144772380D02*
X186300904Y-144772380D01*
X186253285Y-145248571D01*
X186300904Y-145200952D01*
X186396142Y-145153333D01*
X186634238Y-145153333D01*
X186729476Y-145200952D01*
X186777095Y-145248571D01*
X186824714Y-145343809D01*
X186824714Y-145581904D01*
X186777095Y-145677142D01*
X186729476Y-145724761D01*
X186634238Y-145772380D01*
X186396142Y-145772380D01*
X186300904Y-145724761D01*
X186253285Y-145677142D01*
%TO.C,C3*%
X146739771Y-94781666D02*
X146787390Y-94829285D01*
X146835009Y-94972142D01*
X146835009Y-95067380D01*
X146787390Y-95210238D01*
X146692152Y-95305476D01*
X146596914Y-95353095D01*
X146406438Y-95400714D01*
X146263581Y-95400714D01*
X146073105Y-95353095D01*
X145977867Y-95305476D01*
X145882629Y-95210238D01*
X145835009Y-95067380D01*
X145835009Y-94972142D01*
X145882629Y-94829285D01*
X145930248Y-94781666D01*
X145835009Y-94448333D02*
X145835009Y-93829285D01*
X146215962Y-94162619D01*
X146215962Y-94019761D01*
X146263581Y-93924523D01*
X146311200Y-93876904D01*
X146406438Y-93829285D01*
X146644533Y-93829285D01*
X146739771Y-93876904D01*
X146787390Y-93924523D01*
X146835009Y-94019761D01*
X146835009Y-94305476D01*
X146787390Y-94400714D01*
X146739771Y-94448333D01*
%TO.C,R33*%
X154249380Y-78744286D02*
X153773190Y-79077619D01*
X154249380Y-79315714D02*
X153249380Y-79315714D01*
X153249380Y-78934762D01*
X153297000Y-78839524D01*
X153344619Y-78791905D01*
X153439857Y-78744286D01*
X153582714Y-78744286D01*
X153677952Y-78791905D01*
X153725571Y-78839524D01*
X153773190Y-78934762D01*
X153773190Y-79315714D01*
X153249380Y-78410952D02*
X153249380Y-77791905D01*
X153630333Y-78125238D01*
X153630333Y-77982381D01*
X153677952Y-77887143D01*
X153725571Y-77839524D01*
X153820809Y-77791905D01*
X154058904Y-77791905D01*
X154154142Y-77839524D01*
X154201761Y-77887143D01*
X154249380Y-77982381D01*
X154249380Y-78268095D01*
X154201761Y-78363333D01*
X154154142Y-78410952D01*
X153249380Y-77458571D02*
X153249380Y-76839524D01*
X153630333Y-77172857D01*
X153630333Y-77030000D01*
X153677952Y-76934762D01*
X153725571Y-76887143D01*
X153820809Y-76839524D01*
X154058904Y-76839524D01*
X154154142Y-76887143D01*
X154201761Y-76934762D01*
X154249380Y-77030000D01*
X154249380Y-77315714D01*
X154201761Y-77410952D01*
X154154142Y-77458571D01*
%TO.C,C4*%
X149439333Y-109831142D02*
X149391714Y-109878761D01*
X149248857Y-109926380D01*
X149153619Y-109926380D01*
X149010761Y-109878761D01*
X148915523Y-109783523D01*
X148867904Y-109688285D01*
X148820285Y-109497809D01*
X148820285Y-109354952D01*
X148867904Y-109164476D01*
X148915523Y-109069238D01*
X149010761Y-108974000D01*
X149153619Y-108926380D01*
X149248857Y-108926380D01*
X149391714Y-108974000D01*
X149439333Y-109021619D01*
X150296476Y-109259714D02*
X150296476Y-109926380D01*
X150058380Y-108878761D02*
X149820285Y-109593047D01*
X150439333Y-109593047D01*
%TO.C,U2*%
X141859095Y-98512380D02*
X141859095Y-99321904D01*
X141906714Y-99417142D01*
X141954333Y-99464761D01*
X142049571Y-99512380D01*
X142240047Y-99512380D01*
X142335285Y-99464761D01*
X142382904Y-99417142D01*
X142430523Y-99321904D01*
X142430523Y-98512380D01*
X142859095Y-98607619D02*
X142906714Y-98560000D01*
X143001952Y-98512380D01*
X143240047Y-98512380D01*
X143335285Y-98560000D01*
X143382904Y-98607619D01*
X143430523Y-98702857D01*
X143430523Y-98798095D01*
X143382904Y-98940952D01*
X142811476Y-99512380D01*
X143430523Y-99512380D01*
%TO.C,C27*%
X123827821Y-125434113D02*
X123780202Y-125481732D01*
X123637345Y-125529351D01*
X123542107Y-125529351D01*
X123399250Y-125481732D01*
X123304012Y-125386494D01*
X123256393Y-125291256D01*
X123208774Y-125100780D01*
X123208774Y-124957923D01*
X123256393Y-124767447D01*
X123304012Y-124672209D01*
X123399250Y-124576971D01*
X123542107Y-124529351D01*
X123637345Y-124529351D01*
X123780202Y-124576971D01*
X123827821Y-124624590D01*
X124208774Y-124624590D02*
X124256393Y-124576971D01*
X124351631Y-124529351D01*
X124589726Y-124529351D01*
X124684964Y-124576971D01*
X124732583Y-124624590D01*
X124780202Y-124719828D01*
X124780202Y-124815066D01*
X124732583Y-124957923D01*
X124161155Y-125529351D01*
X124780202Y-125529351D01*
X125113536Y-124529351D02*
X125780202Y-124529351D01*
X125351631Y-125529351D01*
%TO.C,L4*%
X120340380Y-128055666D02*
X120340380Y-128531857D01*
X119340380Y-128531857D01*
X119673714Y-127293761D02*
X120340380Y-127293761D01*
X119292761Y-127531857D02*
X120007047Y-127769952D01*
X120007047Y-127150904D01*
D10*
%TO.C,L10*%
X131570613Y-128868714D02*
X131207756Y-128868714D01*
X131207756Y-128106714D01*
X132223756Y-128868714D02*
X131788328Y-128868714D01*
X132006042Y-128868714D02*
X132006042Y-128106714D01*
X131933471Y-128215571D01*
X131860899Y-128288142D01*
X131788328Y-128324428D01*
X132695471Y-128106714D02*
X132768042Y-128106714D01*
X132840613Y-128143000D01*
X132876899Y-128179285D01*
X132913185Y-128251857D01*
X132949471Y-128397000D01*
X132949471Y-128578428D01*
X132913185Y-128723571D01*
X132876899Y-128796142D01*
X132840613Y-128832428D01*
X132768042Y-128868714D01*
X132695471Y-128868714D01*
X132622899Y-128832428D01*
X132586613Y-128796142D01*
X132550328Y-128723571D01*
X132514042Y-128578428D01*
X132514042Y-128397000D01*
X132550328Y-128251857D01*
X132586613Y-128179285D01*
X132622899Y-128143000D01*
X132695471Y-128106714D01*
D11*
%TO.C,R30*%
X168506821Y-122684780D02*
X168173488Y-122208590D01*
X167935393Y-122684780D02*
X167935393Y-121684780D01*
X168316345Y-121684780D01*
X168411583Y-121732400D01*
X168459202Y-121780019D01*
X168506821Y-121875257D01*
X168506821Y-122018114D01*
X168459202Y-122113352D01*
X168411583Y-122160971D01*
X168316345Y-122208590D01*
X167935393Y-122208590D01*
X168840155Y-121684780D02*
X169459202Y-121684780D01*
X169125869Y-122065733D01*
X169268726Y-122065733D01*
X169363964Y-122113352D01*
X169411583Y-122160971D01*
X169459202Y-122256209D01*
X169459202Y-122494304D01*
X169411583Y-122589542D01*
X169363964Y-122637161D01*
X169268726Y-122684780D01*
X168983012Y-122684780D01*
X168887774Y-122637161D01*
X168840155Y-122589542D01*
X170078250Y-121684780D02*
X170173488Y-121684780D01*
X170268726Y-121732400D01*
X170316345Y-121780019D01*
X170363964Y-121875257D01*
X170411583Y-122065733D01*
X170411583Y-122303828D01*
X170363964Y-122494304D01*
X170316345Y-122589542D01*
X170268726Y-122637161D01*
X170173488Y-122684780D01*
X170078250Y-122684780D01*
X169983012Y-122637161D01*
X169935393Y-122589542D01*
X169887774Y-122494304D01*
X169840155Y-122303828D01*
X169840155Y-122065733D01*
X169887774Y-121875257D01*
X169935393Y-121780019D01*
X169983012Y-121732400D01*
X170078250Y-121684780D01*
%TO.C,C21*%
X122023142Y-123705857D02*
X122070761Y-123753476D01*
X122118380Y-123896333D01*
X122118380Y-123991571D01*
X122070761Y-124134428D01*
X121975523Y-124229666D01*
X121880285Y-124277285D01*
X121689809Y-124324904D01*
X121546952Y-124324904D01*
X121356476Y-124277285D01*
X121261238Y-124229666D01*
X121166000Y-124134428D01*
X121118380Y-123991571D01*
X121118380Y-123896333D01*
X121166000Y-123753476D01*
X121213619Y-123705857D01*
X121213619Y-123324904D02*
X121166000Y-123277285D01*
X121118380Y-123182047D01*
X121118380Y-122943952D01*
X121166000Y-122848714D01*
X121213619Y-122801095D01*
X121308857Y-122753476D01*
X121404095Y-122753476D01*
X121546952Y-122801095D01*
X122118380Y-123372523D01*
X122118380Y-122753476D01*
X122118380Y-121801095D02*
X122118380Y-122372523D01*
X122118380Y-122086809D02*
X121118380Y-122086809D01*
X121261238Y-122182047D01*
X121356476Y-122277285D01*
X121404095Y-122372523D01*
%TO.C,C59*%
X141548142Y-81287857D02*
X141595761Y-81335476D01*
X141643380Y-81478333D01*
X141643380Y-81573571D01*
X141595761Y-81716428D01*
X141500523Y-81811666D01*
X141405285Y-81859285D01*
X141214809Y-81906904D01*
X141071952Y-81906904D01*
X140881476Y-81859285D01*
X140786238Y-81811666D01*
X140691000Y-81716428D01*
X140643380Y-81573571D01*
X140643380Y-81478333D01*
X140691000Y-81335476D01*
X140738619Y-81287857D01*
X140643380Y-80383095D02*
X140643380Y-80859285D01*
X141119571Y-80906904D01*
X141071952Y-80859285D01*
X141024333Y-80764047D01*
X141024333Y-80525952D01*
X141071952Y-80430714D01*
X141119571Y-80383095D01*
X141214809Y-80335476D01*
X141452904Y-80335476D01*
X141548142Y-80383095D01*
X141595761Y-80430714D01*
X141643380Y-80525952D01*
X141643380Y-80764047D01*
X141595761Y-80859285D01*
X141548142Y-80906904D01*
X141643380Y-79859285D02*
X141643380Y-79668809D01*
X141595761Y-79573571D01*
X141548142Y-79525952D01*
X141405285Y-79430714D01*
X141214809Y-79383095D01*
X140833857Y-79383095D01*
X140738619Y-79430714D01*
X140691000Y-79478333D01*
X140643380Y-79573571D01*
X140643380Y-79764047D01*
X140691000Y-79859285D01*
X140738619Y-79906904D01*
X140833857Y-79954523D01*
X141071952Y-79954523D01*
X141167190Y-79906904D01*
X141214809Y-79859285D01*
X141262428Y-79764047D01*
X141262428Y-79573571D01*
X141214809Y-79478333D01*
X141167190Y-79430714D01*
X141071952Y-79383095D01*
%TO.C,C46*%
X180484542Y-94667342D02*
X180436923Y-94714961D01*
X180294066Y-94762580D01*
X180198828Y-94762580D01*
X180055971Y-94714961D01*
X179960733Y-94619723D01*
X179913114Y-94524485D01*
X179865495Y-94334009D01*
X179865495Y-94191152D01*
X179913114Y-94000676D01*
X179960733Y-93905438D01*
X180055971Y-93810200D01*
X180198828Y-93762580D01*
X180294066Y-93762580D01*
X180436923Y-93810200D01*
X180484542Y-93857819D01*
X181341685Y-94095914D02*
X181341685Y-94762580D01*
X181103590Y-93714961D02*
X180865495Y-94429247D01*
X181484542Y-94429247D01*
X182294066Y-93762580D02*
X182103590Y-93762580D01*
X182008352Y-93810200D01*
X181960733Y-93857819D01*
X181865495Y-94000676D01*
X181817876Y-94191152D01*
X181817876Y-94572104D01*
X181865495Y-94667342D01*
X181913114Y-94714961D01*
X182008352Y-94762580D01*
X182198828Y-94762580D01*
X182294066Y-94714961D01*
X182341685Y-94667342D01*
X182389304Y-94572104D01*
X182389304Y-94334009D01*
X182341685Y-94238771D01*
X182294066Y-94191152D01*
X182198828Y-94143533D01*
X182008352Y-94143533D01*
X181913114Y-94191152D01*
X181865495Y-94238771D01*
X181817876Y-94334009D01*
%TO.C,R12*%
X144724380Y-107703857D02*
X144248190Y-108037190D01*
X144724380Y-108275285D02*
X143724380Y-108275285D01*
X143724380Y-107894333D01*
X143772000Y-107799095D01*
X143819619Y-107751476D01*
X143914857Y-107703857D01*
X144057714Y-107703857D01*
X144152952Y-107751476D01*
X144200571Y-107799095D01*
X144248190Y-107894333D01*
X144248190Y-108275285D01*
X144724380Y-106751476D02*
X144724380Y-107322904D01*
X144724380Y-107037190D02*
X143724380Y-107037190D01*
X143867238Y-107132428D01*
X143962476Y-107227666D01*
X144010095Y-107322904D01*
X143819619Y-106370523D02*
X143772000Y-106322904D01*
X143724380Y-106227666D01*
X143724380Y-105989571D01*
X143772000Y-105894333D01*
X143819619Y-105846714D01*
X143914857Y-105799095D01*
X144010095Y-105799095D01*
X144152952Y-105846714D01*
X144724380Y-106418142D01*
X144724380Y-105799095D01*
%TO.C,R20*%
X189795609Y-79681228D02*
X189319419Y-80014561D01*
X189795609Y-80252656D02*
X188795609Y-80252656D01*
X188795609Y-79871704D01*
X188843229Y-79776466D01*
X188890848Y-79728847D01*
X188986086Y-79681228D01*
X189128943Y-79681228D01*
X189224181Y-79728847D01*
X189271800Y-79776466D01*
X189319419Y-79871704D01*
X189319419Y-80252656D01*
X188890848Y-79300275D02*
X188843229Y-79252656D01*
X188795609Y-79157418D01*
X188795609Y-78919323D01*
X188843229Y-78824085D01*
X188890848Y-78776466D01*
X188986086Y-78728847D01*
X189081324Y-78728847D01*
X189224181Y-78776466D01*
X189795609Y-79347894D01*
X189795609Y-78728847D01*
X188795609Y-78109799D02*
X188795609Y-78014561D01*
X188843229Y-77919323D01*
X188890848Y-77871704D01*
X188986086Y-77824085D01*
X189176562Y-77776466D01*
X189414657Y-77776466D01*
X189605133Y-77824085D01*
X189700371Y-77871704D01*
X189747990Y-77919323D01*
X189795609Y-78014561D01*
X189795609Y-78109799D01*
X189747990Y-78205037D01*
X189700371Y-78252656D01*
X189605133Y-78300275D01*
X189414657Y-78347894D01*
X189176562Y-78347894D01*
X188986086Y-78300275D01*
X188890848Y-78252656D01*
X188843229Y-78205037D01*
X188795609Y-78109799D01*
%TO.C,H5*%
X183769095Y-55570380D02*
X183769095Y-54570380D01*
X183769095Y-55046571D02*
X184340523Y-55046571D01*
X184340523Y-55570380D02*
X184340523Y-54570380D01*
X185292904Y-54570380D02*
X184816714Y-54570380D01*
X184769095Y-55046571D01*
X184816714Y-54998952D01*
X184911952Y-54951333D01*
X185150047Y-54951333D01*
X185245285Y-54998952D01*
X185292904Y-55046571D01*
X185340523Y-55141809D01*
X185340523Y-55379904D01*
X185292904Y-55475142D01*
X185245285Y-55522761D01*
X185150047Y-55570380D01*
X184911952Y-55570380D01*
X184816714Y-55522761D01*
X184769095Y-55475142D01*
%TO.C,C11*%
X142089142Y-89288857D02*
X142136761Y-89336476D01*
X142184380Y-89479333D01*
X142184380Y-89574571D01*
X142136761Y-89717428D01*
X142041523Y-89812666D01*
X141946285Y-89860285D01*
X141755809Y-89907904D01*
X141612952Y-89907904D01*
X141422476Y-89860285D01*
X141327238Y-89812666D01*
X141232000Y-89717428D01*
X141184380Y-89574571D01*
X141184380Y-89479333D01*
X141232000Y-89336476D01*
X141279619Y-89288857D01*
X142184380Y-88336476D02*
X142184380Y-88907904D01*
X142184380Y-88622190D02*
X141184380Y-88622190D01*
X141327238Y-88717428D01*
X141422476Y-88812666D01*
X141470095Y-88907904D01*
X142184380Y-87384095D02*
X142184380Y-87955523D01*
X142184380Y-87669809D02*
X141184380Y-87669809D01*
X141327238Y-87765047D01*
X141422476Y-87860285D01*
X141470095Y-87955523D01*
%TO.C,R9*%
X137739380Y-113958094D02*
X137263190Y-114291428D01*
X137739380Y-114529523D02*
X136739380Y-114529523D01*
X136739380Y-114148570D01*
X136787000Y-114053332D01*
X136834619Y-114005713D01*
X136929857Y-113958094D01*
X137072714Y-113958094D01*
X137167952Y-114005713D01*
X137215571Y-114053332D01*
X137263190Y-114148570D01*
X137263190Y-114529523D01*
X137739380Y-113481904D02*
X137739380Y-113291428D01*
X137691761Y-113196189D01*
X137644142Y-113148570D01*
X137501285Y-113053332D01*
X137310809Y-113005713D01*
X136929857Y-113005713D01*
X136834619Y-113053332D01*
X136787000Y-113100951D01*
X136739380Y-113196189D01*
X136739380Y-113386666D01*
X136787000Y-113481904D01*
X136834619Y-113529523D01*
X136929857Y-113577142D01*
X137167952Y-113577142D01*
X137263190Y-113529523D01*
X137310809Y-113481904D01*
X137358428Y-113386666D01*
X137358428Y-113196189D01*
X137310809Y-113100951D01*
X137263190Y-113053332D01*
X137167952Y-113005713D01*
%TO.C,R32*%
X176601380Y-131325857D02*
X176125190Y-131659190D01*
X176601380Y-131897285D02*
X175601380Y-131897285D01*
X175601380Y-131516333D01*
X175649000Y-131421095D01*
X175696619Y-131373476D01*
X175791857Y-131325857D01*
X175934714Y-131325857D01*
X176029952Y-131373476D01*
X176077571Y-131421095D01*
X176125190Y-131516333D01*
X176125190Y-131897285D01*
X175601380Y-130992523D02*
X175601380Y-130373476D01*
X175982333Y-130706809D01*
X175982333Y-130563952D01*
X176029952Y-130468714D01*
X176077571Y-130421095D01*
X176172809Y-130373476D01*
X176410904Y-130373476D01*
X176506142Y-130421095D01*
X176553761Y-130468714D01*
X176601380Y-130563952D01*
X176601380Y-130849666D01*
X176553761Y-130944904D01*
X176506142Y-130992523D01*
X175696619Y-129992523D02*
X175649000Y-129944904D01*
X175601380Y-129849666D01*
X175601380Y-129611571D01*
X175649000Y-129516333D01*
X175696619Y-129468714D01*
X175791857Y-129421095D01*
X175887095Y-129421095D01*
X176029952Y-129468714D01*
X176601380Y-130040142D01*
X176601380Y-129421095D01*
D10*
%TO.C,C28*%
X124351142Y-128542142D02*
X124314857Y-128578428D01*
X124206000Y-128614714D01*
X124133428Y-128614714D01*
X124024571Y-128578428D01*
X123952000Y-128505857D01*
X123915714Y-128433285D01*
X123879428Y-128288142D01*
X123879428Y-128179285D01*
X123915714Y-128034142D01*
X123952000Y-127961571D01*
X124024571Y-127889000D01*
X124133428Y-127852714D01*
X124206000Y-127852714D01*
X124314857Y-127889000D01*
X124351142Y-127925285D01*
X124641428Y-127925285D02*
X124677714Y-127889000D01*
X124750285Y-127852714D01*
X124931714Y-127852714D01*
X125004285Y-127889000D01*
X125040571Y-127925285D01*
X125076857Y-127997857D01*
X125076857Y-128070428D01*
X125040571Y-128179285D01*
X124605142Y-128614714D01*
X125076857Y-128614714D01*
X125512285Y-128179285D02*
X125439714Y-128143000D01*
X125403428Y-128106714D01*
X125367142Y-128034142D01*
X125367142Y-127997857D01*
X125403428Y-127925285D01*
X125439714Y-127889000D01*
X125512285Y-127852714D01*
X125657428Y-127852714D01*
X125730000Y-127889000D01*
X125766285Y-127925285D01*
X125802571Y-127997857D01*
X125802571Y-128034142D01*
X125766285Y-128106714D01*
X125730000Y-128143000D01*
X125657428Y-128179285D01*
X125512285Y-128179285D01*
X125439714Y-128215571D01*
X125403428Y-128251857D01*
X125367142Y-128324428D01*
X125367142Y-128469571D01*
X125403428Y-128542142D01*
X125439714Y-128578428D01*
X125512285Y-128614714D01*
X125657428Y-128614714D01*
X125730000Y-128578428D01*
X125766285Y-128542142D01*
X125802571Y-128469571D01*
X125802571Y-128324428D01*
X125766285Y-128251857D01*
X125730000Y-128215571D01*
X125657428Y-128179285D01*
D11*
%TO.C,U3*%
X111847380Y-132841904D02*
X112656904Y-132841904D01*
X112752142Y-132794285D01*
X112799761Y-132746666D01*
X112847380Y-132651428D01*
X112847380Y-132460952D01*
X112799761Y-132365714D01*
X112752142Y-132318095D01*
X112656904Y-132270476D01*
X111847380Y-132270476D01*
X111847380Y-131889523D02*
X111847380Y-131270476D01*
X112228333Y-131603809D01*
X112228333Y-131460952D01*
X112275952Y-131365714D01*
X112323571Y-131318095D01*
X112418809Y-131270476D01*
X112656904Y-131270476D01*
X112752142Y-131318095D01*
X112799761Y-131365714D01*
X112847380Y-131460952D01*
X112847380Y-131746666D01*
X112799761Y-131841904D01*
X112752142Y-131889523D01*
D13*
%TO.C,PA1*%
X156510000Y-121352500D02*
X157644600Y-121352500D01*
X157644600Y-124072500D02*
X157414600Y-124072500D01*
X157644600Y-121352500D02*
X157644600Y-124072500D01*
X152924600Y-124072500D02*
X153154600Y-124072500D01*
X152924600Y-124072500D02*
X152924600Y-121352500D01*
X153154600Y-125212500D02*
X153154600Y-124072500D01*
X152924600Y-121352500D02*
X154110000Y-121352500D01*
%TO.C,C17*%
X119150580Y-136415000D02*
X118869420Y-136415000D01*
X119150580Y-137435000D02*
X118869420Y-137435000D01*
%TO.C,C16*%
X116350000Y-136232836D02*
X116350000Y-136017164D01*
X117070000Y-136232836D02*
X117070000Y-136017164D01*
%TO.C,C68*%
X113050000Y-134315580D02*
X113050000Y-134034420D01*
X114070000Y-134315580D02*
X114070000Y-134034420D01*
%TO.C,J1*%
X111760000Y-99525000D02*
X111760000Y-99975000D01*
X112310000Y-101725000D02*
X111860000Y-101725000D01*
X109910000Y-99525000D02*
X111760000Y-99525000D01*
X107360000Y-107325000D02*
X107610000Y-107325000D01*
X112310000Y-101725000D02*
X112310000Y-102175000D01*
X109910000Y-107325000D02*
X111760000Y-107325000D01*
X111760000Y-107325000D02*
X111760000Y-106875000D01*
X107360000Y-99525000D02*
X107610000Y-99525000D01*
%TO.C,TP8*%
X113730000Y-97790000D02*
G75*
G03*
X113730000Y-97790000I-700000J0D01*
G01*
%TO.C,R43*%
X158862500Y-117204258D02*
X158862500Y-116729742D01*
X159907500Y-117204258D02*
X159907500Y-116729742D01*
%TO.C,R42*%
X174356500Y-96409742D02*
X174356500Y-96884258D01*
X175401500Y-96409742D02*
X175401500Y-96884258D01*
%TO.C,R41*%
X186929500Y-72373258D02*
X186929500Y-71898742D01*
X187974500Y-72373258D02*
X187974500Y-71898742D01*
%TO.C,C35*%
X130926679Y-125887807D02*
X130926679Y-125672135D01*
X130206679Y-125887807D02*
X130206679Y-125672135D01*
%TO.C,R26*%
X170302500Y-94852258D02*
X170302500Y-94377742D01*
X171347500Y-94852258D02*
X171347500Y-94377742D01*
%TO.C,D1*%
X112613000Y-115336000D02*
X112613000Y-115336000D01*
X112613000Y-112796000D02*
X112613000Y-112796000D01*
X112743000Y-115336000D02*
X112743000Y-115336000D01*
X112613000Y-112506000D02*
X112613000Y-115626000D01*
X112743000Y-112796000D02*
X112743000Y-112796000D01*
X111493000Y-116026000D02*
X111493000Y-115626000D01*
X112613000Y-116026000D02*
X111493000Y-116026000D01*
X112613000Y-115336000D02*
X112743000Y-115336000D01*
X112613000Y-115626000D02*
X112613000Y-116026000D01*
X112743000Y-112796000D02*
X112613000Y-112796000D01*
X112613000Y-112796000D02*
X112743000Y-112796000D01*
X111493000Y-115626000D02*
X112613000Y-115626000D01*
X112613000Y-112506000D02*
X108753000Y-112506000D01*
X112613000Y-115626000D02*
X108753000Y-115626000D01*
X112743000Y-115336000D02*
X112613000Y-115336000D01*
X108753000Y-112506000D02*
G75*
G03*
X108753000Y-115626000I0J-1560000D01*
G01*
%TO.C,C9*%
X139622000Y-91580580D02*
X139622000Y-91299420D01*
X140642000Y-91580580D02*
X140642000Y-91299420D01*
%TO.C,R10*%
X117364742Y-114793500D02*
X117839258Y-114793500D01*
X117364742Y-115838500D02*
X117839258Y-115838500D01*
%TO.C,R7*%
X138161500Y-111489258D02*
X138161500Y-111014742D01*
X139206500Y-111489258D02*
X139206500Y-111014742D01*
%TO.C,C67*%
X137687164Y-124947000D02*
X137902836Y-124947000D01*
X137687164Y-124227000D02*
X137902836Y-124227000D01*
%TO.C,C26*%
X122062179Y-131331135D02*
X122062179Y-131546807D01*
X122782179Y-131331135D02*
X122782179Y-131546807D01*
%TO.C,C43*%
X174641420Y-83589400D02*
X174922580Y-83589400D01*
X174641420Y-84609400D02*
X174922580Y-84609400D01*
%TO.C,TP11*%
X136717000Y-109982000D02*
G75*
G03*
X136717000Y-109982000I-700000J0D01*
G01*
%TO.C,C53*%
X165714000Y-124987164D02*
X165714000Y-125202836D01*
X164994000Y-124987164D02*
X164994000Y-125202836D01*
%TO.C,C33*%
X130388471Y-129011884D02*
X130388471Y-128796212D01*
X129668471Y-129011884D02*
X129668471Y-128796212D01*
%TO.C,C57*%
X177652000Y-127742836D02*
X177652000Y-127527164D01*
X176932000Y-127742836D02*
X176932000Y-127527164D01*
%TO.C,R17*%
X110342679Y-130284229D02*
X110342679Y-129809713D01*
X111387679Y-130284229D02*
X111387679Y-129809713D01*
%TO.C,U7*%
X177242521Y-124045229D02*
X175342521Y-124045229D01*
X175842521Y-126365229D02*
X177242521Y-126365229D01*
%TO.C,R38*%
X134082959Y-129009371D02*
X134390241Y-129009371D01*
X134082959Y-129769371D02*
X134390241Y-129769371D01*
%TO.C,J3*%
X120640000Y-94925000D02*
X121090000Y-94925000D01*
X117120000Y-87955000D02*
X116670000Y-87955000D01*
X121090000Y-88905000D02*
X122580000Y-88905000D01*
X121090000Y-94925000D02*
X121090000Y-93975000D01*
X116670000Y-87955000D02*
X116670000Y-94925000D01*
X116670000Y-94925000D02*
X117120000Y-94925000D01*
X121090000Y-87955000D02*
X121090000Y-88905000D01*
X120640000Y-87955000D02*
X121090000Y-87955000D01*
%TO.C,TP2*%
X108777000Y-118745000D02*
G75*
G03*
X108777000Y-118745000I-700000J0D01*
G01*
%TO.C,C19*%
X109892000Y-136347252D02*
X109892000Y-134924748D01*
X112612000Y-136347252D02*
X112612000Y-134924748D01*
%TO.C,R13*%
X160638258Y-99201500D02*
X160163742Y-99201500D01*
X160638258Y-98156500D02*
X160163742Y-98156500D01*
%TO.C,U4*%
X183416200Y-72598029D02*
X182016200Y-72598029D01*
X182016200Y-74918029D02*
X183916200Y-74918029D01*
%TO.C,R14*%
X124649820Y-136270971D02*
X124342538Y-136270971D01*
X124649820Y-137030971D02*
X124342538Y-137030971D01*
%TO.C,TP9*%
X168467000Y-111125000D02*
G75*
G03*
X168467000Y-111125000I-700000J0D01*
G01*
%TO.C,R16*%
X117563908Y-133652500D02*
X117089392Y-133652500D01*
X117563908Y-134697500D02*
X117089392Y-134697500D01*
%TO.C,R40*%
X166101500Y-108601242D02*
X166101500Y-109075758D01*
X167146500Y-108601242D02*
X167146500Y-109075758D01*
%TO.C,C66*%
X161669000Y-108952420D02*
X161669000Y-109233580D01*
X162689000Y-108952420D02*
X162689000Y-109233580D01*
%TO.C,H2*%
X184210000Y-57160000D02*
X184210000Y-62360000D01*
X118050000Y-61030000D02*
X118050000Y-62360000D01*
X118050000Y-62360000D02*
X119380000Y-62360000D01*
X118050000Y-57160000D02*
X184210000Y-57160000D01*
X120650000Y-59760000D02*
X120650000Y-62360000D01*
X184210000Y-62300000D02*
X184210000Y-57100000D01*
X118050000Y-57160000D02*
X118050000Y-59760000D01*
X118050000Y-59760000D02*
X120650000Y-59760000D01*
X120650000Y-62360000D02*
X184210000Y-62360000D01*
%TO.C,C8*%
X135141580Y-111504000D02*
X134860420Y-111504000D01*
X135141580Y-112524000D02*
X134860420Y-112524000D01*
%TO.C,R1*%
X109351942Y-110758500D02*
X109826458Y-110758500D01*
X109351942Y-109713500D02*
X109826458Y-109713500D01*
%TO.C,C60*%
X142213420Y-76456000D02*
X142494580Y-76456000D01*
X142213420Y-75436000D02*
X142494580Y-75436000D01*
%TO.C,C51*%
X163302836Y-122661000D02*
X163087164Y-122661000D01*
X163302836Y-121941000D02*
X163087164Y-121941000D01*
%TO.C,C63*%
X147814420Y-111635000D02*
X148095580Y-111635000D01*
X147814420Y-110615000D02*
X148095580Y-110615000D01*
%TO.C,C25*%
X122062179Y-128824286D02*
X122062179Y-129039958D01*
X122782179Y-128824286D02*
X122782179Y-129039958D01*
%TO.C,C58*%
X177059000Y-122814654D02*
X177059000Y-122598982D01*
X177779000Y-122814654D02*
X177779000Y-122598982D01*
%TO.C,R35*%
X136476500Y-78388258D02*
X136476500Y-77913742D01*
X135431500Y-78388258D02*
X135431500Y-77913742D01*
%TO.C,TP1*%
X144382629Y-92212000D02*
G75*
G03*
X144382629Y-92212000I-700000J0D01*
G01*
%TO.C,TP5*%
X162625000Y-76200000D02*
G75*
G03*
X162625000Y-76200000I-700000J0D01*
G01*
%TO.C,R25*%
X167115258Y-92597500D02*
X166640742Y-92597500D01*
X167115258Y-91552500D02*
X166640742Y-91552500D01*
%TO.C,J6*%
X127309000Y-100771000D02*
X127309000Y-98111000D01*
X124709000Y-100771000D02*
X127309000Y-100771000D01*
X124709000Y-98111000D02*
X127309000Y-98111000D01*
X123439000Y-100771000D02*
X122109000Y-100771000D01*
X124709000Y-100771000D02*
X124709000Y-98111000D01*
X122109000Y-100771000D02*
X122109000Y-99441000D01*
%TO.C,U11*%
X144145000Y-108676000D02*
X142345000Y-108676000D01*
X144145000Y-111796000D02*
X144945000Y-111796000D01*
X144145000Y-111796000D02*
X143345000Y-111796000D01*
X144145000Y-108676000D02*
X144945000Y-108676000D01*
%TO.C,C61*%
X126363000Y-81153580D02*
X126363000Y-80872420D01*
X127383000Y-81153580D02*
X127383000Y-80872420D01*
%TO.C,C62*%
X126084420Y-76583000D02*
X126365580Y-76583000D01*
X126084420Y-75563000D02*
X126365580Y-75563000D01*
%TO.C,C29*%
X124407015Y-131318971D02*
X124191343Y-131318971D01*
X124407015Y-130598971D02*
X124191343Y-130598971D01*
%TO.C,J5*%
X127436000Y-109534000D02*
X126106000Y-109534000D01*
X122236000Y-109534000D02*
X122236000Y-101794000D01*
X127436000Y-108204000D02*
X127436000Y-109534000D01*
X127436000Y-101794000D02*
X122236000Y-101794000D01*
X127436000Y-106934000D02*
X124836000Y-106934000D01*
X127436000Y-106934000D02*
X127436000Y-101794000D01*
X124836000Y-109534000D02*
X122236000Y-109534000D01*
X124836000Y-106934000D02*
X124836000Y-109534000D01*
%TO.C,R22*%
X171697258Y-88350529D02*
X171222742Y-88350529D01*
X171697258Y-87305529D02*
X171222742Y-87305529D01*
%TO.C,L2*%
X116494779Y-124839000D02*
X116169221Y-124839000D01*
X116494779Y-125859000D02*
X116169221Y-125859000D01*
%TO.C,C56*%
X179049000Y-124898036D02*
X179049000Y-124682364D01*
X178329000Y-124898036D02*
X178329000Y-124682364D01*
%TO.C,C5*%
X146450377Y-103283000D02*
X147872881Y-103283000D01*
X146450377Y-105103000D02*
X147872881Y-105103000D01*
%TO.C,C31*%
X128878179Y-131331135D02*
X128878179Y-131546807D01*
X128158179Y-131331135D02*
X128158179Y-131546807D01*
%TO.C,J4*%
X118717000Y-73663000D02*
X118717000Y-82293000D01*
X116717000Y-72508000D02*
X116717000Y-73663000D01*
X118717000Y-82293000D02*
X116717000Y-82293000D01*
X118907000Y-71493000D02*
X123037000Y-71493000D01*
X116717000Y-82293000D02*
X116717000Y-83448000D01*
X123037000Y-84463000D02*
X123037000Y-82288000D01*
X116717000Y-73663000D02*
X118717000Y-73663000D01*
X123037000Y-71493000D02*
X123037000Y-73668000D01*
X118907000Y-84463000D02*
X123037000Y-84463000D01*
X123037000Y-73668000D02*
X123437000Y-73668000D01*
%TO.C,C64*%
X175151477Y-112719000D02*
X177982973Y-112719000D01*
X175151477Y-107499000D02*
X177982973Y-107499000D01*
%TO.C,C52*%
X172965521Y-124297065D02*
X172965521Y-124081393D01*
X172245521Y-124297065D02*
X172245521Y-124081393D01*
%TO.C,C42*%
X186184000Y-75043420D02*
X186184000Y-75324580D01*
X185164000Y-75043420D02*
X185164000Y-75324580D01*
%TO.C,C41*%
X188001400Y-75039849D02*
X188001400Y-75321009D01*
X186981400Y-75039849D02*
X186981400Y-75321009D01*
%TO.C,C12*%
X130315580Y-102614000D02*
X130034420Y-102614000D01*
X130315580Y-103634000D02*
X130034420Y-103634000D01*
%TO.C,R29*%
X168641500Y-93988658D02*
X168641500Y-93514142D01*
X169686500Y-93988658D02*
X169686500Y-93514142D01*
%TO.C,C24*%
X122798679Y-125616135D02*
X122798679Y-125831807D01*
X122078679Y-125616135D02*
X122078679Y-125831807D01*
%TO.C,C18*%
X118991230Y-136085000D02*
X118710070Y-136085000D01*
X118991230Y-135065000D02*
X118710070Y-135065000D01*
%TO.C,R19*%
X182388742Y-75423500D02*
X182863258Y-75423500D01*
X182388742Y-76468500D02*
X182863258Y-76468500D01*
%TO.C,C50*%
X162610748Y-118528000D02*
X164033252Y-118528000D01*
X162610748Y-121248000D02*
X164033252Y-121248000D01*
%TO.C,U6*%
X170493000Y-89220400D02*
X170968000Y-89220400D01*
X174713000Y-89220400D02*
X174238000Y-89220400D01*
X170493000Y-91965400D02*
X170493000Y-92440400D01*
X170493000Y-89695400D02*
X170493000Y-89220400D01*
X174713000Y-91965400D02*
X174713000Y-92440400D01*
X174713000Y-92440400D02*
X174238000Y-92440400D01*
X174713000Y-89695400D02*
X174713000Y-89220400D01*
%TO.C,C34*%
X132210015Y-130598971D02*
X131994343Y-130598971D01*
X132210015Y-131318971D02*
X131994343Y-131318971D01*
%TO.C,R3*%
X109992641Y-58045000D02*
X109685359Y-58045000D01*
X109992641Y-58805000D02*
X109685359Y-58805000D01*
%TO.C,R36*%
X126475258Y-77074500D02*
X126000742Y-77074500D01*
X126475258Y-78119500D02*
X126000742Y-78119500D01*
%TO.C,C39*%
X169037580Y-73658000D02*
X168756420Y-73658000D01*
X169037580Y-74678000D02*
X168756420Y-74678000D01*
%TO.C,C44*%
X176776748Y-89054000D02*
X177299252Y-89054000D01*
X176776748Y-90524000D02*
X177299252Y-90524000D01*
%TO.C,C13*%
X147904252Y-100944000D02*
X146481748Y-100944000D01*
X147904252Y-102764000D02*
X146481748Y-102764000D01*
%TO.C,C65*%
X175241252Y-101149000D02*
X178072748Y-101149000D01*
X175241252Y-106369000D02*
X178072748Y-106369000D01*
%TO.C,C37*%
X134609679Y-126627335D02*
X134609679Y-126843007D01*
X133889679Y-126627335D02*
X133889679Y-126843007D01*
%TO.C,C54*%
X174097836Y-124947000D02*
X173882164Y-124947000D01*
X174097836Y-124227000D02*
X173882164Y-124227000D01*
%TO.C,U9*%
X147638771Y-80418229D02*
X145688771Y-80418229D01*
X147638771Y-71548229D02*
X145688771Y-71548229D01*
X147638771Y-80418229D02*
X151088771Y-80418229D01*
X147638771Y-71548229D02*
X149588771Y-71548229D01*
%TO.C,R11*%
X149366500Y-106696742D02*
X149366500Y-107171258D01*
X148321500Y-106696742D02*
X148321500Y-107171258D01*
%TO.C,C45*%
X168161580Y-91061000D02*
X167880420Y-91061000D01*
X168161580Y-90041000D02*
X167880420Y-90041000D01*
%TO.C,C7*%
X134465748Y-96297000D02*
X135888252Y-96297000D01*
X134465748Y-94477000D02*
X135888252Y-94477000D01*
%TO.C,L12*%
X170940000Y-74767221D02*
X170940000Y-75092779D01*
X171960000Y-74767221D02*
X171960000Y-75092779D01*
%TO.C,TP7*%
X114365000Y-96012000D02*
G75*
G03*
X114365000Y-96012000I-700000J0D01*
G01*
%TO.C,C22*%
X109730000Y-129907420D02*
X109730000Y-130188580D01*
X108710000Y-129907420D02*
X108710000Y-130188580D01*
%TO.C,R2*%
X115035359Y-143765000D02*
X115342641Y-143765000D01*
X115035359Y-144525000D02*
X115342641Y-144525000D01*
%TO.C,J2*%
X186781000Y-119598000D02*
X194981000Y-119598000D01*
X187281000Y-123698000D02*
X186781000Y-123198000D01*
X186781000Y-127798000D02*
X194981000Y-127798000D01*
X194981000Y-119598000D02*
X194981000Y-127798000D01*
X186781000Y-119598000D02*
X186781000Y-127798000D01*
X186781000Y-124198000D02*
X187281000Y-123698000D01*
%TO.C,U10*%
X131505900Y-71638000D02*
X133455900Y-71638000D01*
X131505900Y-71638000D02*
X129555900Y-71638000D01*
X131505900Y-80508000D02*
X129555900Y-80508000D01*
X131505900Y-80508000D02*
X134955900Y-80508000D01*
%TO.C,R34*%
X142582729Y-77992500D02*
X142108213Y-77992500D01*
X142582729Y-76947500D02*
X142108213Y-76947500D01*
%TO.C,C20*%
X120503599Y-133346971D02*
X120784759Y-133346971D01*
X120503599Y-134366971D02*
X120784759Y-134366971D01*
%TO.C,R27*%
X173348258Y-93355900D02*
X172873742Y-93355900D01*
X173348258Y-94400900D02*
X172873742Y-94400900D01*
%TO.C,C2*%
X140890629Y-94474420D02*
X140890629Y-94755580D01*
X139870629Y-94474420D02*
X139870629Y-94755580D01*
%TO.C,R8*%
X129934171Y-97760500D02*
X130408687Y-97760500D01*
X129934171Y-98805500D02*
X130408687Y-98805500D01*
%TO.C,C1*%
X109448620Y-108230000D02*
X109729780Y-108230000D01*
X109448620Y-109250000D02*
X109729780Y-109250000D01*
%TO.C,C32*%
X128682679Y-125841807D02*
X128682679Y-125626135D01*
X129402679Y-125841807D02*
X129402679Y-125626135D01*
%TO.C,C36*%
X132480164Y-125455000D02*
X132695836Y-125455000D01*
X132480164Y-124735000D02*
X132695836Y-124735000D01*
%TO.C,R21*%
X173411258Y-85781529D02*
X172936742Y-85781529D01*
X173411258Y-86826529D02*
X172936742Y-86826529D01*
%TO.C,C14*%
X115964009Y-121662971D02*
X115682849Y-121662971D01*
X115964009Y-122682971D02*
X115682849Y-122682971D01*
%TO.C,C23*%
X114700000Y-135115580D02*
X114700000Y-134834420D01*
X115720000Y-135115580D02*
X115720000Y-134834420D01*
%TO.C,C55*%
X174390164Y-130789000D02*
X174605836Y-130789000D01*
X174390164Y-130069000D02*
X174605836Y-130069000D01*
%TO.C,C40*%
X177997000Y-74186748D02*
X177997000Y-71355252D01*
X172777000Y-74186748D02*
X172777000Y-71355252D01*
%TO.C,TP4*%
X132780000Y-107950000D02*
G75*
G03*
X132780000Y-107950000I-700000J0D01*
G01*
%TO.C,U5*%
X174762000Y-81380400D02*
X173762000Y-81380400D01*
X175762000Y-79160400D02*
X173762000Y-79160400D01*
%TO.C,F1*%
X114733000Y-102484422D02*
X114733000Y-103001578D01*
X116153000Y-102484422D02*
X116153000Y-103001578D01*
%TO.C,X1*%
X123106179Y-137492971D02*
X123106179Y-134792971D01*
X120806179Y-137492971D02*
X123106179Y-137492971D01*
%TO.C,C49*%
X148315000Y-126130164D02*
X148315000Y-126345836D01*
X147595000Y-126130164D02*
X147595000Y-126345836D01*
%TO.C,TP10*%
X134558000Y-109982000D02*
G75*
G03*
X134558000Y-109982000I-700000J0D01*
G01*
%TO.C,L1*%
X137162000Y-92547221D02*
X137162000Y-92872779D01*
X136142000Y-92547221D02*
X136142000Y-92872779D01*
%TO.C,U12*%
X165875500Y-111742000D02*
X165750500Y-111742000D01*
X165750500Y-111742000D02*
X165750500Y-111617000D01*
X165750500Y-111617000D02*
X165875500Y-111617000D01*
X165875500Y-111617000D02*
X165875500Y-111742000D01*
%TO.C,C47*%
X177189220Y-92483400D02*
X177470380Y-92483400D01*
X177189220Y-91463400D02*
X177470380Y-91463400D01*
%TO.C,C48*%
X147554836Y-124947000D02*
X147339164Y-124947000D01*
X147554836Y-124227000D02*
X147339164Y-124227000D01*
%TO.C,R23*%
X170109258Y-86826529D02*
X169634742Y-86826529D01*
X170109258Y-85781529D02*
X169634742Y-85781529D01*
%TO.C,C38*%
X137306164Y-130789000D02*
X137521836Y-130789000D01*
X137306164Y-130069000D02*
X137521836Y-130069000D01*
%TO.C,R15*%
X118764750Y-122853742D02*
X118764750Y-123328258D01*
X117719750Y-122853742D02*
X117719750Y-123328258D01*
%TO.C,R6*%
X129934171Y-99317500D02*
X130408687Y-99317500D01*
X129934171Y-100362500D02*
X130408687Y-100362500D01*
%TO.C,R4*%
X187580000Y-62716359D02*
X187580000Y-63023641D01*
X188340000Y-62716359D02*
X188340000Y-63023641D01*
%TO.C,R37*%
X133368179Y-131135612D02*
X133368179Y-130828330D01*
X134128179Y-131135612D02*
X134128179Y-130828330D01*
%TO.C,R39*%
X134511179Y-131135612D02*
X134511179Y-130828330D01*
X135271179Y-131135612D02*
X135271179Y-130828330D01*
%TO.C,H1*%
X118050000Y-64840000D02*
X120650000Y-64840000D01*
X120650000Y-67440000D02*
X184210000Y-67440000D01*
X118050000Y-62240000D02*
X118050000Y-64840000D01*
X118050000Y-66110000D02*
X118050000Y-67440000D01*
X184210000Y-67380000D02*
X184210000Y-62180000D01*
X184210000Y-62240000D02*
X184210000Y-67440000D01*
X120650000Y-64840000D02*
X120650000Y-67440000D01*
X118050000Y-67440000D02*
X119380000Y-67440000D01*
%TO.C,R28*%
X172871500Y-95927142D02*
X172871500Y-96401658D01*
X171826500Y-95927142D02*
X171826500Y-96401658D01*
%TO.C,C10*%
X141480000Y-111365420D02*
X141480000Y-111646580D01*
X140460000Y-111365420D02*
X140460000Y-111646580D01*
%TO.C,TP3*%
X134558000Y-108077000D02*
G75*
G03*
X134558000Y-108077000I-700000J0D01*
G01*
%TO.C,R18*%
X180354500Y-75294258D02*
X180354500Y-74819742D01*
X179309500Y-75294258D02*
X179309500Y-74819742D01*
%TO.C,R24*%
X168639258Y-89549500D02*
X168164742Y-89549500D01*
X168639258Y-88504500D02*
X168164742Y-88504500D01*
%TO.C,C30*%
X128864471Y-128824212D02*
X128864471Y-129039884D01*
X128144471Y-128824212D02*
X128144471Y-129039884D01*
%TO.C,TP6*%
X172150000Y-70358000D02*
G75*
G03*
X172150000Y-70358000I-700000J0D01*
G01*
%TO.C,Y1*%
X142516629Y-94246200D02*
X142816629Y-94246200D01*
X142516629Y-95846200D02*
X142816629Y-95846200D01*
X141316629Y-94296200D02*
X141316629Y-95796200D01*
%TO.C,U1*%
X118999000Y-105319000D02*
X120799000Y-105319000D01*
X118999000Y-102199000D02*
X119799000Y-102199000D01*
X118999000Y-102199000D02*
X118199000Y-102199000D01*
X118999000Y-105319000D02*
X118199000Y-105319000D01*
%TO.C,C15*%
X115964009Y-124333971D02*
X115682849Y-124333971D01*
X115964009Y-123313971D02*
X115682849Y-123313971D01*
%TO.C,J7*%
X152732229Y-96815600D02*
X156262229Y-96815600D01*
X152732229Y-96815600D02*
X152732229Y-96880600D01*
X152732229Y-103285600D02*
X156262229Y-103285600D01*
X156262229Y-103220600D02*
X156262229Y-103285600D01*
X152732229Y-103220600D02*
X152732229Y-103285600D01*
X156262229Y-96815600D02*
X156262229Y-96880600D01*
X151407229Y-96880600D02*
X152732229Y-96880600D01*
%TO.C,U8*%
X155416098Y-120275829D02*
X154616098Y-120275829D01*
X155416098Y-117155829D02*
X156216098Y-117155829D01*
X155416098Y-120275829D02*
X156216098Y-120275829D01*
X155416098Y-117155829D02*
X153616098Y-117155829D01*
%TO.C,R31*%
X176783000Y-122835641D02*
X176783000Y-122528359D01*
X176023000Y-122835641D02*
X176023000Y-122528359D01*
%TO.C,C6*%
X138858629Y-95222100D02*
X138858629Y-94940940D01*
X137838629Y-95222100D02*
X137838629Y-94940940D01*
%TO.C,R5*%
X186192641Y-144530000D02*
X185885359Y-144530000D01*
X186192641Y-143770000D02*
X185885359Y-143770000D01*
%TO.C,C3*%
X144442629Y-94474420D02*
X144442629Y-94755580D01*
X145462629Y-94474420D02*
X145462629Y-94755580D01*
%TO.C,R33*%
X152818871Y-78338687D02*
X152818871Y-77864171D01*
X151773871Y-78338687D02*
X151773871Y-77864171D01*
%TO.C,C4*%
X146683000Y-106793420D02*
X146683000Y-107074580D01*
X147703000Y-106793420D02*
X147703000Y-107074580D01*
%TO.C,U2*%
X141616471Y-106774000D02*
X141616471Y-107224000D01*
X141616471Y-100454000D02*
X141616471Y-100004000D01*
X134396471Y-106774000D02*
X134396471Y-107224000D01*
X141616471Y-100004000D02*
X141166471Y-100004000D01*
X134396471Y-100454000D02*
X134396471Y-100004000D01*
X134396471Y-100004000D02*
X134846471Y-100004000D01*
X141616471Y-107224000D02*
X141166471Y-107224000D01*
X141166471Y-100004000D02*
X141166471Y-98714000D01*
X134396471Y-107224000D02*
X134846471Y-107224000D01*
%TO.C,C27*%
X124362843Y-125876971D02*
X124578515Y-125876971D01*
X124362843Y-126596971D02*
X124578515Y-126596971D01*
%TO.C,R30*%
X165624742Y-122823500D02*
X166099258Y-122823500D01*
X165624742Y-121778500D02*
X166099258Y-121778500D01*
%TO.C,C21*%
X120403250Y-123203580D02*
X120403250Y-122922420D01*
X119383250Y-123203580D02*
X119383250Y-122922420D01*
%TO.C,C59*%
X143131000Y-80785580D02*
X143131000Y-80504420D01*
X142111000Y-80785580D02*
X142111000Y-80504420D01*
%TO.C,C46*%
X177208548Y-93397400D02*
X177731052Y-93397400D01*
X177208548Y-94867400D02*
X177731052Y-94867400D01*
%TO.C,R12*%
X145070500Y-107171258D02*
X145070500Y-106696742D01*
X146115500Y-107171258D02*
X146115500Y-106696742D01*
%TO.C,R20*%
X189879500Y-74946742D02*
X189879500Y-75421258D01*
X188834500Y-74946742D02*
X188834500Y-75421258D01*
%TO.C,C11*%
X141271200Y-91568780D02*
X141271200Y-91287620D01*
X142291200Y-91568780D02*
X142291200Y-91287620D01*
%TO.C,R9*%
X136848971Y-111489258D02*
X136848971Y-111014742D01*
X137893971Y-111489258D02*
X137893971Y-111014742D01*
%TO.C,R32*%
X176491098Y-127452188D02*
X176491098Y-127759470D01*
X175731098Y-127452188D02*
X175731098Y-127759470D01*
%TO.C,C28*%
X124177635Y-129052048D02*
X124393307Y-129052048D01*
X124177635Y-129772048D02*
X124393307Y-129772048D01*
%TO.C,U3*%
X117957179Y-132529971D02*
X118682179Y-132529971D01*
X114187179Y-132529971D02*
X113462179Y-132529971D01*
X118682179Y-127309971D02*
X118682179Y-128034971D01*
X114187179Y-127309971D02*
X113462179Y-127309971D01*
X113462179Y-132529971D02*
X113462179Y-131804971D01*
X117957179Y-127309971D02*
X118682179Y-127309971D01*
X113462179Y-127309971D02*
X113462179Y-128034971D01*
%TD*%
M02*
