%TF.GenerationSoftware,KiCad,Pcbnew,(6.0.5)*%
%TF.CreationDate,2022-08-13T13:23:51-04:00*%
%TF.ProjectId,SilverSat_Comms,53696c76-6572-4536-9174-5f436f6d6d73,rev?*%
%TF.SameCoordinates,Original*%
%TF.FileFunction,Soldermask,Top*%
%TF.FilePolarity,Negative*%
%FSLAX46Y46*%
G04 Gerber Fmt 4.6, Leading zero omitted, Abs format (unit mm)*
G04 Created by KiCad (PCBNEW (6.0.5)) date 2022-08-13 13:23:51*
%MOMM*%
%LPD*%
G01*
G04 APERTURE LIST*
G04 Aperture macros list*
%AMRoundRect*
0 Rectangle with rounded corners*
0 $1 Rounding radius*
0 $2 $3 $4 $5 $6 $7 $8 $9 X,Y pos of 4 corners*
0 Add a 4 corners polygon primitive as box body*
4,1,4,$2,$3,$4,$5,$6,$7,$8,$9,$2,$3,0*
0 Add four circle primitives for the rounded corners*
1,1,$1+$1,$2,$3*
1,1,$1+$1,$4,$5*
1,1,$1+$1,$6,$7*
1,1,$1+$1,$8,$9*
0 Add four rect primitives between the rounded corners*
20,1,$1+$1,$2,$3,$4,$5,0*
20,1,$1+$1,$4,$5,$6,$7,0*
20,1,$1+$1,$6,$7,$8,$9,0*
20,1,$1+$1,$8,$9,$2,$3,0*%
%AMFreePoly0*
4,1,18,4.107426,1.032426,4.125000,0.990000,4.125000,-0.990000,4.107426,-1.032426,4.065000,-1.050000,1.345000,-1.050000,1.302573,-1.032426,0.692574,-0.422426,0.675000,-0.380000,-0.735000,-0.380000,-0.735000,0.380000,0.675000,0.380000,0.692574,0.422426,1.302573,1.032426,1.315000,1.037573,1.345000,1.050000,4.065000,1.050000,4.107426,1.032426,4.107426,1.032426,$1*%
G04 Aperture macros list end*
%ADD10C,0.127000*%
%ADD11R,0.660000X1.570000*%
%ADD12FreePoly0,90.000000*%
%ADD13RoundRect,0.225000X0.225000X0.250000X-0.225000X0.250000X-0.225000X-0.250000X0.225000X-0.250000X0*%
%ADD14RoundRect,0.140000X0.170000X-0.140000X0.170000X0.140000X-0.170000X0.140000X-0.170000X-0.140000X0*%
%ADD15RoundRect,0.225000X0.250000X-0.225000X0.250000X0.225000X-0.250000X0.225000X-0.250000X-0.225000X0*%
%ADD16R,1.350000X0.400000*%
%ADD17R,1.900000X1.500000*%
%ADD18R,1.900000X1.200000*%
%ADD19O,1.900000X1.200000*%
%ADD20C,1.450000*%
%ADD21C,1.000000*%
%ADD22RoundRect,0.200000X0.275000X-0.200000X0.275000X0.200000X-0.275000X0.200000X-0.275000X-0.200000X0*%
%ADD23RoundRect,0.200000X-0.275000X0.200000X-0.275000X-0.200000X0.275000X-0.200000X0.275000X0.200000X0*%
%ADD24RoundRect,0.147500X-0.172500X0.147500X-0.172500X-0.147500X0.172500X-0.147500X0.172500X0.147500X0*%
%ADD25R,1.800000X1.800000*%
%ADD26C,1.800000*%
%ADD27C,3.800000*%
%ADD28C,2.600000*%
%ADD29RoundRect,0.200000X-0.200000X-0.275000X0.200000X-0.275000X0.200000X0.275000X-0.200000X0.275000X0*%
%ADD30RoundRect,0.140000X-0.140000X-0.170000X0.140000X-0.170000X0.140000X0.170000X-0.140000X0.170000X0*%
%ADD31C,6.400000*%
%ADD32C,3.600000*%
%ADD33RoundRect,0.140000X-0.170000X0.140000X-0.170000X-0.140000X0.170000X-0.140000X0.170000X0.140000X0*%
%ADD34RoundRect,0.147500X-0.147500X-0.172500X0.147500X-0.172500X0.147500X0.172500X-0.147500X0.172500X0*%
%ADD35RoundRect,0.225000X-0.225000X-0.250000X0.225000X-0.250000X0.225000X0.250000X-0.225000X0.250000X0*%
%ADD36R,0.650000X0.400000*%
%ADD37RoundRect,0.135000X-0.135000X-0.185000X0.135000X-0.185000X0.135000X0.185000X-0.135000X0.185000X0*%
%ADD38RoundRect,0.200000X-0.600000X0.200000X-0.600000X-0.200000X0.600000X-0.200000X0.600000X0.200000X0*%
%ADD39RoundRect,0.250001X-1.249999X0.799999X-1.249999X-0.799999X1.249999X-0.799999X1.249999X0.799999X0*%
%ADD40RoundRect,0.250000X1.100000X-0.325000X1.100000X0.325000X-1.100000X0.325000X-1.100000X-0.325000X0*%
%ADD41RoundRect,0.200000X0.200000X0.275000X-0.200000X0.275000X-0.200000X-0.275000X0.200000X-0.275000X0*%
%ADD42RoundRect,0.135000X0.135000X0.185000X-0.135000X0.185000X-0.135000X-0.185000X0.135000X-0.185000X0*%
%ADD43RoundRect,0.225000X-0.250000X0.225000X-0.250000X-0.225000X0.250000X-0.225000X0.250000X0.225000X0*%
%ADD44R,1.700000X1.700000*%
%ADD45O,1.700000X1.700000*%
%ADD46RoundRect,0.140000X0.140000X0.170000X-0.140000X0.170000X-0.140000X-0.170000X0.140000X-0.170000X0*%
%ADD47RoundRect,0.150000X-0.512500X-0.150000X0.512500X-0.150000X0.512500X0.150000X-0.512500X0.150000X0*%
%ADD48RoundRect,0.218750X0.218750X0.256250X-0.218750X0.256250X-0.218750X-0.256250X0.218750X-0.256250X0*%
%ADD49RoundRect,0.250000X-0.325000X-0.650000X0.325000X-0.650000X0.325000X0.650000X-0.325000X0.650000X0*%
%ADD50RoundRect,0.150000X-0.350000X0.150000X-0.350000X-0.150000X0.350000X-0.150000X0.350000X0.150000X0*%
%ADD51RoundRect,0.250000X-0.650000X0.375000X-0.650000X-0.375000X0.650000X-0.375000X0.650000X0.375000X0*%
%ADD52RoundRect,0.249999X-0.737501X-2.450001X0.737501X-2.450001X0.737501X2.450001X-0.737501X2.450001X0*%
%ADD53RoundRect,0.250000X-0.325000X-1.100000X0.325000X-1.100000X0.325000X1.100000X-0.325000X1.100000X0*%
%ADD54RoundRect,0.062500X0.062500X-0.362500X0.062500X0.362500X-0.062500X0.362500X-0.062500X-0.362500X0*%
%ADD55RoundRect,0.062500X0.362500X-0.062500X0.362500X0.062500X-0.362500X0.062500X-0.362500X-0.062500X0*%
%ADD56R,2.650000X1.650000*%
%ADD57RoundRect,0.250000X-0.250000X-0.475000X0.250000X-0.475000X0.250000X0.475000X-0.250000X0.475000X0*%
%ADD58RoundRect,0.250000X0.325000X0.650000X-0.325000X0.650000X-0.325000X-0.650000X0.325000X-0.650000X0*%
%ADD59RoundRect,0.150000X0.825000X0.150000X-0.825000X0.150000X-0.825000X-0.150000X0.825000X-0.150000X0*%
%ADD60RoundRect,0.375000X-17.975000X-0.375000X17.975000X-0.375000X17.975000X0.375000X-17.975000X0.375000X0*%
%ADD61RoundRect,0.375000X0.375000X-9.725000X0.375000X9.725000X-0.375000X9.725000X-0.375000X-9.725000X0*%
%ADD62RoundRect,0.375000X-0.875000X-0.375000X0.875000X-0.375000X0.875000X0.375000X-0.875000X0.375000X0*%
%ADD63RoundRect,0.375000X0.375000X-0.875000X0.375000X0.875000X-0.375000X0.875000X-0.375000X-0.875000X0*%
%ADD64RoundRect,0.218750X-0.256250X0.218750X-0.256250X-0.218750X0.256250X-0.218750X0.256250X0.218750X0*%
%ADD65RoundRect,0.147500X0.147500X0.172500X-0.147500X0.172500X-0.147500X-0.172500X0.147500X-0.172500X0*%
%ADD66RoundRect,0.200100X-0.949900X-0.949900X0.949900X-0.949900X0.949900X0.949900X-0.949900X0.949900X0*%
%ADD67C,2.500000*%
%ADD68RoundRect,0.249999X2.450001X-0.737501X2.450001X0.737501X-2.450001X0.737501X-2.450001X-0.737501X0*%
%ADD69RoundRect,0.093750X0.093750X0.106250X-0.093750X0.106250X-0.093750X-0.106250X0.093750X-0.106250X0*%
%ADD70R,1.000000X1.600000*%
%ADD71RoundRect,0.243750X-0.456250X0.243750X-0.456250X-0.243750X0.456250X-0.243750X0.456250X0.243750X0*%
%ADD72R,0.800000X0.900000*%
%ADD73RoundRect,0.075000X0.200000X0.075000X-0.200000X0.075000X-0.200000X-0.075000X0.200000X-0.075000X0*%
%ADD74RoundRect,0.075000X0.400000X0.750000X-0.400000X0.750000X-0.400000X-0.750000X0.400000X-0.750000X0*%
%ADD75RoundRect,0.135000X-0.185000X0.135000X-0.185000X-0.135000X0.185000X-0.135000X0.185000X0.135000X0*%
%ADD76RoundRect,0.135000X0.185000X-0.135000X0.185000X0.135000X-0.185000X0.135000X-0.185000X-0.135000X0*%
%ADD77R,0.800000X1.500000*%
%ADD78RoundRect,0.150000X0.512500X0.150000X-0.512500X0.150000X-0.512500X-0.150000X0.512500X-0.150000X0*%
%ADD79R,2.400000X0.740000*%
%ADD80RoundRect,0.375000X0.375000X-9.724650X0.375000X9.724650X-0.375000X9.724650X-0.375000X-9.724650X0*%
%ADD81RoundRect,0.075000X-0.075000X0.662500X-0.075000X-0.662500X0.075000X-0.662500X0.075000X0.662500X0*%
%ADD82RoundRect,0.075000X-0.662500X0.075000X-0.662500X-0.075000X0.662500X-0.075000X0.662500X0.075000X0*%
%ADD83RoundRect,0.062500X0.337500X0.062500X-0.337500X0.062500X-0.337500X-0.062500X0.337500X-0.062500X0*%
%ADD84RoundRect,0.062500X0.062500X0.337500X-0.062500X0.337500X-0.062500X-0.337500X0.062500X-0.337500X0*%
%ADD85R,3.350000X3.350000*%
G04 APERTURE END LIST*
D10*
X161417000Y-111633000D02*
X161417000Y-111633000D01*
X161417000Y-111633000D02*
X161417000Y-111633000D01*
X161417000Y-111633000D02*
X161417000Y-111633000D01*
X161417000Y-111633000D02*
X161417000Y-111633000D01*
X160401000Y-110744000D02*
X161417000Y-110744000D01*
X161417000Y-110744000D02*
X161417000Y-111760000D01*
X161417000Y-111760000D02*
X160401000Y-111760000D01*
X160401000Y-111760000D02*
X160401000Y-110744000D01*
G36*
X160401000Y-110744000D02*
G01*
X161417000Y-110744000D01*
X161417000Y-111760000D01*
X160401000Y-111760000D01*
X160401000Y-110744000D01*
G37*
X165925500Y-100711000D02*
X169100500Y-100711000D01*
X169100500Y-100711000D02*
X169100500Y-103759000D01*
X169100500Y-103759000D02*
X165925500Y-103759000D01*
X165925500Y-103759000D02*
X165925500Y-100711000D01*
G36*
X165925500Y-100711000D02*
G01*
X169100500Y-100711000D01*
X169100500Y-103759000D01*
X165925500Y-103759000D01*
X165925500Y-100711000D01*
G37*
X161417000Y-111633000D02*
X161417000Y-111633000D01*
X161417000Y-111633000D02*
X161417000Y-111633000D01*
X161417000Y-111633000D02*
X161417000Y-111633000D01*
X161417000Y-111633000D02*
X161417000Y-111633000D01*
X160401000Y-110744000D02*
X161417000Y-110744000D01*
X161417000Y-110744000D02*
X161417000Y-111760000D01*
X161417000Y-111760000D02*
X160401000Y-111760000D01*
X160401000Y-111760000D02*
X160401000Y-110744000D01*
G36*
X160401000Y-110744000D02*
G01*
X161417000Y-110744000D01*
X161417000Y-111760000D01*
X160401000Y-111760000D01*
X160401000Y-110744000D01*
G37*
X165925500Y-100711000D02*
X169100500Y-100711000D01*
X169100500Y-100711000D02*
X169100500Y-103759000D01*
X169100500Y-103759000D02*
X165925500Y-103759000D01*
X165925500Y-103759000D02*
X165925500Y-100711000D01*
G36*
X165925500Y-100711000D02*
G01*
X169100500Y-100711000D01*
X169100500Y-103759000D01*
X165925500Y-103759000D01*
X165925500Y-100711000D01*
G37*
D11*
%TO.C,PA1*%
X153810000Y-124575000D03*
D12*
X155310000Y-124575000D03*
D11*
X156810000Y-124575000D03*
%TD*%
D13*
%TO.C,C17*%
X119785000Y-136925000D03*
X118235000Y-136925000D03*
%TD*%
D14*
%TO.C,C16*%
X116710000Y-135645000D03*
X116710000Y-136605000D03*
%TD*%
D15*
%TO.C,C68*%
X113560000Y-133400000D03*
X113560000Y-134950000D03*
%TD*%
D16*
%TO.C,J1*%
X111460000Y-102125000D03*
X111460000Y-102775000D03*
X111460000Y-103425000D03*
X111460000Y-104075000D03*
X111460000Y-104725000D03*
D17*
X108760000Y-102425000D03*
D18*
X108760000Y-106325000D03*
D19*
X108760000Y-106925000D03*
D20*
X111460000Y-100925000D03*
D19*
X108760000Y-99925000D03*
D18*
X108760000Y-100525000D03*
D20*
X111460000Y-105925000D03*
D17*
X108760000Y-104425000D03*
%TD*%
D21*
%TO.C,TP8*%
X113030000Y-97790000D03*
%TD*%
D22*
%TO.C,R43*%
X159385000Y-116142000D03*
X159385000Y-117792000D03*
%TD*%
D23*
%TO.C,R42*%
X174879000Y-95822000D03*
X174879000Y-97472000D03*
%TD*%
D22*
%TO.C,R41*%
X187452000Y-71311000D03*
X187452000Y-72961000D03*
%TD*%
D14*
%TO.C,C35*%
X130566679Y-126259971D03*
X130566679Y-125299971D03*
%TD*%
D22*
%TO.C,R26*%
X170825000Y-95440000D03*
X170825000Y-93790000D03*
%TD*%
D24*
%TO.C,L13*%
X146967000Y-125803800D03*
X146967000Y-126773800D03*
%TD*%
D25*
%TO.C,D1*%
X113823000Y-112796000D03*
D26*
X113823000Y-115336000D03*
%TD*%
D15*
%TO.C,C9*%
X140132000Y-92215000D03*
X140132000Y-90665000D03*
%TD*%
D27*
%TO.C,H10*%
X183642000Y-136652000D03*
D28*
X183642000Y-136652000D03*
%TD*%
D29*
%TO.C,R10*%
X116777000Y-115316000D03*
X118427000Y-115316000D03*
%TD*%
D22*
%TO.C,R7*%
X138684000Y-112077000D03*
X138684000Y-110427000D03*
%TD*%
D30*
%TO.C,C67*%
X137315000Y-124587000D03*
X138275000Y-124587000D03*
%TD*%
D31*
%TO.C,H3*%
X110490000Y-144150000D03*
D32*
X110490000Y-144150000D03*
%TD*%
D33*
%TO.C,C26*%
X122422179Y-130958971D03*
X122422179Y-131918971D03*
%TD*%
D34*
%TO.C,L14*%
X150509171Y-124598229D03*
X151479171Y-124598229D03*
%TD*%
D35*
%TO.C,C43*%
X174007000Y-84099400D03*
X175557000Y-84099400D03*
%TD*%
D21*
%TO.C,TP11*%
X136017000Y-109982000D03*
%TD*%
D33*
%TO.C,C53*%
X165354000Y-124615000D03*
X165354000Y-125575000D03*
%TD*%
D14*
%TO.C,C33*%
X130028471Y-129384048D03*
X130028471Y-128424048D03*
%TD*%
D34*
%TO.C,L16*%
X162926098Y-124602840D03*
X163896098Y-124602840D03*
%TD*%
D14*
%TO.C,C57*%
X177292000Y-128115000D03*
X177292000Y-127155000D03*
%TD*%
D22*
%TO.C,R17*%
X110865179Y-130871971D03*
X110865179Y-129221971D03*
%TD*%
D36*
%TO.C,U7*%
X175592521Y-124555229D03*
X175592521Y-125205229D03*
X175592521Y-125855229D03*
X177492521Y-125855229D03*
X177492521Y-125205229D03*
X177492521Y-124555229D03*
%TD*%
D37*
%TO.C,R38*%
X133726600Y-129389371D03*
X134746600Y-129389371D03*
%TD*%
D38*
%TO.C,J3*%
X121780000Y-89565000D03*
X121780000Y-90815000D03*
X121780000Y-92065000D03*
X121780000Y-93315000D03*
D39*
X118880000Y-95865000D03*
X118880000Y-87015000D03*
%TD*%
D21*
%TO.C,TP2*%
X108077000Y-118745000D03*
%TD*%
D40*
%TO.C,C19*%
X111252000Y-137111000D03*
X111252000Y-134161000D03*
%TD*%
D41*
%TO.C,R13*%
X161226000Y-98679000D03*
X159576000Y-98679000D03*
%TD*%
D24*
%TO.C,L3*%
X120914679Y-125266971D03*
X120914679Y-126236971D03*
%TD*%
D32*
%TO.C,H6*%
X190500000Y-144150000D03*
D31*
X190500000Y-144150000D03*
%TD*%
D36*
%TO.C,U4*%
X183666200Y-74408029D03*
X183666200Y-73758029D03*
X183666200Y-73108029D03*
X181766200Y-73108029D03*
X181766200Y-74408029D03*
%TD*%
D34*
%TO.C,L6*%
X125964471Y-129412048D03*
X126934471Y-129412048D03*
%TD*%
D42*
%TO.C,R14*%
X125006179Y-136650971D03*
X123986179Y-136650971D03*
%TD*%
D21*
%TO.C,TP9*%
X167767000Y-111125000D03*
%TD*%
D41*
%TO.C,R16*%
X118151650Y-134175000D03*
X116501650Y-134175000D03*
%TD*%
D23*
%TO.C,R40*%
X166624000Y-108013500D03*
X166624000Y-109663500D03*
%TD*%
D43*
%TO.C,C66*%
X162179000Y-108318000D03*
X162179000Y-109868000D03*
%TD*%
D44*
%TO.C,H2*%
X119380000Y-60970000D03*
D45*
X119380000Y-58430000D03*
X121920000Y-60970000D03*
X121920000Y-58420000D03*
X124460000Y-60970000D03*
X124460000Y-58420000D03*
X127000000Y-60970000D03*
X127000000Y-58420000D03*
X129540000Y-60970000D03*
X129540000Y-58420000D03*
X132080000Y-60970000D03*
X132080000Y-58420000D03*
X134620000Y-60970000D03*
X134620000Y-58420000D03*
X137160000Y-60970000D03*
X137160000Y-58420000D03*
X139700000Y-60970000D03*
X139700000Y-58420000D03*
X142240000Y-60970000D03*
X142240000Y-58420000D03*
X144780000Y-60970000D03*
X144780000Y-58420000D03*
X147320000Y-60970000D03*
X147320000Y-58420000D03*
X149860000Y-60970000D03*
X149860000Y-58420000D03*
X152400000Y-60970000D03*
X152400000Y-58420000D03*
X154940000Y-60970000D03*
X154940000Y-58420000D03*
X157480000Y-60970000D03*
X157480000Y-58420000D03*
X160020000Y-60970000D03*
X160020000Y-58420000D03*
X162560000Y-60970000D03*
X162560000Y-58420000D03*
X165100000Y-60970000D03*
X165100000Y-58420000D03*
X167640000Y-60970000D03*
X167640000Y-58420000D03*
X170180000Y-60970000D03*
X170180000Y-58420000D03*
X172720000Y-60970000D03*
X172720000Y-58420000D03*
X175260000Y-60970000D03*
X175260000Y-58420000D03*
X177800000Y-60970000D03*
X177800000Y-58420000D03*
X180340000Y-60970000D03*
X180340000Y-58420000D03*
X182880000Y-60970000D03*
X182880000Y-58420000D03*
%TD*%
D13*
%TO.C,C8*%
X135776000Y-112014000D03*
X134226000Y-112014000D03*
%TD*%
D29*
%TO.C,R1*%
X108764200Y-110236000D03*
X110414200Y-110236000D03*
%TD*%
D35*
%TO.C,C60*%
X141579000Y-75946000D03*
X143129000Y-75946000D03*
%TD*%
D46*
%TO.C,C51*%
X163675000Y-122301000D03*
X162715000Y-122301000D03*
%TD*%
D35*
%TO.C,C63*%
X147180000Y-111125000D03*
X148730000Y-111125000D03*
%TD*%
D33*
%TO.C,C25*%
X122422179Y-128452122D03*
X122422179Y-129412122D03*
%TD*%
D28*
%TO.C,H9*%
X142113000Y-117348000D03*
D27*
X142113000Y-117348000D03*
%TD*%
D14*
%TO.C,C58*%
X177419000Y-123186818D03*
X177419000Y-122226818D03*
%TD*%
D31*
%TO.C,H4*%
X114300000Y-58420000D03*
D32*
X114300000Y-58420000D03*
%TD*%
D27*
%TO.C,H8*%
X145161000Y-136652000D03*
D28*
X145161000Y-136652000D03*
%TD*%
D22*
%TO.C,R35*%
X135954000Y-78976000D03*
X135954000Y-77326000D03*
%TD*%
D21*
%TO.C,TP1*%
X143682629Y-92212000D03*
%TD*%
%TO.C,TP5*%
X161925000Y-76200000D03*
%TD*%
D41*
%TO.C,R25*%
X167703000Y-92075000D03*
X166053000Y-92075000D03*
%TD*%
D44*
%TO.C,J6*%
X123439000Y-99441000D03*
D45*
X125979000Y-99441000D03*
%TD*%
D47*
%TO.C,U11*%
X143007500Y-109286000D03*
X143007500Y-110236000D03*
X143007500Y-111186000D03*
X145282500Y-111186000D03*
X145282500Y-110236000D03*
X145282500Y-109286000D03*
%TD*%
D15*
%TO.C,C61*%
X126873000Y-81788000D03*
X126873000Y-80238000D03*
%TD*%
D35*
%TO.C,C62*%
X125450000Y-76073000D03*
X127000000Y-76073000D03*
%TD*%
D46*
%TO.C,C29*%
X124779179Y-130958971D03*
X123819179Y-130958971D03*
%TD*%
D44*
%TO.C,J5*%
X126106000Y-108204000D03*
D45*
X123566000Y-108204000D03*
X126106000Y-105664000D03*
X123566000Y-105664000D03*
X126106000Y-103124000D03*
X123566000Y-103124000D03*
%TD*%
D41*
%TO.C,R22*%
X172285000Y-87828029D03*
X170635000Y-87828029D03*
%TD*%
D48*
%TO.C,L2*%
X117119500Y-125349000D03*
X115544500Y-125349000D03*
%TD*%
D14*
%TO.C,C56*%
X178689000Y-125270200D03*
X178689000Y-124310200D03*
%TD*%
D49*
%TO.C,C5*%
X145686629Y-104193000D03*
X148636629Y-104193000D03*
%TD*%
D33*
%TO.C,C31*%
X128518179Y-130958971D03*
X128518179Y-131918971D03*
%TD*%
D50*
%TO.C,J4*%
X122937000Y-74228000D03*
X122937000Y-75728000D03*
X122937000Y-77228000D03*
X122937000Y-78728000D03*
X122937000Y-80228000D03*
X122937000Y-81728000D03*
D51*
X117747000Y-71623000D03*
X117747000Y-84333000D03*
%TD*%
D52*
%TO.C,C64*%
X173929725Y-110109000D03*
X179204725Y-110109000D03*
%TD*%
D14*
%TO.C,C52*%
X172605521Y-124669229D03*
X172605521Y-123709229D03*
%TD*%
D43*
%TO.C,C42*%
X185674000Y-75959000D03*
X185674000Y-74409000D03*
%TD*%
%TO.C,C41*%
X187491400Y-75955429D03*
X187491400Y-74405429D03*
%TD*%
D13*
%TO.C,C12*%
X130950000Y-103124000D03*
X129400000Y-103124000D03*
%TD*%
D22*
%TO.C,R29*%
X169164000Y-94576400D03*
X169164000Y-92926400D03*
%TD*%
D33*
%TO.C,C24*%
X122438679Y-125243971D03*
X122438679Y-126203971D03*
%TD*%
D13*
%TO.C,C18*%
X118075650Y-135575000D03*
X119625650Y-135575000D03*
%TD*%
D29*
%TO.C,R19*%
X181801000Y-75946000D03*
X183451000Y-75946000D03*
%TD*%
D53*
%TO.C,C50*%
X161847000Y-119888000D03*
X164797000Y-119888000D03*
%TD*%
D54*
%TO.C,U6*%
X171353000Y-92280400D03*
X171853000Y-92280400D03*
X172353000Y-92280400D03*
X172853000Y-92280400D03*
X173353000Y-92280400D03*
X173853000Y-92280400D03*
D55*
X174553000Y-91580400D03*
X174553000Y-91080400D03*
X174553000Y-90580400D03*
X174553000Y-90080400D03*
D54*
X173853000Y-89380400D03*
X173353000Y-89380400D03*
X172853000Y-89380400D03*
X172353000Y-89380400D03*
X171853000Y-89380400D03*
X171353000Y-89380400D03*
D55*
X170653000Y-90080400D03*
X170653000Y-90580400D03*
X170653000Y-91080400D03*
X170653000Y-91580400D03*
D56*
X172603000Y-90830400D03*
%TD*%
D46*
%TO.C,C34*%
X132582179Y-130958971D03*
X131622179Y-130958971D03*
%TD*%
D42*
%TO.C,R3*%
X110349000Y-58425000D03*
X109329000Y-58425000D03*
%TD*%
D24*
%TO.C,L15*%
X161810521Y-123624200D03*
X161810521Y-124594200D03*
%TD*%
D27*
%TO.C,H7*%
X183642000Y-117348000D03*
D28*
X183642000Y-117348000D03*
%TD*%
D41*
%TO.C,R36*%
X127063000Y-77597000D03*
X125413000Y-77597000D03*
%TD*%
D13*
%TO.C,C39*%
X169672000Y-74168000D03*
X168122000Y-74168000D03*
%TD*%
D57*
%TO.C,C44*%
X176088000Y-89789000D03*
X177988000Y-89789000D03*
%TD*%
D58*
%TO.C,C13*%
X148668000Y-101854000D03*
X145718000Y-101854000D03*
%TD*%
D34*
%TO.C,L7*%
X125978179Y-130958971D03*
X126948179Y-130958971D03*
%TD*%
D52*
%TO.C,C65*%
X174019500Y-103759000D03*
X179294500Y-103759000D03*
%TD*%
D33*
%TO.C,C37*%
X134249679Y-126255171D03*
X134249679Y-127215171D03*
%TD*%
D46*
%TO.C,C54*%
X174470000Y-124587000D03*
X173510000Y-124587000D03*
%TD*%
D59*
%TO.C,U9*%
X150113771Y-79793229D03*
X150113771Y-78523229D03*
X150113771Y-77253229D03*
X150113771Y-75983229D03*
X150113771Y-74713229D03*
X150113771Y-73443229D03*
X150113771Y-72173229D03*
X145163771Y-72173229D03*
X145163771Y-73443229D03*
X145163771Y-74713229D03*
X145163771Y-75983229D03*
X145163771Y-77253229D03*
X145163771Y-78523229D03*
X145163771Y-79793229D03*
%TD*%
D23*
%TO.C,R11*%
X148844000Y-106109000D03*
X148844000Y-107759000D03*
%TD*%
D13*
%TO.C,C45*%
X168796000Y-90551000D03*
X167246000Y-90551000D03*
%TD*%
D60*
%TO.C,S3*%
X162782107Y-133018835D03*
D61*
X145182107Y-123668835D03*
D62*
X152682107Y-133018835D03*
D63*
X180382107Y-130418835D03*
D62*
X165082107Y-114318835D03*
D61*
X180382107Y-123668835D03*
D60*
X162782107Y-114318835D03*
%TD*%
D49*
%TO.C,C7*%
X133702000Y-95387000D03*
X136652000Y-95387000D03*
%TD*%
D64*
%TO.C,L12*%
X171450000Y-74142500D03*
X171450000Y-75717500D03*
%TD*%
D21*
%TO.C,TP7*%
X113665000Y-96012000D03*
%TD*%
D65*
%TO.C,L8*%
X127472679Y-126236971D03*
X126502679Y-126236971D03*
%TD*%
D43*
%TO.C,C22*%
X109220000Y-129273000D03*
X109220000Y-130823000D03*
%TD*%
D37*
%TO.C,R2*%
X114679000Y-144145000D03*
X115699000Y-144145000D03*
%TD*%
D66*
%TO.C,J2*%
X190881000Y-123698000D03*
D67*
X193421000Y-121158000D03*
X193421000Y-126238000D03*
X188341000Y-126238000D03*
X188341000Y-121158000D03*
%TD*%
D59*
%TO.C,U10*%
X133980900Y-79883000D03*
X133980900Y-78613000D03*
X133980900Y-77343000D03*
X133980900Y-76073000D03*
X133980900Y-74803000D03*
X133980900Y-73533000D03*
X133980900Y-72263000D03*
X129030900Y-72263000D03*
X129030900Y-73533000D03*
X129030900Y-74803000D03*
X129030900Y-76073000D03*
X129030900Y-77343000D03*
X129030900Y-78613000D03*
X129030900Y-79883000D03*
%TD*%
D41*
%TO.C,R34*%
X143170471Y-77470000D03*
X141520471Y-77470000D03*
%TD*%
D35*
%TO.C,C20*%
X119869179Y-133856971D03*
X121419179Y-133856971D03*
%TD*%
D41*
%TO.C,R27*%
X173936000Y-93878400D03*
X172286000Y-93878400D03*
%TD*%
D43*
%TO.C,C2*%
X140380629Y-93840000D03*
X140380629Y-95390000D03*
%TD*%
D29*
%TO.C,R8*%
X129346429Y-98283000D03*
X130996429Y-98283000D03*
%TD*%
D35*
%TO.C,C1*%
X108814200Y-108740000D03*
X110364200Y-108740000D03*
%TD*%
D14*
%TO.C,C32*%
X129042679Y-126213971D03*
X129042679Y-125253971D03*
%TD*%
D30*
%TO.C,C36*%
X132108000Y-125095000D03*
X133068000Y-125095000D03*
%TD*%
D41*
%TO.C,R21*%
X173999000Y-86304029D03*
X172349000Y-86304029D03*
%TD*%
D13*
%TO.C,C14*%
X116598429Y-122172971D03*
X115048429Y-122172971D03*
%TD*%
D15*
%TO.C,C23*%
X115210000Y-135750000D03*
X115210000Y-134200000D03*
%TD*%
D30*
%TO.C,C55*%
X174018000Y-130429000D03*
X174978000Y-130429000D03*
%TD*%
D68*
%TO.C,C40*%
X175387000Y-75408500D03*
X175387000Y-70133500D03*
%TD*%
D21*
%TO.C,TP4*%
X132080000Y-107950000D03*
%TD*%
D69*
%TO.C,U5*%
X175649500Y-80920400D03*
X175649500Y-80270400D03*
X175649500Y-79620400D03*
X173874500Y-79620400D03*
X173874500Y-80270400D03*
X173874500Y-80920400D03*
D70*
X174762000Y-80270400D03*
%TD*%
D71*
%TO.C,F1*%
X115443000Y-101805500D03*
X115443000Y-103680500D03*
%TD*%
D72*
%TO.C,X1*%
X121406179Y-136842971D03*
X121406179Y-135442971D03*
X122506179Y-135442971D03*
X122506179Y-136842971D03*
%TD*%
D33*
%TO.C,C49*%
X147955000Y-125758000D03*
X147955000Y-126718000D03*
%TD*%
D24*
%TO.C,L5*%
X120898179Y-130958971D03*
X120898179Y-131928971D03*
%TD*%
D21*
%TO.C,TP10*%
X133858000Y-109982000D03*
%TD*%
D64*
%TO.C,L1*%
X136652000Y-91922500D03*
X136652000Y-93497500D03*
%TD*%
D73*
%TO.C,U12*%
X165288000Y-111367000D03*
X165288000Y-110867000D03*
X165288000Y-110367000D03*
X165288000Y-109867000D03*
X163388000Y-109867000D03*
D74*
X164338000Y-110617000D03*
D73*
X163388000Y-110367000D03*
X163392794Y-110871045D03*
X163392794Y-111367000D03*
%TD*%
D35*
%TO.C,C47*%
X176554800Y-91973400D03*
X178104800Y-91973400D03*
%TD*%
D46*
%TO.C,C48*%
X147927000Y-124587000D03*
X146967000Y-124587000D03*
%TD*%
D34*
%TO.C,L11*%
X132113679Y-126259971D03*
X133083679Y-126259971D03*
%TD*%
D41*
%TO.C,R23*%
X170697000Y-86304029D03*
X169047000Y-86304029D03*
%TD*%
D30*
%TO.C,C38*%
X136934000Y-130429000D03*
X137894000Y-130429000D03*
%TD*%
D24*
%TO.C,L9*%
X130042179Y-130958971D03*
X130042179Y-131928971D03*
%TD*%
D23*
%TO.C,R15*%
X118242250Y-122266000D03*
X118242250Y-123916000D03*
%TD*%
D29*
%TO.C,R6*%
X129346429Y-99840000D03*
X130996429Y-99840000D03*
%TD*%
D75*
%TO.C,R4*%
X187960000Y-62360000D03*
X187960000Y-63380000D03*
%TD*%
D76*
%TO.C,R37*%
X133748179Y-131491971D03*
X133748179Y-130471971D03*
%TD*%
%TO.C,R39*%
X134891179Y-131491971D03*
X134891179Y-130471971D03*
%TD*%
D44*
%TO.C,H1*%
X119380000Y-66050000D03*
D45*
X119380000Y-63510000D03*
X121920000Y-66050000D03*
X121920000Y-63500000D03*
X124460000Y-66050000D03*
X124460000Y-63500000D03*
X127000000Y-66050000D03*
X127000000Y-63500000D03*
X129540000Y-66050000D03*
X129540000Y-63500000D03*
X132080000Y-66050000D03*
X132080000Y-63500000D03*
X134620000Y-66050000D03*
X134620000Y-63500000D03*
X137160000Y-66050000D03*
X137160000Y-63500000D03*
X139700000Y-66050000D03*
X139700000Y-63500000D03*
X142240000Y-66050000D03*
X142240000Y-63500000D03*
X144780000Y-66050000D03*
X144780000Y-63500000D03*
X147320000Y-66050000D03*
X147320000Y-63500000D03*
X149860000Y-66050000D03*
X149860000Y-63500000D03*
X152400000Y-66050000D03*
X152400000Y-63500000D03*
X154940000Y-66050000D03*
X154940000Y-63500000D03*
X157480000Y-66050000D03*
X157480000Y-63500000D03*
X160020000Y-66050000D03*
X160020000Y-63500000D03*
X162560000Y-66050000D03*
X162560000Y-63500000D03*
X165100000Y-66050000D03*
X165100000Y-63500000D03*
X167640000Y-66050000D03*
X167640000Y-63500000D03*
X170180000Y-66050000D03*
X170180000Y-63500000D03*
X172720000Y-66050000D03*
X172720000Y-63500000D03*
X175260000Y-66050000D03*
X175260000Y-63500000D03*
X177800000Y-66050000D03*
X177800000Y-63500000D03*
X180340000Y-66050000D03*
X180340000Y-63500000D03*
X182880000Y-66050000D03*
X182880000Y-63500000D03*
%TD*%
D23*
%TO.C,R28*%
X172349000Y-95339400D03*
X172349000Y-96989400D03*
%TD*%
D43*
%TO.C,C10*%
X140970000Y-110731000D03*
X140970000Y-112281000D03*
%TD*%
D21*
%TO.C,TP3*%
X133858000Y-108077000D03*
%TD*%
D22*
%TO.C,R18*%
X179832000Y-75882000D03*
X179832000Y-74232000D03*
%TD*%
D41*
%TO.C,R24*%
X169227000Y-89027000D03*
X167577000Y-89027000D03*
%TD*%
D33*
%TO.C,C30*%
X128504471Y-128452048D03*
X128504471Y-129412048D03*
%TD*%
D21*
%TO.C,TP6*%
X171450000Y-70358000D03*
%TD*%
D77*
%TO.C,Y1*%
X141916629Y-95046200D03*
X143416629Y-95046200D03*
%TD*%
D78*
%TO.C,U1*%
X120136500Y-104709000D03*
X120136500Y-103759000D03*
X120136500Y-102809000D03*
X117861500Y-102809000D03*
X117861500Y-103759000D03*
X117861500Y-104709000D03*
%TD*%
D13*
%TO.C,C15*%
X116598429Y-123823971D03*
X115048429Y-123823971D03*
%TD*%
D79*
%TO.C,J7*%
X152547229Y-97510600D03*
X156447229Y-97510600D03*
X152547229Y-98780600D03*
X156447229Y-98780600D03*
X152547229Y-100050600D03*
X156447229Y-100050600D03*
X152547229Y-101320600D03*
X156447229Y-101320600D03*
X152547229Y-102590600D03*
X156447229Y-102590600D03*
%TD*%
D62*
%TO.C,S1*%
X114180000Y-139192000D03*
D60*
X124280000Y-139192000D03*
D62*
X126580000Y-120492000D03*
D63*
X141880000Y-136592000D03*
D60*
X124280000Y-120492000D03*
D61*
X106680000Y-129842000D03*
D80*
X141884400Y-129841650D03*
%TD*%
D47*
%TO.C,U8*%
X154278598Y-117765829D03*
X154278598Y-118715829D03*
X154278598Y-119665829D03*
X156553598Y-119665829D03*
X156553598Y-118715829D03*
X156553598Y-117765829D03*
%TD*%
D76*
%TO.C,R31*%
X176403000Y-123192000D03*
X176403000Y-122172000D03*
%TD*%
D15*
%TO.C,C6*%
X138348629Y-95856520D03*
X138348629Y-94306520D03*
%TD*%
D42*
%TO.C,R5*%
X186549000Y-144150000D03*
X185529000Y-144150000D03*
%TD*%
D43*
%TO.C,C3*%
X144952629Y-93840000D03*
X144952629Y-95390000D03*
%TD*%
D22*
%TO.C,R33*%
X152296371Y-78926429D03*
X152296371Y-77276429D03*
%TD*%
D43*
%TO.C,C4*%
X147193000Y-106159000D03*
X147193000Y-107709000D03*
%TD*%
D81*
%TO.C,U2*%
X140756471Y-99451500D03*
X140256471Y-99451500D03*
X139756471Y-99451500D03*
X139256471Y-99451500D03*
X138756471Y-99451500D03*
X138256471Y-99451500D03*
X137756471Y-99451500D03*
X137256471Y-99451500D03*
X136756471Y-99451500D03*
X136256471Y-99451500D03*
X135756471Y-99451500D03*
X135256471Y-99451500D03*
D82*
X133843971Y-100864000D03*
X133843971Y-101364000D03*
X133843971Y-101864000D03*
X133843971Y-102364000D03*
X133843971Y-102864000D03*
X133843971Y-103364000D03*
X133843971Y-103864000D03*
X133843971Y-104364000D03*
X133843971Y-104864000D03*
X133843971Y-105364000D03*
X133843971Y-105864000D03*
X133843971Y-106364000D03*
D81*
X135256471Y-107776500D03*
X135756471Y-107776500D03*
X136256471Y-107776500D03*
X136756471Y-107776500D03*
X137256471Y-107776500D03*
X137756471Y-107776500D03*
X138256471Y-107776500D03*
X138756471Y-107776500D03*
X139256471Y-107776500D03*
X139756471Y-107776500D03*
X140256471Y-107776500D03*
X140756471Y-107776500D03*
D82*
X142168971Y-106364000D03*
X142168971Y-105864000D03*
X142168971Y-105364000D03*
X142168971Y-104864000D03*
X142168971Y-104364000D03*
X142168971Y-103864000D03*
X142168971Y-103364000D03*
X142168971Y-102864000D03*
X142168971Y-102364000D03*
X142168971Y-101864000D03*
X142168971Y-101364000D03*
X142168971Y-100864000D03*
%TD*%
D30*
%TO.C,C27*%
X123990679Y-126236971D03*
X124950679Y-126236971D03*
%TD*%
D24*
%TO.C,L4*%
X120898179Y-128441971D03*
X120898179Y-129411971D03*
%TD*%
D34*
%TO.C,L10*%
X131575471Y-129389048D03*
X132545471Y-129389048D03*
%TD*%
D29*
%TO.C,R30*%
X165037000Y-122301000D03*
X166687000Y-122301000D03*
%TD*%
D15*
%TO.C,C21*%
X119893250Y-123838000D03*
X119893250Y-122288000D03*
%TD*%
%TO.C,C59*%
X142621000Y-81420000D03*
X142621000Y-79870000D03*
%TD*%
D57*
%TO.C,C46*%
X176519800Y-94132400D03*
X178419800Y-94132400D03*
%TD*%
D22*
%TO.C,R12*%
X145593000Y-107759000D03*
X145593000Y-106109000D03*
%TD*%
D23*
%TO.C,R20*%
X189357000Y-76009000D03*
X189357000Y-74359000D03*
%TD*%
D31*
%TO.C,H5*%
X187960000Y-58420000D03*
D32*
X187960000Y-58420000D03*
%TD*%
D15*
%TO.C,C11*%
X141781200Y-92203200D03*
X141781200Y-90653200D03*
%TD*%
D22*
%TO.C,R9*%
X137371471Y-112077000D03*
X137371471Y-110427000D03*
%TD*%
D75*
%TO.C,R32*%
X176111098Y-127095829D03*
X176111098Y-128115829D03*
%TD*%
D30*
%TO.C,C28*%
X123805471Y-129412048D03*
X124765471Y-129412048D03*
%TD*%
D83*
%TO.C,U3*%
X118522179Y-131419971D03*
X118522179Y-130919971D03*
X118522179Y-130419971D03*
X118522179Y-129919971D03*
X118522179Y-129419971D03*
X118522179Y-128919971D03*
X118522179Y-128419971D03*
D84*
X117572179Y-127469971D03*
X117072179Y-127469971D03*
X116572179Y-127469971D03*
X116072179Y-127469971D03*
X115572179Y-127469971D03*
X115072179Y-127469971D03*
X114572179Y-127469971D03*
D83*
X113622179Y-128419971D03*
X113622179Y-128919971D03*
X113622179Y-129419971D03*
X113622179Y-129919971D03*
X113622179Y-130419971D03*
X113622179Y-130919971D03*
X113622179Y-131419971D03*
D84*
X114572179Y-132369971D03*
X115072179Y-132369971D03*
X115572179Y-132369971D03*
X116072179Y-132369971D03*
X116572179Y-132369971D03*
X117072179Y-132369971D03*
X117572179Y-132369971D03*
D85*
X116072179Y-129919971D03*
%TD*%
G36*
X171662531Y-123336213D02*
G01*
X171699076Y-123386513D01*
X171704000Y-123417600D01*
X171704000Y-125756400D01*
X171684787Y-125815531D01*
X171634487Y-125852076D01*
X171603400Y-125857000D01*
X166216600Y-125857000D01*
X166157469Y-125837787D01*
X166120924Y-125787487D01*
X166116000Y-125756400D01*
X166116000Y-123417600D01*
X166135213Y-123358469D01*
X166185513Y-123321924D01*
X166216600Y-123317000D01*
X171603400Y-123317000D01*
X171662531Y-123336213D01*
G37*
G36*
X152739531Y-123895013D02*
G01*
X152776076Y-123945313D01*
X152781000Y-123976400D01*
X152781000Y-125756400D01*
X152761787Y-125815531D01*
X152711487Y-125852076D01*
X152680400Y-125857000D01*
X148690600Y-125857000D01*
X148631469Y-125837787D01*
X148594924Y-125787487D01*
X148590000Y-125756400D01*
X148590000Y-124094933D01*
X148585812Y-124082043D01*
X148581623Y-124079000D01*
X148570613Y-124079000D01*
X148511482Y-124059787D01*
X148474937Y-124009487D01*
X148474937Y-123947313D01*
X148511482Y-123897013D01*
X148555855Y-123878888D01*
X148565194Y-123877503D01*
X148575016Y-123876536D01*
X148587534Y-123875921D01*
X148592470Y-123875800D01*
X152680400Y-123875800D01*
X152739531Y-123895013D01*
G37*
G36*
X190442121Y-67076002D02*
G01*
X190488614Y-67129658D01*
X190500000Y-67182000D01*
X190500000Y-68835000D01*
X190479998Y-68903121D01*
X190426342Y-68949614D01*
X190374000Y-68961000D01*
X186181000Y-68961000D01*
X186112879Y-68940998D01*
X186066386Y-68887342D01*
X186055000Y-68835000D01*
X186055000Y-67182000D01*
X186075002Y-67113879D01*
X186128658Y-67067386D01*
X186181000Y-67056000D01*
X190374000Y-67056000D01*
X190442121Y-67076002D01*
G37*
G36*
X152612531Y-129178213D02*
G01*
X152649076Y-129228513D01*
X152654000Y-129259600D01*
X152654000Y-131598400D01*
X152634787Y-131657531D01*
X152584487Y-131694076D01*
X152553400Y-131699000D01*
X147166600Y-131699000D01*
X147107469Y-131679787D01*
X147070924Y-131629487D01*
X147066000Y-131598400D01*
X147066000Y-129259600D01*
X147085213Y-129200469D01*
X147135513Y-129163924D01*
X147166600Y-129159000D01*
X152553400Y-129159000D01*
X152612531Y-129178213D01*
G37*
G36*
X161248531Y-124225213D02*
G01*
X161285076Y-124275513D01*
X161290000Y-124306600D01*
X161290000Y-125756400D01*
X161270787Y-125815531D01*
X161220487Y-125852076D01*
X161189400Y-125857000D01*
X158215600Y-125857000D01*
X158156469Y-125837787D01*
X158119924Y-125787487D01*
X158115000Y-125756400D01*
X158115000Y-124306600D01*
X158134213Y-124247469D01*
X158184513Y-124210924D01*
X158215600Y-124206000D01*
X161189400Y-124206000D01*
X161248531Y-124225213D01*
G37*
G36*
X173440531Y-129178213D02*
G01*
X173477076Y-129228513D01*
X173482000Y-129259600D01*
X173482000Y-131598400D01*
X173462787Y-131657531D01*
X173412487Y-131694076D01*
X173381400Y-131699000D01*
X167994600Y-131699000D01*
X167935469Y-131679787D01*
X167898924Y-131629487D01*
X167894000Y-131598400D01*
X167894000Y-129259600D01*
X167913213Y-129200469D01*
X167963513Y-129163924D01*
X167994600Y-129159000D01*
X173381400Y-129159000D01*
X173440531Y-129178213D01*
G37*
G36*
X140818531Y-122994213D02*
G01*
X140855076Y-123044513D01*
X140860000Y-123075600D01*
X140860000Y-131674400D01*
X140840787Y-131733531D01*
X140790487Y-131770076D01*
X140759400Y-131775000D01*
X135610546Y-131775000D01*
X135551415Y-131755787D01*
X135514870Y-131705487D01*
X135509946Y-131674454D01*
X135509000Y-129921085D01*
X135509000Y-129921000D01*
X135510000Y-126725000D01*
X135510000Y-123075600D01*
X135529213Y-123016469D01*
X135579513Y-122979924D01*
X135610600Y-122975000D01*
X140759400Y-122975000D01*
X140818531Y-122994213D01*
G37*
G36*
X152739531Y-123336213D02*
G01*
X152776076Y-123386513D01*
X152781000Y-123417600D01*
X152781000Y-124181600D01*
X152761787Y-124240731D01*
X152711487Y-124277276D01*
X152680400Y-124282200D01*
X148690600Y-124282200D01*
X148631469Y-124262987D01*
X148594924Y-124212687D01*
X148590000Y-124181600D01*
X148590000Y-124094933D01*
X148585812Y-124082043D01*
X148581623Y-124079000D01*
X147420600Y-124079000D01*
X147361469Y-124059787D01*
X147324924Y-124009487D01*
X147320000Y-123978400D01*
X147320000Y-123417600D01*
X147339213Y-123358469D01*
X147389513Y-123321924D01*
X147420600Y-123317000D01*
X152680400Y-123317000D01*
X152739531Y-123336213D01*
G37*
G36*
X140850661Y-122968152D02*
G01*
X140861341Y-122972576D01*
X140862424Y-122973659D01*
X140866848Y-122984339D01*
X140867000Y-122985104D01*
X140867000Y-131764896D01*
X140866848Y-131765661D01*
X140862424Y-131776341D01*
X140861341Y-131777424D01*
X140850661Y-131781848D01*
X140849896Y-131782000D01*
X135520104Y-131782000D01*
X135519339Y-131781848D01*
X135508651Y-131777421D01*
X135507568Y-131776339D01*
X135503147Y-131765672D01*
X135502995Y-131764907D01*
X135502000Y-129921031D01*
X135502000Y-129921000D01*
X135511000Y-129921000D01*
X135511999Y-131773000D01*
X140858000Y-131773000D01*
X140858000Y-122977000D01*
X135512000Y-122977000D01*
X135512000Y-126725000D01*
X135511000Y-129921000D01*
X135502000Y-129921000D01*
X135502000Y-129920999D01*
X135503000Y-126724999D01*
X135503000Y-122985104D01*
X135503152Y-122984339D01*
X135507576Y-122973659D01*
X135508659Y-122972576D01*
X135519339Y-122968152D01*
X135520104Y-122968000D01*
X140849896Y-122968000D01*
X140850661Y-122968152D01*
G37*
G36*
X152644661Y-129152152D02*
G01*
X152655341Y-129156576D01*
X152656424Y-129157659D01*
X152660848Y-129168339D01*
X152661000Y-129169104D01*
X152661000Y-131688896D01*
X152660848Y-131689661D01*
X152656424Y-131700341D01*
X152655341Y-131701424D01*
X152644661Y-131705848D01*
X152643896Y-131706000D01*
X147076104Y-131706000D01*
X147075339Y-131705848D01*
X147064659Y-131701424D01*
X147063576Y-131700341D01*
X147062192Y-131697000D01*
X147068000Y-131697000D01*
X152652000Y-131697000D01*
X152652000Y-129161000D01*
X147068000Y-129161000D01*
X147068000Y-131697000D01*
X147062192Y-131697000D01*
X147059152Y-131689661D01*
X147059000Y-131688896D01*
X147059000Y-129169104D01*
X147059152Y-129168339D01*
X147063576Y-129157659D01*
X147064659Y-129156576D01*
X147075339Y-129152152D01*
X147076104Y-129152000D01*
X152643896Y-129152000D01*
X152644661Y-129152152D01*
G37*
G36*
X173472661Y-129152152D02*
G01*
X173483341Y-129156576D01*
X173484424Y-129157659D01*
X173488848Y-129168339D01*
X173489000Y-129169104D01*
X173489000Y-131688896D01*
X173488848Y-131689661D01*
X173484424Y-131700341D01*
X173483341Y-131701424D01*
X173472661Y-131705848D01*
X173471896Y-131706000D01*
X167904104Y-131706000D01*
X167903339Y-131705848D01*
X167892659Y-131701424D01*
X167891576Y-131700341D01*
X167890192Y-131697000D01*
X167896000Y-131697000D01*
X173480000Y-131697000D01*
X173480000Y-129161000D01*
X167896000Y-129161000D01*
X167896000Y-131697000D01*
X167890192Y-131697000D01*
X167887152Y-131689661D01*
X167887000Y-131688896D01*
X167887000Y-129169104D01*
X167887152Y-129168339D01*
X167891576Y-129157659D01*
X167892659Y-129156576D01*
X167903339Y-129152152D01*
X167904104Y-129152000D01*
X173471896Y-129152000D01*
X173472661Y-129152152D01*
G37*
G36*
X171694661Y-123310152D02*
G01*
X171705341Y-123314576D01*
X171706424Y-123315659D01*
X171710848Y-123326339D01*
X171711000Y-123327104D01*
X171711000Y-125846896D01*
X171710848Y-125847661D01*
X171706424Y-125858341D01*
X171705341Y-125859424D01*
X171694661Y-125863848D01*
X171693896Y-125864000D01*
X166126104Y-125864000D01*
X166125339Y-125863848D01*
X166114659Y-125859424D01*
X166113576Y-125858341D01*
X166112192Y-125855000D01*
X166118000Y-125855000D01*
X171702000Y-125855000D01*
X171702000Y-123319000D01*
X166118000Y-123319000D01*
X166118000Y-125855000D01*
X166112192Y-125855000D01*
X166109152Y-125847661D01*
X166109000Y-125846896D01*
X166109000Y-123327104D01*
X166109152Y-123326339D01*
X166113576Y-123315659D01*
X166114659Y-123314576D01*
X166125339Y-123310152D01*
X166126104Y-123310000D01*
X171693896Y-123310000D01*
X171694661Y-123310152D01*
G37*
G36*
X161280661Y-124199152D02*
G01*
X161291341Y-124203576D01*
X161292424Y-124204659D01*
X161296848Y-124215339D01*
X161297000Y-124216104D01*
X161297000Y-125846896D01*
X161296848Y-125847661D01*
X161292424Y-125858341D01*
X161291341Y-125859424D01*
X161280661Y-125863848D01*
X161279896Y-125864000D01*
X158125104Y-125864000D01*
X158124339Y-125863848D01*
X158113659Y-125859424D01*
X158112576Y-125858341D01*
X158111192Y-125855000D01*
X158117000Y-125855000D01*
X161288000Y-125855000D01*
X161288000Y-124208000D01*
X158117000Y-124208000D01*
X158117000Y-125855000D01*
X158111192Y-125855000D01*
X158108152Y-125847661D01*
X158108000Y-125846896D01*
X158108000Y-124216104D01*
X158108152Y-124215339D01*
X158112576Y-124204659D01*
X158113659Y-124203576D01*
X158124339Y-124199152D01*
X158125104Y-124199000D01*
X161279896Y-124199000D01*
X161280661Y-124199152D01*
G37*
G36*
X152771661Y-123310152D02*
G01*
X152782341Y-123314576D01*
X152783424Y-123315659D01*
X152787848Y-123326339D01*
X152788000Y-123327104D01*
X152788000Y-125846896D01*
X152787848Y-125847661D01*
X152783424Y-125858341D01*
X152782341Y-125859424D01*
X152771661Y-125863848D01*
X152770896Y-125864000D01*
X148600104Y-125864000D01*
X148599339Y-125863848D01*
X148588659Y-125859424D01*
X148587576Y-125858341D01*
X148583152Y-125847661D01*
X148583000Y-125846896D01*
X148583000Y-124135197D01*
X148568590Y-124100410D01*
X148533803Y-124086000D01*
X147330104Y-124086000D01*
X147329339Y-124085848D01*
X147318659Y-124081424D01*
X147317576Y-124080341D01*
X147316192Y-124077000D01*
X147322000Y-124077000D01*
X148590000Y-124077000D01*
X148591732Y-124078000D01*
X148592000Y-124079000D01*
X148592000Y-125855000D01*
X152779000Y-125855000D01*
X152779000Y-123319000D01*
X147322000Y-123319000D01*
X147322000Y-124077000D01*
X147316192Y-124077000D01*
X147313152Y-124069661D01*
X147313000Y-124068896D01*
X147313000Y-123327104D01*
X147313152Y-123326339D01*
X147317576Y-123315659D01*
X147318659Y-123314576D01*
X147329339Y-123310152D01*
X147330104Y-123310000D01*
X152770896Y-123310000D01*
X152771661Y-123310152D01*
G37*
G36*
X177835769Y-76394999D02*
G01*
X177835769Y-76396999D01*
X177834258Y-76397987D01*
X177834249Y-76397988D01*
X177834028Y-76398000D01*
X172939949Y-76398000D01*
X172938217Y-76397000D01*
X172938217Y-76395000D01*
X172939949Y-76394000D01*
X177834037Y-76393999D01*
X177835769Y-76394999D01*
G37*
G36*
X177835783Y-74420000D02*
G01*
X177835783Y-74422000D01*
X177834051Y-74423000D01*
X172939963Y-74423001D01*
X172938231Y-74422001D01*
X172938231Y-74420001D01*
X172939742Y-74419013D01*
X172939751Y-74419012D01*
X172939972Y-74419000D01*
X177834051Y-74419000D01*
X177835783Y-74420000D01*
G37*
G36*
X177835769Y-71119999D02*
G01*
X177835769Y-71121999D01*
X177834258Y-71122987D01*
X177834249Y-71122988D01*
X177834028Y-71123000D01*
X172939949Y-71123000D01*
X172938217Y-71122000D01*
X172938217Y-71120000D01*
X172939949Y-71119000D01*
X177834037Y-71118999D01*
X177835769Y-71119999D01*
G37*
G36*
X177835783Y-69145000D02*
G01*
X177835783Y-69147000D01*
X177834051Y-69148000D01*
X172939963Y-69148001D01*
X172938231Y-69147001D01*
X172938231Y-69145001D01*
X172939742Y-69144013D01*
X172939751Y-69144012D01*
X172939972Y-69144000D01*
X177834051Y-69144000D01*
X177835783Y-69145000D01*
G37*
G36*
X190490661Y-67049152D02*
G01*
X190501341Y-67053576D01*
X190502424Y-67054659D01*
X190506848Y-67065339D01*
X190507000Y-67066104D01*
X190507000Y-68950896D01*
X190506848Y-68951661D01*
X190502424Y-68962341D01*
X190501341Y-68963424D01*
X190490661Y-68967848D01*
X190489896Y-68968000D01*
X186065104Y-68968000D01*
X186064339Y-68967848D01*
X186053659Y-68963424D01*
X186052576Y-68962341D01*
X186051192Y-68959000D01*
X186057000Y-68959000D01*
X190498000Y-68959000D01*
X190498000Y-67058000D01*
X186057000Y-67058000D01*
X186057000Y-68959000D01*
X186051192Y-68959000D01*
X186048152Y-68951661D01*
X186048000Y-68950896D01*
X186048000Y-67066104D01*
X186048152Y-67065339D01*
X186052576Y-67054659D01*
X186053659Y-67053576D01*
X186064339Y-67049152D01*
X186065104Y-67049000D01*
X190489896Y-67049000D01*
X190490661Y-67049152D01*
G37*
M02*
