M48
; DRILL file {KiCad (6.0.5)} date Mon Aug 15 13:01:03 2022
; FORMAT={2:4/ absolute / inch / suppress leading zeros}
; #@! TF.CreationDate,2022-08-15T13:01:03-04:00
; #@! TF.GenerationSoftware,Kicad,Pcbnew,(6.0.5)
; #@! TF.FileFunction,Plated,1,4,PTH
FMAT,2
INCH,TZ
; #@! TA.AperFunction,Plated,PTH,ViaDrill
T1C0.0100
; #@! TA.AperFunction,Plated,PTH,ComponentDrill
T2C0.0100
; #@! TA.AperFunction,Plated,PTH,ComponentDrill
T3C0.0236
; #@! TA.AperFunction,Plated,PTH,ComponentDrill
T4C0.0315
; #@! TA.AperFunction,Plated,PTH,ComponentDrill
T5C0.0335
; #@! TA.AperFunction,Plated,PTH,ComponentDrill
T6C0.0354
; #@! TA.AperFunction,Plated,PTH,ComponentDrill
T7C0.0394
; #@! TA.AperFunction,Plated,PTH,ComponentDrill
T8C0.0591
; #@! TA.AperFunction,Plated,PTH,ComponentDrill
T9C0.0669
; #@! TA.AperFunction,Plated,PTH,ComponentDrill
T10C0.0866
; #@! TA.AperFunction,Plated,PTH,ComponentDrill
T11C0.1260
%
G90
G05
T1
X42000Y-48150
X42000Y-48800
X42000Y-49400
X42000Y-50000
X42000Y-50600
X42000Y-51200
X42000Y-51800
X42000Y-52400
X42000Y-53000
X42000Y-53600
X42000Y-54200
X42100Y-47450
X42150Y-54800
X42700Y-47450
X42750Y-23000
X42750Y-54800
X42998Y-51900
X43000Y-46750
X43000Y-48150
X43050Y-54000
X43300Y-47450
X43350Y-54800
X43488Y-41230
X43700Y-52400
X43795Y-42800
X43795Y-43400
X43900Y-47450
X43950Y-54800
X44348Y-50450
X44348Y-50750
X44348Y-51350
X44350Y-51000
X44500Y-47450
X44709Y-53455
X44810Y-48100
X44810Y-48748
X44900Y-50200
X45109Y-47459
X45200Y-49800
X45250Y-50750
X45250Y-51150
X45250Y-51550
X45358Y-53809
X45450Y-49750
X45654Y-52451
X45698Y-49900
X45698Y-50750
X45698Y-51150
X45700Y-47450
X45700Y-51550
X45850Y-56750
X45890Y-52451
X45900Y-54800
X45901Y-46851
X45949Y-54104
X46150Y-50750
X46150Y-51150
X46150Y-51550
X46300Y-47450
X46500Y-54800
X46559Y-54281
X46800Y-38450
X46850Y-43200
X46900Y-28050
X46900Y-46850
X46900Y-47450
X46950Y-33350
X47048Y-50750
X47050Y-51550
X47100Y-54800
X47150Y-54281
X47327Y-49203
X47500Y-47450
X47598Y-49000
X47598Y-50250
X47598Y-52250
X47600Y-34200
X47700Y-54800
X47710Y-40850
X47850Y-32150
X47950Y-37050
X48000Y-29800
X48000Y-30400
X48100Y-47450
X48183Y-52697
X48198Y-49000
X48198Y-50250
X48198Y-52250
X48300Y-54800
X48400Y-29500
X48648Y-53300
X48700Y-47450
X48750Y-31000
X48750Y-31600
X48850Y-32150
X48900Y-54800
X49498Y-53800
X49500Y-54800
X49800Y-32545
X50100Y-28950
X50100Y-29350
X50100Y-32545
X50100Y-54800
X50197Y-46171
X50300Y-50550
X50575Y-46750
X50598Y-52250
X50600Y-40600
X50700Y-54800
X50798Y-49000
X50866Y-45671
X50950Y-38350
X51050Y-47450
X51198Y-52250
X51300Y-54800
X51332Y-30768
X51332Y-31068
X51398Y-49000
X51500Y-50550
X51550Y-40950
X51650Y-47450
X51900Y-54800
X51929Y-46695
X52200Y-37550
X52200Y-40700
X52200Y-42050
X52250Y-47450
X52252Y-45652
X52299Y-46148
X52450Y-44100
X52500Y-54800
X52648Y-52050
X52700Y-42115
X52850Y-47450
X53098Y-52050
X53100Y-54800
X53150Y-41400
X53150Y-50100
X53375Y-31418
X53400Y-28350
X53425Y-28600
X53425Y-28825
X53425Y-29125
X53450Y-38600
X53450Y-43750
X53450Y-47450
X53450Y-50100
X53450Y-50700
X53650Y-39750
X53675Y-31418
X53700Y-54800
X53800Y-35750
X53850Y-39550
X54050Y-47450
X54250Y-39600
X54300Y-40150
X54300Y-54800
X54350Y-44400
X54400Y-41950
X54450Y-36700
X54630Y-39606
X54650Y-41950
X54750Y-47450
X54900Y-54800
X55000Y-51350
X55029Y-38650
X55100Y-39800
X55100Y-49050
X55200Y-35250
X55200Y-50100
X55200Y-50700
X55214Y-42888
X55300Y-48700
X55300Y-49400
X55300Y-51700
X55350Y-47450
X55494Y-44598
X55500Y-40900
X55500Y-43200
X55500Y-54800
X55631Y-33499
X55700Y-36850
X55800Y-35250
X55900Y-47450
X55900Y-48150
X55900Y-48700
X55900Y-49400
X55900Y-50250
X55900Y-51000
X55900Y-51700
X55900Y-52450
X55961Y-43250
X55976Y-32450
X56000Y-42200
X56100Y-39450
X56276Y-32450
X56500Y-28900
X56500Y-48700
X56500Y-49400
X56500Y-51000
X56500Y-51700
X56550Y-29400
X56600Y-39500
X56750Y-43550
X56750Y-44500
X56852Y-42330
X57100Y-36550
X57100Y-48700
X57100Y-49400
X57100Y-51000
X57100Y-51700
X57150Y-45700
X57150Y-46300
X57150Y-46900
X57150Y-47500
X57150Y-48100
X57150Y-50200
X57200Y-45000
X57400Y-52350
X57700Y-30750
X57700Y-31050
X57700Y-43400
X57700Y-48800
X57700Y-51350
X57800Y-40100
X57800Y-45000
X57858Y-50197
X57950Y-42800
X58000Y-51000
X58000Y-51700
X58000Y-52350
X58150Y-43000
X58200Y-48700
X58209Y-36959
X58250Y-50200
X58400Y-45000
X58600Y-51000
X58600Y-51700
X58600Y-52350
X58800Y-48700
X58800Y-49400
X58950Y-43750
X59000Y-40100
X59000Y-41050
X59000Y-45000
X59200Y-51000
X59200Y-51700
X59200Y-52350
X59350Y-38900
X59350Y-39400
X59400Y-38400
X59400Y-48700
X59400Y-49400
X59592Y-27879
X59600Y-44300
X59600Y-45000
X59729Y-28379
X59729Y-28779
X59729Y-29079
X59800Y-51000
X59800Y-51700
X59809Y-31406
X60000Y-48700
X60000Y-49400
X60109Y-31406
X60200Y-45000
X60250Y-46739
X60400Y-51000
X60400Y-51700
X60594Y-47963
X60594Y-48238
X60594Y-48514
X60750Y-45950
X60800Y-45000
X61000Y-51000
X61000Y-51700
X61146Y-49450
X61150Y-52350
X61187Y-46739
X61400Y-45000
X61600Y-51000
X61600Y-51700
X61650Y-45950
X61697Y-48514
X61700Y-47963
X61700Y-48238
X61750Y-52350
X62000Y-45000
X62100Y-48700
X62100Y-49400
X62200Y-51000
X62200Y-51700
X62350Y-52350
X62400Y-44059
X62400Y-47100
X62700Y-48700
X62700Y-49400
X62800Y-45000
X62800Y-51000
X62800Y-51700
X62950Y-52350
X63300Y-49400
X63330Y-44240
X63330Y-45700
X63400Y-51000
X63400Y-51700
X63450Y-38400
X63550Y-52350
X63670Y-44240
X63670Y-45700
X63820Y-33480
X63850Y-42300
X63900Y-49400
X64000Y-51000
X64000Y-51700
X64010Y-44240
X64010Y-45700
X64150Y-52350
X64350Y-43000
X64400Y-48700
X64500Y-49400
X64600Y-51000
X64600Y-51700
X64700Y-43050
X64750Y-52350
X65000Y-36250
X65000Y-48700
X65100Y-49750
X65200Y-51000
X65200Y-51700
X65250Y-47200
X65350Y-52350
X65405Y-35650
X65600Y-35050
X65600Y-42150
X65600Y-48700
X65600Y-49400
X65800Y-29200
X65800Y-51000
X65800Y-51700
X65944Y-48123
X65950Y-52350
X66050Y-43200
X66150Y-36900
X66150Y-45000
X66200Y-33950
X66200Y-48700
X66200Y-49400
X66400Y-51000
X66400Y-51700
X66550Y-52350
X66600Y-37600
X66750Y-45000
X66800Y-48700
X66800Y-49400
X67000Y-51000
X67000Y-51700
X67050Y-35000
X67150Y-52350
X67250Y-37950
X67350Y-45000
X67400Y-48700
X67400Y-49400
X67600Y-51000
X67600Y-51700
X67750Y-52350
X67850Y-38550
X67950Y-45000
X67950Y-48400
X68000Y-49400
X68200Y-51000
X68200Y-51700
X68350Y-52350
X68550Y-45000
X68600Y-50000
X68600Y-50600
X68800Y-31000
X68850Y-49300
X68921Y-28222
X68950Y-52350
X69050Y-48650
X69150Y-45000
X69236Y-28219
X69350Y-50750
X69450Y-31350
X69450Y-31600
X69450Y-31850
X69450Y-47800
X69550Y-52350
X69555Y-28215
X69600Y-33100
X69800Y-47850
X69800Y-50700
X69850Y-45000
X70150Y-52350
X70350Y-48700
X70450Y-45000
X70510Y-35340
X70565Y-36210
X70566Y-37050
X70750Y-52350
X70791Y-43018
X70791Y-43348
X70791Y-43691
X70835Y-40514
X70835Y-40852
X70835Y-41195
X71050Y-45050
X71050Y-45650
X71050Y-46250
X71050Y-46850
X71050Y-47450
X71050Y-48050
X71050Y-49250
X71050Y-49850
X71050Y-50450
X71600Y-48400
X71600Y-49000
X72200Y-48400
X72200Y-49000
X72220Y-30450
X72650Y-29050
X72750Y-56750
X72800Y-48400
X72800Y-49000
X73100Y-30400
X73400Y-48400
X73400Y-49000
X73650Y-27600
X73800Y-30400
X74000Y-25250
X74000Y-27600
X74300Y-27600
X74550Y-30400
T2
X67531Y-35534
X67531Y-35986
X67954Y-35534
X67954Y-35986
X68377Y-35534
X68377Y-35986
T5
X43882Y-39734
X43882Y-41703
T6
X44812Y-44408
X44812Y-45408
T7
X47000Y-23004
X47000Y-24004
X47000Y-25004
X47000Y-26004
X48000Y-23000
X48000Y-24004
X48000Y-25000
X48000Y-26004
X48616Y-38238
X48648Y-40600
X48648Y-41600
X48648Y-42600
X49000Y-23000
X49000Y-24004
X49000Y-25000
X49000Y-26004
X49616Y-38238
X49648Y-40600
X49648Y-41600
X49648Y-42600
X50000Y-23000
X50000Y-24004
X50000Y-25000
X50000Y-26004
X51000Y-23000
X51000Y-24004
X51000Y-25000
X51000Y-26004
X52000Y-23000
X52000Y-24004
X52000Y-25000
X52000Y-26004
X53000Y-23000
X53000Y-24004
X53000Y-25000
X53000Y-26004
X54000Y-23000
X54000Y-24004
X54000Y-25000
X54000Y-26004
X55000Y-23000
X55000Y-24004
X55000Y-25000
X55000Y-26004
X56000Y-23000
X56000Y-24004
X56000Y-25000
X56000Y-26004
X57000Y-23000
X57000Y-24004
X57000Y-25000
X57000Y-26004
X58000Y-23000
X58000Y-24004
X58000Y-25000
X58000Y-26004
X59000Y-23000
X59000Y-24004
X59000Y-25000
X59000Y-26004
X60000Y-23000
X60000Y-24004
X60000Y-25000
X60000Y-26004
X61000Y-23000
X61000Y-24004
X61000Y-25000
X61000Y-26004
X62000Y-23000
X62000Y-24004
X62000Y-25000
X62000Y-26004
X63000Y-23000
X63000Y-24004
X63000Y-25000
X63000Y-26004
X64000Y-23000
X64000Y-24004
X64000Y-25000
X64000Y-26004
X65000Y-23000
X65000Y-24004
X65000Y-25000
X65000Y-26004
X66000Y-23000
X66000Y-24004
X66000Y-25000
X66000Y-26004
X67000Y-23000
X67000Y-24004
X67000Y-25000
X67000Y-26004
X68000Y-23000
X68000Y-24004
X68000Y-25000
X68000Y-26004
X69000Y-23000
X69000Y-24004
X69000Y-25000
X69000Y-26004
X70000Y-23000
X70000Y-24004
X70000Y-25000
X70000Y-26004
X71000Y-23000
X71000Y-24004
X71000Y-25000
X71000Y-26004
X72000Y-23000
X72000Y-24004
X72000Y-25000
X72000Y-26004
T8
X75150Y-48700
T9
X74150Y-47700
X74150Y-49700
X76150Y-47700
X76150Y-49700
T10
X55950Y-46200
X57150Y-53800
X72300Y-46200
X72300Y-53800
T11
X43500Y-56752
X45000Y-23000
X74000Y-23000
X75000Y-56752
T3
G00X42681Y-39341
M15
G01X42957Y-39341
M16
G05
G00X42957Y-42096
M15
G01X42681Y-42096
M16
G05
T4
G00X44756Y-54800
M15
G01X45150Y-54800
M16
G05
G00X49638Y-47438
M15
G01X50031Y-47438
M16
G05
G00X55858Y-53973
M15
G01X55858Y-53580
M16
G05
G00X59914Y-52370
M15
G01X60308Y-52370
M16
G05
G00X64796Y-45007
M15
G01X65190Y-45007
M16
G05
G00X71017Y-51543
M15
G01X71017Y-51149
M16
G05
T0
M30
