  0
SECTION
  2
HEADER
  9
$ANGBASE
  50
0.0
  9
$ANGDIR
  70
1
  9
$MEASUREMENT
  70
0
  0
ENDSEC
  0
SECTION
  2
TABLES
  0
TABLE
  2
LTYPE
  70
4
  0
LTYPE
  5
40F
  2
CONTINUOUS
  70
0
  3
Solid line
  72
65
  73
0
  40
0.0
  0
LTYPE
  5
410
  2
DASHDOT
 70
0
  3
Dash Dot ____ _ ____ _
 72
65
 73
4
 40
2.0
 49
1.25
 49
-0.25
 49
0.25
 49
-0.25
  0
LTYPE
  5
411
  2
DASHED
 70
0
  3
Dashed __ __ __ __ __
 72
65
 73
2
 40
0.75
 49
0.5
 49
-0.25
  0
LTYPE
  5
43B
  2
DOTTED
 70
0
  3
Dotted .  .  .  .
 72
65
 73
2
 40
0.2
 49
0.0
 49
-0.2
  0
ENDTAB
  0
TABLE
  2
STYLE
  70
4
  0
STYLE
  2
KICAD
  70
0
  40
0
  41
1
  42
1
  50
0
  71
0
  3
isocp.shx
  0
STYLE
  2
KICADB
  70
0
  40
0
  41
1
  42
1
  50
0
  71
0
  3
isocp.shx
  0
STYLE
  2
KICADI
  70
0
  40
0
  41
1
  42
1
  50
15
  71
0
  3
isocp.shx
  0
STYLE
  2
KICADBI
  70
0
  40
0
  41
1
  42
1
  50
15
  71
0
  3
isocp.shx
  0
ENDTAB
  0
TABLE
  2
LAYER
  70
1
  0
LAYER
  2
BLACK
  70
0
  62
7
  6
CONTINUOUS
  0
ENDTAB
  0
ENDSEC
  0
SECTION
  2
ENTITIES
0
LINE
8
BLACK
6
CONTINUOUS
10
7.6933070866141726
20
-5.5380826771653542
11
7.6933070866141726
21
-4.8130826771653545
0
LINE
8
BLACK
6
CONTINUOUS
10
4.0183070866141728
20
-5.6910229133858268
11
4.0183070866141728
21
-5.8735826771653539
0
LINE
8
BLACK
6
CONTINUOUS
10
4.1433070866141728
20
-5.8265826771653542
11
4.1433070866141728
21
-5.6910229133858268
0
ARC
8
BLACK
10
7.5758070866141729
20
-2.6205826771653542
40
0.0625
50
0.00000000
51
180.00000000
0
ARC
8
BLACK
10
6.3161889763779522
20
-2.1665826771653545
40
0.047
50
-90.00000000
51
-0.00000000
0
ARC
8
BLACK
10
4.1713070866141733
20
-4.3390826771653543
40
0.047
50
-78.33859365
51
-0.00000000
0
LINE
8
BLACK
6
CONTINUOUS
10
7.6463070866141729
20
-5.8735826771653539
11
6.4101889763779525
21
-5.8735826771653539
0
LINE
8
BLACK
6
CONTINUOUS
10
7.5133070866141729
20
-2.4205826771653545
11
7.5133070866141729
21
-2.1455826771653541
0
ARC
8
BLACK
10
7.7558070866141726
20
-3.6255826771653541
40
0.0625
50
-180.00000000
51
-0.00000000
0
LINE
8
BLACK
6
CONTINUOUS
10
4.0183070866141728
20
-2.0985826771653544
11
4.0183070866141728
21
-2.1455826771653541
0
LINE
8
BLACK
6
CONTINUOUS
10
6.3161889763779522
20
-2.2135826771653542
11
5.6101889763779527
21
-2.2135826771653542
0
ARC
8
BLACK
10
4.0808070866141728
20
-4.641022913385827
40
0.0625
50
-180.00000000
51
-0.00000000
0
ARC
8
BLACK
10
4.0808070866141728
20
-5.4910229133858266
40
0.0625
50
-180.00000000
51
-0.00000000
0
LINE
8
BLACK
6
CONTINUOUS
10
4.2201249212598428
20
-2.7701968503937007
11
4.218307086614173
21
-4.3390826771653543
0
ARC
8
BLACK
10
6.4101889763779525
20
-2.1455826771653541
40
0.047
50
90.00000000
51
180.00000000
0
LINE
8
BLACK
6
CONTINUOUS
10
4.0183070866141728
20
-2.0985826771653544
11
3.6433070866141732
21
-2.0985826771653544
0
LINE
8
BLACK
6
CONTINUOUS
10
3.6433070866141732
20
-2.0985826771653544
11
3.6433070866141732
21
-2.1455826771653541
0
ARC
8
BLACK
10
5.6101889763779527
20
-2.1665826771653545
40
0.047
50
-180.00000000
51
-90.00000000
0
ARC
8
BLACK
10
7.7558070866141726
20
-3.8130826771653541
40
0.0625
50
0.00000000
51
180.00000000
0
ARC
8
BLACK
10
7.5758070866141729
20
-2.4205826771653545
40
0.0625
50
-180.00000000
51
-0.00000000
0
LINE
8
BLACK
6
CONTINUOUS
10
7.6933070866141726
20
-3.6255826771653541
11
7.6933070866141726
21
-3.0505826771653544
0
ARC
8
BLACK
10
7.7558070866141726
20
-4.6130826771653544
40
0.0625
50
-180.00000000
51
-0.00000000
0
LINE
8
BLACK
6
CONTINUOUS
10
4.0183070866141728
20
-5.4910229133858266
11
4.0183070866141728
21
-4.8410229133858262
0
LINE
8
BLACK
6
CONTINUOUS
10
4.0183070866141728
20
-4.641022913385827
11
4.0199999999999996
21
-2.7651968503937008
0
ARC
8
BLACK
10
4.0808070866141728
20
-4.8410229133858262
40
0.0625
50
0.00000000
51
180.00000000
0
LINE
8
BLACK
6
CONTINUOUS
10
7.6933070866141726
20
-5.7255826771653542
11
7.6933070866141726
21
-5.8265826771653542
0
LINE
8
BLACK
6
CONTINUOUS
10
4.1425000000000001
20
-2.4926968503937008
11
4.1433070866141728
21
-2.4285229133858266
0
LINE
8
BLACK
6
CONTINUOUS
10
4.1433070866141728
20
-5.4910229133858266
11
4.1433070866141728
21
-4.8410229133858262
0
LINE
8
BLACK
6
CONTINUOUS
10
4.1903070866141734
20
-2.0985826771653544
11
5.5161889763779524
21
-2.0985826771653544
0
ARC
8
BLACK
10
4.0800000000000001
20
-2.4926968503937008
40
0.0625
50
-180.00000000
51
-0.00000000
0
ARC
8
BLACK
10
7.7002440944881885
20
-2.8166377952755903
40
0.0619373892303762
50
-180.51350678
51
-90.51148466
0
LINE
8
BLACK
6
CONTINUOUS
10
7.5133070866141729
20
-2.6205826771653542
11
7.5133070866141729
21
-2.9565826771653541
0
LINE
8
BLACK
6
CONTINUOUS
10
4.0183070866141728
20
-2.2160229133858267
11
4.0183070866141728
21
-2.1455826771653541
0
ARC
8
BLACK
10
7.7558070866141726
20
-5.7255826771653542
40
0.0625
50
0.00000000
51
180.00000000
0
ARC
8
BLACK
10
7.7558070866141726
20
-5.5380826771653542
40
0.0625
50
-180.00000000
51
-0.00000000
0
LINE
8
BLACK
6
CONTINUOUS
10
7.6383070866141729
20
-2.6205826771653542
11
7.6383070866141729
21
-2.8160826771653542
0
ARC
8
BLACK
10
4.1903070866141734
20
-5.8265826771653542
40
0.047
50
-180.00000000
51
-90.00000000
0
LINE
8
BLACK
6
CONTINUOUS
10
4.0175000000000001
20
-2.4926968503937008
11
4.0183070866141728
21
-2.4285229133858266
0
LINE
8
BLACK
6
CONTINUOUS
10
5.5161889763779524
20
-5.8735826771653539
11
4.1903070866141734
21
-5.8735826771653539
0
ARC
8
BLACK
10
5.6101889763779527
20
-5.8055826771653543
40
0.047
50
90.00000000
51
180.00000000
0
LINE
8
BLACK
6
CONTINUOUS
10
3.6433070866141732
20
-2.1455826771653541
11
3.6433070866141732
21
-5.8735826771653539
0
ARC
8
BLACK
10
6.4101889763779525
20
-5.8265826771653542
40
0.047
50
-180.00000000
51
-90.00000000
0
ARC
8
BLACK
10
5.5161889763779524
20
-2.1455826771653541
40
0.047
50
0.00000000
51
90.00000000
0
LINE
8
BLACK
6
CONTINUOUS
10
7.8183070866141726
20
-5.5380826771653542
11
7.8183070866141726
21
-4.8130826771653545
0
LINE
8
BLACK
6
CONTINUOUS
10
5.563188976377953
20
-2.1665826771653545
11
5.563188976377953
21
-2.1455826771653541
0
LINE
8
BLACK
6
CONTINUOUS
10
7.8183070866141726
20
-5.8735826771653539
11
8.1933070866141726
21
-5.8735826771653539
0
LINE
8
BLACK
6
CONTINUOUS
10
7.8183070866141726
20
-5.8735826771653539
11
7.8183070866141726
21
-5.7255826771653542
0
LINE
8
BLACK
6
CONTINUOUS
10
7.7558070866141726
20
-2.8784767322834646
11
7.6996911811023621
21
-2.8785727165354329
0
LINE
8
BLACK
6
CONTINUOUS
10
7.6463070866141729
20
-3.0035826771653542
11
7.5603070866141735
21
-3.0035826771653542
0
ARC
8
BLACK
10
4.0808070866141728
20
-5.6910229133858268
40
0.0625
50
0.00000000
51
180.00000000
0
LINE
8
BLACK
6
CONTINUOUS
10
6.4101889763779525
20
-2.0985826771653544
11
7.4663070866141732
21
-2.0985826771653544
0
LINE
8
BLACK
6
CONTINUOUS
10
4.1433070866141728
20
-2.2160229133858267
11
4.1433070866141728
21
-2.1455826771653541
0
ARC
8
BLACK
10
7.6463070866141729
20
-5.8265826771653542
40
0.047
50
-90.00000000
51
-0.00000000
0
LINE
8
BLACK
6
CONTINUOUS
10
4.0183070866141728
20
-5.8735826771653539
11
3.6433070866141732
21
-5.8735826771653539
0
LINE
8
BLACK
6
CONTINUOUS
10
6.3631889763779528
20
-2.1455826771653541
11
6.3631889763779528
21
-2.1665826771653545
0
ARC
8
BLACK
10
4.1903070866141734
20
-4.4311417322834643
40
0.0470000000053426
50
-258.33841903
51
-179.99913610
0
ARC
8
BLACK
10
7.4663070866141732
20
-2.1455826771653541
40
0.047
50
0.00000000
51
90.00000000
0
ARC
8
BLACK
10
4.0808070866141728
20
-2.2160229133858267
40
0.0625
50
-180.00000000
51
-0.00000000
0
LINE
8
BLACK
6
CONTINUOUS
10
5.6101889763779527
20
-5.7585826771653545
11
6.3161889763779522
21
-5.7585826771653545
0
LINE
8
BLACK
6
CONTINUOUS
10
5.563188976377953
20
-5.8265826771653542
11
5.563188976377953
21
-5.8055826771653543
0
LINE
8
BLACK
6
CONTINUOUS
10
6.3631889763779528
20
-5.8055826771653543
11
6.3631889763779528
21
-5.8265826771653542
0
LINE
8
BLACK
6
CONTINUOUS
10
7.8183070866141726
20
-3.6255826771653541
11
7.8183070866141726
21
-2.9409767322834646
0
ARC
8
BLACK
10
7.7558070866141726
20
-4.8130826771653545
40
0.0625
50
0.00000000
51
180.00000000
0
LINE
8
BLACK
6
CONTINUOUS
10
8.1933070866141726
20
-5.8735826771653539
11
8.1933070866141726
21
-2.0985826771653544
0
LINE
8
BLACK
6
CONTINUOUS
10
7.6933070866141726
20
-4.6130826771653544
11
7.6933070866141726
21
-3.8130826771653541
0
ARC
8
BLACK
10
5.5161889763779524
20
-5.8265826771653542
40
0.047
50
-90.00000000
51
-0.00000000
0
ARC
8
BLACK
10
4.1903070866141734
20
-2.1455826771653541
40
0.047
50
90.00000000
51
180.00000000
0
ARC
8
BLACK
10
6.3161889763779522
20
-5.8055826771653543
40
0.047
50
0.00000000
51
90.00000000
0
ARC
8
BLACK
10
7.6463070866141729
20
-3.0505826771653544
40
0.047
50
0.00000000
51
90.00000000
0
LINE
8
BLACK
6
CONTINUOUS
10
4.1433070866141728
20
-4.641022913385827
11
4.1433070866141728
21
-4.4311424409448819
0
LINE
8
BLACK
6
CONTINUOUS
10
7.6383070866141729
20
-2.0985826771653544
11
8.1933070866141726
21
-2.0985826771653544
0
LINE
8
BLACK
6
CONTINUOUS
10
7.6383070866141729
20
-2.1455826771653541
11
7.6383070866141729
21
-2.0985826771653544
0
LINE
8
BLACK
6
CONTINUOUS
10
7.8183070866141726
20
-4.6130826771653544
11
7.8183070866141726
21
-3.8130826771653541
0
ARC
8
BLACK
10
4.0808070866141728
20
-2.4285229133858266
40
0.0625
50
0.00000000
51
180.00000000
0
ARC
8
BLACK
10
4.1200000000000001
20
-2.7701968503937007
40
0.1001249219725039
50
0.00000000
51
177.13759477
0
LINE
8
BLACK
6
CONTINUOUS
10
7.6383070866141729
20
-2.1455826771653541
11
7.6383070866141729
21
-2.4205826771653545
0
ARC
8
BLACK
10
7.5603070866141735
20
-2.9565826771653541
40
0.047
50
-180.00000000
51
-90.00000000
0
ARC
8
BLACK
10
7.7558070866141726
20
-2.9409763779527558
40
0.0624996456692913
50
-0.00032483
51
90.00000000
0
LINE
8
BLACK
6
CONTINUOUS
10
3.7440066141732284
20
-6.0001511023622047
11
3.7440066141732284
21
-5.9214109448818899
0
LINE
8
BLACK
6
CONTINUOUS
10
3.7440066141732284
20
-5.9214109448818899
11
3.762754251968504
21
-5.9214109448818899
0
LINE
8
BLACK
6
CONTINUOUS
10
3.762754251968504
20
-5.9214109448818899
11
3.7740028740157481
21
-5.925160472440945
0
LINE
8
BLACK
6
CONTINUOUS
10
3.7740028740157481
20
-5.925160472440945
11
3.7815019291338583
21
-5.9326595275590552
0
LINE
8
BLACK
6
CONTINUOUS
10
3.7815019291338583
20
-5.9326595275590552
11
3.7852514566929134
21
-5.9401585826771655
0
LINE
8
BLACK
6
CONTINUOUS
10
3.7852514566929134
20
-5.9401585826771655
11
3.7890009842519685
21
-5.9551566929133859
0
LINE
8
BLACK
6
CONTINUOUS
10
3.7890009842519685
20
-5.9551566929133859
11
3.7890009842519685
21
-5.96640531496063
0
LINE
8
BLACK
6
CONTINUOUS
10
3.7890009842519685
20
-5.96640531496063
11
3.7852514566929134
21
-5.9814034251968504
0
LINE
8
BLACK
6
CONTINUOUS
10
3.7852514566929134
20
-5.9814034251968504
11
3.7815019291338583
21
-5.9889024803149606
0
LINE
8
BLACK
6
CONTINUOUS
10
3.7815019291338583
20
-5.9889024803149606
11
3.7740028740157481
21
-5.9964015748031496
0
LINE
8
BLACK
6
CONTINUOUS
10
3.7740028740157481
20
-5.9964015748031496
11
3.762754251968504
21
-6.0001511023622047
0
LINE
8
BLACK
6
CONTINUOUS
10
3.762754251968504
20
-6.0001511023622047
11
3.7440066141732284
21
-6.0001511023622047
0
LINE
8
BLACK
6
CONTINUOUS
10
3.8227467716535433
20
-6.0001511023622047
11
3.8227467716535433
21
-5.9476576377952757
0
LINE
8
BLACK
6
CONTINUOUS
10
3.8227467716535433
20
-5.9626557874015749
11
3.8264962992125984
21
-5.9551566929133859
0
LINE
8
BLACK
6
CONTINUOUS
10
3.8264962992125984
20
-5.9551566929133859
11
3.8302458267716535
21
-5.9514071653543308
0
LINE
8
BLACK
6
CONTINUOUS
10
3.8302458267716535
20
-5.9514071653543308
11
3.8377448818897637
21
-5.9476576377952757
0
LINE
8
BLACK
6
CONTINUOUS
10
3.8377448818897637
20
-5.9476576377952757
11
3.8452439763779527
21
-5.9476576377952757
0
LINE
8
BLACK
6
CONTINUOUS
10
3.8714906692913384
20
-6.0001511023622047
11
3.8714906692913384
21
-5.9476576377952757
0
LINE
8
BLACK
6
CONTINUOUS
10
3.8714906692913384
20
-5.9214109448818899
11
3.8677411417322833
21
-5.925160472440945
0
LINE
8
BLACK
6
CONTINUOUS
10
3.8677411417322833
20
-5.925160472440945
11
3.8714906692913384
21
-5.9289100000000001
0
LINE
8
BLACK
6
CONTINUOUS
10
3.8714906692913384
20
-5.9289100000000001
11
3.8752401968503936
21
-5.925160472440945
0
LINE
8
BLACK
6
CONTINUOUS
10
3.8752401968503936
20
-5.925160472440945
11
3.8714906692913384
21
-5.9214109448818899
0
LINE
8
BLACK
6
CONTINUOUS
10
3.8714906692913384
20
-5.9214109448818899
11
3.8714906692913384
21
-5.9289100000000001
0
LINE
8
BLACK
6
CONTINUOUS
10
3.9202345669291336
20
-6.0001511023622047
11
3.9127355118110234
21
-5.9964015748031496
0
LINE
8
BLACK
6
CONTINUOUS
10
3.9127355118110234
20
-5.9964015748031496
11
3.9089859842519683
21
-5.9889024803149606
0
LINE
8
BLACK
6
CONTINUOUS
10
3.9089859842519683
20
-5.9889024803149606
11
3.9089859842519683
21
-5.9214109448818899
0
LINE
8
BLACK
6
CONTINUOUS
10
3.9614794094488186
20
-6.0001511023622047
11
3.9539803543307084
21
-5.9964015748031496
0
LINE
8
BLACK
6
CONTINUOUS
10
3.9539803543307084
20
-5.9964015748031496
11
3.9502308267716533
21
-5.9889024803149606
0
LINE
8
BLACK
6
CONTINUOUS
10
3.9502308267716533
20
-5.9889024803149606
11
3.9502308267716533
21
-5.9214109448818899
0
LINE
8
BLACK
6
CONTINUOUS
10
4.0514681889763775
20
-6.0001511023622047
11
4.0514681889763775
21
-5.9214109448818899
0
LINE
8
BLACK
6
CONTINUOUS
10
4.0514681889763775
20
-5.9214109448818899
11
4.077714921259842
21
-5.9776538976377953
0
LINE
8
BLACK
6
CONTINUOUS
10
4.077714921259842
20
-5.9776538976377953
11
4.1039616141732287
21
-5.9214109448818899
0
LINE
8
BLACK
6
CONTINUOUS
10
4.1039616141732287
20
-5.9214109448818899
11
4.1039616141732287
21
-6.0001511023622047
0
LINE
8
BLACK
6
CONTINUOUS
10
4.1752027165354333
20
-6.0001511023622047
11
4.1752027165354333
21
-5.9589062598425198
0
LINE
8
BLACK
6
CONTINUOUS
10
4.1752027165354333
20
-5.9589062598425198
11
4.1714531889763782
21
-5.9514071653543308
0
LINE
8
BLACK
6
CONTINUOUS
10
4.1714531889763782
20
-5.9514071653543308
11
4.163954133858268
21
-5.9476576377952757
0
LINE
8
BLACK
6
CONTINUOUS
10
4.163954133858268
20
-5.9476576377952757
11
4.1489559842519688
21
-5.9476576377952757
0
LINE
8
BLACK
6
CONTINUOUS
10
4.1489559842519688
20
-5.9476576377952757
11
4.1414569291338585
21
-5.9514071653543308
0
LINE
8
BLACK
6
CONTINUOUS
10
4.1752027165354333
20
-5.9964015748031496
11
4.1677036614173231
21
-6.0001511023622047
0
LINE
8
BLACK
6
CONTINUOUS
10
4.1677036614173231
20
-6.0001511023622047
11
4.1489559842519688
21
-6.0001511023622047
0
LINE
8
BLACK
6
CONTINUOUS
10
4.1489559842519688
20
-6.0001511023622047
11
4.1414569291338585
21
-5.9964015748031496
0
LINE
8
BLACK
6
CONTINUOUS
10
4.1414569291338585
20
-5.9964015748031496
11
4.1377074015748034
21
-5.9889024803149606
0
LINE
8
BLACK
6
CONTINUOUS
10
4.1377074015748034
20
-5.9889024803149606
11
4.1377074015748034
21
-5.9814034251968504
0
LINE
8
BLACK
6
CONTINUOUS
10
4.1377074015748034
20
-5.9814034251968504
11
4.1414569291338585
21
-5.9739043700787402
0
LINE
8
BLACK
6
CONTINUOUS
10
4.1414569291338585
20
-5.9739043700787402
11
4.1489559842519688
21
-5.9701548425196851
0
LINE
8
BLACK
6
CONTINUOUS
10
4.1489559842519688
20
-5.9701548425196851
11
4.1677036614173231
21
-5.9701548425196851
0
LINE
8
BLACK
6
CONTINUOUS
10
4.1677036614173231
20
-5.9701548425196851
11
4.1752027165354333
21
-5.96640531496063
0
LINE
8
BLACK
6
CONTINUOUS
10
4.2126980314960631
20
-5.9476576377952757
11
4.2126980314960631
21
-6.0263977952755905
0
LINE
8
BLACK
6
CONTINUOUS
10
4.2126980314960631
20
-5.9514071653543308
11
4.2201970866141734
21
-5.9476576377952757
0
LINE
8
BLACK
6
CONTINUOUS
10
4.2201970866141734
20
-5.9476576377952757
11
4.2351952362204726
21
-5.9476576377952757
0
LINE
8
BLACK
6
CONTINUOUS
10
4.2351952362204726
20
-5.9476576377952757
11
4.2426942913385828
21
-5.9514071653543308
0
LINE
8
BLACK
6
CONTINUOUS
10
4.2426942913385828
20
-5.9514071653543308
11
4.2464438188976379
21
-5.9551566929133859
0
LINE
8
BLACK
6
CONTINUOUS
10
4.2464438188976379
20
-5.9551566929133859
11
4.250193346456693
21
-5.9626557874015749
0
LINE
8
BLACK
6
CONTINUOUS
10
4.250193346456693
20
-5.9626557874015749
11
4.250193346456693
21
-5.9851529527559055
0
LINE
8
BLACK
6
CONTINUOUS
10
4.250193346456693
20
-5.9851529527559055
11
4.2464438188976379
21
-5.9926520078740158
0
LINE
8
BLACK
6
CONTINUOUS
10
4.2464438188976379
20
-5.9926520078740158
11
4.2426942913385828
21
-5.9964015748031496
0
LINE
8
BLACK
6
CONTINUOUS
10
4.2426942913385828
20
-5.9964015748031496
11
4.2351952362204726
21
-6.0001511023622047
0
LINE
8
BLACK
6
CONTINUOUS
10
4.2351952362204726
20
-6.0001511023622047
11
4.2201970866141734
21
-6.0001511023622047
0
LINE
8
BLACK
6
CONTINUOUS
10
4.2201970866141734
20
-6.0001511023622047
11
4.2126980314960631
21
-5.9964015748031496
0
LINE
8
BLACK
6
CONTINUOUS
10
4.2839391338582677
20
-5.9926520078740158
11
4.2876886614173229
21
-5.9964015748031496
0
LINE
8
BLACK
6
CONTINUOUS
10
4.2876886614173229
20
-5.9964015748031496
11
4.2839391338582677
21
-6.0001511023622047
0
LINE
8
BLACK
6
CONTINUOUS
10
4.2839391338582677
20
-6.0001511023622047
11
4.2801896062992126
21
-5.9964015748031496
0
LINE
8
BLACK
6
CONTINUOUS
10
4.2801896062992126
20
-5.9964015748031496
11
4.2839391338582677
21
-5.9926520078740158
0
LINE
8
BLACK
6
CONTINUOUS
10
4.2839391338582677
20
-5.9926520078740158
11
4.2839391338582677
21
-6.0001511023622047
0
LINE
8
BLACK
6
CONTINUOUS
10
4.2839391338582677
20
-5.9514071653543308
11
4.2876886614173229
21
-5.9551566929133859
0
LINE
8
BLACK
6
CONTINUOUS
10
4.2876886614173229
20
-5.9551566929133859
11
4.2839391338582677
21
-5.9589062598425198
0
LINE
8
BLACK
6
CONTINUOUS
10
4.2839391338582677
20
-5.9589062598425198
11
4.2801896062992126
21
-5.9551566929133859
0
LINE
8
BLACK
6
CONTINUOUS
10
4.2801896062992126
20
-5.9551566929133859
11
4.2839391338582677
21
-5.9514071653543308
0
LINE
8
BLACK
6
CONTINUOUS
10
4.2839391338582677
20
-5.9514071653543308
11
4.2839391338582677
21
-5.9589062598425198
  0
ENDSEC
  0
EOF
